<?xml version="1.0" encoding="utf-8"?>
<!-- Generator: Adobe Illustrator 16.0.0, SVG Export Plug-In . SVG Version: 6.00 Build 0)  -->
<!DOCTYPE svg PUBLIC "-//W3C//DTD SVG 1.1//EN" "http://www.w3.org/Graphics/SVG/1.1/DTD/svg11.dtd">
<svg version="1.1" id="Layer_1" xmlns="http://www.w3.org/2000/svg" xmlns:xlink="http://www.w3.org/1999/xlink" x="0px" y="0px"
	 width="19.2px" height="19.2px" viewBox="0 0 19.2 19.2" style="enable-background:new 0 0 19.2 19.2;" xml:space="preserve">
<style type="text/css">
<![CDATA[
	.st0{fill:#FFFFFF;}
	.st1{fill-rule:evenodd;clip-rule:evenodd;fill:#2E2E2E;}
	.st2{fill-rule:evenodd;clip-rule:evenodd;fill:#FFFFFF;}
]]>
</style>
<path class="st2" d="M14.7,4.4c-1.3-1.3-3.1-2.1-5.2-2.1S5.7,3.1,4.4,4.4C3.1,5.7,2.3,7.6,2.3,9.6c0,2,0.8,3.8,2.1,5.2
	c1.3,1.3,3.1,2.1,5.2,2.1s3.8-0.8,5.2-2.1c1.3-1.3,2.1-3.1,2.1-5.2C16.9,7.6,16.1,5.7,14.7,4.4z M4.3,14.5
	C4.2,14.4,4.2,14.4,4.3,14.5c-0.1-0.1-0.2-0.2-0.2-0.2c0,0-0.1-0.1-0.1-0.1c0-0.1-0.1-0.1-0.1-0.2c0,0,0-0.1-0.1-0.1c0,0,0,0,0,0
	c0,0,0,0,0,0c-0.9-1.2-1.4-2.7-1.4-4.3c0-2,0.8-3.8,2.1-5.1c1.3-1.3,3.1-2.1,5.1-2.1h0c0,0,0,0,0,0c0,0,0,0,0,0
	c2.6,0.4,5.8,2.4,5.8,5.8c0,3.5-3.4,6.4-6.2,6.4v1.3c-1.2,0-4-2.3-4.4-3.6c0.4-1.9,3.2-3.5,4.4-3.5v1.4c1.2,0,3.9-1.5,4.4-3.4
	C13,5.4,10.3,3.2,9.1,3.2v1.3c-2.8,0-6.3,2.8-6.3,6.4c0.1,1.2,0.4,2.2,1,3c0,0,0,0,0,0c0,0,0,0.1,0.1,0.1c0,0.1,0.1,0.1,0.1,0.2
	c0,0,0.1,0.1,0.1,0.1C4.1,14.3,4.2,14.3,4.3,14.5C4.2,14.4,4.2,14.4,4.3,14.5c0.1,0.1,0.1,0.2,0.2,0.2C4.4,14.6,4.3,14.5,4.3,14.5z"
	/>
</svg>
