<?xml version="1.0" encoding="utf-8"?>
<!-- Generator: Adobe Illustrator 16.0.0, SVG Export Plug-In . SVG Version: 6.00 Build 0)  -->
<!DOCTYPE svg PUBLIC "-//W3C//DTD SVG 1.1//EN" "http://www.w3.org/Graphics/SVG/1.1/DTD/svg11.dtd">
<svg version="1.1" id="simbolos" xmlns="http://www.w3.org/2000/svg" xmlns:xlink="http://www.w3.org/1999/xlink" x="0px" y="0px"
	 width="152px" height="150px" viewBox="0 0 152 150" style="enable-background:new 0 0 152 150;" xml:space="preserve">
<style type="text/css">
<![CDATA[
	.st0{fill:none;stroke:#FFFFFF;stroke-width:1.2239;stroke-miterlimit:10;}
	.st1{clip-path:url(#SVGID_2_);fill:#FFFFFF;}
	.st2{fill:none;stroke:#FFFFFF;stroke-width:1.1244;stroke-miterlimit:10;}
]]>
</style>
<g>
	<circle class="st2" cx="76" cy="75" r="67.8"/>
	<circle class="st0" cx="76" cy="75" r="73.8"/>
</g>
<g>
	<defs>
		<circle id="SVGID_1_" cx="76" cy="75" r="67.8"/>
	</defs>
	<clipPath id="SVGID_2_">
		<use xlink:href="#SVGID_1_"  style="overflow:visible;"/>
	</clipPath>
	<path class="st1" d="M143.8,75c0-37.4-30.4-67.8-67.8-67.8S8.2,37.6,8.2,75c0,37.4,30.4,67.8,67.8,67.8S143.8,112.4,143.8,75z
		 M87.1,67.5c0.4,0,0.9-0.1,1.3-0.1c0.5,0,1-0.1,1.5-0.1c1.9,0,3.3,0.5,4.3,1.4c1,0.9,1.5,2.4,1.5,4.2c0,1.9-0.5,3.3-1.5,4.2
		c-1,0.9-2.5,1.3-4.5,1.3c-0.5,0-1,0-1.4-0.1c-0.4,0-0.9-0.1-1.3-0.1V67.5z M89.3,69.3c0.1,0,0.3,0,0.5,0c0.2,0,0.3,0,0.5,0
		c0.4,0,0.8,0.1,1.2,0.2c0.4,0.1,0.7,0.3,1,0.6c0.3,0.3,0.5,0.7,0.7,1.1c0.2,0.5,0.3,1.1,0.3,1.8c0,0.7-0.1,1.3-0.3,1.8
		c-0.2,0.5-0.4,0.8-0.7,1.1c-0.3,0.3-0.6,0.5-1,0.6c-0.4,0.1-0.8,0.2-1.3,0.2c-0.2,0-0.4,0-0.5,0c-0.1,0-0.3,0-0.3,0V69.3z
		 M97.5,67.5c0.4-0.1,0.7-0.1,1.1-0.1c0.4,0,0.7,0,1.1,0.1v10.8c-0.4,0.1-0.7,0.1-1.1,0.1c-0.4,0-0.7,0-1.1-0.1V67.5z M109,76.3
		c0.1,0.3,0.2,0.6,0.3,0.9c0.1,0.3,0.1,0.6,0.2,0.9c-0.5,0.2-1,0.3-1.4,0.4s-0.9,0.1-1.3,0.1c-0.9,0-1.6-0.1-2.2-0.4
		c-0.6-0.3-1.2-0.7-1.6-1.2c-0.4-0.5-0.8-1.1-1-1.8c-0.2-0.7-0.3-1.4-0.3-2.2c0-0.8,0.1-1.5,0.3-2.2c0.2-0.7,0.6-1.3,1-1.8
		c0.4-0.5,1-0.9,1.6-1.2s1.4-0.4,2.2-0.4c0.5,0,0.9,0,1.3,0.1s0.8,0.2,1.3,0.4c0,0.3-0.1,0.6-0.2,0.9c-0.1,0.3-0.2,0.6-0.3,0.9
		c-0.4-0.1-0.7-0.2-0.9-0.3c-0.3,0-0.6-0.1-1-0.1c-1,0-1.7,0.3-2.2,0.9c-0.5,0.6-0.8,1.6-0.8,2.8c0,2.4,1,3.7,3.1,3.7
		c0.4,0,0.7,0,1-0.1C108.3,76.5,108.6,76.4,109,76.3z M113.6,67.5c0.2,0,0.4-0.1,0.6-0.1c0.2,0,0.4,0,0.6,0c0.2,0,0.4,0,0.6,0
		c0.2,0,0.4,0,0.6,0.1l3.4,10.8c-0.4,0.1-0.8,0.1-1.2,0.1c-0.4,0-0.8,0-1.1-0.1l-0.6-2.2H113l-0.6,2.2c-0.4,0.1-0.7,0.1-1,0.1
		c-0.4,0-0.7,0-1.1-0.1L113.6,67.5z M113.5,74.4l1.3-4.5l1.2,4.5H113.5z M122.6,73.3c-0.3-0.1-0.6-0.3-0.9-0.4
		c-0.3-0.2-0.5-0.3-0.7-0.6c-0.2-0.2-0.3-0.5-0.4-0.8c-0.1-0.3-0.2-0.7-0.2-1.1c0-0.5,0.1-1,0.3-1.4c0.2-0.4,0.4-0.7,0.7-1
		c0.3-0.3,0.7-0.5,1.2-0.6c0.5-0.1,1-0.2,1.5-0.2c0.5,0,1,0,1.4,0.1c0.4,0.1,0.9,0.2,1.4,0.4c-0.1,0.6-0.2,1.1-0.5,1.7
		c-0.1-0.1-0.3-0.1-0.5-0.2c-0.2-0.1-0.3-0.1-0.5-0.1c-0.2,0-0.4-0.1-0.6-0.1c-0.2,0-0.5,0-0.8,0c-0.2,0-0.3,0-0.5,0
		c-0.2,0-0.3,0.1-0.5,0.2c-0.1,0.1-0.3,0.2-0.3,0.4c-0.1,0.2-0.1,0.4-0.1,0.6c0,0.2,0,0.4,0.1,0.5c0.1,0.1,0.2,0.2,0.3,0.3
		c0.1,0.1,0.3,0.2,0.4,0.2c0.1,0.1,0.3,0.1,0.5,0.2l0.9,0.3c0.4,0.1,0.7,0.3,1,0.5c0.3,0.2,0.6,0.4,0.8,0.6c0.2,0.2,0.4,0.5,0.5,0.9
		c0.1,0.3,0.2,0.7,0.2,1.2c0,0.5-0.1,1-0.3,1.4c-0.2,0.4-0.5,0.8-0.8,1.1c-0.3,0.3-0.8,0.5-1.3,0.7c-0.5,0.2-1.1,0.3-1.8,0.3
		c-0.3,0-0.6,0-0.9,0c-0.3,0-0.5-0.1-0.7-0.1c-0.2,0-0.5-0.1-0.7-0.2c-0.2-0.1-0.5-0.2-0.7-0.3c0-0.3,0.1-0.6,0.2-0.9
		c0.1-0.3,0.2-0.6,0.3-1c0.4,0.2,0.8,0.3,1.2,0.4s0.8,0.1,1.2,0.1c0.6,0,1.1-0.1,1.5-0.4c0.4-0.2,0.5-0.6,0.5-1.1
		c0-0.2,0-0.4-0.1-0.6c-0.1-0.2-0.2-0.3-0.3-0.4c-0.1-0.1-0.3-0.2-0.5-0.3c-0.2-0.1-0.3-0.1-0.5-0.2L122.6,73.3z M310.7,105.8
		c0,32,0,63.9,0,95.9c-111.3,0-222.5,0-333.8,0c0-30.1,0-60.2,0-90.3c0.3,0.3,0.5,0.5,0.8,0.8c0.3-0.1,0.3-0.3,0.2-0.5
		c-0.2-0.5-0.4-1-0.7-1.5c0-0.1-0.2-0.1-0.3-0.2c0-0.4,0-0.8,0-1.2c0.1,0.1,0.2,0.2,0.3,0.3c0.3,0.6,0.6,1.2,0.9,1.9
		c0.1,0.2,0.2,0.4,0.4,0.6c0.1,0,0.1,0,0.2-0.1c0-1.3-0.5-2.6-0.6-3.9c0.4,0.9,0.5,2,1.1,2.9c0-0.7,0-1.4,0-2.1c0,0,0.1,0,0.1,0
		c0.1,0.7,0.1,1.4,0.2,2.2c0.2-0.4,0.4-0.7,0.5-1c0,0,0,0,0,0c0,0.4-0.1,0.8-0.1,1.3c0.3-0.1,0.5-0.2,0.4-0.5
		c-0.1-0.3-0.2-0.6-0.3-0.8c0,0,0,0,0,0s0,0,0,0c0,0,0,0,0,0c-0.3-0.6-0.4-1.2-0.6-1.9c-0.2-0.6-0.3-1.3-0.5-1.9
		c0.3,0.7,0.6,1.4,0.8,2.2c0.2,0.7,0.4,1.5,0.7,2.3c0.3-0.4,0.4-0.8,0.6-1.1c-0.1,0.4-0.2,0.9-0.2,1.4c0.2,0,0.4,0,0.7,0
		c-0.2-0.5,0-1.1-0.5-1.4c0-0.3,0.1-0.6,0.1-0.9c-0.1-0.5-0.2-1.1-0.3-1.6c-0.3-1.9-0.6-3.9-0.6-5.9c0.2,0.4,0.3,0.8,0.4,1.2
		c0.1,0.7,0.2,1.5,0.3,2.2c0.2,1.2,0.4,2.4,0.7,3.7c0.1-0.1,0.2-0.2,0.3-0.2c0,0,0,0,0,0c0,0,0,0,0,0c-0.3,0.7-0.1,1.4,0.2,2
		c0.1-0.6,0.1-1.1,0.1-1.7c0-0.2,0-0.4-0.3-0.3c0,0,0,0,0,0c0,0,0,0,0,0c0.3-0.4,0.4-0.8,0.5-1.3c0-0.4,0.1-0.9,0.2-1.3
		c0.2-0.8,0.3-1.6,0.7-2.3c-0.1,1.1-0.5,2.2-0.4,3.3c0.1,0,0.2-0.1,0.3-0.1c0,0,0,0,0.1,0c-0.5,0.7-0.5,0.7-0.5,1.6
		c-0.1,1.4-0.1,2.7-0.2,4.1c0,0.2,0,0.4,0,0.6c0.1,0,0.1,0,0.2,0c0.1-0.2,0.2-0.3,0.3-0.5c0.5-1.1,0.9-2.3,1.3-3.4
		c0.1-0.2,0.2-0.4,0.2-0.7c0.1-0.5,0-1,0.5-1.3c0.5-1.2,0.6-2.4,0.2-3.6c-0.1-0.2-0.1-0.3-0.1-0.5c-0.1-0.4,0-0.8-0.1-1.1
		c-0.2-0.8-0.5-1.7-0.8-2.5c-0.1-0.2-0.1-0.4-0.2-0.6c-0.1-0.2-0.1-0.4-0.1-0.6c0.9,2,1.3,4.1,2.5,6c0.1-0.5,0.1-0.9,0.2-1.4
		c0.3,0.3,0.3,0.1,0.4-0.1c0.5-1,0.9-2,1.4-3c0.1-0.2,0.2-0.3,0.2-0.5c0,0.2,0,0.4-0.1,0.5c-0.6,1.7-1.2,3.4-1.7,5.1
		c-0.1,0.3-0.3,0.6,0.1,0.9c0.2-0.4,0.4-0.9,0.6-1.3c0,0.8-0.6,1.5-0.2,2.3c-0.1,0-0.2,0-0.4-0.1c0.3,1.1,0.6,2.2,0.8,3.2
		c0.3-0.6,0.7-1.1,0.2-1.7c0.3,0.2,0.4,0,0.4-0.2c0.2-0.5,0.3-1,0.5-1.5c0,0.9-0.1,1.9-0.2,2.8c0,0.2-0.1,0.3-0.1,0.5
		c-0.1,0.7,0.1,1.3,0.4,1.8c0.2-0.6,0.4-1.2,0.6-1.8c0.1-0.6,0.1-1.2,0.2-1.8c0.3,0.3,0.6,0.6,0.9,0.9c0.1-0.3,0.1-0.5,0.1-0.7
		c0,0,0,0,0.1,0c0,0.3,0.1,0.5,0.1,0.8c0.3-0.3,0.3-0.7,0.2-1c-0.3-1.4-0.6-2.8-0.9-4.3c-0.1-0.6-0.2-1.3-0.3-1.9c0,0,0.1,0,0.1,0
		c0.4,1.4,0.9,2.9,1.4,4.4c0.1-0.1,0.2-0.2,0.2-0.3c0.1,0.5,0.2,1,0.4,1.5c0.1,0.3,0.1,0.8,0.4,0.9c0.5,0.2,0,0.7,0.3,0.9
		c0.1,0.1,0.2,0.4,0.3,0.5c0.2-0.5,0.3-1,0.4-1.4c0.4-1.3,0.8-2.7,0.8-4.1c0-0.4,0-0.7,0.1-1.1c0.1,0.1,0.1,0.2,0.1,0.4
		c0,1.2,0.1,2.3,0,3.5c0,0.8,0.4,1.3,1,1.7c0-0.4,0-0.6,0-1.1c0.4,1,0.5,2,1.1,2.8c0.4-0.7,0.7-1.2,0.9-1.8c0.3-0.6,0.5-1.2,0.7-1.8
		c0.2-0.6,0.4-1.2,0.6-1.8c0,0,0.1,0,0.1,0c-0.1,0.4-0.2,0.8-0.2,1.2c0,0,0.1,0,0.1,0c0.4-0.9,0.8-1.8,1.3-2.8c0,0.6-0.1,1-0.1,1.4
		c0.1,2,0.2,3.9,0.4,5.9c0,0.2,0.1,0.3,0.1,0.5c0.7-1.2,1.3-2.5,1.8-3.8c1-2.7,2.4-5.3,2.7-8.2c0,1.2-0.1,2.4-0.5,3.6
		c-0.5,1.5-1.1,3-1.6,4.5c-0.4,1.1-0.7,2.2-1,3.2c0,0,0.1,0,0.1,0.1c0.1-0.2,0.3-0.5,0.5-0.9c-0.1,0.7-0.4,1.2,0.1,1.8
		c0.5-0.5,1-1.1,1.6-1.5c0.7-0.6,1-1.2,0.7-2.1c0-0.1,0-0.2,0-0.3c0,0,0.1,0,0.1,0c0.1,0.3,0.2,0.6,0.3,0.9c0.1-0.2,0.2-0.3,0.3-0.5
		c0.1,0.1,0.1,0.3,0.2,0.5c0.4-0.4,0.8-0.7,1.2-1c0.4-0.3,0.7-0.7,1.1-1.1c0.3-0.3,0.5-0.8,0.9-1c-0.2,0.4-0.4,0.6-0.7,1
		c-0.3,0.4-0.5,0.9-0.8,1.3c-0.6,0.1-0.9,0.6-1.3,1c-0.6,0.5-0.6,0.9-0.1,1.6c0.4-0.3,0.6-0.7,1.1-0.9c-0.3,0.4-0.6,0.8-0.9,1.2
		c-0.1,0.2-0.1,0.4-0.1,0.6c0,0.1,0.2,0.2,0.3,0.3c-0.2,0.7,0.1,1.2,0.3,1.8c0.9-1.3,1.7-2.6,2.6-4c-0.2-0.2-0.5-0.5-0.8-0.7
		c-0.3-0.3-0.7-0.6-1-0.8c0.7,0.4,1.4,0.8,2.1,1.2c0.1-0.1,0.2-0.2,0.4-0.3c-0.2,0.6-0.1,0.7,0.2,0.8c0.1,0,0.3,0,0.3,0.1
		c0.2,0.4,0.6,0.5,1,0.8c0.2-0.5,0.5-0.9,0.7-1.3c0.2-0.4,0.3-0.8,0.2-1.2c-0.1-1.2-0.3-2.5-0.4-3.7c-0.1-0.5-0.1-1-0.1-1.5
		c0.3,0.8,0.4,1.6,0.5,2.4c0.1,0.6,0.2,1.2,0.2,1.8c0,0.6,0.6,0.9,0.4,1.5c0.7-1,0.7-1.9,0.3-3c0.1-0.1,0.2-0.1,0.2-0.2
		c0-1,0.1-2.1-0.3-3.1c-0.6-1.7-1.2-3.4-1.7-5.1c-0.3-0.9-0.5-1.7-0.7-2.6c0,0,0.1,0,0.1,0c0.2,0.6,0.4,1.1,0.7,1.7
		c0.5,1.4,1.1,2.9,1.6,4.3c0.1,0.1,0.2,0.3,0.3,0.5c0.1-2.8-0.2-5.4,0.1-8.1c0.2,2.9,0.3,5.8,0.4,8.7c0,1.1,0.6,1.9,1.1,3
		c0.7-1.2,1.2-2.1,1.8-3.2c0,0.2,0.1,0.2,0.1,0.3c-0.5,1-0.9,2-1.4,3c-0.1,0.2-0.2,0.5-0.2,0.7c0.3,0.8,0.6,1.5,0.9,2.3
		c0.1,0,0.1,0,0.2,0c0-0.8,0-1.5,0-2.3c0.2,0.9,0.2,1.7,0.3,2.6c0,0.2,0,0.4,0.4,0.4c0.1-0.6,0.3-1.2,0.4-1.8c0.3,0.5,0,1,0,1.5
		c0.9-1.5,0.9-1.6,0.7-2.8c0,0,0-0.1,0-0.1c0.1,0.2,0.2,0.3,0.3,0.5c0.3-0.5,0.3-0.5,0.1-0.8c-0.2-0.5-0.4-1-0.7-1.4
		c0.1,0,0.1-0.1,0.2-0.1c0.2,0.4,0.5,0.9,0.8,1.4c0.1-0.1,0.1-0.2,0.2-0.4c0.2,0.5-0.1,1,0.4,1.1c0.5-0.3,0.8-0.8,0.8-1.4
		c0.1-1.4,0.3-2.8,0.5-4.2c0.2-1.2,0.4-2.4,0.6-3.6c0.1,0.2,0.1,0.4,0.1,0.5c-0.1,0.9-0.3,1.8-0.1,2.7c0,0.1,0,0.3-0.1,0.4
		c-0.3,0.2-0.2,0.6-0.2,0.9c-0.1,1.4-0.2,2.8-0.3,4.2c0,0.5-0.2,1.1-0.1,1.6c0.2,1.1,0.6,2.3,0.9,3.4c0.2,0.6,0.3,1.1,0.8,1.6
		c0.2-1.2,0.4-2.4,0.6-3.5c0-0.1,0-0.3,0-0.4c-0.2-1.2-0.4-2.3-0.7-3.5c-0.2-0.8-0.4-1.6-0.5-2.5c0.1,0.2,0.3,0.3,0.3,0.5
		c0.3,1.3,0.6,2.5,0.9,3.8c0,0.2,0.1,0.3,0.1,0.5c0,0,0.1,0,0.1,0c0.4-1.6,0.7-3.3,1.1-4.9c0,1.1-0.2,2.1-0.2,3.2c0,0.3,0,0.7,0.1,1
		c0,0.5,0.2,0.9,0.1,1.4c0,0.4,0.2,0.8-0.1,1.3c-0.3,0.5-0.2,1.2-0.3,1.8c0,0.3,0.1,0.4,0.4,0.5c0-0.6,0.1-1.2,0.1-1.8
		c0,0,0.1,0,0.1,0c0,0.6,0.1,1.1,0.1,1.7c0.9-3.6,1.5-7.3,2.4-11c0,0.7-0.1,1.3-0.2,2c-0.2,2-0.8,4-0.8,6c0,0.6-0.1,1.1-0.1,1.7
		c0,0.2,0,0.4,0,0.7c0.7-0.4,1.3-0.8,1.5-1.6c0,0.2,0.1,0.5,0.1,0.9c0.8-0.9,1.8-1.4,2.1-2.5c0,0,0.1,0,0.1,0c0,0.1,0.1,0.2,0.1,0.3
		c0.7-0.6,1.3-1.2,1.9-1.8c1.1-0.8,1.8-1.8,2.1-3.1c0.1-0.3,0.3-0.6,0.4-0.9c0,0,0.1,0,0.1,0.1c-0.2,0.6-0.3,1.2-0.5,1.8
		c0,0,0.1,0.1,0.1,0.1c1.2-1.1,2.4-2.2,3.6-3.3c-0.2-3-0.4-5.3-0.5-6.3c-0.3-4,0.9-6.8,2.6-9.6c1.8-2.8,1.9-4.9,1.9-7.1
		c0-2.2,0.7-6.7,1.9-9.9c1.1-3,1.4-5.2,1.4-7.5c0-1.2-0.4-1.3-0.8-1.4C44,57.3,44,56.8,44,56.8s-0.2-12-0.2-13.5
		c0-1.5,1.2-1.9,1.2-1.9l10.6-0.9c0,0,1.3,0.2,1.5,1.7c0.2,1.5,2,13.3,2,13.3s0.1,0.5-0.3,0.7c-0.4,0.2-0.8,0.3-0.6,1.5
		c0.4,2.3,1.1,4.4,2.7,7.2c1.7,2.9,3.1,7.3,3.5,9.5c0.4,2.2,0.8,4.2,3,6.7c2.2,2.5,3.8,5.1,4.2,9.1c0.2,2.4,1.2,13.7,1.9,22.4
		c0,0,0,0,0,0c0.1-0.3,0.2-0.6,0.3-1c0.2,0.2,0.3,0.4,0.5,0.6c0.2-0.8,0.3-1.4,0.4-2c0.1,0.5,0.1,0.9,0,1.4c-0.1,0.5-0.1,1,0.3,1.3
		c0.3-0.1,0.6-0.2,0.9-0.3c0.1,0.8,0.8,0.9,1.2,1.4c0.2-0.4,0.4-0.7,0.6-1.1c0,0,0.1,0,0.1,0c-0.1,0.3-0.2,0.7-0.3,1.2
		c0.4-0.1,0.6-0.2,0.8-0.3c-0.1-0.2-0.1-0.3-0.2-0.5c0.2,0,0.6,0.1,0.7,0c0.5-0.5,1-0.2,1.7-0.4c-0.1,0.3-0.1,0.5-0.2,0.7
		c0.3,0.2,0.6,0.5,0.5,1c-0.1,0.2,0.5,0.5,0.8,0.4c0.1-0.5-0.1-1,0.1-1.6c0.2,0.7,0.4,1.2,0.5,1.8c0.1,0.3,0.3,0.2,0.5,0.2
		c-0.2-0.5,0.4-0.7,0.2-1.2c-0.1-0.4,0-1,0.1-1.5c0-0.5,0-0.9,0-1.4c0-0.5,0-0.9,0-1.4c0.2,1.2,0.1,2.4,0.5,3.5c0-0.4,0-0.8,0-1.2
		c0,0,0.1,0,0.1,0c0.2,0.6,0.4,1.2,0.6,1.8c1-0.1,0.6-1.3,1.4-1.5c0.3-0.6,0.7-1.2,1-1.8c0.1,0,0.1,0.1,0.2,0.1
		c-0.1,0.2-0.1,0.5-0.2,0.7c-0.2,0.4-0.5,0.8-0.7,1.3c-0.2,0.4-0.5,0.8-0.6,1.2c-0.2,0.4-0.2,0.8-0.6,1c-0.1,0,0,0.2,0,0.4
		c0.8-0.3,1.6-0.5,2.4-0.8c0.1,0,0.2-0.2,0.2-0.2c-0.3-0.4,0.1-0.6,0.3-0.6c0.8-0.1,1.4-0.6,2-1.1c0.3-0.2,0.6-0.5,1.1-0.5
		c-0.2,0.5-0.6,1.2-1,1.4c-0.2,0.1-0.3,0.2-0.2,0.5c0.1,0.2,0,0.3,0.1,0.5c0.3,0.2,0.5,0.4,0.8,0.7c0.1-0.2,0.1-0.3,0.2-0.5
		c-0.1-0.1-0.3-0.2-0.5-0.3c0.4,0,0.7-0.1,1-0.1c0.2-0.5,0.3-1,0.5-1.4c0.2-0.5,0.2-1,0.7-1.3c0.3,0.5,0.3,1.3,0.1,1.8
		c-0.1,0.4-0.2,0.7-0.2,1.1c0,0.4,0.1,0.8,0.2,1.1c0.1,0.2,0.1,0.4,0.5,0.3c0-1.7-0.3-3.4,0.3-5.1c0.1,0.2,0.2,0.4,0.2,0.5
		c0,0.5,0,0.9,0.1,1.4c0.1,0.6,0.1,1.2,0.7,1.6c0.1,0.1,0.1,0.3,0.1,0.4c0,0.3-0.1,0.6-0.2,0.9c-0.3,1-0.2,2.1,0.1,3.1
		c0,0,0.1,0,0.1,0.1c0.1-0.1,0.2-0.2,0.5-0.5c0,0.6,0,0.9,0,1.3c0.1,0,0.1,0,0.2,0.1c0.1-0.1,0.3-0.2,0.3-0.4c0-0.6,0.1-1.2-0.2-1.8
		c-0.1-0.2-0.3-0.5-0.1-0.8c0.3,0.3,0.4,0.9,1,1c-0.2-1-0.9-1.9-0.9-2.9c0.4,0.8,0.8,1.5,1.2,2.3c0.1,0,0.1,0,0.2,0
		c0.1-1,0.4-2.1,0.2-3.1c0.3-0.3,0.6-0.6,0.8-0.8c0.7,0,1,0.5,1.4,0.9c0.2,0.2,0.5,0.4,0.8,0.6c-0.1,0.5,0.3,0.9,0.8,1.4
		c0.1-0.8,0.2-1.4,0.2-2c0-0.2-0.2-0.5-0.4-0.7c-0.1-0.2-0.2-0.3-0.2-0.5c0.3-1-0.3-1.6-0.7-2.4c-0.1-0.2-0.3-0.3-0.4-0.4
		c-0.6,0.8-1,3.2-1.4,3.1c-0.1-0.1,0.1-0.8,0.2-1c0.2-0.7,0.4-1.4,0.7-2.1c0.3-0.7,0.2-1.3-0.2-2c-0.2-0.3-0.3-0.7-0.5-1
		c0,0,0.1,0,0.1-0.1c0.3,0.4,0.6,0.8,0.9,1.2c0.1,0,0.1,0,0.2,0c0.1-0.4,0.3-0.8,0.4-1.2c0,0,0.1,0,0.1,0c0,0.8,0,1.5,0,2.4
		c0.6,0.8,1.1,1.9,1.9,2.9c0-0.5,0-0.8,0-1.1c0.2,0.3,0.3,0.7,0.4,1c0.2,0.5,0.4,0.9,0.7,1.4l0,0c0.1,0.2,0.2,0.5,0.3,0.7
		c0.3,0.6,0.6,1.1,1.2,1.5c0.5-0.8,0.9-1.5,0.7-2.3c-0.1-0.5-0.2-1-0.2-1.5c-0.2-1.6-0.3-3.2-1-4.8c-0.3-0.7-0.6-1.5-0.9-2.2
		c-0.3-0.8-0.2-1,0.5-1.5c-0.3-1.6-0.6-3.1-0.9-4.7c-0.1-0.4-0.2-0.9-0.1-1.2c0.2-0.6,0.1-1.1,0.1-1.6c-0.1-0.4-0.2-0.9,0.1-1.5
		c0.6,2,1,3.8,1.6,5.5c0.6,1.8,1.1,3.6,2,5.3c0-0.3,0-0.6,0-0.9c0.5,1,0.6,2.1,0.8,3.2c0.3,1.1,0.6,2.2,0.9,3.3
		c0.3,1.1,0.7,2.1,1.1,3.1c0,0,0.1,0,0.1,0c0-0.1,0-0.2,0-0.4c0.4,0.2,0.6-0.1,0.7-0.4c0.1-0.3,0.1-0.7,0.1-1.1
		c-0.2-1.5-0.4-3-0.6-4.5c-0.1-0.8-0.3-1.6-0.1-2.4c0.1,0.3,0.2,0.5,0.2,0.8c0.2,1.4,0.4,2.8,0.6,4.2c0,0.3,0.1,0.6,0.4,0.9
		c0.5-1.5,0.9-3,1.3-4.4c0.1,0,0.1,0,0.2,0c-0.1,0.7-0.3,1.3-0.4,2c-0.1,0.5-0.4,1,0,1.5c0,0.1,0,0.2,0,0.3
		c-0.2,0.5-0.4,1.1-0.7,1.5c-0.2,0.4-0.4,0.8-0.3,1.2c0.1,0.9,0.2,1.9,0.4,2.8c0,0.2,0.1,0.5,0.2,0.8c0.7-0.8,1.4-3.3,1.2-4.3
		c0.5,0,0.5-0.4,0.4-0.7c-0.1-0.5-0.2-1-0.3-1.5c0,0,0,0,0.1,0c0.2,0.4,0.5,0.7,0.8,1.2c0.3-0.4,0.6-0.7,0.9-1.1
		c-0.1,0.6-0.4,1.1-0.6,1.7c-0.1,0.3-0.1,0.7-0.1,1c0,0.4,0.1,0.8,0.3,1.2c0.3,0.7,0.7,1.4,1.5,1.6c0-0.1,0-0.2,0-0.4
		c-0.1-1.7,0-3.5,0.2-5.2c0.2-1.2,0-2.2-0.5-3.3c-0.1-0.1-0.1-0.2-0.2-0.4c-0.3-0.8-0.7-1.7-1-2.5c-0.1-0.2-0.1-0.5-0.2-0.7
		c0.9,1.4,1.2,2.9,2.1,4.4c0.2-0.4,0.3-0.8,0.5-1.2c0.1,0.3,0.2,0.5,0.2,0.7c0.2,0.8,0.2,1.5,0.5,2.3c0.5,1.3,1.1,2.6,1.6,4
		c0,0.1,0.1,0.1,0.2,0.3c0.1-1-0.6-1.6-0.7-2.5c0.3,0.5,0.6,0.8,0.8,1.1c0.1-0.2,0.1-0.2,0.2-0.3c-0.1,0.6,0.2,1,0.5,1.5
		c0.2,0.4,0.5,0.8,0.7,1.2c0.2,0.3,0.4,0.6,0.6,0.9c0,0,0.1,0,0.1-0.1c0.2-5.4,0.3-10.9,0.5-16.3c0.1,0,0.1,0,0.2,0
		c0.1,0.2,0.1,0.4,0.2,0.6c0.1,1.4,0.1,2.8,0.2,4.3c0,0.3,0,0.5,0,0.8c0.1,1,0.2,1.9,0.2,2.9c0,1.6,0,3.2,0,4.7c0,0.2,0,0.4,0.1,0.6
		c0,0,0.1,0,0.1,0c0.5-2.5,0.9-5,1.4-7.6c0,0.4,0,0.7,0,1c-0.1,0.8-0.3,1.6-0.4,2.4c-0.1,0.6,0,1,0.4,1.5c0.1-0.8,0.2-1.6,0.3-2.4
		c0.1-0.8,0.1-1.7,0.1-2.5c0.1-0.8,0.1-1.7,0.2-2.5c0.1-0.8,0.1-1.6,0.4-2.4c0.1,0.2,0.1,0.4,0.1,0.5c0,0.8-0.1,1.6-0.2,2.3
		c-0.1,1.6-0.2,3.2-0.4,4.7c-0.1,0.7,0.2,1.2,0.8,1.5c0.8-0.4,0.5-1.3,0.8-2.1c0.1,0.9,0.2,1.6,0.2,2.5c0.5-1.1,0.1-2.2,0.3-3.2
		c0.2,0,0.3,0,0.4,0c0,0.4,0.1,0.8,0,1.2c-0.2,1.1-0.1,2.2,0.1,3.3c0.1,0.8,0.6,1.3,1.1,1.8c-0.1-1.6-0.7-3.1-0.7-4.7
		c0.5,1.7,0.8,3.5,1.3,5.3c0.4-0.9,0.5-0.9,0.4-1.7c-0.1-1.1-0.2-2.2-0.3-3.3c-0.1-1.1-0.1-2.1-0.2-3.2c0-0.3-0.1-0.5,0.2-0.9
		c0.1,0.4,0.2,0.7,0.2,0.9c0.1,1.6,0.3,3.3,0.4,4.9c0.1,1.1,0.2,2.3,0.3,3.4c0,0.2,0.1,0.3,0.2,0.5c0,0,0.1,0,0.2,0
		c0-0.4,0-0.7,0-1.1c-0.1-0.8-0.3-1.6-0.4-2.4c0-0.3-0.1-0.6,0-0.8c0.2-0.5,0.1-1,0.1-1.4c-0.1-1.2-0.1-2.4-0.2-3.6
		c-0.1-1.8-0.3-3.6-0.5-5.3c0-0.3-0.1-0.6,0.1-0.8c0.3,2.5,0.6,4.9,0.8,7.3c0.1,2.4,0.4,4.9,0.8,7.3c0.1-0.4,0.1-0.8,0.2-1.2
		c0.3,0.5,0.1,1,0.5,1.5c-0.1-1.2-0.2-2.4-0.3-3.6c0.2,0.1,0.3,0.3,0.3,0.5c0.1,0.9,0.2,1.8,0.4,2.8c0,0.3,0,0.7,0.4,1.1
		c-0.1-0.6,0.5-0.5,0.5-1c0.1-1.2,0.3-2.4,0.3-3.6c0-1.2-0.1-2.4-0.2-3.6c0-0.3,0-0.5,0-0.8c0.1,0,0.1,0,0.2,0
		c0.5,1.1,0.5,2.4,0.8,3.6c0.3,1.2,0.3,2.5,0.6,3.8c0.3-0.2,0.4-0.3,0.7-0.5c-0.5,0.8-0.5,1.5-0.2,2.3c0.1,0.2,0,0.4,0.1,0.6
		c0,0.5,0,1,0.1,1.6c0.1,1.1,0.1,2.1,0.2,3.2c0,0.4,0.1,0.7,0.6,0.7c0.4-0.9-0.3-1.7-0.2-2.6c0.2,0,0.3,0,0.4,0
		c0.3-1-0.4-1.8-0.8-2.8c0.3,0.4,0.6,0.6,0.8,0.9c0.2-0.6,0.3-1.1,0.4-1.5c0.1-0.4,0.3-0.8,0.3-1.2c0.2-1.2,0.3-2.5,0.4-3.7
		c0.4-3.3,1.2-6.6,2.1-9.8c0.1-0.3,0.2-0.6,0.3-0.9c-0.5,2.5-1.1,5-1.6,7.4c-0.5,2.5-0.7,5-0.8,7.5c0.2-0.2,0.3-0.5,0.3-0.8
		c0.6-2.5,1.2-4.9,1.9-7.4c1.1-4.1,2.7-8.1,4.4-12c0-0.1,0.1-0.1,0.2-0.2c0.1,0.3,0.1,0.6,0,0.8c-0.2,0.5-0.4,1-0.6,1.5
		c-1.3,3.3-2.7,6.7-3.5,10.2c-0.3,1.2-0.6,2.5-0.9,3.8c0.6-0.6,1.1-1.2,1-2.1c-0.1-0.5-0.1-1.1,0.2-1.6c0.2,0.8,0.4,1.6,0.6,2.4
		c0,0,0,0,0,0c0,0,0,0,0,0c0,0,0,0,0,0c-0.3,0.2-0.3,0.5-0.3,0.7c0,0.9,0.1,1.8,0.2,2.7c0.1,0.7,0.6,1.2,1.1,1.6
		c0-0.4-0.1-0.7-0.2-1.1c-0.3-1.3-0.6-2.7-0.9-4c0,0,0,0,0,0c0.1,0.1,0.1,0.3,0.2,0.4c0.5,1.8,0.9,3.5,1.3,5.3
		c0.1,0.4,0.3,0.8,0.7,1c-0.3-2.9-1.2-5.7-1.4-8.5c0.5,1,0.7,2.2,1,3.3c0.3,1.1,0.6,2.2,0.9,3.3c0.1-2.4,0-4.7,0-7
		c0-0.2,0-0.3,0-0.5c0,0,0-0.1,0-0.1c0,0,0.1,0,0.1,0c0,0.2,0.1,0.4,0.1,0.6c0.1,1.1,0.1,2.1,0.2,3.2c0.1,2.2,0.3,4.3,0.4,6.5
		c0,0.3,0.1,0.5,0.2,0.8c0.3-0.5,0.4-0.9,0.5-1.3c0.3-1.4,0.6-2.7,0.5-4.1c-0.1-1.7-0.1-3.4,0-5.1c0-0.3,0.1-0.6,0.1-0.9
		c0.1,0,0.1,0,0.2,0c0,0.3,0.1,0.5,0.1,0.8c0,1,0,1.9,0,2.9c0,0.3,0,0.5,0.1,0.8c0.1,0,0.1,0,0.2,0c0.1-0.6,0.3-1.2,0.4-1.8
		c0.1,0,0.1,0,0.2,0c0,0.3,0.1,0.7,0,1c-0.1,1-0.2,2-0.5,3c-0.1,0.3-0.1,0.6,0,0.8c0.1,0.9,0.2,1.9,0.2,2.8c0,0.7,0.1,1.5-0.2,2.2
		c-0.3,0.7,0.4,1.8,1.1,2.1c0.1,0,0.1,0,0.3,0c0-0.1,0.1-0.3,0.1-0.4c0-0.5,0.1-1-0.1-1.5c0.3-0.7-0.1-1.4-0.2-2.1
		c-0.1-0.5-0.3-1-0.3-1.5c-0.2-0.9-0.3-1.8-0.4-2.7c0,0,0.1-0.1,0.1-0.1c0.2,0.1,0.3,0.3,0.5,0.4c0.1-0.1,0.1-0.2,0.3-0.5
		c0.1,0.8,0.2,1.3,0.3,1.9c0,0.3,0,0.6,0.5,0.7c-0.5-2.6-1.1-5.1-1.1-7.7c0.2,0.2,0.4,0.4,0.4,0.7c0.4,1.8,0.8,3.5,1.3,5.3
		c0.1,0.4,0.3,0.9,0.5,1.3c0.4,0.7,0.8,1.4,0.5,2.3c0.3,0,0.5,0,0.7-0.1c0.4-0.1,0.7-0.5,0.6-0.8c-0.2-0.7-0.4-1.4-0.6-2.1
		c0-0.1-0.2-0.3-0.2-0.4c-0.1-0.6-0.2-1.2-0.3-1.7c-0.1-0.6-0.3-1.1-0.4-1.7c0.6,1.2,1.1,2.5,1.6,3.8c0.1,0.2,0.1,0.5,0,0.8
		c-0.1,0.4-0.1,0.8,0.2,1.2c0.7-0.3,0.3-0.9,0.5-1.3c0.2,0.2-0.1,0.6,0.5,0.6c0.5-0.8,0.5-1.9,1.1-2.8c0,0.7,0,1.2,0,1.9
		c0.4-0.1,0.5-0.5,0.6-0.8c0.4-1.3,0.8-2.6,1.2-3.9c0.1-0.2,0.1-0.3,0.2-0.5c0.1,0,0.1,0,0.2,0.1c-0.4,1.5-0.9,2.9-1.4,4.6
		c0.6-0.4,1.1-0.7,1.3-1.3c0.1-0.3,0.2-0.5,0.2-0.8c0.1-0.8,0.6-1.5,0.5-2.4c0-0.4,0-0.7,0.2-1.1c0.1,0.7,0.1,1.3,0.2,2
		c0.1,0.6-0.1,1.2,0.1,1.8c0.3-0.2,0.6-0.3,0.8-0.5c0,0.2-0.1,0.4-0.2,0.5c-0.7,0.4-0.8,1-0.6,1.6c0,0.1,0,0.3,0,0.4
		c0.1,0.2,0.2,0.5,0.3,0.7c0.3-0.2,0.5,0.3,0.8,0.3c0.1-0.5,0.2-0.9,0.3-1.3c0.1-0.7,0.4-1.3,0.1-2c0-0.1,0-0.2,0.1-0.3
		c0.1-0.3,0.3-0.7,0.3-1c0.1-1,0.2-2,0.3-2.9c0-0.5,0.1-1,0.2-1.5c0.1,0.3,0.1,0.5,0.1,0.8c-0.1,1.1-0.1,2.2-0.2,3.3
		c0,0.2,0,0.4,0.1,0.5c0.4-0.6,0.2-1.2,0.4-2c0,0.5,0.1,0.9,0.1,1.3c0.1,0.7,0.1,1.4,0.2,2.1c0,0.1-0.1,0.3-0.1,0.4
		c0,0.6,0,1.3,0.1,1.9c0,0.1,0.2,0.2,0.3,0.3c0.1-0.1,0.2-0.2,0.3-0.4c0.1-0.1,0-0.3,0-0.4c-0.1-0.9,0.4-1.6,0.5-2.4
		c0.2,0.5,0,0.9,0,1.3c0,0.5,0.1,1,0,1.4c-0.1,0.5,0.1,1,0.1,1.4c0,0.4-0.3,0.9,0.2,1.4c0-0.4,0.1-0.7,0.1-1c0-0.5-0.2-1.1-0.1-1.6
		c0.2-1,0.3-1.9,0-2.9c0,0,0-0.1,0-0.2c0-0.8-0.1-1.7-0.1-2.5c0-0.2-0.1-0.5,0.2-0.7c0,0.1,0.1,0.2,0.1,0.2c0.1,1.5,0.2,2.9,0.3,4.4
		c0,0.6,0.3,1.3,0.1,1.9c-0.1,0.3,0.4,1,0.8,1.1c0.3-0.6-0.3-1-0.4-1.5c0.1-0.1,0.1-0.2,0.2-0.2c0.7-0.6,0.7-0.5,0.3-1.4
		c-0.2-0.6-0.4-1.1-0.3-1.8c0.3,0.3,0.2,0.9,0.7,1c0,0.4,0.1,0.8,0.1,1.2c0,0.1,0.1,0.2,0.1,0.3c0.1,0.2,0.1,0.5,0.1,0.7
		c0.1,0.8,0.1,1.7,0.8,2.3c0.5,0.4,1,0.7,1.2,1.4c0,0,0.1,0,0.2,0.1c0.1-0.2,0.4-0.4,0.4-0.7c0.2-1.5,1-2.7,1.5-4.1
		c0.1,0.6-0.3,1.2,0.1,1.9c0.3-0.7,0.6-1.2,0.8-1.7c0.1,0,0.2,0,0.4,0.1c-0.3-1.3-0.6-2.5-0.9-3.7c-0.3-1.2-0.7-2.4-1.1-3.6
		c-0.4-1.2-0.8-2.3-1.3-3.5c0.2,0,0.2,0.1,0.3,0.2c0.6,1.4,1.2,2.8,1.8,4.1c0.6,1.4,1.2,2.7,1.9,4.1c0.3,0.7,0.7,1.3,1.1,2
		c0.1,0.2,0.2,0.3,0.5,0.3c0.1,0,0.3,0.1,0.5,0.2c0.1-0.3,0.2-0.5,0.3-0.7c0.1-0.4,0.1-0.8,0.7-0.9c0.1,0,0.2-0.3,0.3-0.5
		c0.2-0.7,0.3-1.5,0.5-2.2c0-0.1,0.1-0.1,0.1-0.2c0.2,0.1,0.4,0.2,0.6,0.2c0,0.2,0,0.3,0,0.4c-0.2,0.5-0.2,1,0.2,1.5
		c0.1,0.1,0.1,0.4,0,0.5c-0.3,0.6-0.1,1.1,0.1,1.6c0.2,0.5,0.4,0.9,0.4,1.4c0,0.4,0.1,0.8,0.6,0.9c0.8-0.8,0.5-1.2,0.1-2.2
		c-0.2-0.6-0.5-1.2-0.7-1.7c0,0,0-0.1,0.1-0.2c0.8,0,0.6,1.1,1.3,1.3c0-0.5-0.1-0.9-0.1-1.4c0.5,0.9,0.7,1.8,1.3,2.6
		c0.1-0.2,0.2-0.4,0.1-0.6c-0.1-0.2-0.2-0.3-0.4-0.4c0,0,0.1-0.1,0.1-0.1c0.7,0.5,1.4,0.9,2.1,1.4c0.2-0.9-0.2-1.6-0.6-2.3
		c-0.1-0.1-0.3-0.2-0.4-0.2c0-0.3,0-0.7-0.1-1c-0.6-1.2-0.5-2.5-0.5-3.8c0,0,0.1-0.1,0.2-0.2c0.2,1.1-0.1,2.3,0.9,3.2
		c0.1-0.1,0.3-0.3,0.5-0.4c-0.2,0.6,0.1,1.2,0.2,1.7c0.2,0.9,0.5,1.8,1.3,2.5c0.3-0.7,0.6-1.3,0.9-1.9c0,0,0.1,0,0.1,0
		c-0.1,0.5-0.1,1-0.2,1.5c0,0,0,0,0,0c0,0,0,0,0,0c0,0,0,0,0,0c-0.6,0.2-0.7,0.6-0.6,1.2c0.1,0.6,0.2,1.3,0.3,1.9
		c0,0.2,0.1,0.4,0.2,0.6c0,0,0.1,0,0.1,0c0.1-0.3,0.1-0.6,0.2-0.9c0,0.3,0.1,0.6,0.1,0.9c0.1-0.5,0.3-1,0.1-1.5
		c-0.2-0.7-0.3-1.4-0.5-2.1c0,0,0,0,0,0c0.2,0.3,0.4,0.6,0.6,0.9c0,0,0.1,0,0.1,0c0-1,0-2.1,0-3.1c0.2,0.3,0.3,0.6,0.4,0.8
		c0.3,1,0.2,1.9,0.2,2.9c0,0.3,0,0.5,0,0.9c0.4-0.6-0.1-1.2,0.4-1.8c0.1,0.6,0.1,1,0.2,1.4c0.1,0.9,0.1,0.9,0.2,1.1
		c0.2-1.7,0.3-3.5,0.5-5.4c0.1,2-0.3,3.9,0,5.7c0.1-1.4,0.1-2.9,0.4-4.3c-0.1,2.2-0.2,4.5,0.1,6.7c0.4-0.5,0.2-1.3,0.8-1.6
		c-0.4-0.4-0.1-0.9-0.2-1.3c-0.1-0.4-0.1-0.9-0.1-1.3c0,0,0,0,0.1,0c0.2,0.8,0.5,1.7,0.7,2.6c0.3-0.5,0.6-1,0.5-1.4
		c-0.2-1,0.4-2-0.3-2.9c0.1,0,0.1,0,0.2,0c0.2,0.4,0.4,0.7,0.5,1.1c0.5-0.7,0.3-1.5,0.7-2.2c0,0.7,0,1.5,0,2.2
		c0.4-0.6,0.8-1.2,1.1-1.8c0.1-0.1,0.2-0.3,0.2-0.4c0.1-0.5,0.3-1,0.4-1.5c0-0.1,0.2-0.3,0.3-0.4c0,0,0.1,0.1,0.1,0.1
		c0,0.3-0.1,0.6-0.1,0.9c0.4-0.6,0.6-1.3,1.1-1.9c0,0.6,0,1.1,0.1,1.6c0,0.6,0.1,0.6,0.8,0.4c-0.1-1.1-0.6-2-0.8-3
		c0.5,0.8,0.7,1.7,0.9,2.6c0.1,0.3,0.2,0.6,0.4,0.9c0,0.5-0.1,1.1-0.1,1.7c0,0.7,0.1,1.4,0.2,2.1c0.1,0.7,0.2,1.3,0.3,2
		c0,0.2,0.1,0.4,0.5,0.4c-0.1-0.8-0.3-1.6,0.3-2.4c0.1,0.8,0.2,1.4,0.3,2c0.2-0.3,0.3-0.5,0.4-0.8c0.3-0.4,0.2-0.9,0.1-1.3
		c-0.2-1-0.5-2-0.7-3c-0.3-1.9-0.5-3.8-0.7-5.8c0-0.2,0.1-0.4,0.1-0.6c0.4,0.3,0.5,0.7,0.6,1.1c0.2,1.5,0.4,3,0.7,4.5
		c0.1,0.6,0.2,1.2,0.8,1.6c-0.3-0.1-0.4,0.1-0.3,0.3c0.3,0.5,0.6,1,0.9,1.6c0.2-0.5,0.4-0.9,0.1-1.3c0.1-0.1,0.3-0.1,0.3-0.2
		c0-0.4,0.1-0.8,0-1.2c0-0.3-0.1-0.5-0.2-0.8c0.7,1,0.6,2.3,1,3.5c0.2-0.3,0.4-0.5,0.5-0.7c-0.2,0.8-0.5,1.6,0.4,2.2
		c0.1-0.6,0.2-1.2,0.3-1.9c0.2,0.4,0.4,0.6,0.6,1c0.1-0.4,0.2-0.6,0.2-0.8c0.3-1.1,0.5-2.2,0.8-3.3c0.5-1.5,0.8-3,0.8-4.5
		c0,0,0.1-0.1,0.1-0.1c0.3,0.4,0.4,0.8,0.3,1.3c-0.2,0.9-0.4,1.8-0.7,2.7c-0.2,0.8-0.6,1.6-0.9,2.4c-0.1,0.3-0.2,0.6-0.2,0.9
		c0.4-0.7,0.8-1.4,1.1-2.1c0.2-0.4,0.3-0.9,0.8-1.2c-0.2,0.5-0.4,1-0.6,1.5c-0.1,0.4-0.2,0.8-0.4,1.3c0.8,0.3,1.4,0.5,2.2,0.8
		c0-0.6,0.1-1.1,0.1-1.7c0.6,0.1,1.2,0.2,1.8,0.4c0.6,0.2,0.9,0.8,1.2,1.3c0.1,0,0.1-0.1,0.1-0.1c0.3-1.6,0.6-3.1,0.9-4.7
		c0-0.2-0.1-0.4-0.1-0.6c-0.3-0.5-0.5-0.9-0.8-1.4c0.5,0.4,1,0.8,1.4,1.3c0.4,0.6,0.6,1.4,0.9,2.1c0.1,0.2,0.2,0.5,0.1,0.7
		c-0.2,0.5,0,1,0.2,1.3c0.2,0.4,0.4,0.8,0.5,1.2c0,0.1,0.2,0.2,0.4,0.3c-0.1,0.5-0.3,1,0.3,1.5c0.3-1,0.1-2.1,0.5-3
		c0.1,0,0.1,0,0.2,0c0,1,0.1,1.9,0.1,3.1c0.2-0.5,0.4-0.8,0.6-1.1c0,0.1,0,0.2,0,0.2c0.2,0.2,0.1,0.6,0.5,0.8
		c0.2,0.1,0.3,0.5,0.2,0.8c0.4-0.1,0.6,0.5,1.1,0.2c-0.3-0.7-0.5-1.4-0.8-2.1c-0.2-0.5-0.5-1-0.7-1.6c-0.1-0.3-0.3-0.6,0-1
		c0.2,0.3,0.5,0.5,0.6,0.7c0.2,0.3,0.5,0.7,0.6,1.1c0.2,0.4,0.4,0.7,0.9,0.7c-0.3,0.6-0.2,0.7,0.3,0.8c0.2,0,0.4,0.1,0.6,0.1
		c-0.2,0.2-0.4,0.4-0.6,0.6c0.5,0,1,0,1.3,0c-0.1,0.2-0.1,0.3-0.2,0.4c-0.1,0.1-0.2,0.2-0.5,0.4c0.4,0,0.6,0,1,0
		c-0.2,0.2-0.3,0.4-0.4,0.6c1-0.4,1.1-0.5,1.2-1.5c0-0.6-0.1-1.2,0-1.8c0.1-0.6,0.4-1.2,0.5-1.8c0.1-0.2,0.1-0.4,0.2-0.7
		c-0.1,0.8-0.2,1.6-0.4,2.4c-0.2,0.7,0.1,1.3,0.3,1.9c0.1,0,0.2,0,0.2,0c0.5-0.8,1.1-1.7,1.1-2.8c0-0.9,0.1-1.8,0.2-2.7
		c0.1-0.7,0.4-1.5,0.6-2.2c0.1,0,0.1,0,0.2,0c-0.5,1.3-0.3,2.6-0.2,3.9c0.1-0.1,0.2-0.2,0.2-0.3c0.1-0.1,0.1-0.3,0.2-0.4
		c0.4,0,0.4,0,1.2-0.5c-0.3,0.6-1,0.9-1.1,1.5c0.4,0.8,0.7,1.4,1.1,2.1c0.8,0.1,1.6,0.4,2.1,1.3c0,0.1-0.1,0.2-0.1,0.3
		c0.3,0.1,0.5,0.2,0.9,0.3c-0.5-0.7-0.2-1.1,0.1-1.6c0.4,0.2,0.6,0.6,1.1,0.4c0.1-0.7,0.2-1.4,0.3-2.1c0.1-0.7,0.3-1.3,0.9-1.8
		c-0.4,1.5-0.3,2.8-0.4,4.1c0,0.6,0.3,0.9,0.5,1.3c0.1,0.1,0.4,0.2,0.5,0.1c0.3-0.1,0.5-0.3,0.8-0.4c-0.3-0.5-0.5-1-0.7-1.6
		c0.5,0,0.6,0.6,1.1,0.5c-0.1-1-0.2-2-0.4-3c-0.2-1-0.5-1.9-0.8-2.9c0.1,0.1,0.2,0.1,0.2,0.2c0.8,1.7,1.2,3.6,1.3,5.5
		c0,0.5,0,1,0.3,1.4c0.3-0.6,0.6-1.3,0.9-1.9c0.2-0.4,0.3-0.7,0.2-1.1c-0.4-1.8-0.8-3.6-1.2-5.3c0.6,0.5,1.1,1,1.5,1.5
		c0.3,0.3,0.6,0.6,0.7,1c0.2,1,0.7,1.8,1.2,2.6c0.2,0.3,0.4,0.5,0.9,0.4c0.6-0.9,1.3-1.8,2-2.8c0,0.6-0.2,1-0.5,1.3
		c-0.2,0.3-0.3,0.5-0.2,0.9c0.1,0.3,0.2,0.7,0.2,1.1c0,0.3,0.5,0.5,0.2,0.9c0,0,0.1,0.2,0.2,0.3c0.2,0.1,0.4,0.2,0.6,0.3
		c0.2-1.2,0.4-2.3,0.6-3.5c0.1,0,0.1,0,0.2,0c-0.2,1.1-0.3,2.2-0.5,3.4c0.6-0.4,1.1-0.7,1.5-1.1c0.3-0.3,0.5-0.6,1.1-0.6
		c-0.5,0.4-0.4,0.9-0.2,1.3c0.2,0.5,0.2,1.1,0.7,1.5c0.1-0.1,0.1-0.2,0.1-0.2c-0.2-1.3-0.4-2.6-0.6-4c0,0,0.1,0,0.1,0
		c0.2,0.9,0.4,1.8,0.7,2.7c0-1.5,0-1.5,0.5-1.8c0.1,0.4,0.2,0.7,0.2,1.1c0,0,0.1,0,0.1,0c0.2-0.7,0.3-1.4,0.5-2.1c0.1,0,0.1,0,0.2,0
		c0,0.4,0.1,0.8,0.1,1.3c0.6-0.4,0.6-1,0.5-1.6c0.2,0.1,0.3,0.2,0.4,0.3c0.4-0.5,0.8-1,1.2-1.5c-0.5-0.5-0.9-1-1.3-1.5
		c0,0,0,0,0.1-0.1c0.2,0.2,0.5,0.4,0.9,0.7c-0.2-0.8-0.4-1.5-0.6-2.2c0,0,0.1,0,0.1,0c0.3,0.8,0.6,1.6,1,2.5c0.1,0,0.3,0,0.5,0
		c0.1,0.9,0.5,1.5,1.2,2.2c0.2-0.7,0.4-1.4,0.6-2c0.1,0.3,0.1,0.5,0,0.7c-0.1,0.4-0.2,0.9-0.2,1.3c-0.1,0.4,0,0.6,0.5,0.8
		c0.3-0.5,0.5-1,0.8-1.5c0.2-0.4,0.2-0.7,0-1c-0.3-0.4-0.4-0.9-0.6-1.4c-0.3-0.6-0.6-1.2-1-1.8c-0.3-0.5-0.7-1.1-1-1.6
		c0.8,0.6,1.2,1.4,1.7,2.1c0.6,0.8,0.9,1.7,1.3,2.5c0.4-0.5,0.7-0.9,1-1.3c0.1,0.6-0.9,1.1,0,1.7c0.4-0.8,0.9-1.6,1.3-2.4
		c-0.1,0.7-0.7,1.4,0.2,2c0.2-0.8,0.5-1.6,0.7-2.4c0,0.8-0.2,1.5-0.4,2.2c-0.2,0.6-0.1,1.2,0.3,1.8c0.1,0.2,0.2,0.5,0.3,0.7
		c0.3,0.6,0.5,1.2,1,1.8c0-0.7,0-1.3,0-1.8c1.1,0.9,2.3,1.8,3.4,2.8c0.1-0.4,0.3-0.8,0.4-1.1c0,0,0.1,0,0.1,0c0,0.6-0.1,1.2-0.1,2
		c0.5-0.3,0.6-0.7,0.6-1.2c0-0.5,0-1.1,0.1-1.6c0.1,0,0.1,0,0.2,0c0,0.9,0,1.7,0,2.6c0.7,0,0.9-0.4,1-1c0.2,0,0.3,0.1,0.5,0.1
		c-0.6,0.1-0.5,0.5-0.5,0.8c0,0.3,0.1,0.8,0.2,0.9c0-0.4,0-0.8,0-1.3c0.4,0.5,0.9,0.8,1.4,0.5c-0.1-0.6-0.6-0.5-0.9-0.7
		c0.1-0.2,0.2-0.4,0.3-0.5c-4.2-6.5-5.1-8.1-5.4-9.4c0.1,0.3,0.3,0.5,0.4,0.7c0.9,1.8,1.9,3.5,3.3,5.1c0.9,1.1,1.8,2.1,2.4,3.4
		c0,0.1,0.1,0.2,0.1,0.3c0.1-0.1,0.2-0.1,0.2-0.2c-0.2-1.4-0.5-2.7-0.7-4.1c0.7,0.5,0.7,1.5,1.3,2c-0.1-0.9-0.1-1.7-0.4-2.5
		c0.4-0.8-0.2-1.6,0.1-2.6c0.1,1,0.2,1.8,0.3,2.6c0,0.2,0.1,0.5,0.2,0.7c0.7,1.3,1.9,2,3.3,2.3c0.2,0,0.3,0,0.7,0
		c-0.4-0.5-0.7-1-1.1-1.4c-0.2-0.3-0.2-0.5-0.1-0.7c0.4,0.5,0.8,1,1.2,1.4c0.2,0.2,0.4,0.5,0.6,0.8c0-0.8,0-1.4,0-2.1
		c0.5,0.3,0.9,0.6,1.2,0.8c0.3-0.4,0.2-0.6-0.1-0.8c-0.5-0.3-0.9-0.5-1.4-0.8c-0.1-0.1-0.3-0.2-0.4-0.4c-0.1-0.1-0.2-0.3-0.3-0.4
		c-0.7-0.7-1.4-1.4-2.2-2.1c-0.9-0.8-1.7-1.6-2.6-2.5c0,0,0-0.1,0-0.3c0.2,0.1,0.4,0.2,0.5,0.3c1.3,1,2.7,2,3.7,3.3
		c0.8,1,1.7,1.7,3,1.9c0.4,0.1,0.7,0.2,1.1,0.3c0.1,0,0.3-0.1,0.5-0.1c0-0.2-0.1-0.3-0.1-0.4l0,0c0-0.1,0.2-0.2,0.1-0.2
		c-0.1-0.2-0.3-0.4-0.4-0.6c0.3,0.1,0.5,0.3,0.7,0.5c0.2,0.2,0.5,0.3,0.7,0.5c0.1-0.2-0.2-0.6,0.2-0.5c0.1,0.2,0.3,0.4,0.4,0.7
		c0.3-0.2,0.5,0.4,0.8,0.1c-0.2-0.3-0.6-0.6-0.8-0.9c-0.2-0.4-0.8-0.6-0.6-1.2c0.7,0.7,1.4,1.4,2.1,2.1c0.1-0.5-0.5-0.9-0.2-1.5
		c0.2,0.2,0.3,0.4,0.5,0.7c0.3-0.8,0-1.6,0.5-2.3c0.1,0.7,0.1,1.3,0.2,2c0,0,0,0,0,0c0,0,0,0,0,0c0,0,0,0,0,0
		c-0.4,0.7-0.2,1.4,0.4,1.8c-0.1-0.6-0.3-1.2-0.4-1.8c0,0,0,0,0,0c0.4,0.7,0.8,1.5,1.2,2.2c0.1,0,0.1,0,0.2-0.1
		c0-0.2-0.1-0.4-0.1-0.7c0.4,0.2,0.2,0.9,0.9,1c-0.1-0.6-0.2-1.2-0.3-1.7c0.2,0.1,0.3,0.1,0.6,0.2c-0.1-0.3-0.1-0.6-0.2-0.8
		c-0.4-0.6-0.8-1.2-1.3-1.8c-0.3-0.3-0.5-0.7-0.7-1c0.1,0,0.1-0.1,0.2-0.1c1,1,1.9,2,3,3c-0.2-0.7-0.3-1.3-0.7-1.9
		c-0.5-0.7-1-1.2-1.7-1.7c-0.5-0.4-0.9-0.7-1.4-1.1c-0.2-0.2-0.4-0.3-0.4-0.7c0.4,0.2,0.7,0.5,1.1,0.5c0.3,0,0.4,0.2,0.6,0.3
		c0.6,0.5,1.3,1.1,1.9,1.6c0.1,0.1,0.3,0,0.5,0c0.4,0.8,0.9,1.5,1.9,1.9c-0.1-0.3-0.2-0.5-0.3-0.7c0,0,0,0,0.1,0
		c0.2,0.3,0.5,0.5,0.7,0.8c0.3-0.2,0.9,0.1,1.3,0.5c0.1-0.2,0.1-0.4,0.2-0.7c-0.6-0.4-1.3-0.8-1.9-1.2c0.3-0.2,0.3-0.4,0.2-0.7
		c0.4,0.3,0.9,0.6,1.3,1c0,0,0.1-0.1,0.1-0.1c-0.5-0.9-1-1.8-1.5-2.7c0,0,0.1-0.1,0.1-0.1c0.3,0.4,0.5,0.9,0.8,1.3
		c0.3,0.4,0.4,0.9,0.9,1.2c0.1-0.6,0.1-1.1,0.2-1.6c0.2-1.5,0.2-1.5-1-2.5c-0.1,0-0.1-0.1-0.2-0.1c-1.2-1-2.5-2-3.7-3
		c-0.2-0.1-0.3-0.3-0.5-0.5c0,0,0,0,0.1-0.1c1.8,1.4,3.6,2.7,5.5,4.1c0.5-2.3,0.6-4.6,1.2-6.8c0,0.8-0.1,1.6-0.2,2.4
		c-0.1,1.2-0.3,2.4-0.4,3.6c0,0.2,0,0.5,0.2,0.6c0.6,0.4,1.3,0.6,1.9,1.2c0.1-1.4,0.2-2.7,0.3-3.9c0.1-1.2,0.4-2.4,0.7-3.6
		c0,0.9-0.1,1.8-0.2,2.6c-0.1,0.5,0.1,0.9,0.5,1.2c1,0.7,1.9,1.5,2.9,2.3c0.4,0.3,0.9,0.5,1.4,0.6c0.2-0.6-0.3-0.8-0.6-1.2
		c0.2,0.1,0.4,0.1,0.6,0.2c0-0.4-0.1-0.8-0.1-1.1c0-0.5-0.3-0.9-0.7-1.2c-0.6-0.4-1.2-0.8-1.7-1.2c0,0,0-0.1,0.1-0.1
		c0.2,0.1,0.5,0.2,0.7,0.3c0,0,0.1-0.1,0.1-0.1c-0.4-0.4-0.7-0.9-1.1-1.3c0,0,0.1-0.1,0.1-0.1c0.7,0.6,1.3,1.3,2,1.9
		c0-0.2,0.1-0.4,0.1-0.6c0.2,0.3,0.3,0.6,0.5,0.9c0-2.5,0-4.9,0-7.2c0.1,0.2,0.2,0.4,0.2,0.6c0.1,1,0.1,2,0.2,3
		c0.1,1.2,0.1,2.4,0.1,3.7c0,0.3,0,0.6,0.3,0.8c0.4,0.3,0.8,0.5,1.3,0.9c0-0.3,0-0.5-0.1-0.6c0.3,0.4,0.5,0.9,0.9,1.2
		c1.7,1.5,3.2,3.1,4.3,5.1c0.1,0.2,0.3,0.5,0.5,0.5c0.4,0.1,0.8,0.1,1.3,0.2c-0.5-0.9-1-1.7-1.5-2.5c0.2,0,0.3,0.1,0.4,0.2
		c0.1,0.1,0.3,0.2,0.5,0.2c0-0.2,0-0.3,0.1-0.4c0.4,0.2,0.4,0.8,0.9,0.9c0-0.1,0-0.2,0-0.2c0.1,0.1,0.3,0.2,0.4,0.3
		c0.4,0.5,1,0.7,1.6,1c-0.2-0.9-0.1-1.8-0.6-2.6c-0.4-0.9-0.7-1.8-0.7-2.9c0.2,0.4,0.3,0.7,0.4,0.9c0.3,0.5,0.5,1,0.8,1.5
		c0,1.1,0.8,2.5,1.6,2.6c-0.2-0.3-0.3-0.6-0.4-0.8c0.3,0.2,0.5,0.5,0.8,0.7c0.6-0.9,0.8-1.9,1.5-2.7c-0.4,1.1-0.8,2.1-1.2,3.2
		c0.2,0,0.3,0.1,0.3,0.1c0.2-0.3,0.4-0.7,0.6-1c0,0.7,0,0.7,0.3,1.2c0.5-1.5,0.9-3,1.2-4.6c0.1,0.2,0.2,0.3,0.2,0.4
		c0.1-0.2,0.2-0.3,0.3-0.5c0,0.5-0.2,0.9-0.3,1.3c-0.1,0.5-0.2,1.1,0,1.5c0.3,0.5,0.8,0.9,1.5,1.1c-0.1-0.4-0.2-0.7-0.3-1
		c0.4-0.3,0.1-0.7,0.2-1c0-0.4,0-0.7,0-1.1c0-0.4,0-0.7-0.1-1.1c0.3,1.1,0.4,2.3,0.6,3.4c0.1,0.7,0.8,1.4,1.7,1.4
		c-0.3-0.6-0.5-1.2-0.8-1.7c0.2-0.1,0.3-0.1,0.4-0.1c0-0.3,0-0.5,0-0.7c0.1,1.2,1,1.8,2,2.3c-0.1-0.2-0.2-0.4-0.3-0.6
		c0.3,0.1,0.4,0.2,0.6,0.2c0-0.2,0-0.3,0.1-0.5c0.8,0.9,1.1,1,1.9,1c-0.8-1.3-2-2.3-3.1-3.3c0.4,0.2,0.8,0.5,1.2,0.7
		c0.4,0.3,0.6,0.7,1.2,0.8c-0.4-0.5-0.8-0.9-1.1-1.4c-0.4-0.5-0.7-1-1-1.4c0,0,0.1,0,0.1-0.1c0.9,0.9,1.7,1.9,2.6,2.8
		c0.1,0,0.1,0,0.2-0.1c0-1.6,0.1-3.1,0.1-4.7c0.1,1.5,0.1,3,0.2,4.4C310.4,105.1,310.6,105.4,310.7,105.8z M43.6,51.5l0,1l-0.4,0
		c-0.1,0-1.3,0.2-1.6,1.3c-0.3,1-0.5,2.9-0.7,4.3c-0.1,0.2-0.2,0.5-0.2,1c-0.2-0.2-0.4-0.8-0.6-1.4c-0.1-0.2-0.1-0.4-0.2-0.5
		c0.1-1.3,0.3-2.7,0.6-3.6c0.5-1.7,2.4-2,2.5-2l0,0L43.6,51.5z M44.9,60.1c-0.2-0.1-1.1-0.4-1.4-0.6l0.3-0.1l-0.4-0.8
		c0.4,0.2,1.2,0.6,1.5,0.7C44.9,59.6,44.9,59.8,44.9,60.1z M38.9,57.3c-0.5-1.4,0.1-5.9,0.1-6.4c0-0.1,1.4-9,1.6-10.3
		c0.2-1.4,1.3-1.8,1.8-1.9l2-0.2c0.1,0.3,0.2,0.6,0.3,0.8l-2.3,0.2c-0.1,0-0.9,0.1-1,1.1C41.3,42,39.9,50.9,39.9,51
		c-0.2,1.3-0.5,5-0.2,6.1c0.1,0.3,0.2,0.5,0.2,0.7c0.3,0.8,0.4,1.4,0.7,1.6c0,0.3,0,0.5,0,0.9c-0.1,0-0.1,0-0.2,0
		c-0.8-0.2-1-1-1.4-2.2C39,57.8,39,57.5,38.9,57.3z M43.5,59.3L41.9,60c0-0.4,0-0.8,0-1l1.3-0.6L43.5,59.3z M41.7,58.9
		c-0.1,0.4-0.1,1.2,0,3c0,0.2-0.2,0.4-0.4,0.5c-0.1,0-0.2,0-0.3-0.1c-0.1-0.1-0.1-0.2-0.1-0.3c-0.2-3.3,0.1-3.8,0.4-4
		c0.2-0.1,0.4-0.1,0.6,0l0,0l0,0c0.3,0.1,0.7,0.3,1,0.4L41.7,58.9L41.7,58.9z M59.2,51.3l-0.4,0l-0.2-1l0.5,0h0c0.1,0,2,0,2.8,1.6
		c0.4,0.8,0.9,2.2,1.2,3.4c0,0.2-0.1,0.4-0.1,0.6c-0.1,0.6-0.2,1.3-0.3,1.5c-0.1-0.5-0.2-0.7-0.4-0.9c-0.3-1.3-0.9-3.2-1.4-4.1
		C60.6,51.3,59.4,51.3,59.2,51.3z M58.5,58.2c0.3-0.2,1.2-0.8,1.5-1.1L59.8,58l0.3,0.1c-0.3,0.2-1.2,0.8-1.4,1
		C58.6,58.8,58.6,58.5,58.5,58.2z M61.8,58.3L60,57.9l0.2-0.8l1.3,0.3C61.6,57.6,61.7,57.9,61.8,58.3z M55.5,38.5
		c0.1-0.2,0.1-0.5,0.2-0.9l2-0.2c0.5,0,1.7,0.2,2.1,1.5c0.4,1.3,3.3,9.8,3.3,9.9c0.1,0.5,1.4,4.8,1.2,6.3c0,0.3-0.1,0.5-0.1,0.7l0,0
		c-0.2,1.2-0.3,2-1,2.3c-0.1,0-0.1,0-0.2,0.1c-0.1-0.3-0.1-0.6-0.2-0.9c0.3-0.2,0.3-0.8,0.5-1.7c0-0.2,0.1-0.5,0.1-0.8
		c0.2-1.1-0.8-4.7-1.1-6l0,0c-0.2-0.9-2.9-8.7-3.3-9.8c-0.3-1-1.1-1-1.2-1L55.5,38.5z M62.2,60.1c-0.2-1.8-0.4-2.6-0.5-2.9l-0.1,0
		l-1.2-0.3c0.3-0.2,0.7-0.4,0.9-0.6l0,0l0,0c0.2-0.1,0.4-0.2,0.6-0.1c0.4,0.1,0.7,0.6,1.1,3.9c0,0.1,0,0.2-0.1,0.3
		c-0.1,0.1-0.2,0.1-0.3,0.2C62.4,60.6,62.2,60.4,62.2,60.1z M55.1,39.1c0.5,0.3,1,0.7,1,0.8c0,0.1-0.2,0.2-0.4,0.3l-10.8,0.9
		c-0.2-0.1-0.4-0.2-0.5-0.2c0-0.1,0.4-0.6,0.9-1L55.1,39.1z M45.3,39.6c-0.2-0.3-0.9-1.4-1.1-3.9c0-0.2,0.2-0.5,0.4-0.5L55,34.3
		c0.2,0,0.4,0.2,0.5,0.4c0.2,2.5-0.3,3.8-0.4,4.1L45.3,39.6z"/>
</g>
</svg>
