<?xml version="1.0" encoding="utf-8"?>
<!-- Generator: Adobe Illustrator 16.0.0, SVG Export Plug-In . SVG Version: 6.00 Build 0)  -->
<!DOCTYPE svg PUBLIC "-//W3C//DTD SVG 1.1//EN" "http://www.w3.org/Graphics/SVG/1.1/DTD/svg11.dtd">
<svg version="1.1" id="Layer_1" xmlns="http://www.w3.org/2000/svg" xmlns:xlink="http://www.w3.org/1999/xlink" x="0px" y="0px"
	 width="152px" height="150px" viewBox="0 0 152 150" style="enable-background:new 0 0 152 150;" xml:space="preserve">
<style type="text/css">
<![CDATA[
	.st0{fill:none;stroke:#FFFFFF;stroke-width:1.2239;stroke-miterlimit:10;}
	.st1{fill:#FFFFFF;}
	.st2{fill:none;stroke:#FFFFFF;stroke-width:1.1244;stroke-miterlimit:10;}
]]>
</style>
<circle class="st2" cx="76.4" cy="75.1" r="67.8"/>
<circle class="st0" cx="76.4" cy="75.1" r="73.8"/>
<path class="st1" d="M8.6,75.1c0,37.4,30.4,67.8,67.8,67.8s67.8-30.4,67.8-67.8S113.8,7.3,76.4,7.3S8.6,37.7,8.6,75.1z M56.8,63.1h5
	v1.3h-3.6v2h2.9v1.3h-2.9v3h-1.5L56.8,63.1L56.8,63.1z M63.5,64c-0.6,0-0.9-0.3-0.9-0.9c0-0.5,0.3-0.9,0.9-0.9s0.9,0.4,0.9,0.9
	C64.4,63.7,64.1,64,63.5,64z M62.8,70.6v-5.5l1.4-0.2v5.7H62.8z M69.2,70.6v-3.4c0-0.8-0.3-1.1-1-1.1c-0.5,0-1,0.3-1.2,0.5v4h-1.4
	v-5.5l1.4-0.2c0,0,0,0.8,0,0.9c0.5-0.5,1.2-0.9,1.8-0.9c1.1,0,1.8,0.7,1.8,1.9v3.8H69.2z M75.6,62.5l1.4-0.2v8.2h-1.4V70
	c-0.4,0.4-0.9,0.7-1.6,0.7c-1.5,0-2.4-1.2-2.4-2.9c0-1.8,1.2-3,2.8-3c0.4,0,0.8,0.1,1.2,0.2V62.5z M74.6,66c-1,0-1.5,0.8-1.5,1.8
	c0,1.1,0.5,1.8,1.4,1.8c0.5,0,0.8-0.2,1.1-0.5v-2.8C75.3,66.1,75,66,74.6,66z M82.7,65v3.4c0,0.8,0.3,1.1,0.9,1.1
	c0.5,0,1-0.2,1.2-0.5v-4h1.4v5.5l-1.4,0.2v-0.8c-0.5,0.5-1.1,0.8-1.8,0.8c-1.1,0-1.7-0.7-1.7-1.9V65H82.7z M89.4,70.8
	c-0.7,0-1.6-0.2-2.2-0.5l0.3-1.1c0.6,0.3,1.3,0.5,1.9,0.5c0.6,0,0.9-0.2,0.9-0.6s-0.5-0.6-1.1-0.7c-1-0.2-1.9-0.7-1.9-1.7
	s0.9-1.7,2.2-1.7c0.7,0,1.5,0.2,2,0.4l-0.3,1.1c-0.5-0.3-1.3-0.5-1.7-0.5c-0.5,0-0.8,0.2-0.8,0.6s0.5,0.6,1.1,0.7
	c1.1,0.3,1.9,0.7,1.9,1.7S90.9,70.8,89.4,70.8z M98.1,70.8c-1.6,0-2.8-1.1-2.8-3c0-1.8,1.2-3,2.9-3c1.6,0,2.8,1.1,2.8,3
	C101,69.6,99.8,70.8,98.1,70.8z M98.2,66c-0.9,0-1.4,0.7-1.4,1.8c0,1.1,0.5,1.8,1.5,1.8c0.9,0,1.4-0.7,1.4-1.8
	C99.6,66.8,99.1,66,98.2,66z M105.7,70.6v-3.4c0-0.8-0.3-1.1-1-1.1c-0.5,0-1,0.3-1.2,0.5v4h-1.4v-5.5l1.4-0.2c0,0,0,0.8,0,0.9
	c0.5-0.5,1.2-0.9,1.8-0.9c1.1,0,1.8,0.7,1.8,1.9v3.8H105.7z M56.8,75.6h7.9v2h-5.6v3.1h4.6v2h-4.6v4.7h-2.3V75.6z M70.2,86.5
	c-0.6,0.8-1.4,1.3-2.5,1.3c-1.6,0-2.7-1.1-2.7-2.5c0-1.6,1.2-3,5.2-3.1V82c0-1.2-0.5-1.7-1.8-1.7c-0.9,0-2,0.4-2.9,0.9L65,79.4
	c0.9-0.5,2.2-1,3.7-1c2.7,0,3.8,1.2,3.7,3.6v3.1c0,0.7,0.1,0.8,0.8,0.8L73,87.7C71.4,87.9,70.6,87.4,70.2,86.5L70.2,86.5z
	 M70.2,83.4c-2.2,0.3-3,0.7-3,1.6c0,0.7,0.5,1.1,1.3,1.1c0.7,0,1.3-0.3,1.7-0.8V83.4z M78.5,87.8c-2.9,0-4.6-1.8-4.6-4.7
	c0-2.9,1.9-4.7,4.6-4.7c1.2,0,2.2,0.3,3,0.7L81.1,81c-0.7-0.5-1.6-0.7-2.4-0.7c-1.6,0-2.5,1.1-2.5,2.8c0,1.8,1,2.8,2.5,2.8
	c0.9,0,1.8-0.2,2.4-0.7l0.4,1.8C80.7,87.6,79.6,87.8,78.5,87.8z M84.5,83.6c0.1,1.4,1.1,2.4,2.6,2.4c0.9,0,1.9-0.3,2.7-0.8l0.3,1.9
	c-0.8,0.5-2,0.7-3.2,0.7c-2.8,0-4.7-1.8-4.7-4.6c0-2.9,1.9-4.8,4.5-4.8c2.3,0,3.6,1.4,3.6,3.6c0,0.5-0.1,1.1-0.2,1.5
	C90.3,83.5,84.5,83.6,84.5,83.6L84.5,83.6z M88.4,82.2c0,0,0-0.1,0-0.2c0-1.2-0.5-1.9-1.7-1.9s-2,1-2.1,2.1H88.4z M96.2,87.8
	c-0.6,0-1.4-0.1-2-0.3L92,87.8v-13l2.2-0.3c0,0,0,5,0,5.1c0.6-0.6,1.4-1.1,2.5-1.1c2.3,0,3.8,1.9,3.8,4.6
	C100.6,85.9,98.7,87.8,96.2,87.8z M96.1,80.3c-0.7,0-1.3,0.3-1.8,0.7c0-0.1,0,4.4,0,4.4c0.4,0.3,1,0.5,1.7,0.5
	c1.5,0,2.4-1.2,2.4-2.9C98.3,81.4,97.5,80.3,96.1,80.3z M106.1,87.8c-2.6,0-4.4-1.8-4.4-4.7c0-2.9,2-4.7,4.6-4.7
	c2.6,0,4.4,1.8,4.4,4.7C110.7,86,108.7,87.8,106.1,87.8z M106.2,80.3c-1.5,0-2.3,1.2-2.3,2.9s0.8,2.9,2.3,2.9s2.3-1.1,2.3-2.8
	C108.5,81.5,107.6,80.3,106.2,80.3z M116.2,87.8c-2.6,0-4.4-1.8-4.4-4.7c0-2.9,2-4.7,4.6-4.7c2.6,0,4.4,1.8,4.4,4.7
	C120.8,86,118.8,87.8,116.2,87.8z M116.3,80.3c-1.5,0-2.3,1.2-2.3,2.9s0.8,2.9,2.3,2.9c1.4,0,2.2-1.1,2.2-2.8
	C118.6,81.5,117.7,80.3,116.3,80.3z M124.6,83.3v4.2h-2.2V74.8l2.2-0.3v8.2l0,0l3.1-3.9h2.7l-3.6,4.2l3.7,4.6h-2.7L124.6,83.3
	L124.6,83.3z M50.1,62.7v24.8c0,0.8-0.7,1.5-1.5,1.5h-7.1V78.2h3.6l0.5-4.2h-4.2v-2.7c0-1.2,0.4-2,2.1-2h2.2v-3.8
	c-0.3-0.1-1.7-0.2-3.2-0.2c-3.2,0-5.4,2-5.4,5.6V74h-3.6v4.2h3.6V89H23.8c-0.8,0-1.5-0.7-1.5-1.5V62.7c0-0.8,0.7-1.5,1.5-1.5h24.8
	C49.4,61.2,50.1,61.9,50.1,62.7z"/>
</svg>
