<?xml version="1.0" encoding="utf-8"?>
<!-- Generator: Adobe Illustrator 16.0.0, SVG Export Plug-In . SVG Version: 6.00 Build 0)  -->
<!DOCTYPE svg PUBLIC "-//W3C//DTD SVG 1.1//EN" "http://www.w3.org/Graphics/SVG/1.1/DTD/svg11.dtd">
<svg version="1.1" id="Layer_1" xmlns="http://www.w3.org/2000/svg" xmlns:xlink="http://www.w3.org/1999/xlink" x="0px" y="0px"
	 width="93.1px" height="31.7px" viewBox="0 0 93.1 31.7" style="enable-background:new 0 0 93.1 31.7;" xml:space="preserve">
<style type="text/css">
<![CDATA[
	.st0{fill:#447f3b;}
	.st1{fill-rule:evenodd;clip-rule:evenodd;fill:#FFFFFF;}
	.st2{fill-rule:evenodd;clip-rule:evenodd;fill:#447f3b;}
]]>
</style>
<g>
	<g>
		<path class="st0" d="M32,6.9h3.7v0.9h-2.6v1.5h2.2v0.9h-2.2v2.2H32V6.9z"/>
		<path class="st0" d="M37,7.6c-0.4,0-0.6-0.3-0.6-0.6c0-0.4,0.2-0.6,0.6-0.6c0.4,0,0.7,0.3,0.7,0.6C37.6,7.4,37.4,7.6,37,7.6z
			 M36.4,12.5V8.4l1.1-0.2v4.3H36.4z"/>
		<path class="st0" d="M41.2,12.5V10c0-0.6-0.2-0.8-0.7-0.8c-0.4,0-0.7,0.2-0.9,0.4v2.9h-1.1V8.4l1.1-0.1c0,0,0,0.6,0,0.7
			c0.4-0.4,0.9-0.7,1.4-0.7c0.8,0,1.3,0.5,1.3,1.4v2.8H41.2z"/>
		<path class="st0" d="M46,6.5L47,6.4v6.1H46c0,0,0-0.4,0-0.4c-0.3,0.3-0.7,0.5-1.2,0.5c-1.1,0-1.8-0.9-1.8-2.2
			c0-1.3,0.9-2.2,2.1-2.2c0.3,0,0.6,0.1,0.9,0.1V6.5z M45.2,9.1c-0.7,0-1.1,0.6-1.1,1.3c0,0.8,0.4,1.3,1,1.3c0.3,0,0.6-0.1,0.8-0.3
			c0,0,0-2.1,0-2.1C45.8,9.2,45.5,9.1,45.2,9.1z"/>
		<path class="st0" d="M51.2,8.4v2.5c0,0.6,0.2,0.8,0.7,0.8c0.4,0,0.7-0.2,0.9-0.4v-3h1.1v4.1l-1.1,0.1c0,0,0-0.6,0-0.6
			c-0.3,0.4-0.8,0.6-1.4,0.6c-0.8,0-1.3-0.5-1.3-1.4V8.4H51.2z"/>
		<path class="st0" d="M56.3,12.6c-0.5,0-1.2-0.2-1.6-0.4l0.2-0.8c0.4,0.2,0.9,0.4,1.4,0.4c0.4,0,0.7-0.2,0.7-0.5
			c0-0.3-0.4-0.4-0.8-0.6c-0.8-0.2-1.4-0.5-1.4-1.3s0.7-1.3,1.6-1.3c0.5,0,1.1,0.1,1.5,0.3l-0.2,0.8C57.2,9.2,56.7,9,56.4,9
			c-0.4,0-0.6,0.1-0.6,0.4c0,0.3,0.3,0.4,0.8,0.5c0.8,0.2,1.4,0.5,1.4,1.3C58,12.1,57.3,12.6,56.3,12.6z"/>
		<path class="st0" d="M62.7,12.6c-1.2,0-2.1-0.8-2.1-2.2c0-1.4,0.9-2.2,2.1-2.2c1.2,0,2.1,0.8,2.1,2.2
			C64.9,11.8,63.9,12.6,62.7,12.6z M62.7,9.1c-0.7,0-1.1,0.6-1.1,1.4c0,0.8,0.4,1.3,1.1,1.3c0.7,0,1.1-0.5,1.1-1.3
			S63.4,9.1,62.7,9.1z"/>
		<path class="st0" d="M68.3,12.5V10c0-0.6-0.2-0.8-0.7-0.8c-0.4,0-0.7,0.2-0.9,0.4v2.9h-1.1V8.4l1.1-0.1c0,0,0,0.6,0,0.7
			c0.4-0.4,0.9-0.7,1.4-0.7c0.8,0,1.3,0.5,1.3,1.4v2.8H68.3z"/>
	</g>
	<g>
		<g>
			<path class="st0" d="M32,16.2h5.9v1.5h-4.2v2.3h3.4v1.5h-3.4v3.5H32V16.2z"/>
			<path class="st0" d="M41.9,24.3c-0.5,0.6-1,1-1.8,1c-1.2,0-2-0.8-2-1.8c0-1.2,0.9-2.2,3.9-2.3V21c0-0.9-0.4-1.2-1.3-1.2
				c-0.7,0-1.5,0.3-2.2,0.7l-0.3-1.3c0.6-0.4,1.7-0.8,2.7-0.8c2,0,2.8,0.9,2.7,2.7v2.3c0,0.5,0.1,0.6,0.6,0.6l-0.1,1.3
				C42.8,25.4,42.2,25,41.9,24.3L41.9,24.3z M41.9,22c-1.6,0.2-2.2,0.5-2.2,1.2c0,0.5,0.4,0.9,1,0.9c0.5,0,1-0.2,1.2-0.6V22z"/>
			<path class="st0" d="M48.1,25.3c-2.1,0-3.4-1.3-3.4-3.5c0-2.1,1.4-3.5,3.4-3.5c0.9,0,1.7,0.2,2.2,0.6L50,20.2
				c-0.5-0.3-1.2-0.5-1.8-0.5c-1.2,0-1.9,0.8-1.9,2.1c0,1.3,0.8,2.1,1.9,2.1c0.7,0,1.3-0.2,1.8-0.5l0.3,1.4
				C49.8,25.1,49,25.3,48.1,25.3z"/>
			<path class="st0" d="M52.6,22.2c0.1,1.1,0.8,1.8,2,1.8c0.7,0,1.4-0.2,2-0.6l0.2,1.4c-0.6,0.3-1.5,0.5-2.4,0.5
				c-2.1,0-3.5-1.3-3.5-3.4c0-2.1,1.4-3.5,3.4-3.5c1.7,0,2.7,1,2.7,2.6c0,0.4-0.1,0.8-0.1,1.1C56.9,22.1,52.6,22.1,52.6,22.2
				L52.6,22.2z M55.5,21.1c0,0,0-0.1,0-0.1c0-0.9-0.4-1.4-1.2-1.4c-0.9,0-1.5,0.8-1.6,1.6L55.5,21.1z"/>
			<path class="st0" d="M61.3,25.3c-0.4,0-1-0.1-1.5-0.2l-1.6,0.2v-9.7l1.7-0.2c0,0,0,3.7,0,3.8c0.4-0.4,1-0.8,1.8-0.8
				c1.7,0,2.9,1.4,2.9,3.4C64.6,23.8,63.1,25.3,61.3,25.3z M61.2,19.7c-0.6,0-1,0.2-1.3,0.5c0,0,0,3.3,0,3.3
				c0.3,0.2,0.7,0.4,1.2,0.4c1.1,0,1.8-0.9,1.8-2.1C62.9,20.6,62.3,19.7,61.2,19.7z"/>
			<path class="st0" d="M68.7,25.3c-1.9,0-3.3-1.3-3.3-3.5c0-2.2,1.5-3.5,3.4-3.5c1.9,0,3.3,1.3,3.3,3.5
				C72.1,24,70.6,25.3,68.7,25.3z M68.7,19.7c-1.1,0-1.7,0.9-1.7,2.1c0,1.2,0.6,2.1,1.7,2.1c1.1,0,1.7-0.8,1.7-2.1
				S69.8,19.7,68.7,19.7z"/>
			<path class="st0" d="M76.2,25.3c-1.9,0-3.3-1.3-3.3-3.5c0-2.2,1.5-3.5,3.4-3.5c1.9,0,3.3,1.3,3.3,3.5
				C79.6,24,78.1,25.3,76.2,25.3z M76.2,19.7c-1.1,0-1.7,0.9-1.7,2.1c0,1.2,0.6,2.1,1.7,2.1c1.1,0,1.7-0.8,1.7-2.1
				S77.3,19.7,76.2,19.7z"/>
			<path class="st0" d="M82.4,21.9v3.1h-1.7v-9.5l1.7-0.2v6.1h0l2.3-2.9h2L84,21.7l2.7,3.4h-2L82.4,21.9L82.4,21.9z"/>
		</g>
	</g>
	<g>
		<path class="st0" d="M25.9,5.5H7.5C6.8,5.5,6.3,6,6.3,6.6V25c0,0.6,0.5,1.1,1.1,1.1h18.4c0.6,0,1.1-0.5,1.1-1.1V6.6
			C27,6,26.5,5.5,25.9,5.5z"/>
		<g>
			<path class="st1" d="M23.3,18.2l0.4-3.1h-3.1v-2c0-0.9,0.2-1.5,1.5-1.5h1.7V8.7c-0.3,0-1.3-0.1-2.4-0.1c-2.4,0-4,1.5-4,4.1V15
				h-2.7v3.1h2.7v8h3.2v-8H23.3z"/>
		</g>
	</g>
</g>
</svg>
