<?xml version="1.0" encoding="utf-8"?>
<!-- Generator: Adobe Illustrator 16.0.0, SVG Export Plug-In . SVG Version: 6.00 Build 0)  -->
<!DOCTYPE svg PUBLIC "-//W3C//DTD SVG 1.1//EN" "http://www.w3.org/Graphics/SVG/1.1/DTD/svg11.dtd">
<svg version="1.1" id="Layer_1" xmlns="http://www.w3.org/2000/svg" xmlns:xlink="http://www.w3.org/1999/xlink" x="0px" y="0px"
	 width="19.2px" height="19.2px" viewBox="0 0 19.2 19.2" style="enable-background:new 0 0 19.2 19.2;" xml:space="preserve">
<style type="text/css">
<![CDATA[
	.st0{fill:#FFFFFF;}
	.st1{fill-rule:evenodd;clip-rule:evenodd;fill:#2E2E2E;}
	.st2{fill-rule:evenodd;clip-rule:evenodd;fill:#FFFFFF;}
]]>
</style>
<path class="st2" d="M15,5.3l-1.4,1.9l-2.4,0.2L11,6.8l1.1-0.6L10.8,4c-0.3-0.5-0.6-0.7-1.2-0.7C9.2,3.3,8.8,3.5,8.5,4L6.1,8.2
	L4.6,7.3l2.4-4.2c0.6-1,1.4-1.5,2.6-1.5c1.1,0,2,0.5,2.6,1.6l1.3,2.2l1.1-0.6L15,5.3L15,5.3z M17.7,13.2c0,0.9-0.3,1.6-0.9,2.2
	c-0.6,0.6-1.3,0.9-2.2,0.9H12v1.3h-0.6l-0.9-2.2l1.1-2.1h0.6v1.3h2.5c0.4,0,0.7-0.1,0.9-0.4c0.3-0.2,0.4-0.5,0.4-0.9
	c0-0.2-0.1-0.5-0.2-0.6l-2.5-4.2l1.5-0.9l2.5,4.2C17.5,12.2,17.7,12.7,17.7,13.2L17.7,13.2L17.7,13.2z M11.5,12.7l-0.9-1.2l-0.9,1.2
	V9c0-0.4-0.2-0.7-0.6-0.8C8.8,8.2,8.6,8.1,8.6,7.9c0-0.1,0.1-0.2,0.4-0.2c0.2,0,0.4,0,0.6,0l0.1-0.2C9.5,7.4,9.4,7.2,9.4,7
	c0-0.2,0.1-0.3,0.2-0.5c0.1-0.1,0.3-0.2,0.5-0.2c0.2,0,0.3,0,0.4,0.2c0.1,0.1,0.2,0.3,0.2,0.5c0,0.2-0.1,0.4-0.2,0.5
	c0,0.1,0.3,0.6,1.1,1.5l-0.9,0.7h1L11.5,12.7L11.5,12.7z M8.5,7.9c0,0.3-0.1,0.5-0.1,0.9L7.8,8.7c0-0.3,0-0.6,0.2-0.9
	c0.2-0.6,0.3-0.9,0.3-0.9l0.1,0l0,0.5c0,0.1,0,0.2,0.1,0.3C8.4,7.8,8.5,7.9,8.5,7.9L8.5,7.9L8.5,7.9z M9.2,13H6.3V9.5
	c0-0.3,0.1-0.6,0.3-0.8c0.2-0.2,0.5-0.3,0.8-0.2h0.1v0.4l1,0.2l0.1-0.5C9,8.7,9.2,9,9.2,9.5V13L9.2,13z M9.4,16.3H4.5
	c-0.8,0-1.6-0.3-2.1-0.9c-0.6-0.6-0.9-1.3-0.9-2.1c0-0.5,0.2-1.2,0.7-2c0.4-0.6,0.7-1.2,1.1-1.8L2.1,8.8l0.3-0.5l2.4,0.3l1.3,1.9
	L5.8,11l-1.1-0.6c-0.3,0.5-0.6,0.9-0.9,1.4c-0.4,0.7-0.6,1.2-0.6,1.5c0,0.4,0.1,0.7,0.4,0.9c0.3,0.3,0.6,0.4,0.9,0.4h4.9V16.3
	L9.4,16.3z M8.6,9.9c0-0.2-0.1-0.4-0.2-0.6C8.2,9.2,8,9.1,7.8,9.1c-0.2,0-0.4,0.1-0.6,0.3C7,9.5,7,9.7,7,9.9c0,0.2,0.1,0.4,0.2,0.6
	c0.1,0.2,0.3,0.2,0.6,0.2c0.2,0,0.4-0.1,0.6-0.2C8.5,10.3,8.6,10.1,8.6,9.9L8.6,9.9L8.6,9.9z"/>
</svg>
