<?xml version="1.0" encoding="utf-8"?>
<!-- Generator: Adobe Illustrator 16.0.0, SVG Export Plug-In . SVG Version: 6.00 Build 0)  -->
<!DOCTYPE svg PUBLIC "-//W3C//DTD SVG 1.1//EN" "http://www.w3.org/Graphics/SVG/1.1/DTD/svg11.dtd">
<svg version="1.1" id="Layer_1" xmlns="http://www.w3.org/2000/svg" xmlns:xlink="http://www.w3.org/1999/xlink" x="0px" y="0px"
	 width="152px" height="150px" viewBox="0 0 152 150" style="enable-background:new 0 0 152 150;" xml:space="preserve">
<style type="text/css">
<![CDATA[
	.st0{fill:none;stroke:#FFFFFF;stroke-width:1.2239;stroke-miterlimit:10;}
	.st1{fill-rule:evenodd;clip-rule:evenodd;fill:#fff;}
	.st2{fill:none;stroke:#FFFFFF;stroke-width:1.1244;stroke-miterlimit:10;}
]]>
</style>
<circle class="st2" cx="76" cy="75" r="67.8"/>
<circle class="st0" cx="76" cy="75" r="73.8"/>
<g>
	<path class="st1" d="M143.8,75c0-37.4-30.4-67.8-67.8-67.8S8.2,37.6,8.2,75c0,37.4,30.4,67.8,67.8,67.8S143.8,112.4,143.8,75z
		 M115.6,74.2v3.7c0,4-0.5,7.9-0.5,7.9s-0.5,3.4-2,4.8c-1.9,1.9-4,2-4.9,2.1c-6.9,0.5-17.2,0.5-17.2,0.5s-12.8-0.1-16.7-0.5
		c-1.1-0.2-3.5-0.1-5.4-2.1c-1.5-1.5-1.9-4.8-1.9-4.8s-0.5-4-0.5-7.9v-3.7c0-4,0.5-7.9,0.5-7.9s0.5-3.4,1.9-4.8c1.9-1.9,4-2,4.9-2.1
		c6.9-0.5,17.2-0.5,17.2-0.5h0c0,0,10.3,0,17.2,0.5c1,0.1,3,0.1,4.9,2.1c1.5,1.5,2,4.8,2,4.8S115.6,70.2,115.6,74.2z M77.3,67.8h3.6
		v-3.1l-10.3,0v3.1H74v18.9h3.3V67.8z M89.1,70.3H86v12.5c-0.7,0.9-1.2,1.4-1.8,1.4c-0.4,0-0.6-0.2-0.7-0.6c0-0.2,0-0.5,0-1.2V70.3
		h-3.1v13c0,1.1,0.1,1.9,0.3,2.4c0.3,0.8,1,1.3,2,1.3c1.1,0,2.1-0.7,3.3-2v1.8h3.1V70.3z M97.4,74.9v7.1c0,1.6-0.4,2.3-1.2,2.3
		c-0.5,0-1.1-0.2-1.6-0.7l0-10c0.5-0.5,1.1-0.8,1.5-0.8C97,72.7,97.4,73.2,97.4,74.9z M100.5,75.2c0-1.6-0.2-2.6-0.4-3.3
		c-0.4-1.2-1.2-1.9-2.4-1.9c-1.1,0-2.2,0.7-3.1,1.9l0-7.2h-3v22h3l0-1.7c1,1.2,2.1,1.9,3.1,1.9c1.2,0,2-0.6,2.4-1.9
		c0.2-0.7,0.3-1.8,0.3-3.3V75.2z M108.4,76.5l-2.8,0v-1.8c0-1.5,0.4-2,1.4-2c1,0,1.4,0.5,1.4,2V76.5z M105.6,81.9V79h5.9l0-3.4
		c0-1.8-0.3-3-1-3.9c-0.8-1.1-2-1.7-3.5-1.7c-1.5,0-2.7,0.6-3.6,1.7c-0.6,0.8-1,2.2-1,3.9v5.7c0,1.7,0.4,3,1,3.8
		c0.9,1.1,2,1.7,3.6,1.7c1.6,0,2.8-0.6,3.6-1.8c0.4-0.5,0.6-1.1,0.7-1.8c0-0.3,0.1-1,0.1-1.9v-0.5h-3.1c0,1.2,0,1.9,0,2.1
		c-0.2,0.8-0.6,1.2-1.3,1.2C106,84.2,105.6,83.4,105.6,81.9z M64,86.7h-3.1v-1.8c-1.2,1.4-2.2,2-3.3,2c-1,0-1.6-0.5-2-1.3
		c-0.2-0.5-0.3-1.3-0.3-2.4V70.1h3.1v12.3c0,0.7,0,1,0,1.2c0.1,0.5,0.3,0.6,0.7,0.6c0.6,0,1.1-0.5,1.8-1.4V70.1H64V86.7z M53,81.4
		c0,1.8-0.3,3-0.9,3.8c-0.8,1.1-2.2,1.7-3.5,1.7s-2.7-0.6-3.5-1.7c-0.6-0.8-0.9-2-0.9-3.8l0-5.9c0-1.8,0.3-3.1,1-4
		c0.8-1.1,2-1.6,3.5-1.6c1.3,0,2.6,0.5,3.4,1.6c0.6,0.8,1,2.2,1,3.9V81.4z M44.8,64.5h-3.4l-2.3,8.7l-2.3-8.7h-3.4
		c0.7,2.1,4.1,13.1,4.1,13.1v9h3.3v-9L44.8,64.5z M49.9,75.2c0.2-1.6-0.3-2.4-1.3-2.4c-1,0-1.5,0.8-1.3,2.4v6.6
		c-0.2,1.6,0.3,2.5,1.3,2.5c1,0,1.5-0.8,1.3-2.5L49.9,75.2z"/>
</g>
</svg>
