<?xml version="1.0" encoding="utf-8"?>
<!-- Generator: Adobe Illustrator 16.0.0, SVG Export Plug-In . SVG Version: 6.00 Build 0)  -->
<!DOCTYPE svg PUBLIC "-//W3C//DTD SVG 1.1//EN" "http://www.w3.org/Graphics/SVG/1.1/DTD/svg11.dtd">
<svg version="1.1" id="simbolos" xmlns="http://www.w3.org/2000/svg" xmlns:xlink="http://www.w3.org/1999/xlink" x="0px" y="0px"
	 width="140px" height="140px" viewBox="6 5 140 140" style="enable-background:new 6 5 140 140;" xml:space="preserve">
<style type="text/css">
<![CDATA[
	.st0{fill:none;stroke:#447f3b;stroke-width:1.1486;stroke-miterlimit:10;}
	.st1{fill:none;stroke:#447f3b;stroke-width:1.1486;stroke-miterlimit:10;}
	.st2{fill-rule:evenodd;clip-rule:evenodd;fill:#447f3b;}
]]>
</style>
<g>
	<g>
		<circle class="st1" cx="76" cy="75" r="63.6"/>
		<circle class="st0" cx="76" cy="75" r="69.3"/>
	</g>
	<g>
		<path class="st2" d="M77.2,53.7c0-0.1,0-0.1,0-0.2c0.1,0,0.3,0,0.4,0c0.1,0.6,0.2,1.1,0.4,1.7c-0.2,0-0.4,0-0.6,0
			C77.6,54.6,77.7,54.1,77.2,53.7z"/>
		<path class="st2" d="M98.7,100.3c-0.1,0-0.2,0-0.4,0.1c-0.2,0-0.5,0-0.7,0.1c-2.9,0.9-5.8,1.6-8.8,2.2c-2.9,0.5-5.7,0.8-8.6,0.9
			c-4.1,0.2-8.1,0-12.1-0.5c-2.7-0.3-5.5-0.9-8.1-1.6c-3.2-1-6.5-1.8-9.4-3.7c-2-1.3-4.1-2.4-5.8-4.2c-2.8-3-4.7-6.3-3.6-10.7
			c0.1-0.2-0.1-0.5-0.1-0.8c-0.1-0.3,0.1-0.4,0.3-0.6c0.4-0.1,0.4-0.4,0.6-0.7c0.7-1.1,1.1-2.4,2.2-3.2c0,0.8,0.6,1.4,0.6,2
			c0.1,1.9,1.1,3.3,1.9,4.8c0.5,1,0.9,2.1,2.1,2.7c-0.2,0.3-0.3,0.7-0.5,0.9c-1.1,1-1.7,2.3-2.6,3.3c-0.3,0.4-0.3,0.7,0.1,1
			c1,0.7,2,1.4,3,2.1c1.1,0.7,2,0.4,2.7-0.8c0.1-0.4,0.1-0.8,0-1.2c0.3-0.6,1.1-0.4,1.3-1.1c0,0,0.1,0,0.1-0.1
			c0.2,0.1,0.2,0.3,0.2,0.5c-0.8,0.9-1.1,2.1-1.9,2.9c-0.5,0.5-0.6,1.1,0.2,1.5c0.7,0.4,1.3,0.6,1.5-0.4c0-0.1,0.2-0.2,0.3-0.3
			c0.2,0,0.3,0,0.5,0.1c0,2,2,3.5,3.9,2.9c0.4-0.1,0.8-0.2,0.7-0.8c0.3-0.1,0.5-0.2,0.8-0.2c-0.1,0.3-0.2,0.6-0.3,0.9
			c-0.3,1,0.5,1.1,1.2,1.3c0.8,0.2,0.8-0.4,0.9-0.9c0.2-0.5,0.3-1,0.5-1.4c0.5-0.3,1.3-0.4,1.4-0.1c0.4,0.7,1,1.2,1.5,1.9
			c-0.2,0-0.4,0-0.6,0c-0.3-0.2-0.7-0.5-1,0c-0.2,0.4,0,0.8,0.3,1.1c0.7,0.7,2.8,1.1,3.7,0.7c0.4-0.2,0.6-0.4,0.7-0.8
			c0.2,0,0.4,0,0.6,0c0.4,1.4,2.3,2.1,3.9,1.5c0.6-0.2,1-0.6,1-1.3c0.5-0.6,0.4-1.2,0.2-1.9c-0.6-1.5-1.9-1.4-3.1-1.3
			c-1-0.2-1.3,0.6-1.9,1.1c-0.1-0.2-0.3-0.3-0.5-0.3c0.3-1.1-0.5-1.5-2.3-1.8c-0.1,0-0.3,0-0.4,0c-0.1,0-0.3,0-0.4,0
			c-0.3,0-0.6,0-0.9,0.1c-0.3-0.9-1.3-0.3-1.8-0.7c0.2-0.4,0.6-0.6,0.9-0.4c0.9,0.6,1.7,0.2,2.6,0.2c1.9-0.2,3.7-0.7,5.5-1.1
			c1-0.2,1.5-1.4,2.6-1c0,0.5-0.6,1.1,0.2,1.6c0.7-0.9,0.9-2,1.3-3c0.2-0.2,0.5,0.5,0.6,0c0.1-0.6,0.5-0.6,0.8-0.8
			c0.3-0.3,0.9-0.1,1-0.6c0.2,0,0.5,0,0.7,0c0.3,0,0.7,0,0.8-0.3c0.2-0.5-0.3-0.3-0.5-0.4c-0.2-0.2-0.1-0.3,0-0.5
			c0.2-0.3,0.3-0.5,0.4-0.8c0.6-0.1,0.9-0.8,1.4-0.9c-0.1,1-0.5,2-0.9,3c0.7,0.6,1.7,0.6,2.3,0c0.4-0.1,1-0.1,0.9-0.6
			c-0.1-0.5-0.6-0.2-1-0.2c-0.3,0-0.7,0.1-1,0.1c0.3-0.8,0.6-1.7,0.8-2.5c0.3-0.1,0.5-0.1,0.1-0.4c0.1-0.5,0.2-1,0.3-1.5
			c1,0,1.2-0.6,1.2-1.5c0.4-0.3,0.8-0.6,1-1.1c0.6-1.1,0.6-1.4-0.4-2c-0.5-1-0.2-1.9,0.1-2.9c0.2-0.4,0.1-0.8-0.3-1.1
			c0.3-0.4,0.8-0.2,1.2-0.2c7.7,0,15.4,0,23.2,0c0.4,0,0.9,0.2,1-0.5c2.8,2.6,4.8,5.5,5,9.4c0.2,2.6-0.8,4.9-2.4,7
			c-2.2,2.8-5,4.8-8.2,6.3c-0.3-0.4-0.7-0.1-1,0c-0.8,0.3-1.6,0.7-2.5,1C99.2,99.8,98.8,99.8,98.7,100.3z M89.9,86.5
			c-0.2,0-0.3,0-0.5-0.1c0-0.1,0-0.1,0-0.2c0-0.4-0.1-0.7-0.5-0.6c-0.3,0.1-0.2,0.4-0.2,0.6c-0.1,0.7-0.1,1.4-0.2,2.1
			c0,0.2-0.1,0.4-0.1,0.6c-0.5,0.1-0.5,0.6-0.5,0.9c-0.1,0.2,0.1,0.4,0.4,0.2c0.2,0,0.5,0,0.6-0.3c0.1-1.1,0.7-1.9,1.2-2.8
			c0.1-0.1,0.2-0.1,0.3-0.2c0.6,0,0.8,0.2,0.6,0.8c-0.2,0.5-0.4,1-0.5,1.6c-0.1,0.4-0.5,0.9,0.2,1c0.6,0.1,0.8-0.3,0.7-0.8
			c0.4-1,0.7-2,1.6-2.7c1,0,0.8,0.7,0.6,1.3c-0.1,0.4-0.4,0.6-0.6,1c-0.1,0.3-0.5,0.6-0.3,0.9c0.3,0.4,0.8,0.2,1.2,0.2
			c0.1,0,0.3-0.1,0.3-0.2c0.1-0.2-0.1-0.3-0.2-0.4c-0.1-0.1-0.4,0-0.5-0.3c0.3-0.4,0.7-0.8,1-1.2c0.3-0.5,0.4-1.1,0-1.6
			c-0.4-0.5-0.9-0.4-1.4-0.2c-0.3,0.1-0.7,0.2-0.8,0.6c-0.4,0-0.6-0.6-1.1-0.5c-0.3-0.2-0.7-0.3-0.9,0.2
			C90.1,86.4,90,86.5,89.9,86.5z M97.2,93.2c0,0.1,0.1,0.3,0.1,0.4c0.6,1.2,1.1,2.4,1.7,3.6c0.1,0.3,0.3,0.7,0.7,0.4
			c0.4-0.3,1.4,0,1.2-1c-0.3-0.4-0.4-0.9-0.5-1.4c0.2,0,0.3,0,0.5,0.1c1.6,1.1,3.1,0.8,4.3-0.8c0.7-1.4,0.7-1.5-0.4-1.6
			c0.1-0.1,0.2-0.3,0.3-0.4c0.3,0.2,0.5,0,0.8,0c1.2,1.3,1.2,1.3,1.9,0.3c0.6-0.2,0.4-0.6,0.2-0.9c-0.2-0.3-0.4-0.5-0.6-0.7
			c-0.4-0.6-1.1-1-0.2-1.8c0.3-0.3,0-0.8-0.1-1.2c-0.2-0.4-0.4-0.2-0.7,0c-0.8-0.1-0.5,0.9-1.2,1.1c-1.2,0.3-1.2,0.8-0.7,1.8
			c0,0.1,0,0.1-0.1,0.2c-0.5,0.1-0.8-0.5-1.2-0.3c-1.6,0.1-2.8,1-3.1,2.3c-0.1,0.6,0.3,1.1,0.1,1.6c-0.6-0.8-1-1.7-1.3-2.6
			c-0.2-0.5-0.4-1.1-1.2-0.5C96.4,92.1,96.4,92.2,97.2,93.2z M95.5,98c0.2,0,0.3-0.1,0.5-0.1c0.8,0.9,1.3,1,2.2,0.1
			c-0.4-1.8-1.4-3.5-1.9-5.2c-0.1-0.4-0.4-0.6-0.8-0.2c-1.4,0.3-1.4,0.3-0.9,1.6c0.2,0.5,0.4,1,0.6,1.5c-0.1,0-0.3,0-0.4,0.1
			c-0.5-0.3-1-0.7-1.6-0.6c-1.8-0.1-2.8,0.6-3.2,2c-0.2,0-0.3,0-0.5,0c-0.3-0.4-0.6-0.9-1.2-0.9c-0.9-0.4-1.4,0.2-1.9,0.7
			c-0.4,0-0.8-0.4-1.2-0.3c-0.6,0-1.2,0.2-1.7,0.6c-0.1,0-0.1,0-0.2,0c-0.4-0.8-0.9-0.2-1.4-0.1c-0.5,0-0.4,0.5-0.3,0.7
			c0.2,1.1,0.4,2.2,0.6,3.3c0.1,0.4,0.2,0.6,0.6,0.5c0.4-0.1,0.9,0.2,0.9-0.5c0.6-0.6,0.2-1.3,0.1-1.9c-0.1-0.3-0.2-0.6,0.1-0.9
			c0.5-0.1,0.8,0.1,0.9,0.7c0.1,0.6,0.2,1.2,0.3,1.7c0.2,0.9,1,0.4,1.5,0.5c0.3,0,0.7-0.1,0.4-0.6c0-0.9-0.4-1.8-0.2-2.7
			c0.7-0.2,0.9,0.4,1,0.9c0.1,0.4,0,0.8,0.1,1.1c0.1,0.3,0,0.9,0.5,0.9c0.5,0,1.1,0.3,1.4-0.4c-0.1-0.6-0.1-1.1-0.2-1.7
			c0.1,0,0.3,0,0.4,0c1.2,1.6,3.3,1.7,4.6,0.2C95.2,98.8,95.5,98.5,95.5,98z M79.8,97.2c-0.6-0.1-1.1,0.1-1.5,0.5
			c-0.4-0.3-0.8-0.6-1.4-0.5c-0.8,0-1.7,0-2.5,0c-0.5,0-0.8,0.1-0.8,0.7c0,1-0.1,2.1,0.1,3.1c0.2,0.9,0.8,1.3,1.7,1
			c0.4-0.1,0.4-0.4,0.1-0.6c0.3-0.8-0.4-1.7,0.2-2.5c0.7-0.2,1,0.2,1,0.8c0,0.5,0,1,0,1.5c0,0.7,0.4,0.8,1,0.8
			c0.6,0,1.1-0.1,0.9-0.8c0-0.8,0-1.5,0.1-2.3c0.7-0.2,1.1,0.1,1,0.8c0,0.4,0,0.8,0,1.2c-0.1,0.7,0.3,0.9,0.9,0.9c0.6,0,1.1,0,1-0.9
			c0-0.7,0-1.4,0-2.2C81.3,97.6,81,97.3,79.8,97.2z M87.1,88.4c0.3-0.7,0.4-1.4-0.2-1.9c-0.8-0.6-1.8-0.6-2.6,0
			c-1,0.8-1.7,2.2-1.4,3c0.1,0.3,0.4,0.5,0.7,0.6C85,90.8,86.7,89.9,87.1,88.4z"/>
		<path class="st2" d="M107.1,74.9c0.2,0.1,0.4,0.2,0.4,0.4c-0.3,0.2-0.7,0.2-1,0.2c-6.7,0-13.4,0-20.2,0c-0.3,0-0.6-0.1-0.9-0.1
			c-1.1-0.2-1.3-1-1.3-2c0-0.6-0.1-1.4-1-1.6c0.9-1.3,1.6-2.7,1.5-4.4l0.1-0.1c0.2,0.1,0.5,0.2,0.7,0.2c2.2,0.2,4.4,0.5,6.6,1.1
			c4.4,1.1,8.6,2.4,12.5,4.8C105.3,73.9,106.2,74.4,107.1,74.9z"/>
		<path class="st2" d="M56.8,69.7c2.3-1.3,5-1.4,7.6-2.1c1.7-0.5,3.4-0.7,5.1-0.8c0,0.4,0.1,0.8,0.2,1.2c0.5,3,2.1,5.2,5,6.4
			C75,75,74.2,75,74,75.5c-1.3,0-2.7,0-4,0c-0.2-0.7-0.3-1.5-0.7-2.2c-0.4-0.7-0.6-1.4-1.2-2.1c-1.1-1.2-2.4-1.7-4-1.9
			c-1.6-0.2-3.8,0.6-4.7,1.9c-0.9,1.3-1.3,2.9-2.1,4.2c-1.7,0-3.5,0-5.2,0c0.2-1.8,0.2-3.7,2.1-4.8l0,0
			C55.2,70.6,56.1,70.2,56.8,69.7z"/>
		<path class="st2" d="M84.2,66.3c0,0.1,0,0.2,0,0.3c-0.1,0.4,0.2,0.5,0.4,0.7l-0.1,0.1c-0.5,1.6-0.9,3.3-2.1,4.5
			c-0.3,0.3-0.9,0.5-0.8,1.1c-0.1,0.2-0.3,0.3-0.4,0.5c-0.3,0.1-0.7,0.3-1,0.4c-0.3-0.1-0.4,0.1-0.4,0.4c-0.1,0-0.2,0-0.2,0.1
			c0-1.7,0-3.4,0-5.1c0.4,0,0.4-0.3,0.5-0.6c0.1-1,0.3-1.9,0.4-2.9c0-0.7,0-1.2,0.9-1.3c0.2,0,0.5-0.2,0.5-0.5
			c0-0.3-0.4-0.2-0.6-0.2c-2.6,0-5.2,0-7.8,0c-0.2,0-0.7-0.1-0.7,0.2c-0.1,0.4,0.4,0.5,0.6,0.6c0.7,0,0.6,0.5,0.8,1
			c0.3,1.2-0.1,2.4,0.6,3.5c0.1-0.4,0.1-0.8,0.1-1.3c0.1-1-0.2-2,0.2-3c0.3,0.3,0.2,0.7,0.2,1c0,1.6,0,3.2,0,4.8
			c0,1.5,0,1.5-1.4,1.3c-0.3-0.3-0.6-0.5-0.9-0.8c-1.3-1.3-1.8-2.9-1.5-4.8c0,0,0-0.1,0-0.1c-0.3-0.9,0.3-1.5,0.5-2.2
			c0.4-1.1,1.3-0.7,2.1-0.8c2.6,0,5.3-0.1,7.9-0.1c0.6,1.5,0.8,1.6,1.5,0.9c0.3,0.3,0.2,0.8,0.6,1c0,0.1,0.1,0.3,0.1,0.4
			C83.9,65.8,83.9,66,84.2,66.3z"/>
		<path class="st2" d="M80.2,56.6c0.2-0.2,0.5-0.3,0.8-0.2c4,0.2,7.8-0.7,11.7-1.6c0.5-0.1,1-0.1,1.6-0.1c-0.5,0.1-1,0.3-1.5,0.4
			c-0.6,0.2-1,0.5-1,1.2c-0.1,0.8-0.1,1.6-0.3,2.4c-0.2,0.9,0.4,1.2,0.9,1.4c1.8,0.5,3.6,0.7,5.5,0.5c0.5,0,1,0,1.5,0
			c0.1,0.1,0.3,0.3,0.4,0.4c-3.4,0.3-6.7-0.1-9.9-1c-3.1-0.8-6.4-1-9.6-1.4C79.9,58,80.1,57.3,80.2,56.6z"/>
		<path class="st2" d="M41.1,82c0,0.3,0.2,0.6,0.1,0.8c-1.1,4.3,0.8,7.7,3.6,10.7c1.7,1.8,3.8,2.9,5.8,4.2c2.9,1.9,6.2,2.7,9.4,3.7
			c2.6,0.8,5.4,1.3,8.1,1.6c4,0.5,8.1,0.7,12.1,0.5c2.9-0.1,5.8-0.4,8.6-0.9c3-0.6,5.9-1.3,8.8-2.2c0.2-0.1,0.5-0.1,0.7-0.1
			c-0.3,0.8-1.1,0.8-1.7,0.9c-1,0.1-1.9,0.6-2.9,0.9c-6.5,1.6-13.1,2.3-19.8,2c-4.4-0.2-8.8-0.8-13-1.9c-5.2-1.4-10.4-3.2-14.7-6.7
			c-3.1-2.5-5.5-5.4-5.9-9.5C40.2,84.7,40.1,83.2,41.1,82z"/>
		<path class="st2" d="M97.8,60.6c-1.9,0.2-3.7-0.1-5.5-0.5c-0.5-0.1-1.1-0.5-0.9-1.4c0.2-0.8,0.2-1.6,0.3-2.4c0.1-0.6,0.4-1,1-1.2
			c0.5-0.1,1-0.3,1.5-0.4c1.2-0.4,2.4-0.7,3.6-0.4c-0.1,0.1-0.3,0.2-0.4,0.3c0.2,0.5,1.3-0.1,1.1,0.8C98.1,57.1,98.3,58.9,97.8,60.6
			z"/>
		<path class="st2" d="M70.1,75.5c1.3,0,2.7,0,4,0c0.4,0,0.8,0,1.2,0.1c0,0.2,0,0.4,0.1,0.6c-0.1,0.1-0.1,0.1-0.2,0.2
			c-0.7,0-1.4,0-2.1,0c-0.2,0-0.4,0-0.6,0c-0.5,0.3-1.1,0.1-1.7,0.2c-1.2-0.1-2.5-0.3-3.7-0.3c-2.1,0-4.2,0-6.3,0
			c-1.2,0-2.3,0.4-3.5,0.1c-0.5-0.2-1.1-0.1-1.6-0.1c-0.1,0-0.1,0-0.2,0c-1.1-0.2-2.3,0.3-3.4,0.2c-1.8,0.1-3.5-0.3-5.2-0.2
			c-1.1-0.2-2.1,0-2.6,1.1c-1.1,0.8-1.5,2.1-2.2,3.2c-0.2,0.2-0.2,0.6-0.6,0.7c-0.1-1,0.5-1.6,1-2.3c1-1.5,2.1-2.8,3.6-3.8
			c0.3,0.3,0.6,0.3,0.9,0.2c1.3,0,2.6,0,4,0c0.3,0,0.5,0,0.8,0c0.2,0,0.4,0,0.7,0c1.7,0,3.5,0,5.2,0C61.7,75.5,65.9,75.5,70.1,75.5z
			"/>
		<path class="st2" d="M85.4,75.4c0.3,0,0.6,0.1,0.9,0.1c6.7,0,13.4,0,20.2,0c0.3,0,0.7,0.1,1-0.2c0.4,0.1,0.8,0.2,1.1,0.6
			c-0.1,0.6-0.6,0.5-1,0.5c-7.7,0-15.4,0-23.2,0c-0.4,0-0.8-0.2-1.2,0.2c-1.1,0-2.2,0-3.4,0c-0.3,0-0.6-0.1-0.8-0.2
			c0-0.3,0-0.6,0-0.8c0.1,0,0.1-0.1,0.2-0.1c1.1,0,2.2,0.1,3.3-0.1C83.6,75.5,84.5,75.5,85.4,75.4z"/>
		<path class="st2" d="M97.8,60.6c0.5-1.7,0.2-3.5,0.7-5.2c0.2-0.8-0.8-0.3-1.1-0.8c0.1-0.1,0.2-0.2,0.4-0.3
			c1.3-0.4,2.6,0.1,3.8,0.5c0.2,0.1,0.4,0.8,0.3,1.3c-0.1,0.9-0.2,1.7-0.4,2.6c-0.1,0.7-0.2,1.3,0.8,1.5c-0.5,0.2-0.9,0.5-1.4,0.4
			c-0.5-0.8-1.1-0.2-1.7,0C98.8,60.6,98.3,60.6,97.8,60.6z"/>
		<path class="st2" d="M50.8,75.4c-1.3,0-2.6,0-4,0c0-0.5,0.4-0.5,0.7-0.7c0.8-0.8,2-1.2,2.6-2.1c0.1,0,0.2,0,0.2,0
			c0.1,0,0.3-0.1,0.4-0.1c0.8-0.9,1.9-1.3,2.9-1.8c0.3-0.1,0.5,0,0.7,0.1c-1.9,1.1-1.9,3-2.1,4.8c-0.2,0-0.4,0-0.7,0
			C51.3,74.9,51,74.9,50.8,75.4z"/>
		<path class="st2" d="M84.6,67.3c-0.2-0.2-0.5-0.3-0.4-0.7c3.2,0.5,6.5,0.9,9.6,1.8c4.4,1.2,8.6,2.9,12.4,5.6
			c0.3,0.2,0.7,0.4,0.8,0.9c-0.9-0.5-1.8-1-2.7-1.5c-3.9-2.4-8.1-3.7-12.5-4.8c-2.2-0.5-4.4-0.8-6.6-1.1
			C85.1,67.5,84.9,67.4,84.6,67.3z"/>
		<path class="st2" d="M80.2,56.6c-0.1,0.7-0.3,1.3,0,2c-0.8,0.8-0.8,1.1,0.2,1.6c0.2,0.1,0.3,0.2,0.4,0.3c-0.1,0.1-0.2,0.2-0.3,0.3
			c-0.8-0.3-1.5-0.6-2.3-0.9c0.4-0.5,0.9-0.9,0.9-1.6c0-0.2,0-0.4-0.2-0.4c-0.2,0-0.3,0.1-0.3,0.2c-0.4,0.8-1.2,1.2-1.7,1.8
			c-0.3,0-0.7,0-1,0c0-0.2,0-0.4,0-0.6c0.5-0.1,0.7-0.3,0.5-0.8c-0.2-0.6-0.1-1.2,0.2-1.8c0.3-0.7,0.8-1,1.4-0.4
			c0.6,0.6,0.7,0.1,0.9-0.2c0.1,0,0.3,0.1,0.4,0.1c0.1,0.1,0.3,0.2,0.4,0.2C79.8,56.7,80,56.6,80.2,56.6z"/>
		<path class="st2" d="M75.9,59.4c0,0.2,0,0.4,0,0.6c-3.3,0.8-5.5,3.2-5.7,6.3c-0.1,0-0.2,0-0.4,0c-0.2-2.5,1.1-4.3,2.9-5.7
			c0.5-0.4,1-0.7,1.6-0.9c0.7-0.3,0.7-0.5,0.1-1.1c-0.4-0.3-0.1-0.7-0.2-1.1c0.4,0,0.6,0.2,0.6,0.5c0.1,0.3,0.3,0.5,0.6,0.5
			C75.7,58.8,75.8,59.1,75.9,59.4z"/>
		<path class="st2" d="M69.9,66.3c0.1,0,0.2,0,0.4,0c0,2,0.4,3.8,2,5.2c0.2,0.5,0.5,0.8,1,0.9c0.5,0.5,1.1,1.1,2,0.4
			c-0.2,0.6,0.3,1.3-0.5,1.5c-2.9-1.2-4.5-3.3-5-6.4c-0.1-0.4-0.1-0.8-0.2-1.2C69.6,66.6,69.8,66.4,69.9,66.3z"/>
		<path class="st2" d="M75.9,59.4c-0.1-0.3-0.3-0.6-0.4-0.9c0-0.9,0-1.7,0.2-2.6c0.2-0.3,0.5-0.6,0.8-0.8c0.3,0,0.6,0,0.8,0
			c0.2,0,0.4,0,0.6,0c0.6,0.1,0.7,0.5,0.9,1c-0.2,0.3-0.3,0.8-0.9,0.2c-0.5-0.6-1.1-0.3-1.4,0.4c-0.2,0.6-0.4,1.2-0.2,1.8
			C76.7,59.1,76.5,59.3,75.9,59.4z"/>
		<path class="st2" d="M80.5,60.9c0.1-0.1,0.2-0.2,0.3-0.3c1.8,1,2.8,2.5,3.2,4.5c-0.4-0.2-0.4-0.7-0.6-1c-0.7,0.7-0.9,0.6-1.5-0.9
			c-0.1-0.3-0.1-0.6-0.2-0.9c-0.1-0.6-0.6-1-1.1-1.2C80.5,61,80.5,60.9,80.5,60.9z"/>
		<path class="st2" d="M72.6,58.3c-0.7-0.4-0.4-1-0.3-1.5c0.1-0.4,0.5-0.7,1.1-0.6c0.3,0,0.6,0,0.9,0c0,0.3,0.3,0.6,0,0.8
			C73.7,57.4,73.4,58.2,72.6,58.3z"/>
		<path class="st2" d="M50.1,72.6c-0.7,1-1.8,1.3-2.6,2.1c-0.2,0.2-0.7,0.3-0.7,0.7c-0.3,0.1-0.6,0.1-0.9-0.2
			C47.1,74.1,48.5,73.2,50.1,72.6z"/>
		<path class="st2" d="M98.7,100.3c0.1-0.5,0.5-0.5,0.9-0.6c0.8-0.3,1.6-0.7,2.5-1c0.3-0.1,0.7-0.4,1,0
			C101.6,99.2,100.3,100.1,98.7,100.3z"/>
		<path class="st2" d="M74.2,57c0.4-0.3,0.1-0.5,0-0.8c0.5-0.1,1-0.2,1.5-0.3c-0.2,0.8-0.2,1.7-0.2,2.6c-0.3,0-0.6-0.2-0.6-0.5
			c-0.1-0.3-0.3-0.5-0.6-0.5C74.3,57.3,74.3,57.2,74.2,57z"/>
		<path class="st2" d="M74.2,57c0,0.1,0,0.3,0,0.4c0.1,0.4-0.2,0.8,0.2,1.1c-0.1,0.6-0.6,0.5-0.8,0.3c-0.4-0.3-0.9-0.2-1.2-0.5
			C73.4,58.2,73.7,57.4,74.2,57z"/>
		<path class="st2" d="M56.8,69.7c-0.7,0.6-1.6,0.9-2.5,1C54.9,69.9,55.9,69.8,56.8,69.7z"/>
		<path class="st2" d="M77.4,55.1c-0.3,0-0.6,0-0.8,0c0.2-0.5,0.4-1,0.7-1.5C77.7,54.1,77.6,54.6,77.4,55.1z"/>
		<path class="st2" d="M99.3,60.6c0.6-0.2,1.1-0.8,1.7,0c-0.5-0.1-0.8,0.4-1.3,0.4C99.6,60.8,99.4,60.7,99.3,60.6z"/>
		<path class="st2" d="M84.2,66.3c-0.3-0.2-0.3-0.5-0.1-0.8C84.4,65.7,84.4,66,84.2,66.3z"/>
		<path class="st2" d="M79.7,56.5c-0.1-0.1-0.3-0.2-0.4-0.2C79.7,55.9,79.7,56.2,79.7,56.5z"/>
		<path class="st2" d="M50.7,72.4c-0.1,0-0.3,0.1-0.4,0.1C50.4,72.5,50.6,72.4,50.7,72.4z"/>
		<path class="st2" d="M44.1,77.6c0.5-1.2,1.5-1.3,2.6-1.1c0,0.6,0.9,0.1,1.1,1c0.4,1.9,0.7,3.8,1.9,5.5c1,1.5,2.1,3,3.5,4.2
			c0.9,0.8,2.1,1.4,3.1,2.1c0.9,0.6,2.1,1.6,3.3,0.2c0.2-0.2,0.5-0.2,0.8-0.1c0,0.3-0.5,0.2-0.4,0.5c1,0,2,0,2.9,0
			c0.9,0,1.9,0,2.8,0c1.2,0,2.4,0.1,3.5-0.4c0.2,0,0.3,0,0.4-0.2c0.3,0,0.4,0.1,0.4,0.4c-1.3,0.7-2.7,0.7-4.2,0.6
			c-1.4,0-2.8,0-4.2,0c-0.3,0-0.7-0.1-1.2,0.3c1.2,0.1,2.1,0.6,3.2,0.5c1.6-0.1,3.2-0.6,4.8-0.6c0.6,0,1.4,0,1.5-0.9
			c0.8-0.3,1.6-0.5,2.2,0.3c0.1,0.1,0.3,0.1,0.5,0.1c0.4,0,0.8-0.2,0.8-0.6c0-0.4-0.4-0.2-0.7-0.3c-0.2,0-0.4-0.1-0.5-0.3
			c0-0.2,0.1-0.4,0.1-0.6c1.4,0.7,1.5,0.7,1.8-0.9c0.1-0.4,0.1-0.9,0.3-1.3c0.4-0.9,0.5-2.1,1.6-2.6l0,0c-1,1.9-1.4,4-2,6
			c-0.3,1.1-0.1,2.3-1,3.2c-1.2-0.4-1.7,0.8-2.6,1c-1.8,0.3-3.7,0.9-5.5,1.1c-0.9,0.1-1.7,0.5-2.6-0.2c-0.3-0.2-0.7,0-0.9,0.4
			c-0.3-0.1-0.5-0.2-0.8-0.2c-0.6-0.4-0.9-0.2-1.1,0.4c-0.2,0.6-0.2,1.4-0.7,1.9c-0.3,0.1-0.5,0.2-0.8,0.2c-0.1,0-0.2,0-0.4,0
			C57.5,97.3,57,97,56.4,97c-0.1-0.3-0.1-0.6,0.3-0.5c0.4,0.1,0.7,0.2,1.1,0.4c0.7,0.3,1,0.1,1.1-0.6c0.3-0.4,0.2-0.8,0.1-1.2
			c-0.5-1.5-2.6-2.2-4.2-1.3c-0.8,0.2-0.7,1.1-1.1,1.6c-0.2,0-0.3,0-0.5,0c0.1-0.3,0.2-0.5,0.2-0.8c0.3-0.5,0.6-0.9,0.9-1.4
			c0.3-0.5,0.2-0.9-0.4-1c-0.2-0.4-0.5-0.5-0.9-0.5c0-0.2-0.1-0.4-0.2-0.5c0.2-1.1-0.1-1.9-1.1-2.5c-0.8-0.5-1.5-1-2.2-1.5
			c-0.2-0.3-0.5-0.2-0.8-0.2c-1.1-0.5-1.6-1.7-2.1-2.7c-0.7-1.5-1.8-3-1.9-4.8C44.7,79,44.1,78.3,44.1,77.6z M54.8,92.1
			c0.3-0.2,0.7-0.4,0.7-0.7c-0.1-0.7-0.7-0.8-1.3-0.9c-0.4,0-0.6,0.3-0.5,0.6C53.8,91.7,54.4,91.8,54.8,92.1z"/>
		<path class="st2" d="M79.9,76.6c1.1,0,2.2,0,3.4,0c0.5,0.2,0.5,0.6,0.3,1.1c-0.3,0.9-0.6,1.9-0.1,2.9c-0.2,0.2-0.4,0.3-0.6,0.3
			c-0.7,0.1-1,0.7-1.2,1.3c-0.7,1.6-0.9,3.4-1.7,5c-0.6,0.1-0.8,0.8-1.4,0.9c0-0.1,0-0.2-0.1-0.2c0-0.1,0-0.1,0-0.2
			c0-0.4,0-0.8-0.5-1c-0.1,0-0.3-0.1-0.4,0c-0.3,0.4,0.3,0.6,0.2,1c-0.3,1.2-0.9,2-2.3,2.2c-0.4,0-0.5,0-0.4-0.4
			c0.3-1,0.1-2.3,1.6-2.7c0.2-0.1,0.3-0.2,0.2-0.4c-0.1-0.2-0.3-0.2-0.4-0.2c-0.2,0-0.4,0.3-0.7,0.1c0.2-0.6,0.4-1.2,0.6-1.8
			c0.1-0.3,0.3-0.7-0.3-0.8l0,0c0.1-0.6,0.5-0.5,0.7-0.2c0.5,1.1,0.8,0.3,1.1-0.1C79.2,81.4,80.2,79.2,79.9,76.6z"/>
		<path class="st2" d="M48.7,87.1c0.3,0,0.6-0.1,0.8,0.2c-0.4,0.7-0.3,1.1,0.6,1.4c0.9,0.3,1.5,0.8,1.7,1.8c0.1,0.5,0.4,0.7,0.9,0.8
			c-0.2,0.7-1,0.5-1.3,1.1c-0.3,0.1-0.4-0.6-0.8-0.1c-0.3,0.3-0.3,0.6-0.2,1c0.1,0.5,0.6,0.4,0.9,0.4c-0.7,1.2-1.5,1.5-2.7,0.8
			c-1-0.6-2-1.4-3-2.1c-0.4-0.3-0.4-0.6-0.1-1c0.9-1.1,1.6-2.4,2.6-3.3C48.4,87.8,48.5,87.4,48.7,87.1z M49.5,89.6
			c-0.3-0.1-0.4-0.5-0.8-0.3c-0.2,0.1-0.3,0.4-0.2,0.6c0.1,0.6,0.8,0.9,1.5,0.7c0.4,0,0.9,0.1,0.9-0.4c0-0.4-0.4-0.7-0.8-0.8
			C49.9,89.4,49.7,89.6,49.5,89.6z M48.8,92.8c0.4-0.1,0.8-0.1,0.8-0.6c0-0.5-0.4-0.6-0.7-0.8c-0.2-0.1-0.5-0.1-0.8-0.1
			c-0.3,0.1-0.9-0.2-0.9,0.4c-0.1,0.5,0.2,1,0.7,1.1C48.2,92.9,48.6,93.6,48.8,92.8z"/>
		<path class="st2" d="M59,97.4c0.6-0.5,0.5-1.3,0.7-1.9c0.2-0.6,0.5-0.8,1.1-0.4c-0.3,0.5-0.3,1.2,0.3,1.2c0.8,0,1.7,0.3,2.4-0.2
			c0.3,0,0.6,0,0.9-0.1c0,0.3-0.4,0.5,0,0.8c0,0.2,0,0.4,0,0.6c0,0.1,0,0.1,0,0.2c0.6,0.8,2,0.7,2.3,1.9c0.1,0.5,0.3,0.3,0.6,0.2
			c0,0.1,0,0.2,0,0.2c-0.1,0.4-0.4,0.7-0.7,0.8c-1,0.4-3,0-3.7-0.7c-0.3-0.3-0.6-0.7-0.3-1.1c0.3-0.4,0.7-0.1,1,0
			c0,0.9,0.6,1.1,1.4,1.2c-0.3-0.4-0.6-0.8-0.8-1.1c-0.5-0.6-1.1-1.1-1.5-1.9c-0.1-0.3-1-0.2-1.4,0.1c-0.7-0.4-1.1,0.1-1.2,0.6
			c-0.1,0.4,0.1,0.9,0.7,0.8c-0.1,0.5,0,1.1-0.9,0.9c-0.6-0.2-1.4-0.3-1.2-1.3C58.8,98,58.9,97.7,59,97.4z"/>
		<path class="st2" d="M94.9,99.1c-1.3,1.5-3.4,1.4-4.6-0.2c-0.1-0.6-0.2-1.1-0.2-1.7c0.3-1.4,1.4-2.1,3.2-2c-0.1,0.1-0.5,0.2,0,0.5
			c0.7,0.4,1,1.2,1.5,1.8c-0.4,0.5-1.3,0.2-1.7,0.8c-0.1-0.1-0.2-0.1-0.2-0.2c0.2-0.8-0.8-1-0.9-1.7c0-0.2-0.3-0.1-0.4,0
			c-0.6,0.6-0.3,1.3-0.1,1.9c0.2,0.5,0.6,1.2,1.3,1c0.5-0.5-1.2-0.7,0-1.2c0.1,0.1,0.1,0.2,0.2,0.2c0.4,0.9,0.7,0,1.1,0
			C94.1,98.8,94.3,99.1,94.9,99.1z"/>
		<path class="st2" d="M105.1,94.6c-1.2,1.6-2.7,1.9-4.3,0.8c-0.2-0.1-0.3-0.2-0.5-0.1l0,0c0-0.2,0-0.4-0.2-0.4l0,0
			c0.2-0.6-0.3-1.1-0.1-1.6c0.3-1.3,1.5-2.2,3.1-2.3c-0.1,0.4,0.2,0.7,0.5,1c0.3,0.3,0.7,0.6,0.8,1.1c-0.1,0.2-0.4,0.3-0.4,0.6
			c-0.4,0-0.7,0.3-1.1,0.5c0-0.4-0.1-0.7-0.5-0.9c0.1-0.3,0.7-0.2,0.5-0.6c-0.2-0.3-0.6-0.1-0.8,0c-0.1,0-0.1,0.1-0.2,0.1
			c-0.4-0.4-0.6-0.2-0.7,0.2c-0.2,0.8,0.5,2.1,1.3,2.4c0.6,0.2,0.8-0.1,0.7-0.6c0.2-0.3,0.4-0.5,0.7-0.8c0.2-0.1,0.4-0.2,0.6-0.2
			C104.6,94,104.3,94.7,105.1,94.6z"/>
		<path class="st2" d="M78.5,101.2c0.2,0.8-0.3,0.9-0.9,0.8c-0.6,0-1-0.1-1-0.8c0-0.5,0-1,0-1.5c0-0.6-0.3-1-1-0.8
			c0-0.4,0-0.9-0.4-1.1c-0.3-0.2-0.6-0.2-0.7,0.2c0,0.9,0,1.9,0.1,2.8c0,0.3,0.1,1,0.8,0.5c0.3,0.3,0.3,0.5-0.1,0.6
			c-0.8,0.3-1.5-0.1-1.7-1c-0.2-1-0.1-2.1-0.1-3.1c0-0.6,0.3-0.7,0.8-0.7c0.8,0,1.7,0,2.5,0c0.3,1.2,1,2.2,0.9,3.6
			C77.7,101.1,78.1,101.2,78.5,101.2z"/>
		<path class="st2" d="M78.5,87.7c0,0.1,0,0.2,0.1,0.2c-0.1,0.3-0.3,0.6-0.4,0.8c-0.1,0.2-0.2,0.3,0,0.5c0.2,0.1,0.7,0,0.5,0.4
			c-0.1,0.3-0.5,0.3-0.8,0.3c-0.2,0-0.5,0-0.7,0c-1.9-0.2-2.3,0-2.4,1.4c-0.4,1-0.6,2.1-1.3,3c-0.7-0.5-0.1-1.1-0.2-1.6
			c0.9-0.9,0.7-2.1,1-3.2c0.6-2,1-4.1,2-6c0.6,0.1,0.4,0.4,0.3,0.8c-0.2,0.6-0.4,1.2-0.6,1.8c0.3,0.2,0.5-0.1,0.7-0.1
			c0.2,0,0.4,0,0.4,0.2c0.1,0.2,0,0.4-0.2,0.4c-1.4,0.4-1.2,1.7-1.6,2.7c-0.1,0.3,0,0.4,0.4,0.4c1.3-0.2,2-1,2.3-2.2
			C78.1,87.6,78.3,87.7,78.5,87.7z"/>
		<path class="st2" d="M68,98.1c0.5-0.5,0.9-1.3,1.9-1.1c0,0.2,0.1,0.4,0.4,0.4c1.2,0.2,2,0.8,1.9,2.2c0,0.5,0.3,0.6,0.7,0.6
			c0,0.7-0.5,1-1,1.3c-1.5,0.6-3.4-0.1-3.9-1.5C68,99.3,68,98.7,68,98.1z M69.9,98.5c-0.7-0.1-1,0.3-1,0.9c0,0.6,0.4,1.1,1,1.4
			c0.4,0.2,0.5-0.2,0.4-0.5c0.8-0.1,1.2-0.6,1-1.4C71,98.1,70.5,98.1,69.9,98.5z"/>
		<path class="st2" d="M80,87.1c0.8-1.6,0.9-3.4,1.7-5c0.3-0.6,0.5-1.2,1.2-1.3c0,0.1,0,0.1,0,0.2c-0.8,1.2-1,2.6-1.2,4
			c-0.1,0.5-0.2,1-0.3,1.5c0,0.1-0.1,0.3-0.1,0.4c-0.3,0.8-0.6,1.7-0.8,2.5c-0.1,0.2-0.1,0.4-0.2,0.6c-0.4,0-0.7,0-1.1,0
			C79.4,89,79.9,88.1,80,87.1z"/>
		<path class="st2" d="M87.1,88.4c-0.4,1.6-2.1,2.4-3.5,1.7c-0.3-0.1-0.5-0.3-0.7-0.6c-0.3-0.8,0.4-2.2,1.4-3c0.7-0.6,1.8-0.6,2.6,0
			c-0.2,0.1-0.7-0.1-0.4,0.3C86.8,87.3,86.7,87.9,87.1,88.4z M85,89.6c0.7,0,1.5-0.7,1.4-1.5c0-0.6-0.1-1.3-0.9-1.4
			c-0.8-0.1-1.6,0.9-1.5,1.8C84,89.1,84.3,89.6,85,89.6z"/>
		<path class="st2" d="M53,91.7c0.4,0.1,0.7,0.2,0.9,0.5c-0.6,0.6-0.9,1.8-0.5,2.4c-0.1,0.3-0.2,0.5-0.2,0.8
			c-0.1,0.1-0.3,0.1-0.3,0.3c-0.3,1.1-0.8,0.8-1.5,0.4c-0.8-0.4-0.7-0.9-0.2-1.5C52,93.8,52.3,92.6,53,91.7z"/>
		<path class="st2" d="M98.2,98c-0.9,0.9-1.4,0.8-2.2-0.1c-0.1-0.8-0.2-1.6-0.8-2.2c-0.2-0.5-0.4-1-0.6-1.5
			c-0.5-1.3-0.6-1.3,0.9-1.6c-0.1,1.9,0.9,3.4,1.6,5C97.3,98,97.7,98.1,98.2,98z"/>
		<path class="st2" d="M83.5,97.3c0.5-0.4,1.1-0.6,1.7-0.6c0.3,1.1,0.6,2.2,0.9,3.3c0.1,0.4,0.4,0.7,0.9,0.7
			c0.3,0.5-0.1,0.6-0.4,0.6c-0.5,0-1.2,0.4-1.5-0.5c-0.2-0.6-0.3-1.1-0.3-1.7c-0.1-0.6-0.3-0.8-0.9-0.7C84,98,83.8,97.7,83.5,97.3z"
			/>
		<path class="st2" d="M98.2,98c-0.5,0.1-1,0-1.2-0.5c-0.6-1.6-1.7-3.1-1.6-5c0.4-0.3,0.7-0.1,0.8,0.2C96.9,94.6,97.8,96.2,98.2,98z
			"/>
		<path class="st2" d="M78.2,97.7c0.4-0.5,0.9-0.7,1.5-0.5c0.3,1.1,0.7,2.1,0.8,3.2c0.1,0.5,0.4,0.6,0.8,0.5c0.2,0.9-0.4,0.9-1,0.9
			c-0.6,0-1-0.1-0.9-0.9c0-0.4,0-0.8,0-1.2c0-0.7-0.3-1-1-0.8C78.5,98.5,78.5,98.1,78.2,97.7z"/>
		<path class="st2" d="M107.8,92.8c-0.7,1-0.7,1-1.9-0.3c-0.3-0.7-0.7-1.2-1.4-1.5c-0.6-1-0.5-1.5,0.7-1.8c0.7-0.2,0.4-1.2,1.2-1.1
			c0,0.5-0.1,1-0.4,1.3c-0.5,0.5-0.4,1-0.1,1.5C106.2,91.7,106.8,92.5,107.8,92.8z"/>
		<path class="st2" d="M90,100.5c-0.3,0.7-0.9,0.4-1.4,0.4c-0.6,0-0.4-0.6-0.5-0.9c-0.1-0.4-0.1-0.8-0.1-1.1c-0.1-0.5-0.2-1.1-1-0.9
			c-0.2-0.3-0.3-0.7-0.5-1c0.5-0.5,1-1.1,1.9-0.7c-0.2,0.2-0.6,0.4-0.3,0.8c0.6,0.7,0.7,1.6,1,2.5C89.2,100.1,89.5,100.5,90,100.5z"
			/>
		<path class="st2" d="M57.9,97.6c0.1,0,0.2,0,0.4,0c0,0.5-0.4,0.6-0.7,0.8c-1.9,0.6-3.9-0.9-3.9-2.9c0.4-0.5,0.3-1.4,1.1-1.6
			c0.3,0.4,0.3,0.7,0.2,1.2c-0.1,0.6-0.6,1.2-0.1,1.8c0.7,0.9,1.8,0.8,2.7,1.1C57.8,98,57.9,97.8,57.9,97.6z"/>
		<path class="st2" d="M83.8,101.3c0,0.7-0.6,0.5-0.9,0.5c-0.4,0.1-0.5-0.2-0.6-0.5c-0.2-1.1-0.4-2.2-0.6-3.3c0-0.3-0.1-0.7,0.3-0.7
			c0.4,0,1-0.6,1.4,0.1c-0.3,0.1-0.5,0.2-0.5,0.6C82.9,99.1,82.8,100.3,83.8,101.3z"/>
		<path class="st2" d="M100.3,95.3c0.1,0.5,0.2,1,0.5,1.4c-0.6,0.6-0.9,0-1.2-0.3c-0.6-0.9-1.1-1.9-1.3-3c0.1-0.1,0.2-0.3,0.2-0.4
			c-0.1-0.3-0.3-0.1-0.5-0.1c-0.2,0-0.3,0-0.5,0c0-0.4,0-0.8,0-1.2c0.8-0.6,1,0,1.2,0.5c0.4,0.9,0.8,1.8,1.3,2.6l0,0
			C100.1,95.1,100.1,95.2,100.3,95.3L100.3,95.3z"/>
		<path class="st2" d="M107.8,92.8c-0.9-0.4-1.5-1.1-2-1.9c-0.3-0.5-0.5-1,0.1-1.5c0.3-0.3,0.4-0.8,0.4-1.3c0.2-0.2,0.5-0.4,0.7,0
			c0.2,0.4,0.5,0.9,0.1,1.2c-0.9,0.8-0.2,1.3,0.2,1.8c0.2,0.2,0.4,0.4,0.6,0.7C108.2,92.3,108.3,92.6,107.8,92.8z"/>
		<path class="st2" d="M98.4,93.4c0.2,1.1,0.7,2.1,1.3,3c0.2,0.3,0.6,0.9,1.2,0.3c0.2,1-0.8,0.7-1.2,1c-0.3,0.3-0.6-0.2-0.7-0.4
			c-0.6-1.2-1.1-2.4-1.7-3.6C97.6,93.6,98,93.5,98.4,93.4z"/>
		<path class="st2" d="M92.2,86.7c0.2-0.4,0.5-0.5,0.8-0.6c0.5-0.2,1.1-0.3,1.4,0.2c0.4,0.5,0.3,1.1,0,1.6c-0.3,0.4-0.7,0.8-1,1.2
			c0,0.3,0.3,0.2,0.5,0.3c0.1,0.1,0.3,0.2,0.2,0.4c-0.1,0.1-0.2,0.2-0.3,0.2c-0.4,0-0.9,0.2-1.2-0.2c-0.2-0.3,0.1-0.6,0.3-0.9
			c0.2-0.3,0.4-0.6,0.6-1c0.2-0.6,0.3-1.2-0.6-1.3C92.6,86.7,92.4,86.7,92.2,86.7z"/>
		<path class="st2" d="M52.6,91.3c-0.5-0.1-0.8-0.3-0.9-0.8c-0.2-1-0.8-1.5-1.7-1.8c-0.9-0.3-1.1-0.7-0.6-1.4c0.7,0.5,1.5,1,2.2,1.5
			c1,0.6,1.3,1.4,1.1,2.5C52.7,91.3,52.7,91.3,52.6,91.3z"/>
		<path class="st2" d="M90,100.5c-0.5-0.1-0.9-0.4-1-0.9c-0.3-0.8-0.3-1.8-1-2.5c-0.3-0.4,0.2-0.5,0.3-0.8c0.6,0,0.9,0.4,1.2,0.9
			c0.1,0.6,0.2,1.1,0.3,1.7C89.9,99.4,90,100,90,100.5z"/>
		<path class="st2" d="M86.4,97.1c0.2,0.3,0.3,0.7,0.5,1c-0.2,0.9,0.2,1.8,0.2,2.7c-0.5,0.1-0.8-0.2-0.9-0.7
			c-0.3-1.1-0.6-2.2-0.9-3.3C85.7,96.7,86,97,86.4,97.1z"/>
		<path class="st2" d="M72.9,100.2c-0.4,0-0.7-0.1-0.7-0.6c0.1-1.3-0.7-2-1.9-2.2c-0.2,0-0.4-0.2-0.4-0.4c1.3,0,2.6-0.2,3.1,1.3
			C73.3,98.9,73.4,99.6,72.9,100.2z"/>
		<path class="st2" d="M81.4,101c-0.4,0-0.8-0.1-0.8-0.5c-0.1-1.1-0.6-2.2-0.8-3.2c1.2,0.1,1.6,0.4,1.7,1.6
			C81.4,99.5,81.4,100.2,81.4,101z"/>
		<path class="st2" d="M78.2,97.7c0.2,0.4,0.3,0.8,0.3,1.2c0,0.8,0,1.5-0.1,2.3c-0.3,0-0.8,0-0.7-0.4c0.1-1.3-0.6-2.4-0.9-3.6
			C77.4,97.1,77.8,97.5,78.2,97.7z"/>
		<path class="st2" d="M81.7,85c0.3-1.4,0.5-2.8,1.2-4c1,0.2,0.6,0.9,0.6,1.5c-0.3,0.3-1.1,0.3-0.6,1.1C82.9,84.4,82.6,85,81.7,85z"
			/>
		<path class="st2" d="M75.4,101.4c-0.7,0.4-0.7-0.3-0.8-0.5c-0.1-0.9-0.1-1.9-0.1-2.8c0-0.5,0.3-0.5,0.7-0.2
			c0.4,0.3,0.4,0.7,0.4,1.1C75,99.7,75.6,100.6,75.4,101.4z"/>
		<path class="st2" d="M83.8,101.3c-1-0.9-0.9-2.2-0.9-3.4c0-0.3,0.1-0.5,0.5-0.6c0.1,0,0.1,0,0.2,0c0.3,0.3,0.5,0.6,0.4,1.1
			c-0.3,0.3-0.1,0.6-0.1,0.9C84,100,84.3,100.7,83.8,101.3z"/>
		<path class="st2" d="M90.2,86.4c0.2-0.5,0.5-0.4,0.9-0.2c0.3,0.8,0.4,1.7,0,2.5c-0.1,0.2-0.4,0.6,0.2,0.7c0.1,0.6-0.1,0.9-0.7,0.8
			c-0.7-0.2-0.3-0.7-0.2-1c0.1-0.5,0.4-1,0.5-1.6c0.2-0.5,0-0.8-0.6-0.8C90.2,86.7,90.2,86.5,90.2,86.4z"/>
		<path class="st2" d="M95.2,95.7c0.6,0.6,0.7,1.4,0.8,2.2c-0.2,0-0.3,0.1-0.5,0.1c-0.5-0.1-1,0.1-1.5,0.2c-0.4,0-0.7,0.9-1.1,0l0,0
			c0.4-0.6,1.2-0.3,1.7-0.8c0.1,0,0.3,0,0.4,0c0.1-0.1,0.1-0.1,0.2-0.2c0.1-0.5-0.3-0.9-0.4-1.4C95,95.7,95.1,95.7,95.2,95.7z"/>
		<path class="st2" d="M63.5,96c-0.7,0.6-1.6,0.2-2.4,0.2c-0.5,0-0.5-0.7-0.3-1.2c0.3,0.1,0.5,0.2,0.8,0.2
			C62.2,95.7,63.1,95.1,63.5,96z"/>
		<path class="st2" d="M95.1,97.4c-0.1,0-0.3,0-0.4,0c-0.4-0.6-0.8-1.4-1.5-1.8c-0.4-0.2-0.1-0.3,0-0.5c0.7-0.1,1.1,0.3,1.6,0.6
			c0.1,0.5,0.5,0.9,0.4,1.4C95.2,97.2,95.1,97.3,95.1,97.4z"/>
		<path class="st2" d="M65.2,96c1.7,0.3,2.6,0.7,2.3,1.8c-0.3,0-0.6,0-0.8,0c-0.1,0-0.1,0-0.2,0c-0.1-0.7-0.4-1.2-1.3-0.9
			C65.2,96.6,65.2,96.3,65.2,96z"/>
		<path class="st2" d="M91.3,89.4c-0.6-0.1-0.3-0.5-0.2-0.7c0.4-0.8,0.3-1.7,0-2.5c0.5-0.1,0.7,0.5,1.1,0.5c0.2,0,0.4,0,0.7,0
			C92,87.4,91.7,88.4,91.3,89.4z"/>
		<path class="st2" d="M89.4,86.3c0,0.1,0,0.1,0,0.2c0,0.3,0.2,0.4,0.4,0.4c0,0,0.1,0.1,0.1,0.1c-0.5,0.9-1.1,1.7-1.2,2.8
			c0,0.3-0.3,0.3-0.6,0.3c0-0.4,0.3-0.7,0.2-1.1c0-0.2,0.1-0.4,0.1-0.6c0.6-0.3,0.5-0.8,0.6-1.3C89,86.8,88.8,86.4,89.4,86.3z"/>
		<path class="st2" d="M104.3,93c0-0.5-0.5-0.7-0.8-1.1c-0.3-0.3-0.6-0.5-0.5-1c0.5-0.1,0.8,0.5,1.2,0.3c0.2,0.4,0.6,0.8,0.7,1.3
			c-0.1,0.1-0.2,0.3-0.3,0.4l0,0C104.6,93,104.5,93,104.3,93z"/>
		<path class="st2" d="M74.7,91.5c0.1-1.4,0.4-1.6,2.4-1.4c-0.1,0.5-0.7,0.3-1,0.6c-0.3,0.3-0.7,0.2-0.8,0.8
			C75.2,92.1,74.9,91.3,74.7,91.5z"/>
		<path class="st2" d="M80.2,90c0.1-0.2,0.1-0.4,0.2-0.6c0.3,0,0.7-0.1,1-0.1c0.3,0,0.9-0.3,1,0.2c0.1,0.5-0.5,0.5-0.9,0.6
			C81,90,80.6,90,80.2,90z"/>
		<path class="st2" d="M83.5,82.5c0-0.6,0.4-1.3-0.6-1.5c0-0.1,0-0.1,0-0.2c0.3,0,0.5-0.1,0.6-0.3c1,0.6,1,0.9,0.4,2
			C83.8,82.5,83.7,82.5,83.5,82.5z"/>
		<path class="st2" d="M66.7,97.8c0.3,0,0.6,0,0.8,0c0.2,0,0.4,0.1,0.5,0.3c0,0.6,0,1.2,0,1.9c-0.2,0-0.4,0-0.6,0c0-0.1,0-0.2,0-0.2
			c0-0.1,0-0.1,0-0.2c0-0.2,0-0.4,0-0.6c0,0,0.1-0.1,0.1-0.1c0,0-0.1,0-0.1-0.1C67.1,98.4,66.9,98.1,66.7,97.8z"/>
		<path class="st2" d="M105.1,94.6c-0.9,0-0.5-0.6-0.6-1.1c0.1-0.2,0.4-0.3,0.2-0.6l0,0C105.8,93.1,105.9,93.3,105.1,94.6z"/>
		<path class="st2" d="M60.8,98.6c-0.6,0.1-0.9-0.4-0.7-0.8c0.2-0.5,0.5-1,1.2-0.6C61.1,97.7,60.9,98.2,60.8,98.6z"/>
		<path class="st2" d="M51.3,93.6c-0.4,0-0.8,0.1-0.9-0.4c-0.1-0.3-0.1-0.7,0.2-1c0.4-0.4,0.5,0.2,0.8,0.1
			C51.4,92.8,51.4,93.2,51.3,93.6z"/>
		<path class="st2" d="M89.4,86.3c-0.5,0.1-0.3,0.5-0.4,0.8c-0.1,0.5,0,1-0.6,1.3c0.1-0.7,0.1-1.4,0.2-2.1c0-0.2-0.1-0.6,0.2-0.6
			C89.2,85.6,89.4,85.9,89.4,86.3z"/>
		<path class="st2" d="M97.6,91.7c0,0.4,0,0.8,0,1.2c-0.1,0.2-0.3,0.3-0.5,0.3C96.4,92.2,96.4,92.1,97.6,91.7z"/>
		<path class="st2" d="M94.1,98.3c0.5-0.2,0.9-0.3,1.5-0.2c0,0.4-0.4,0.7-0.6,1.1C94.3,99.1,94.1,98.8,94.1,98.3z"/>
		<path class="st2" d="M87.1,88.4c-0.4-0.5-0.3-1.1-0.7-1.7c-0.2-0.4,0.3-0.2,0.4-0.3C87.6,87,87.4,87.7,87.1,88.4z"/>
		<path class="st2" d="M105,92.6c0-0.5-0.4-0.9-0.7-1.3c0-0.1,0-0.1,0.1-0.2c0.7,0.3,1.1,0.8,1.4,1.5
			C105.5,92.5,105.3,92.8,105,92.6z"/>
		<path class="st2" d="M64.2,98.9c0.3,0.3,0.5,0.7,0.8,1.1c-0.9-0.1-1.4-0.3-1.4-1.2C63.8,98.9,64,98.9,64.2,98.9z"/>
		<path class="st2" d="M80.2,90c0.4,0,0.8,0,1.2,0.1c-0.6,0.6-1.6,0.6-2.3,0C79.5,90,79.8,90,80.2,90z"/>
		<path class="st2" d="M89.9,98.9c-0.1-0.6-0.2-1.1-0.3-1.7c0.2,0,0.3,0,0.5,0c0.1,0.6,0.2,1.1,0.2,1.7C90.1,98.9,90,98.9,89.9,98.9
			z"/>
		<path class="st2" d="M97.2,93.2c0.2,0,0.4-0.1,0.5-0.3c0.2,0,0.3,0,0.5,0c0.2,0,0.4-0.2,0.5,0.1c0,0.1-0.1,0.3-0.2,0.4
			c-0.4,0.1-0.8,0.2-1.1,0.3C97.2,93.5,97.2,93.4,97.2,93.2z"/>
		<path class="st2" d="M83.5,82.5c0.1,0,0.3,0,0.4,0c-0.2,0.4-0.6,0.8-1,1.1C82.4,82.8,83.2,82.7,83.5,82.5z"/>
		<path class="st2" d="M65.2,96c0,0.3,0,0.6,0,0.9c-0.3,0-0.6,0.1-0.6,0.5l0,0c-0.1,0-0.1,0-0.2,0c0-0.2,0-0.4,0-0.6
			c0.4-0.1,0.5-0.4,0.5-0.8C65,96,65.1,96,65.2,96z"/>
		<path class="st2" d="M88.3,89c0.1,0.4-0.2,0.7-0.2,1.1c-0.3,0.2-0.4,0.1-0.4-0.2C87.9,89.5,87.9,89.1,88.3,89z"/>
		<path class="st2" d="M64.8,96c0,0.4-0.1,0.6-0.5,0.8c-0.4-0.3,0.1-0.5,0-0.8C64.6,96,64.7,96,64.8,96z"/>
		<path class="st2" d="M90.2,86.4c0,0.1,0,0.3,0,0.4c-0.1,0-0.2,0.1-0.3,0.2c0,0-0.1-0.1-0.1-0.1c0-0.1,0-0.2,0-0.4
			C90,86.5,90.1,86.4,90.2,86.4z"/>
		<path class="st2" d="M89.9,86.5c0,0.1,0,0.2,0,0.4c-0.3,0-0.4-0.1-0.4-0.4C89.6,86.5,89.7,86.5,89.9,86.5z"/>
		<path class="st2" d="M81.2,86.9c0-0.1,0.1-0.3,0.1-0.4C81.7,86.8,81.5,86.8,81.2,86.9z"/>
		<path class="st2" d="M85.4,75.4c-0.9,0.1-1.8,0.2-2.7,0c-1-0.2-1.8-0.6-1.4-1.9c0.1-0.2,0.3-0.3,0.4-0.5c0.7-0.2,1-0.8,1.5-1.3
			c0.8,0.2,1,1,1,1.6C84.1,74.4,84.3,75.2,85.4,75.4z"/>
		<path class="st2" d="M83.1,71.7c-0.5,0.5-0.8,1-1.5,1.3c-0.1-0.7,0.5-0.8,0.8-1.1c1.2-1.3,1.6-2.9,2.1-4.5
			C84.7,69,84,70.4,83.1,71.7z"/>
		<path class="st2" d="M70.1,75.5c-4.2,0-8.4,0-12.6,0c0.8-1.4,1.1-2.9,2.1-4.2c0.9-1.3,3.1-2.1,4.7-1.9c1.6,0.2,2.9,0.7,4,1.9
			c0.5,0.6,0.8,1.4,1.2,2.1C69.7,74,69.9,74.7,70.1,75.5z"/>
		<path class="st2" d="M74.6,74.3c0.9-0.3,0.3-1,0.5-1.5c-0.9,0.7-1.4,0.1-2-0.4c0.3,0,0.4-0.2,0.5-0.5c1.4,0.2,1.4,0.2,1.4-1.3
			c0-1.6,0-3.2,0-4.8c0-0.3,0.1-0.7-0.2-1c0-0.4,0.3-0.4,0.6-0.4c0,3.4,0,6.7,0,10.1c0,0.4,0.2,0.8-0.3,1c-0.4,0-0.8,0-1.2-0.1
			C74.2,75,75,75,74.6,74.3z"/>
		<path class="st2" d="M80.5,60.9c0,0.1,0,0.1,0,0.2c0,0.4-0.4,0.4-0.6,0.4c-2.2-0.8-4.3-1-6.2,0.7c2.3,0,4.5,0.3,6.8-0.1
			c0.3,0.3,0.8,0.1,1.2,0.2c0.1,0.3,0.1,0.6,0.2,0.9c-2.6,0-5.3,0.1-7.9,0.1c-0.8,0-1.7-0.4-2.1,0.8c-0.3,0.7-0.8,1.4-0.5,2.2
			c0,0,0,0.1,0,0.1c-0.3,1.8,0.2,3.4,1.5,4.8c-0.2,0.1-0.4,0.3-0.6,0.4c-1.5-1.4-2-3.2-2-5.2c0.2-3.1,2.4-5.5,5.7-6.3
			c0.3,0,0.7,0,1,0l0,0c0.2,0.6,0.4,0.5,0.8,0.1c0.2,0,0.4-0.1,0.5-0.1C79,60.3,79.8,60.6,80.5,60.9z"/>
		<path class="st2" d="M75.6,64.4c-0.3,0-0.6,0-0.6,0.4c-0.4,1-0.1,2-0.2,3c0,0.4,0,0.8-0.1,1.3c-0.6-1.1-0.3-2.4-0.6-3.5
			c-0.1-0.5-0.1-0.9-0.8-1c-0.3,0-0.7-0.2-0.6-0.6c0.1-0.4,0.5-0.2,0.7-0.2c2.6,0,5.2,0,7.8,0c0.2,0,0.6-0.1,0.6,0.2
			c0,0.3-0.2,0.5-0.5,0.5c-0.9,0.1-0.9,0.6-0.9,1.3c-0.1,1-0.3,1.9-0.4,2.9c0,0.3-0.1,0.5-0.5,0.6c0-1.2,0.1-2.3,0.1-3.5
			c0-0.4,0.2-1-0.5-1.2c-0.6-0.3-1.1-0.3-1.7-0.1c-0.2,0-0.3,0-0.5,0.1C76.5,64.4,76,64.2,75.6,64.4z"/>
		<path class="st2" d="M79.2,64.5c0.6,0.2,0.5,0.8,0.5,1.2c0,1.2-0.1,2.3-0.1,3.5c0,1.7,0,3.4,0,5.1c-0.1,0.4-0.1,0.7-0.2,1.1
			c-0.1,0-0.1,0.1-0.2,0.1c-0.5-0.8,0-1.5,0-2.3C79.1,70.3,79,67.4,79.2,64.5z"/>
		<path class="st2" d="M79.3,75.4c0.1-0.4,0.1-0.7,0.2-1.1c0.1,0,0.2,0,0.2-0.1c0.2,0,0.4-0.2,0.4-0.4c0.3-0.1,0.7-0.3,1-0.4
			c-0.4,1.3,0.4,1.7,1.4,1.9C81.6,75.5,80.4,75.5,79.3,75.4z"/>
		<path class="st2" d="M72.2,71.5c0.2-0.1,0.4-0.3,0.6-0.4c0.3,0.3,0.6,0.5,0.9,0.8c0,0.3-0.2,0.4-0.5,0.5
			C72.7,72.3,72.4,72,72.2,71.5z"/>
		<path class="st2" d="M80.2,73.9c0,0.2-0.2,0.4-0.4,0.4C79.8,74,79.9,73.9,80.2,73.9z"/>
		<path class="st2" d="M63,90c-1,0-2,0-2.9,0c-0.1-0.3,0.4-0.2,0.4-0.5c-0.3-0.1-0.6-0.2-0.8,0.1c-1.2,1.4-2.4,0.4-3.3-0.2
			c-1-0.7-2.1-1.3-3.1-2.1c-1.4-1.2-2.4-2.7-3.5-4.2c-1.2-1.7-1.5-3.6-1.9-5.5c-0.2-0.8-1.1-0.3-1.1-1c1.8-0.2,3.5,0.2,5.2,0.2
			c0,0.3-0.1,0.7,0,1c1.1,3.4,2.9,6.2,6.2,7.8c0.5,0.3,1.1,0.9,1.6,0.4c0.4-0.4,0.2-1.1,0.1-1.7c-0.2-1.1-0.1-2.1,0.5-3
			c0.1,0,0.3,0,0.4,0c-0.4,1.1-0.9,2.1-0.4,3.3c0.1,0.3,0.1,0.6,0.2,0.9c0,0,0,0,0,0.1c0,0,0-0.1,0-0.1c0.5-0.1,0.4-0.5,0.4-0.8
			c0-0.6,0-1.2,0-1.8c0-0.9,0.4-1.5,1.3-1.6c0.3,0,0.6-0.1,0.6-0.4c1.3,0,2.4,0.7,3.6,1.1c0.3,0.3,0.7,0.4,0.8,0.8l0,0
			c-0.5,0.2-0.8-0.5-1.3-0.4c0.1,0.5,0.8,0.6,0.7,1.2c-0.8-0.1-0.7,0.9-1.3,1.1c-0.1-0.4-0.3-0.4-0.6-0.2c-0.6,0.5-0.8,1.2-0.9,1.9
			c0,0.2,0.1,0.5,0.3,0.5c0.3,0,0.2-0.3,0.3-0.4c0.3-0.6,0.1-1.4,0.8-1.8c0.1,0.7-0.7,1.6-0.3,2.1c0.5,0.7,1.4,0,2.1,0
			c0.4,0,1,0,1.1-0.4c0.2-0.4-0.2-0.8-0.5-1.2c-0.4-0.6-1.1-0.9-1.2-1.6c1.4,0.7,2.2,2,3,3.3c0,1,0.1,2.1-1.1,2.6
			c-0.3,0.2-0.6,0.2-1,0.2c-1.1,0-2.3,0.1-3.4-0.2C63.8,89.4,63,89,63,90z M61.2,86.4c0.3-0.5,0.7-0.7,1.2-0.3
			c0.5,0.3,0.8,0.2,1.1-0.4c0.3-0.6,0.5-1.4,1.1-1.9c1.1-1,1.1-1-0.2-1.7c-0.3-0.2-0.6-0.3-0.9-0.4c-1.5-0.4-2.2,0.1-2.2,1.7
			C61.2,84.4,61.4,85.3,61.2,86.4z"/>
		<path class="st2" d="M69.7,86.9c-0.7-1.4-1.5-2.6-3-3.3l0,0c0.1-0.6-0.6-0.7-0.7-1.2c0.5-0.2,0.8,0.5,1.3,0.4
			c0.1,0.1,0.1,0.1,0.2,0.2c0.1,0.5,0.4,0.7,0.8,0.9c0.1,0.1,0.2,0.3,0.2,0.4c0.2,0.3,0.5,0.6,0.8,0.9c0.1,0.1,0.1,0.1,0.2,0.2
			c0.1,0.1,0.2,0.3,0.2,0.4c0,0,0,0.1,0,0.1c0,0,0,0,0.1,0c0,0-0.1-0.1-0.1-0.1c0-0.2,0-0.4-0.2-0.5c-0.1-0.1-0.1-0.1-0.2-0.2
			c0-0.6-0.3-0.9-0.8-0.8c-0.1-0.1-0.1-0.3-0.2-0.4c-0.1-0.5-0.4-0.7-0.9-0.8c-0.1-0.1-0.1-0.1-0.2-0.2c-0.2-0.4-0.6-0.5-0.8-0.8
			c-0.1-0.4,0.2-0.6,0.5-0.8c1.8-1,3-2.6,3.7-4.4c0.6-0.1,1.1,0.1,1.7-0.2c0,0.2,0.1,0.3,0.3,0.3c0.3,0,0.3-0.1,0.4-0.3
			c0.7,0,1.4,0,2.1,0c0.4,0.7,0.1,1.5,0.2,2.3c-0.6,1.3-0.9,2.7-2,3.8c-0.3,0.3-0.5,0.7-0.6,1.2c-0.1,0.5-0.4,0.9-0.9,1.2
			c-0.6,0.3-1.3,0.5-1.6,1.2c0,0.3,0,0.6,0.4,0.7l0,0c0,0.6,0.1,1.2-0.2,1.7c-0.1-0.1-0.2-0.2-0.4-0.2C70.1,87.7,70,87.2,69.7,86.9z
			"/>
		<path class="st2" d="M70.7,76.6C70,78.5,68.8,80,67,81.1c-0.3,0.2-0.6,0.4-0.5,0.8c-1.2-0.4-2.3-1.1-3.6-1.1
			c-0.5-0.3-1-0.3-1.4,0.2c-0.2,0-0.5-0.1-0.7,0.2h0c-0.1,0-0.3,0-0.4,0c-1.4-1.3-2.6-2.8-3.2-4.7c1.2,0.2,2.3-0.1,3.5-0.1
			c2.1,0,4.2,0,6.3,0C68.2,76.3,69.5,76.5,70.7,76.6z"/>
		<path class="st2" d="M57.2,76.5c0.6,1.9,1.8,3.4,3.2,4.7c-0.6,0.9-0.7,1.9-0.5,3c0.1,0.6,0.3,1.3-0.1,1.7
			c-0.5,0.5-1.1-0.2-1.6-0.4C55,83.8,53.1,81,52,77.7c-0.1-0.3,0-0.7,0-1c1.1,0.1,2.2-0.4,3.4-0.2c0,0.1,0,0.1,0.1,0.2
			c0.1-0.1,0.1-0.1,0.2-0.2C56.2,76.4,56.7,76.3,57.2,76.5z"/>
		<path class="st2" d="M75.6,64.4c0.5-0.2,0.9,0,1.4,0c0,5.2-0.1,10.5-0.1,15.7c-0.7,0.4-1.2,0.3-1.1-0.7c0-0.3,0-0.5-0.1-0.8
			c-0.1-0.8,0-1.7-0.3-2.5c0-0.2,0-0.4-0.1-0.6c0.5-0.3,0.3-0.7,0.3-1C75.6,71.2,75.6,67.8,75.6,64.4z"/>
		<path class="st2" d="M75.3,76.2c0.4,0.8,0.2,1.7,0.3,2.5c-0.1,0-0.2,0-0.3,0c-0.1-0.8,0.1-1.6-0.2-2.3
			C75.2,76.3,75.3,76.2,75.3,76.2z"/>
		<path class="st2" d="M50.8,75.4c0.3-0.5,0.5-0.5,0.8,0C51.3,75.4,51,75.4,50.8,75.4z"/>
		<path class="st2" d="M73,76.4c0,0.2-0.1,0.4-0.4,0.3c-0.2,0-0.2-0.2-0.3-0.3C72.6,76.4,72.8,76.4,73,76.4z"/>
		<path class="st2" d="M55.6,76.4c-0.1,0.1-0.1,0.1-0.2,0.2c0-0.1,0-0.1-0.1-0.2C55.5,76.4,55.5,76.4,55.6,76.4z"/>
		<path class="st2" d="M75.4,78.7c0.1,0,0.2,0,0.3,0c0,0.3,0.1,0.6,0.1,0.8c-0.1,1,0.4,1,1.1,0.7c0.6-0.2,0.4-0.7,0.4-1.1
			c0-4.5,0-8.9,0-13.4c0-0.4-0.2-0.8,0.2-1.1c0.3,0.4,0.2,0.9,0.2,1.3c0,4.5,0,9,0,13.5c0,0.3-0.2,0.9,0.4,0.9
			c0.6,0,0.6-0.4,0.6-0.9c0-0.8,0-1.5,0-2.3c0-0.3-0.1-0.7,0.4-0.8c0.2,0.2,0.5,0.2,0.8,0.2c0.3,2.6-0.8,4.7-2,6.9
			c-0.2,0.4-0.6,1.2-1.1,0.1c-0.2-0.4-0.6-0.4-0.7,0.2c-1.1,0.5-1.2,1.7-1.6,2.6c-0.2,0.4-0.2,0.9-0.3,1.3c-0.3,1.6-0.4,1.6-1.8,0.9
			c0.2-0.6,0.3-1.1,0.5-1.7c0.1-0.2,0.1-0.3-0.2-0.4c-0.2,0-0.4,0-0.4,0.2c-0.2,0.7-0.4,1.4-0.5,2.2c-0.1,0.3,0.3,0.3,0.5,0.3
			c0.1,0.2,0.3,0.2,0.5,0.3c0.3,0,0.7-0.1,0.7,0.3c0,0.4-0.4,0.6-0.8,0.6c-0.2,0-0.4,0-0.5-0.1c-0.6-0.9-1.4-0.6-2.2-0.3l0,0
			c0-0.3-0.1-0.4-0.4-0.4l0,0c0-0.5,0.5-0.8,0.5-1.3c0.1,0.1,0.3,0.2,0.4,0.2c0.1,0.1,0.3,0.5,0.4,0.1c0.1-0.6,0.3-1.2-0.2-1.8l0,0
			c0-0.3-0.2-0.5-0.4-0.7c0.3-0.7,1-0.9,1.6-1.2c0.5-0.3,0.8-0.7,0.9-1.2c0.1-0.5,0.2-0.9,0.6-1.2C74.4,81.4,74.8,80,75.4,78.7z
			 M72.9,85.4c0.4-0.4,1.1-0.4,0.9-1c0-0.2-0.3-0.2-0.4-0.1C72.9,84.4,72.8,84.8,72.9,85.4z"/>
		<path class="st2" d="M79.1,76.4c-0.5,0.1-0.4,0.5-0.4,0.8c0,0.8,0,1.5,0,2.3c0,0.4,0,0.9-0.6,0.9c-0.6,0-0.4-0.5-0.4-0.9
			c0-4.5,0-9,0-13.5c0-0.4,0.1-0.9-0.2-1.3c0-0.1,0-0.1,0-0.2c0.6-0.2,1.2-0.2,1.7,0.1c-0.2,2.9-0.1,5.8-0.1,8.7
			c0,0.8-0.5,1.6,0,2.3C79.1,75.8,79.1,76.1,79.1,76.4z"/>
		<path class="st2" d="M78.3,60c-0.2,0-0.4,0.1-0.5,0.1c-0.3,0-0.5-0.1-0.8-0.1l0,0c0.5-0.7,1.3-1.1,1.7-1.8
			c0.1-0.1,0.2-0.2,0.3-0.2c0.2,0.1,0.2,0.3,0.2,0.4C79.1,59.1,78.7,59.5,78.3,60z"/>
		<path class="st2" d="M81.6,62.3c-0.4-0.1-0.8,0.1-1.2-0.2c-0.2-0.2-0.4-0.4-0.6-0.6c0.3,0,0.6,0,0.6-0.4
			C81.1,61.3,81.5,61.7,81.6,62.3z"/>
		<path class="st2" d="M57.9,97.6c0,0.2-0.1,0.4-0.3,0.4c-0.9-0.3-2-0.2-2.7-1.1c-0.5-0.6,0-1.2,0.1-1.8c0.1-0.5,0-0.9-0.2-1.2
			c1.6-0.9,3.7-0.2,4.2,1.3c0.1,0.4,0.2,0.8-0.1,1.2c-0.7,0-0.8-0.6-1-1.1c-0.1-0.5-0.3-0.9-1-0.8c-0.5-0.1-0.9,0.1-1,0.5
			c-0.1,0.4,0.4,0.2,0.6,0.5c0,0.4-0.2,0.7-0.7,0.5c-0.3-0.1-0.5,0-0.5,0.4c0.5-0.1,0.4,0.8,1,0.6C57,97,57.5,97.3,57.9,97.6z"/>
		<path class="st2" d="M70.1,89.8c-0.1,0.9-1,0.9-1.5,0.9c-1.6,0-3.2,0.5-4.8,0.6c-1.1,0.1-2-0.5-3.2-0.5c0.5-0.4,0.9-0.3,1.2-0.3
			c1.4,0,2.8,0,4.2,0C67.3,90.5,68.7,90.5,70.1,89.8L70.1,89.8z"/>
		<path class="st2" d="M56.4,97c-0.6,0.2-0.5-0.7-1-0.6c0-0.4,0.2-0.5,0.5-0.4c0.5,0.1,0.6-0.1,0.7-0.5c1.1,0,0.4-0.6,0.4-1
			c0.6-0.1,0.8,0.3,1,0.8c0.1,0.5,0.3,1,1,1.1c-0.1,0.7-0.4,1-1.1,0.6c-0.3-0.2-0.7-0.3-1.1-0.4C56.3,96.5,56.3,96.7,56.4,97z"/>
		<path class="st2" d="M63,90c0-1,0.8-0.6,1.2-0.5c1.1,0.2,2.3,0.1,3.4,0.2c0.3,0,0.7,0,1-0.2c0.2,0,0.4,0,0.7,0c0,0.1,0,0.1,0,0.2
			c-1.1,0.6-2.3,0.4-3.5,0.4C64.8,90,63.9,90,63,90z"/>
		<path class="st2" d="M54.8,92.1c-0.4-0.3-1-0.4-1.1-1c0-0.3,0.1-0.7,0.5-0.6c0.6,0.1,1.2,0.2,1.3,0.9
			C55.5,91.7,55.1,91.9,54.8,92.1z"/>
		<path class="st2" d="M53.5,94.6c-0.4-0.5-0.2-1.8,0.5-2.4c0.6,0.1,0.8,0.5,0.4,1C54.1,93.7,53.8,94.2,53.5,94.6z"/>
		<path class="st2" d="M72.3,89.2c-0.3,0-0.6,0-0.5-0.3c0.1-0.7,0.3-1.5,0.5-2.2c0-0.2,0.3-0.2,0.4-0.2c0.2,0.1,0.2,0.2,0.2,0.4
			c-0.2,0.6-0.3,1.1-0.5,1.7C72.4,88.8,72.3,89,72.3,89.2z"/>
		<path class="st2" d="M69.2,89.6c0-0.1,0-0.1,0-0.2c0.1,0,0.3,0,0.4,0l0,0C69.6,89.6,69.4,89.6,69.2,89.6z"/>
		<path class="st2" d="M78.5,87.7c-0.2-0.1-0.4-0.1-0.6-0.2c0.1-0.4-0.5-0.6-0.2-1c0-0.1,0.3,0,0.4,0c0.5,0.2,0.5,0.6,0.5,1
			C78.5,87.6,78.5,87.7,78.5,87.7z"/>
		<path class="st2" d="M48.1,91.3c0.3,0,0.6,0,0.8,0.1c0.4,0.1,0.7,0.3,0.7,0.8c0,0.5-0.4,0.5-0.8,0.6
			C48.4,92.4,47.8,92.1,48.1,91.3z"/>
		<path class="st2" d="M48.1,91.3c-0.4,0.8,0.3,1.1,0.7,1.5c-0.3,0.8-0.7,0.1-0.9,0c-0.5-0.2-0.8-0.6-0.7-1.1
			C47.3,91.1,47.8,91.4,48.1,91.3z"/>
		<path class="st2" d="M49.9,90.6c-0.7,0.3-1.4-0.1-1.5-0.7c0-0.3,0-0.5,0.2-0.6c0.4-0.2,0.5,0.2,0.8,0.3
			C49.3,90.1,49.7,90.3,49.9,90.6z"/>
		<path class="st2" d="M49.9,90.6c-0.2-0.3-0.6-0.5-0.5-1c0.2-0.1,0.4-0.2,0.6-0.2c0.4,0.1,0.8,0.4,0.8,0.8
			C50.8,90.8,50.3,90.7,49.9,90.6z"/>
		<path class="st2" d="M67.3,98.8c0,0.2,0,0.4,0,0.6c-0.2,0-0.4,0-0.6,0c-0.3-1.2-1.7-1.1-2.3-1.9c0.1-0.1,0.1-0.1,0.2-0.2l0,0
			c0.7-0.1,1.2,0.5,1.9,0.4c0.1,0,0.1,0,0.2,0c0.2,0.3,0.4,0.6,0.6,0.9C67.3,98.7,67.3,98.8,67.3,98.8z"/>
		<path class="st2" d="M66.7,99.5c0.2,0,0.4,0,0.6,0c0,0.1,0,0.1,0,0.2C67,99.9,66.8,100,66.7,99.5z"/>
		<path class="st2" d="M64.6,97.4c-0.1,0.1-0.1,0.1-0.2,0.2c0-0.1,0-0.1,0-0.2C64.5,97.4,64.5,97.4,64.6,97.4z"/>
		<path class="st2" d="M92.8,98c-1.3,0.5,0.5,0.7,0,1.2c-0.7,0.2-1.1-0.4-1.3-1c-0.3-0.6-0.5-1.3,0.1-1.9c0.1-0.1,0.4-0.2,0.4,0
			C92,97,92.9,97.2,92.8,98L92.8,98z"/>
		<path class="st2" d="M93,98.2c-0.1-0.1-0.1-0.2-0.2-0.2l0,0C92.8,98.1,92.9,98.2,93,98.2L93,98.2z"/>
		<path class="st2" d="M103.3,94.6c0,0.6-0.2,0.8-0.7,0.6c-0.8-0.2-1.6-1.6-1.3-2.4c0.1-0.4,0.3-0.7,0.7-0.2
			c-0.1,0.2-0.2,0.5,0.1,0.7c0.2,0.1,0.3-0.1,0.4-0.2c0.4,0.2,0.5,0.5,0.5,0.9C102.3,94.7,103,94.5,103.3,94.6z"/>
		<path class="st2" d="M102.4,93.2c-0.1,0.1-0.3,0.3-0.4,0.2c-0.2-0.2-0.1-0.4-0.1-0.7c0.1,0,0.1-0.1,0.2-0.1c0.3-0.1,0.7-0.4,0.8,0
			C103.1,92.9,102.5,92.9,102.4,93.2z"/>
		<path class="st2" d="M103.3,94.6c-0.3-0.1-1,0.1-0.4-0.6c0.3-0.2,0.6-0.5,1.1-0.5c0,0.1,0,0.2,0,0.3
			C103.7,94.1,103.5,94.3,103.3,94.6z"/>
		<path class="st2" d="M103.9,93.8c0-0.1,0-0.2,0-0.3c0-0.3,0.3-0.4,0.4-0.6c0.1,0,0.3,0,0.4,0c0.1,0.3-0.1,0.4-0.2,0.6
			C104.3,93.7,104.1,93.8,103.9,93.8z"/>
		<path class="st2" d="M100.3,95.3c-0.2-0.1-0.2-0.2-0.2-0.4C100.4,94.9,100.4,95.1,100.3,95.3z"/>
		<path class="st2" d="M69.9,98.5c0.6-0.3,1.2-0.3,1.4,0.4c0.2,0.8-0.2,1.3-1,1.4C69.5,99.8,69.9,99.1,69.9,98.5z"/>
		<path class="st2" d="M69.9,98.5c0,0.6-0.4,1.3,0.4,1.8c0,0.3,0,0.6-0.4,0.5c-0.6-0.2-1-0.7-1-1.4C68.9,98.8,69.2,98.4,69.9,98.5z"
			/>
		<path class="st2" d="M85,89.6c-0.7,0-1-0.5-1.1-1.1c0-0.9,0.7-1.9,1.5-1.8c0.8,0.1,0.9,0.8,0.9,1.4C86.5,88.9,85.8,89.6,85,89.6z"
			/>
		<path class="st2" d="M95.1,97.4c0.1-0.1,0.1-0.1,0.2-0.2C95.2,97.2,95.1,97.3,95.1,97.4z"/>
		<path class="st2" d="M66.5,97.8c-0.7,0.1-1.2-0.5-1.9-0.4c0-0.4,0.3-0.4,0.6-0.5C66.1,96.6,66.4,97.1,66.5,97.8z"/>
		<path class="st2" d="M67.3,98.8c0,0,0-0.1,0-0.1c0,0,0.1,0,0.1,0.1C67.4,98.8,67.4,98.8,67.3,98.8z"/>
		<path class="st2" d="M79.9,61.5c0.2,0.2,0.4,0.4,0.6,0.6c-2.2,0.4-4.5,0-6.8,0.1C75.6,60.4,77.7,60.7,79.9,61.5z"/>
		<path class="st2" d="M77,60c0.2,0,0.5,0.1,0.8,0.1C77.4,60.5,77.2,60.6,77,60z"/>
		<path class="st2" d="M77.5,64.4c0,0.1,0,0.1,0,0.2c-0.4,0.3-0.2,0.7-0.2,1.1c0,4.5,0,8.9,0,13.4c0,0.4,0.2,0.9-0.4,1.1
			c0-5.2,0.1-10.5,0.1-15.7C77.1,64.5,77.3,64.4,77.5,64.4z"/>
		<path class="st2" d="M61.2,86.4c0.2-1.1,0-2,0.1-3c0-1.5,0.7-2.1,2.2-1.7c0.3,0.1,0.6,0.3,0.9,0.4c1.3,0.7,1.3,0.7,0.2,1.7
			c-0.6,0.5-0.7,1.2-1.1,1.9c-0.3,0.6-0.6,0.7-1.1,0.4C61.9,85.7,61.5,85.9,61.2,86.4z"/>
		<path class="st2" d="M65.5,84.6c0.6-0.2,0.4-1.2,1.3-1.1l0,0c0.1,0.8,0.9,1,1.2,1.6c0.2,0.4,0.7,0.8,0.5,1.2
			c-0.2,0.4-0.7,0.3-1.1,0.4c-0.7,0-1.7,0.6-2.1,0C64.8,86.2,65.6,85.3,65.5,84.6L65.5,84.6z"/>
		<path class="st2" d="M61.5,81c0.4-0.5,0.9-0.6,1.4-0.2c0,0.4-0.3,0.4-0.6,0.4c-1,0.1-1.4,0.7-1.3,1.6c0,0.6,0,1.2,0,1.8
			c0,0.3,0.1,0.7-0.4,0.8l0,0c-0.1-0.3-0.1-0.6-0.2-0.9c-0.5-1.2,0-2.2,0.4-3.3h0C61.1,81.2,61.3,81.3,61.5,81z"/>
		<path class="st2" d="M65.4,84.6c-0.8,0.4-0.5,1.2-0.8,1.8c-0.1,0.2,0,0.5-0.3,0.4c-0.2,0-0.3-0.3-0.3-0.5c0-0.8,0.3-1.4,0.9-1.9
			C65.1,84.2,65.4,84.1,65.4,84.6L65.4,84.6z"/>
		<path class="st2" d="M69.7,89.4c-0.1,0-0.3,0-0.4,0c-0.2,0-0.4,0-0.7,0c1.3-0.5,1.1-1.6,1.1-2.6c0.3,0.4,0.4,0.8,0.4,1.3
			C70.2,88.6,69.7,88.9,69.7,89.4z"/>
		<path class="st2" d="M60.6,85.4C60.6,85.4,60.6,85.5,60.6,85.4C60.6,85.5,60.6,85.4,60.6,85.4L60.6,85.4z"/>
		<path class="st2" d="M70.7,86.7c0.4,0.6,0.2,1.2,0.2,1.8c0,0.3-0.3,0-0.4-0.1C70.8,87.8,70.6,87.2,70.7,86.7z"/>
		<path class="st2" d="M67.6,82.9c0.5,0.1,0.7,0.4,0.9,0.8l-0.1,0.1C67.9,83.7,67.6,83.4,67.6,82.9L67.6,82.9z"/>
		<path class="st2" d="M68.6,84.1c0.6,0,0.9,0.3,0.8,0.8c0,0,0,0,0,0C69.1,84.8,68.8,84.5,68.6,84.1L68.6,84.1z"/>
		<path class="st2" d="M70.3,86c0.3,0.1,0.4,0.4,0.4,0.7C70.3,86.7,70.3,86.3,70.3,86z"/>
		<path class="st2" d="M69.9,85.6c-0.1-0.1-0.2-0.3-0.2-0.4l0,0C69.9,85.3,69.9,85.4,69.9,85.6L69.9,85.6z"/>
		<path class="st2" d="M68.6,84.2c-0.1-0.1-0.2-0.3-0.2-0.4c0,0,0.1-0.1,0.1-0.1C68.5,83.9,68.6,84,68.6,84.2
			C68.6,84.1,68.6,84.2,68.6,84.2z"/>
		<path class="st2" d="M67.5,82.9c-0.1-0.1-0.1-0.1-0.2-0.2l0,0C67.4,82.7,67.5,82.8,67.5,82.9L67.5,82.9z"/>
		<path class="st2" d="M69.6,85.2c-0.1-0.1-0.1-0.1-0.2-0.2c0,0,0,0,0,0C69.5,85,69.6,85.1,69.6,85.2C69.7,85.2,69.6,85.2,69.6,85.2
			z"/>
		<path class="st2" d="M69.9,85.6c0,0,0.1,0.1,0.1,0.1C70,85.7,69.9,85.7,69.9,85.6C69.9,85.7,69.9,85.7,69.9,85.6L69.9,85.6z"/>
		<path class="st2" d="M61.5,81c-0.2,0.3-0.4,0.3-0.7,0.2C61,80.9,61.2,81,61.5,81z"/>
		<path class="st2" d="M72.9,85.4c0-0.6,0-1,0.5-1.2c0.2-0.1,0.4,0,0.4,0.1C73.9,85,73.3,85,72.9,85.4z"/>
		<path class="st2" d="M57,94.5c0,0.4,0.7,1.1-0.4,1c-0.1-0.2-0.7-0.1-0.6-0.5C56.2,94.6,56.5,94.4,57,94.5z"/>
	</g>
</g>
</svg>
