<?xml version="1.0" encoding="utf-8"?>
<!-- Generator: Adobe Illustrator 16.0.0, SVG Export Plug-In . SVG Version: 6.00 Build 0)  -->
<!DOCTYPE svg PUBLIC "-//W3C//DTD SVG 1.1//EN" "http://www.w3.org/Graphics/SVG/1.1/DTD/svg11.dtd">
<svg version="1.1" id="Layer_1" xmlns="http://www.w3.org/2000/svg" xmlns:xlink="http://www.w3.org/1999/xlink" x="0px" y="0px"
	 width="19.2px" height="19.2px" viewBox="0 0 19.2 19.2" style="enable-background:new 0 0 19.2 19.2;" xml:space="preserve">
<style type="text/css">
<![CDATA[
	.st0{fill:#FFFFFF;}
	.st1{fill-rule:evenodd;clip-rule:evenodd;fill:#2E2E2E;}
	.st2{fill-rule:evenodd;clip-rule:evenodd;fill:#FFFFFF;}
]]>
</style>
<g>
	<path class="st2" d="M7.7,4c-0.1,0.2,0,0.5,0,0.6c0-0.1,0-0.2,0-0.3C7.8,4.2,7.8,4.1,7.7,4C7.8,4,7.8,4,7.7,4C7.8,4,7.8,4,7.7,4z"
		/>
	<path class="st2" d="M12.5,4.7c-0.3,0.2-0.5,0.3-0.7,0.6c0,0,0,0.1-0.1,0.1c0.2,0,0.8-0.5,0.9-0.7c0,0,0,0-0.1,0
		C12.6,4.7,12.6,4.7,12.5,4.7z"/>
	<path class="st2" d="M8.4,5.6C8.2,5.5,8,5.4,7.9,5.3c0,0,0,0.1,0,0.1C8,5.6,8,5.8,8.1,6c0.1,0.1,0.1,0.3,0.1,0.5
		c0.1,0,0.1-0.1,0.2-0.2C8.5,6.2,8.5,6,8.5,5.8C8.5,5.7,8.4,5.7,8.4,5.6z"/>
	<path class="st2" d="M7.8,9.3C7.8,9.3,7.8,9.3,7.8,9.3C7.9,9.3,7.9,9.3,7.8,9.3C7.8,9.3,7.8,9.3,7.8,9.3z"/>
	<path class="st2" d="M8,9.6C8,9.5,7.9,9.4,7.9,9.3C7.9,9.4,8,9.5,8,9.6C8,9.6,8,9.6,8,9.6z"/>
	<g>
		<path class="st2" d="M16.9,9c-0.1-1.4-0.6-2.6-1.4-3.7c-0.8-1.1-1.8-1.9-3.1-2.5C9.9,1.8,7.2,2.3,5.4,3.6c0,0,0,0,0,0.1
			C5.6,4,5.8,4.3,6,4.6l0,0L12.8,15l0,0c0.2,0.3,0.3,0.5,0.5,0.8c0,0,0,0,0,0h0c0,0,0,0,0,0c0.8-0.5,1.8-1.3,2.5-2.5
			C16.6,12,17,10.6,16.9,9z M14,7.1c0,0.1,0,0.3,0,0.4c0,0.2,0,0.3,0,0.4c0,0.2,0,0.4-0.1,0.6c-0.1,0.3-0.1,0.6-0.2,0.9
			c0,0.2-0.1,0.4-0.1,0.5c0,0.2-0.1,0.4-0.1,0.5c0,0.1,0,0.1-0.1,0.2c0,0.1-0.1,0.1-0.2,0.1c-0.1,0-0.2,0-0.3-0.1
			c-0.2,0-0.3-0.1-0.5-0.1c0.1,0.1,0.2,0.3,0.3,0.4c0.2,0.3,0.5,0.5,0.6,0.8s0.3,0.6,0.4,1c0.1,0.4,0,0.8-0.2,1.1
			c-0.1,0.3-0.3,0.5-0.5,0.7L6.5,4.9c0-0.3,0.1-0.5,0.2-0.7C6.8,3.9,7,3.7,7.3,3.6c0.1-0.1,0.3-0.1,0.4-0.1c0,0,0.1,0,0.1,0
			c0,0,0,0,0,0C7.9,3.3,8,3.1,8.1,3c0.1-0.2,0.3-0.3,0.5-0.3c0.3-0.1,0.5-0.1,0.8-0.1c0.2,0,0.4,0,0.6,0.1c0.1,0,0.2,0.1,0.3,0.2
			c0.2,0.1,0.3,0.3,0.4,0.5c0.1,0.1,0.1,0.3,0.2,0.5c0,0.1,0,0.3,0,0.4c0,0.1,0,0.1,0,0.2c0.1,0.1,0.2,0.2,0.2,0.3
			c0,0,0.1,0.1,0.1,0.1c0,0,0,0.1-0.1,0.1c0,0-0.1,0-0.1,0c0,0-0.1,0-0.1,0.1c0,0,0,0,0.1,0c0,0.1-0.1,0.1-0.1,0.1
			c0,0,0.1,0.1,0.1,0.1c0,0.1-0.1,0.1-0.1,0.1c0,0.1,0,0.1,0,0.2c0,0.1,0,0.2-0.1,0.2c-0.1,0-0.1,0-0.2,0c-0.1,0-0.2,0-0.4,0
			C10,6.2,9.9,6.3,9.9,6.4c0,0.1,0,0.2,0,0.3c0,0.1,0,0.2,0.1,0.3c0,0.1,0.1,0.2,0.2,0.2c0.1,0,0.1,0.1,0.2,0.1
			c0.2,0.1,0.3,0.2,0.5,0.3c0.2,0.2,0.3,0.4,0.5,0.5c0.1,0.1,0.2,0.2,0.3,0.3c0.3,0.2,0.5,0.5,0.8,0.7c0,0,0.1,0.1,0.1,0.1
			c0,0,0-0.1,0.1-0.1c0.1-0.2,0.3-0.4,0.3-0.6C13,8.5,13,8.4,13,8.3c0-0.2,0.1-0.4,0.1-0.5c0-0.1,0-0.2,0.1-0.3
			c0-0.2-0.1-0.4-0.3-0.5c0,0,0,0,0,0c-0.2-0.1-0.2-0.3-0.2-0.4c0-0.1,0-0.1-0.1-0.1c-0.2-0.2-0.3-0.3-0.5-0.5
			c-0.1-0.1-0.2-0.2-0.3-0.3c0,0,0,0-0.1,0c-0.1,0-0.1-0.1,0-0.1c0-0.1,0.1-0.1,0.1-0.2c0.2-0.2,0.5-0.4,0.7-0.6c0,0,0.1,0,0.2,0
			c0,0,0.1,0,0.1,0.1c0,0.1,0,0.1,0.1,0.2c0.2,0.3,0.4,0.6,0.5,1c0,0,0,0,0,0c0.1,0,0.2,0,0.2,0.1c0.1,0,0.2,0,0.2,0.1
			c0,0.1,0,0.1,0.1,0.2c0,0,0,0.1,0,0.1C14,6.4,14,6.6,14,6.8C14,6.9,14,7,14,7.1z"/>
		<path class="st2" d="M12.4,16.3l-0.1-0.1l0,0l0,0l0,0l0,0L7,8.1h0c0,0,0,0.1,0.1,0.1C5.7,6,4.6,4.3,4.6,4.3
			c-2.3,2-3.3,6.1-0.9,9.5c1.2,1.7,2.9,2.7,4.9,3v0c0,0,0.7,0.2,1.9,0C11.6,16.7,12.4,16.3,12.4,16.3C12.4,16.3,12.4,16.3,12.4,16.3
			L12.4,16.3z M8.6,16.6c0-0.1,0-0.1-0.1-0.2C8.3,16,8.1,15.6,8,15.2c-0.1-0.2-0.1-0.5-0.1-0.7c0-0.2,0.1-0.5,0.2-0.7
			c0.1-0.2,0.2-0.4,0.4-0.6c0.1-0.1,0.1-0.3,0.1-0.4c0-0.2,0-0.4-0.1-0.6c0-0.1,0-0.1-0.1-0.1C8.3,12,8.1,11.9,8,11.9
			c-0.4-0.1-0.8-0.2-1.1-0.3c-0.2-0.1-0.4-0.2-0.6-0.3c-0.2-0.1-0.5-0.3-0.6-0.4c-0.1-0.1-0.1-0.1-0.2-0.2c0,0,0-0.1,0-0.1
			c0-0.2,0.1-0.4,0.2-0.5c0.2-0.4,0.5-0.8,0.8-1.2c0.2-0.2,0.3-0.4,0.5-0.6l0.9,1.4C7.5,9.9,7.2,10.1,7,10.3
			c0.2,0.1,0.4,0.1,0.6,0.3c0.1,0.1,0.3,0.2,0.4,0.2c0.1,0.1,0.3,0.2,0.4,0.3c0,0,0.1,0,0.1,0c0-0.2-0.1-0.4-0.1-0.6l3.6,5.6
			c-0.3,0.1-0.9,0.3-1.7,0.4C9.5,16.8,8.8,16.6,8.6,16.6z"/>
	</g>
	<path class="st2" d="M7.1,8.1L7.1,8.1c0,0.1,0.1,0.1,0.1,0.2C7.2,8.3,7.1,8.2,7.1,8.1z"/>
	<path class="st2" d="M8,9.6C8,9.6,8,9.6,8,9.6c1.2,1.8,2.4,3.6,3.2,4.9C10.4,13.2,9.2,11.4,8,9.6z"/>
	<path class="st2" d="M11.6,15c0.4,0.7,0.7,1.1,0.8,1.3C12.3,16.1,12,15.7,11.6,15z"/>
</g>
</svg>
