<?xml version="1.0" encoding="utf-8"?>
<!-- Generator: Adobe Illustrator 16.0.0, SVG Export Plug-In . SVG Version: 6.00 Build 0)  -->
<!DOCTYPE svg PUBLIC "-//W3C//DTD SVG 1.1//EN" "http://www.w3.org/Graphics/SVG/1.1/DTD/svg11.dtd">
<svg version="1.1" id="simbolos" xmlns="http://www.w3.org/2000/svg" xmlns:xlink="http://www.w3.org/1999/xlink" x="0px" y="0px"
	 width="140px" height="140px" viewBox="6 5 140 140" style="enable-background:new 6 5 140 140;" xml:space="preserve">
<style type="text/css">
<![CDATA[
	.st0{fill:none;stroke:#447f3b;stroke-width:1.1486;stroke-miterlimit:10;}
	.st1{fill:none;stroke:#447f3b;stroke-width:1.1486;stroke-miterlimit:10;}
	.st2{fill-rule:evenodd;clip-rule:evenodd;fill:#447f3b;}
]]>
</style>
<g>
	<circle class="st1" cx="76" cy="75" r="63.6"/>
	<path class="st0" d="M145.3,75c0-38.2-31-69.3-69.3-69.3C37.8,5.7,6.7,36.8,6.7,75c0,38.2,31,69.3,69.3,69.3
		C114.2,144.3,145.3,113.2,145.3,75z"/>
	<g>
		<path class="st2" d="M73.5,75.9c0-7.2,0-14.2,0-21.1c-3.1-2-5.4,0.7-8.3,1.4c0.9-5.1,1.6-9.7,2.4-14.2c0.5-2.7,0.9-5.5,1.5-8.2
			c0.5-2.4,1.2-2.6,3.1-1c1.3,1,4.7,1.1,6,0c1.9-1.6,2.6-1.4,3,1c1.3,7.2,2.4,14.4,3.7,22.2c-2.7-0.7-5.1-1.4-8.3-2.3
			c0,2.8,0,4.9,0,6.9c0,4.5-0.1,9.1,0,13.6C76.7,76.1,75.8,76.6,73.5,75.9z M69.9,45.4c-0.4,1.9-0.7,3.8-1,5.7c1.8,0,3.1,0,4.5,0
			c0-2,0-3.8,0-5.7C72.1,45.4,71.1,45.4,69.9,45.4z M81.3,51.2c-0.4-2.2-0.8-4-1.1-5.7c-1.3,0-2.2,0-3.3,0c0,2,0,3.9,0,5.7
			C78.4,51.2,79.7,51.2,81.3,51.2z M76.6,42.4c1.2-0.1,2.1-0.1,3.1-0.2c-0.3-1.7-0.4-3.2-0.8-4.6c-0.1-0.5-0.9-0.7-1.4-1.1
			c-0.3,0.4-0.8,0.9-0.8,1.3C76.6,39.1,76.6,40.5,76.6,42.4z M70.5,42.4c1.2-0.1,2-0.1,3.1-0.2c0-1.5,0.1-2.7-0.1-3.9
			c-0.1-0.6-0.7-1.2-1.1-1.8c-0.5,0.6-1.2,1-1.3,1.7C70.8,39.4,70.7,40.6,70.5,42.4z"/>
		<path class="st2" d="M52.9,71.6c-1.7,0.8-2.8-0.2-3.8-1.4c-1.3-1.6-2.6-2.5-5-1.5c-2.1,0.9-4.4,0.1-6.1-1.5
			c-2.7-2.6-5.3-5.2-8-7.8c4.1-2.3,7-5.4,9.4-9.1c2.7,2.6,5.8,5.3,8.5,8.4c1.8,2,1.6,3.8,0.2,7.7c1.5,1.8,3.1,3.6,4.6,5.4L52.9,71.6
			z"/>
		<path class="st2" d="M110,65.4c-1,2.1-2.2,0.7-3.3,0.2c-2.6,2.3-5.2,4.5-7.8,6.6c0,0-0.5-0.4-1.1-0.9c2.6-2.3,5.1-4.6,7.2-6.5
			c-0.8-2.1-1.3-3.4-1.8-4.7c1.7-2.1,3.4-4.3,5.2-6.4c4.5-1.7,4.5-1.7,8.2,2.1c0.5,0.5,0.9,1,1.3,1.4c-1.3,1.3-2.6,2.5-3.9,3.7
			C112.7,62.3,111.3,63.8,110,65.4z"/>
		<path class="st2" d="M43.9,98.8c1.1-0.2,2.2-0.6,3.3-0.6c8.9,0,17.9,0,26.8,0c9.6,0,19.3,0,28.9,0c1.1,0,2.1,0.4,3.1,0.9
			c-2.4,1.2-58.3,1.4-62,0.6C44,99.4,44,99.1,43.9,98.8z"/>
		<path class="st2" d="M100.6,86c-17,0-34,0-51.1,0c0.3-2.4,2-1.8,3.3-1.8c9.9,0,19.8,0,29.6,0c5.1,0,10.2,0,15.3,0
			C98.9,84.3,100.5,83.8,100.6,86z"/>
		<path class="st2" d="M79.5,97.3c-3.2,0-5.8,0-8.5,0c0-3.3,0-6.6,0-10.1c2.7,0,5.1,0,8,0C79.2,90.4,79.3,93.7,79.5,97.3z"/>
		<path class="st2" d="M70.3,101c3.2,0,6.2,0,9.5,0c0.2,2.6,0.3,5.2,0.5,8c-3.6,0-7,0-10.6,0C69.9,106.4,70.1,103.9,70.3,101z"/>
		<path class="st2" d="M95.5,93.5c-0.4-2-0.8-4.1-1.2-6.3c2.3,0,4.6,0,7.1,0c1.3,3.2,2.5,6.5,3.9,10.1c-3,0-5.5,0-8.1,0
			c-0.6-1.3-1.2-2.6-1.8-3.9L95.5,93.5z"/>
		<path class="st2" d="M48.8,87.1c2.5,0,4.7,0,7.2,0c-1,3.4-1.9,6.6-2.8,10c-2.7,0-5.3,0-8.3,0C46.3,93.7,47.5,90.5,48.8,87.1z"/>
		<path class="st2" d="M109.9,109.2c-3.6,0-6.6,0-9.8,0c-0.7-2.6-1.4-5.1-2.3-8c3.1,0,5.9,0,8.9,0
			C107.8,103.7,108.8,106.3,109.9,109.2z"/>
		<path class="st2" d="M52.1,102.4c-0.8,2.2-1.7,4.4-2.5,6.8c-3,0-6,0-9.4,0c1.1-2.9,2.2-5.5,3.3-8.3c2.4,0,4.7,0,7,0
			c1.2,0,1.6,0.6,1.5,1.7L52.1,102.4z"/>
		<path class="st2" d="M95.4,93.4c0.1,1.2,0.2,2.5,0.3,3.9c-2.3,0-4.6,0-7.2,0c-0.6-3.4-1.1-6.6-1.7-10.1c2.3,0,4.2,0,6.1,0
			c0.9,2.2,1.7,4.3,2.6,6.3L95.4,93.4z"/>
		<path class="st2" d="M63.4,87.1c-0.7,3.6-1.2,6.7-1.8,10.1c-2.5,0-4.8,0-7.5,0c1-3.5,2-6.8,2.9-10.1C59.1,87.1,61,87.1,63.4,87.1z
			"/>
		<path class="st2" d="M70.4,87.2c-0.3,3.5-0.5,6.7-0.8,10.1c-2.5,0-4.6,0-7.2,0c0.6-3.5,1.1-6.7,1.7-10.1
			C66.1,87.2,67.9,87.2,70.4,87.2z"/>
		<path class="st2" d="M87.6,97.2c-2.4,0-4.6,0-7.2,0c-0.2-3.3-0.4-6.5-0.7-10c2.2,0,4,0,6.1,0C86.5,90.4,87,93.7,87.6,97.2z"/>
		<path class="st2" d="M110,65.4c1.3-1.5,2.7-3,4-4.6c0.9-0.5,1.8-1,2.6-1.6c1.6-1.1,3-1.1,4,0.8c-1.3,1.2-2.5,2.4-3.8,3.5
			c-1.4,1.7-2.8,3.3-4.2,5c-1,1.5-2,0.9-2.5-0.2C109.7,67.4,110,66.3,110,65.4z"/>
		<path class="st2" d="M108.4,53.6c-1.7,2.1-3.4,4.3-5.2,6.4c-2.5-0.2-3.1-0.8-2.4-2.7c1.5-3.6,4.2-6.1,7.7-7.7
			c1.5-0.7,2.4,0.2,3.1,1.4C110.5,51.9,109.4,52.8,108.4,53.6z"/>
		<path class="st2" d="M78.4,77.3c0,2.1,0,3.9,0,6c-2,0-4.2,0-6.5,0c0-1.9,0-3.8,0-6C74.1,77.3,76,77.3,78.4,77.3z"/>
		<path class="st2" d="M51.9,102.5c0.8-1.2,1.8-1.8,3.4-1.7c1.7,0.2,3.4,0,5.4,0c-0.2,1.8-0.4,3.2-0.6,4.8c-2.8,0-5.4,0-8.1,0
			c0-1.1,0-2.2,0-3.3L51.9,102.5z"/>
		<path class="st2" d="M93,83.3c-0.5-1.9-1-3.8-1.6-6c2.2,0,4,0,6.1,0c0.7,1.9,1.5,3.8,2.3,6C97.4,83.3,95.4,83.3,93,83.3z"/>
		<path class="st2" d="M52.8,77.3c2.1,0,3.8,0,5.5,0c-0.8,7.6-0.9,6.5-7.6,6c0.1-0.4,0-0.9,0.2-1.3C51.5,80.4,52.1,78.9,52.8,77.3z"
			/>
		<path class="st2" d="M89.9,105.6c-0.3-1.5-0.5-2.9-0.8-4.6c2.7,0,5.2,0,7.9,0c0.4,1.4,0.8,2.8,1.3,4.6
			C95.4,105.6,92.7,105.6,89.9,105.6z"/>
		<path class="st2" d="M88.2,101.1c0.3,1.6,0.6,3,0.9,4.7c-2.8,0-5.3,0-8.1,0c-0.1-1.6-0.2-3-0.3-4.7
			C83.3,101.1,85.7,101.1,88.2,101.1z"/>
		<path class="st2" d="M61,105.7c0.3-1.7,0.5-3.1,0.7-4.7c2.6,0,5,0,7.7,0c-0.2,1.6-0.3,3.1-0.5,4.7C66.3,105.7,63.8,105.7,61,105.7
			z"/>
		<path class="st2" d="M100.5,75.8c-2.7-1.2-5.4-2.4-8.1-3.7c-1.8,1-1.7,4.6-5.6,3.9c1.3-2,2.3-3.7,3.4-5.3c0.9-1.2,2.2-1.4,3.4-0.6
			c2.5,1.5,5,3.1,7.4,4.7C100.8,75.1,100.7,75.4,100.5,75.8z"/>
		<path class="st2" d="M112.6,68.5c1.4-1.7,2.8-3.3,4.2-5c1.6-0.8,3.1-1.7,4.7-2.5c0.2,0.3,0.4,0.5,0.6,0.8c-2,4-5.1,6.9-9.5,9.3
			C112.6,70,112.6,69.2,112.6,68.5z"/>
		<path class="st2" d="M92.2,83.4c-2.3,0-4,0-6,0c-0.3-2-0.6-3.9-1-6.1c1.8,0,3.3,0,5.1,0C90.9,79.1,91.5,81,92.2,83.4z"/>
		<path class="st2" d="M59.7,77.3c2,0,3.4,0,5.2,0c-0.3,2.1-0.6,4-0.9,6c-1.9,0-3.7,0-5.9,0C58.7,81.2,59.2,79.3,59.7,77.3z"/>
		<path class="st2" d="M71,77.3c-0.1,2.2-0.2,4-0.4,6c-1.9,0-3.6,0-5.7,0c0.3-2,0.6-4,1-6C67.7,77.3,69.1,77.3,71,77.3z"/>
		<path class="st2" d="M79.2,77.3c1.8,0,3.2,0,5,0c0.3,1.9,0.6,3.8,1,5.9c-1.9,0-3.7,0-5.8,0C79.4,81.3,79.3,79.4,79.2,77.3z"/>
		<path class="st2" d="M64,67.8c0.8-0.5,1.5-1,2.5-1.6c0.2,0.8,0.6,1.6,0.4,2c-1.6,2.6-0.9,5.1,0.1,7.7c-0.2,0.1-0.4,0.1-0.7,0.2
			c-0.7-1.4-1.1-3.2-2.2-4.2c-1.1-1.1-3.4-0.8-3.7-3.4c1-0.1,1.8-0.1,2.7-0.2C63.4,68.1,63.7,68,64,67.8z"/>
		<path class="st2" d="M85.6,67.5c0.5,0.4,1,1,1.5,1c0.8,0.1,1.7-0.2,3.3-0.5c-0.8,1.3-1.1,2.3-1.7,2.5c-2.5,0.7-3.6,2.6-4.3,4.8
			c-0.1,0.2-0.4,0.4-1.1,0.9c0.5-2.1,1.4-3.8,1.1-5.3c-0.3-1.5-1.7-2.8-0.6-4.7C84.4,66.7,85,67.2,85.6,67.5L85.6,67.5z"/>
		<path class="st2" d="M70.5,64.7c1.4,5.9,1,9.7-1.4,11.8C68.1,72.4,69.1,68.9,70.5,64.7z"/>
		<path class="st2" d="M80.9,76.4c-2.3-1.9-2.7-5.8-1.5-11C81.3,68.5,81.8,72.2,80.9,76.4z"/>
		<path class="st2" d="M86.3,64.2c-0.3-1.3-0.6-2.5-1-4.4c2.6,1,4.6,1.8,6.6,2.5C90.8,65.2,90.3,65.3,86.3,64.2L86.3,64.2z"/>
		<path class="st2" d="M64,64c-3.9,1.4-4.5,1.2-5.8-1.6c1.9-0.8,3.9-1.6,6.4-2.6c-0.3,1.6-0.5,3-0.7,4.3L64,64z"/>
		<path class="st2" d="M52.8,71.7c1.4-0.5,2.8-1,4.2-1.4c0.2,0.5,0.5,0.9,0.7,1.4c-2.6,1.4-5.3,2.9-7.9,4.3
			c-0.2-0.2-0.3-0.5-0.5-0.7c1.2-1.2,2.4-2.5,3.6-3.7L52.8,71.7z"/>
		<path class="st2" d="M57.7,71.7c-0.2-0.5-0.5-0.9-0.7-1.4c1.3-1.3,2.4-0.4,3.2,0.6c1.1,1.5,2.1,3.2,3.1,4.9
			c-0.2,0.2-0.4,0.5-0.6,0.7c-0.9-0.5-1.9-0.7-2.5-1.4C59.1,74,58.4,72.8,57.7,71.7z"/>
		<path class="st2" d="M59.6,57c0.4-1.1,0.9-2.3,1.6-3.9c1.5,2.1,1.9,3.7,0.1,4.9c-2,1.4-4.1,0.6-6.1-2.7C57.1,56,58.3,56.5,59.6,57
			z"/>
		<path class="st2" d="M89.1,53c0.7,1.8,1.1,2.9,1.5,4c1.2-0.5,2.4-1,4.2-1.7c-1.6,3.2-3.1,3.9-5.1,2.8C87.9,57.1,87.6,55.9,89.1,53
			z"/>
		<path class="st2" d="M64,67.8c-0.3,0.1-0.6,0.3-0.9,0.4c-1.3-0.7-3.3-0.3-4-3c1.5,0.4,2.7,0.8,4.1,1.2c0.2-0.7,0.6-1.5,0.9-2.4
			l-0.1,0.1c0.4-0.3,0.7-0.5,1.3-0.9C66.8,65.3,64.9,66.5,64,67.8z"/>
		<path class="st2" d="M85.6,67.6c-0.5-1.3-1-2.6-1.5-3.8c0.2-0.1,0.4-0.3,0.6-0.4c0.5,0.3,1,0.6,1.5,0.9l-0.1-0.1
			c0.2,0.8,0.5,1.5,0.7,2.3c1.2-0.4,2.5-0.8,4.2-1.4C90,68.8,87.5,67.3,85.6,67.6L85.6,67.6z"/>
	</g>
</g>
</svg>
