<?xml version="1.0" encoding="utf-8"?>
<!-- Generator: Adobe Illustrator 16.0.0, SVG Export Plug-In . SVG Version: 6.00 Build 0)  -->
<!DOCTYPE svg PUBLIC "-//W3C//DTD SVG 1.1//EN" "http://www.w3.org/Graphics/SVG/1.1/DTD/svg11.dtd">
<svg version="1.1" id="Layer_1" xmlns="http://www.w3.org/2000/svg" xmlns:xlink="http://www.w3.org/1999/xlink" x="0px" y="0px"
	 width="65.8px" height="31.7px" viewBox="0 0 65.8 31.7" style="enable-background:new 0 0 65.8 31.7;" xml:space="preserve">
<style type="text/css">
<![CDATA[
	.st0{fill:#FFFFFF;}
	.st1{fill-rule:evenodd;clip-rule:evenodd;fill:#2E2E2E;}
	.st2{fill-rule:evenodd;clip-rule:evenodd;fill:#FFFFFF;}
]]>
</style>
<g>
	<path id="u_3_" class="st0" d="M26.6,22.2h-1.9v-1.1c-0.7,0.8-1.3,1.2-2,1.2c-0.6,0-1-0.3-1.2-0.8c-0.1-0.3-0.2-0.8-0.2-1.4v-7.9
		h1.9v7.4c0,0.4,0,0.6,0,0.7c0,0.3,0.2,0.4,0.4,0.4c0.4,0,0.7-0.3,1.1-0.9v-7.6h1.9V22.2z"/>
	<path id="o_3_" class="st0" d="M20,15.5c0-1.1-0.2-1.9-0.6-2.4c-0.5-0.7-1.3-1-2.1-1c-0.9,0-1.6,0.3-2.1,1
		c-0.4,0.5-0.6,1.3-0.6,2.4l0,3.5c0,1.1,0.2,1.8,0.6,2.3c0.5,0.7,1.3,1,2.1,1s1.6-0.4,2.1-1c0.4-0.5,0.6-1.2,0.6-2.3V15.5z
		 M18.2,19.2c0.1,1-0.2,1.5-0.8,1.5s-0.9-0.5-0.8-1.5v-3.9c-0.1-1,0.2-1.4,0.8-1.4s0.9,0.5,0.8,1.4L18.2,19.2z"/>
	<path id="y_3_" class="st0" d="M12.7,16.8v5.4h-2v-5.4c0,0-2-6.6-2.5-7.9h2.1l1.4,5.2l1.4-5.2h2.1L12.7,16.8z"/>
	<g>
		<path class="st0" d="M45.9,13.8c-0.3,0-0.6,0.2-0.9,0.5l0,6c0.3,0.3,0.6,0.4,0.9,0.4c0.5,0,0.7-0.4,0.7-1.4v-4.2
			C46.6,14.1,46.4,13.8,45.9,13.8z"/>
		<path class="st0" d="M53.2,15c0-0.9-0.2-1.2-0.8-1.2c-0.6,0-0.8,0.3-0.8,1.2v1.1l1.7,0V15z"/>
		<path class="st0" d="M57.3,10c0,0-0.3-2-1.2-2.9c-1.1-1.2-2.4-1.2-2.9-1.2C49,5.5,42.9,5.5,42.9,5.5h0c0,0-6.2,0-10.3,0.3
			c-0.6,0.1-1.8,0.1-2.9,1.2C28.7,8,28.4,10,28.4,10s-0.3,2.4-0.3,4.7v2.2c0,2.4,0.3,4.7,0.3,4.7s0.3,2,1.2,2.9
			c1.1,1.2,2.6,1.1,3.2,1.2c2.4,0.2,10,0.3,10,0.3s6.2,0,10.3-0.3c0.6-0.1,1.8-0.1,2.9-1.2c0.9-0.9,1.2-2.9,1.2-2.9s0.3-2.4,0.3-4.7
			v-2.2C57.6,12.4,57.3,10,57.3,10z M34.6,22.2h-2V10.9h-2.1V9l6.2,0v1.9h-2.2V22.2z M41.7,22.2h-1.9v-1.1c-0.7,0.8-1.3,1.2-2,1.2
			c-0.6,0-1-0.3-1.2-0.8c-0.1-0.3-0.2-0.8-0.2-1.4v-7.8h1.9v7.3c0,0.4,0,0.6,0,0.7c0,0.3,0.2,0.4,0.4,0.4c0.4,0,0.7-0.3,1.1-0.9
			v-7.5h1.9V22.2z M48.5,19.2c0,0.9-0.1,1.6-0.2,2c-0.2,0.7-0.8,1.1-1.5,1.1c-0.6,0-1.3-0.4-1.9-1.1l0,1h-1.8V9h1.8l0,4.3
			c0.6-0.7,1.2-1.1,1.9-1.1c0.7,0,1.2,0.4,1.4,1.1c0.1,0.4,0.2,1,0.2,2V19.2z M52.4,20.7c0.4,0,0.7-0.2,0.8-0.7c0-0.1,0-0.5,0-1.2
			h1.9V19c0,0.6,0,1-0.1,1.2c-0.1,0.4-0.2,0.8-0.4,1.1c-0.5,0.7-1.2,1.1-2.2,1.1c-0.9,0-1.6-0.3-2.2-1c-0.4-0.5-0.6-1.2-0.6-2.3
			v-3.4c0-1.1,0.2-1.9,0.6-2.4c0.5-0.7,1.2-1,2.1-1c0.9,0,1.6,0.4,2.1,1c0.4,0.5,0.6,1.3,0.6,2.3l0,2h-3.5v1.8
			C51.5,20.2,51.8,20.7,52.4,20.7z"/>
	</g>
</g>
</svg>
