<?xml version="1.0" encoding="utf-8"?>
<!-- Generator: Adobe Illustrator 16.0.0, SVG Export Plug-In . SVG Version: 6.00 Build 0)  -->
<!DOCTYPE svg PUBLIC "-//W3C//DTD SVG 1.1//EN" "http://www.w3.org/Graphics/SVG/1.1/DTD/svg11.dtd">
<svg version="1.1" id="simbolos" xmlns="http://www.w3.org/2000/svg" xmlns:xlink="http://www.w3.org/1999/xlink" x="0px" y="0px"
	 width="152px" height="150px" viewBox="0 0 152 150" style="enable-background:new 0 0 152 150;" xml:space="preserve">
<style type="text/css">
<![CDATA[
	.st0{fill:none;stroke:#447f3b;stroke-width:1.2239;stroke-miterlimit:10;}
	.st1{enable-background:new    ;}
	.st2{fill:#447f3b;}
	.st3{clip-path:url(#SVGID_2_);}
	.st4{fill:#447f3b;}
	.st5{fill:none;stroke:#4c4c4c;stroke-width:1.1244;stroke-miterlimit:10;}
]]>
</style>
<g>
	<g>
		<circle class="st5" cx="76" cy="75" r="67.8"/>
		<circle class="st0" cx="76" cy="75" r="73.8"/>
	</g>
	<g class="st1">
		<path class="st4" d="M87.1,67.5c0.4,0,0.9-0.1,1.3-0.1s1-0.1,1.5-0.1c1.9,0,3.3,0.5,4.3,1.4c1,0.9,1.5,2.3,1.5,4.2
			c0,1.9-0.5,3.3-1.5,4.2c-1,0.9-2.5,1.3-4.5,1.3c-0.5,0-1,0-1.4-0.1c-0.4,0-0.9-0.1-1.3-0.1V67.5z M89.3,76.6c0.1,0,0.2,0,0.3,0
			c0.1,0,0.3,0,0.5,0c0.5,0,0.9-0.1,1.3-0.2c0.4-0.1,0.7-0.3,1-0.6c0.3-0.3,0.5-0.7,0.7-1.1c0.2-0.5,0.3-1.1,0.3-1.8
			c0-0.7-0.1-1.3-0.3-1.8c-0.2-0.5-0.4-0.9-0.7-1.1c-0.3-0.3-0.6-0.5-1-0.6s-0.8-0.2-1.2-0.2c-0.1,0-0.3,0-0.5,0c-0.2,0-0.3,0-0.5,0
			V76.6z"/>
		<path class="st4" d="M97.5,67.5c0.4-0.1,0.7-0.1,1.1-0.1c0.4,0,0.7,0,1.1,0.1v10.8c-0.4,0.1-0.7,0.1-1.1,0.1c-0.4,0-0.7,0-1.1-0.1
			V67.5z"/>
		<path class="st4" d="M109,76.3c0.1,0.3,0.2,0.6,0.3,0.9c0.1,0.3,0.1,0.6,0.2,0.9c-0.5,0.2-1,0.3-1.4,0.4c-0.4,0.1-0.9,0.1-1.3,0.1
			c-0.9,0-1.6-0.1-2.2-0.4c-0.6-0.3-1.2-0.7-1.6-1.2c-0.4-0.5-0.8-1.1-1-1.8c-0.2-0.7-0.3-1.4-0.3-2.2s0.1-1.5,0.3-2.2
			c0.2-0.7,0.6-1.3,1-1.8c0.4-0.5,1-0.9,1.6-1.2s1.4-0.4,2.2-0.4c0.5,0,0.9,0,1.3,0.1s0.8,0.2,1.3,0.4c0,0.3-0.1,0.6-0.2,0.9
			c-0.1,0.3-0.2,0.6-0.3,0.9c-0.3-0.1-0.7-0.2-0.9-0.3c-0.3,0-0.6-0.1-1-0.1c-1,0-1.7,0.3-2.2,0.9c-0.5,0.6-0.8,1.6-0.8,2.8
			c0,2.4,1,3.7,3.1,3.7c0.4,0,0.7,0,1-0.1C108.3,76.5,108.6,76.4,109,76.3z"/>
		<path class="st4" d="M113.6,67.5c0.2,0,0.4-0.1,0.6-0.1s0.4,0,0.6,0c0.2,0,0.4,0,0.6,0c0.2,0,0.4,0,0.6,0.1l3.4,10.8
			c-0.4,0.1-0.8,0.1-1.2,0.1c-0.4,0-0.8,0-1.1-0.1l-0.6-2.2H113l-0.6,2.2c-0.4,0.1-0.7,0.1-1,0.1c-0.4,0-0.7,0-1.1-0.1L113.6,67.5z
			 M116,74.4l-1.2-4.5l-1.3,4.5H116z"/>
		<path class="st4" d="M122.6,73.3c-0.3-0.1-0.6-0.3-0.9-0.4c-0.3-0.2-0.5-0.3-0.7-0.6c-0.2-0.2-0.3-0.5-0.4-0.8
			c-0.1-0.3-0.2-0.7-0.2-1.1c0-0.5,0.1-1,0.3-1.3c0.2-0.4,0.4-0.7,0.7-1c0.3-0.3,0.7-0.5,1.2-0.6c0.4-0.1,1-0.2,1.5-0.2
			c0.5,0,1,0,1.4,0.1c0.4,0.1,0.9,0.2,1.4,0.4c-0.1,0.6-0.2,1.2-0.5,1.7c-0.2-0.1-0.3-0.1-0.5-0.2c-0.2-0.1-0.3-0.1-0.5-0.1
			s-0.4-0.1-0.6-0.1c-0.2,0-0.5,0-0.8,0c-0.2,0-0.3,0-0.5,0c-0.2,0-0.3,0.1-0.5,0.2c-0.1,0.1-0.3,0.2-0.3,0.4
			c-0.1,0.2-0.1,0.4-0.1,0.6c0,0.2,0,0.4,0.1,0.5s0.2,0.2,0.3,0.3c0.1,0.1,0.3,0.2,0.4,0.2c0.1,0.1,0.3,0.1,0.5,0.2l0.9,0.3
			c0.4,0.2,0.7,0.3,1,0.5c0.3,0.2,0.6,0.4,0.8,0.6c0.2,0.2,0.4,0.5,0.5,0.9s0.2,0.7,0.2,1.2c0,0.5-0.1,1-0.3,1.4s-0.5,0.8-0.8,1.1
			c-0.3,0.3-0.8,0.5-1.3,0.7c-0.5,0.2-1.1,0.3-1.8,0.3c-0.3,0-0.6,0-0.9,0c-0.3,0-0.5-0.1-0.7-0.1s-0.5-0.1-0.7-0.2
			c-0.2-0.1-0.5-0.2-0.7-0.3c0-0.3,0.1-0.6,0.2-0.9c0.1-0.3,0.2-0.6,0.3-1c0.4,0.2,0.8,0.3,1.2,0.4c0.4,0.1,0.8,0.1,1.2,0.1
			c0.6,0,1.1-0.1,1.5-0.4c0.4-0.2,0.5-0.6,0.5-1.1c0-0.2,0-0.4-0.1-0.6s-0.2-0.3-0.3-0.4c-0.1-0.1-0.3-0.2-0.5-0.3s-0.3-0.1-0.5-0.2
			L122.6,73.3z"/>
	</g>
	<g>
		<g>
			<defs>
				<circle id="SVGID_1_" cx="76" cy="75" r="67.8"/>
			</defs>
			<clipPath id="SVGID_2_">
				<use xlink:href="#SVGID_1_"  style="overflow:visible;"/>
			</clipPath>
			<g class="st3">
				<g>
					<path class="st4" d="M310.7,105.8c0,32,0,63.9,0,95.9c-111.3,0-222.5,0-333.8,0c0-30.1,0-60.2,0-90.3c0.3,0.3,0.5,0.5,0.8,0.8
						c0.3-0.1,0.3-0.3,0.2-0.5c-0.2-0.5-0.4-1-0.7-1.5c0-0.1-0.2-0.1-0.3-0.2c0-0.4,0-0.8,0-1.2c0.1,0.1,0.2,0.2,0.3,0.3
						c0.3,0.6,0.6,1.2,0.9,1.9c0.1,0.2,0.2,0.4,0.4,0.6c0.1,0,0.1,0,0.2-0.1c0-1.3-0.5-2.6-0.6-3.9c0.4,0.9,0.5,2,1.1,2.9
						c0-0.7,0-1.4,0-2.1h0.1c0.1,0.7,0.1,1.4,0.2,2.2c0.2-0.4,0.4-0.7,0.5-1c0,0.4-0.1,0.8-0.1,1.3c0.3-0.1,0.5-0.2,0.4-0.5
						c-0.1-0.3-0.2-0.6-0.3-0.8c-0.3-0.6-0.4-1.2-0.6-1.9c-0.2-0.6-0.3-1.3-0.5-1.9c0.3,0.7,0.6,1.4,0.8,2.2
						c0.2,0.7,0.4,1.5,0.7,2.3c0.3-0.4,0.4-0.8,0.6-1.1c-0.1,0.4-0.2,0.9-0.2,1.4c0.2,0,0.4,0,0.7,0c-0.2-0.5,0-1.1-0.5-1.4
						c0-0.3,0.1-0.6,0.1-0.9c-0.1-0.5-0.2-1.1-0.3-1.6c-0.3-1.9-0.6-3.9-0.6-5.9c0.2,0.4,0.3,0.8,0.4,1.2c0.1,0.7,0.2,1.5,0.3,2.2
						c0.2,1.2,0.4,2.4,0.7,3.7c0.2-0.1,0.2-0.2,0.3-0.2c-0.3,0.7-0.1,1.4,0.1,2c0.1-0.6,0.1-1.1,0.1-1.7c0-0.2,0-0.4-0.3-0.3
						c0.3-0.4,0.4-0.8,0.5-1.3c0-0.4,0.1-0.9,0.2-1.3c0.2-0.8,0.3-1.6,0.7-2.3c-0.1,1.1-0.5,2.2-0.4,3.3c0.1,0,0.2-0.1,0.3-0.1
						c0,0,0,0,0.1,0c-0.5,0.7-0.5,0.7-0.5,1.6c-0.1,1.4-0.1,2.7-0.2,4.1c0,0.2,0,0.4,0,0.6c0.1,0,0.1,0,0.2,0
						c0.1-0.2,0.2-0.3,0.3-0.5c0.5-1.1,0.9-2.3,1.3-3.4c0.1-0.2,0.2-0.4,0.2-0.7c0.1-0.5,0-1,0.5-1.3c0.5-1.2,0.6-2.4,0.2-3.6
						c-0.1-0.2-0.1-0.3-0.1-0.5c-0.1-0.4,0-0.8-0.1-1.1c-0.2-0.8-0.5-1.7-0.8-2.5c-0.1-0.2-0.1-0.4-0.2-0.6
						c-0.1-0.2-0.1-0.4-0.1-0.6c0.9,2,1.3,4.1,2.5,6c0.1-0.5,0.1-0.9,0.2-1.4c0.3,0.3,0.3,0.1,0.4-0.1c0.5-1,0.9-2,1.4-3
						c0.1-0.2,0.2-0.3,0.2-0.5c0,0.2,0,0.4-0.1,0.5c-0.6,1.7-1.2,3.4-1.7,5.1c-0.1,0.3-0.3,0.6,0.1,0.9c0.2-0.4,0.4-0.9,0.6-1.3
						c0,0.8-0.6,1.5-0.2,2.3c-0.1,0-0.2,0-0.4-0.1c0.3,1.1,0.6,2.2,0.8,3.2c0.3-0.6,0.7-1.1,0.2-1.7c0.3,0.2,0.4,0,0.4-0.2
						c0.2-0.5,0.3-1,0.5-1.5c0,0.9-0.1,1.9-0.2,2.8c0,0.2-0.1,0.3-0.1,0.5c-0.1,0.7,0.1,1.3,0.4,1.8c0.2-0.6,0.4-1.2,0.6-1.8
						c0.1-0.6,0.1-1.2,0.2-1.8c0.3,0.3,0.6,0.6,0.9,0.9c0.1-0.3,0.1-0.5,0.1-0.7c0,0,0,0,0.1,0c0,0.3,0.1,0.5,0.1,0.8
						c0.3-0.3,0.3-0.7,0.2-1c-0.3-1.4-0.6-2.8-0.9-4.3c-0.1-0.6-0.2-1.3-0.3-1.9h0.1c0.4,1.4,0.9,2.9,1.4,4.4
						c0.1-0.1,0.2-0.2,0.2-0.3c0.1,0.5,0.2,1,0.4,1.5c0.1,0.3,0.1,0.8,0.4,0.9c0.5,0.2,0,0.7,0.3,0.9c0.1,0.1,0.2,0.4,0.3,0.5
						c0.2-0.5,0.3-1,0.4-1.4c0.4-1.3,0.8-2.7,0.8-4.1c0-0.4,0-0.7,0.1-1.1c0.1,0.1,0.1,0.2,0.1,0.4c0,1.2,0.1,2.3,0,3.5
						c0,0.8,0.4,1.3,1,1.7c0-0.4,0-0.6,0-1.1c0.4,1,0.5,2,1.1,2.8c0.4-0.7,0.7-1.2,0.9-1.8c0.3-0.6,0.5-1.2,0.7-1.8
						c0.2-0.6,0.4-1.2,0.6-1.8h0.1c-0.1,0.4-0.2,0.8-0.2,1.2h0.1c0.4-0.9,0.8-1.8,1.3-2.8c0,0.6-0.1,1-0.1,1.4
						c0.1,2,0.2,3.9,0.4,5.9c0,0.2,0.1,0.3,0.1,0.5c0.7-1.2,1.3-2.5,1.8-3.8c1-2.7,2.4-5.3,2.7-8.2c0,1.2-0.1,2.4-0.5,3.6
						c-0.5,1.5-1.1,3-1.6,4.5c-0.4,1.1-0.7,2.2-1,3.2c0,0,0.1,0,0.1,0.1c0.1-0.2,0.3-0.5,0.5-0.9c-0.1,0.7-0.4,1.2,0.1,1.8
						c0.5-0.5,1-1.1,1.6-1.5c0.7-0.6,1-1.2,0.7-2.1c0-0.1,0-0.2,0-0.3h0.1c0.1,0.3,0.2,0.6,0.3,0.9c0.1-0.2,0.2-0.3,0.3-0.5
						c0.1,0.1,0.1,0.3,0.2,0.5c0.4-0.4,0.8-0.7,1.2-1s0.7-0.7,1.1-1.1c0.3-0.3,0.5-0.8,0.9-1c-0.2,0.4-0.4,0.6-0.7,1
						c-0.3,0.4-0.5,0.9-0.8,1.3c-0.6,0.1-0.9,0.6-1.3,1c-0.6,0.5-0.6,0.9-0.1,1.6c0.4-0.3,0.6-0.7,1.1-0.9c-0.3,0.4-0.6,0.8-0.9,1.2
						c-0.1,0.2-0.1,0.4-0.1,0.6c0,0.1,0.2,0.2,0.3,0.3c-0.2,0.7,0.1,1.2,0.3,1.8c0.9-1.3,1.7-2.6,2.6-4c-0.2-0.2-0.5-0.5-0.8-0.7
						c-0.3-0.3-0.7-0.6-1-0.8c0.7,0.4,1.4,0.8,2.1,1.2c0.1-0.1,0.2-0.2,0.4-0.3c-0.2,0.6-0.1,0.7,0.2,0.8c0.1,0,0.3,0,0.3,0.1
						c0.2,0.4,0.6,0.5,1,0.8c0.2-0.5,0.5-0.9,0.7-1.3c0.2-0.4,0.3-0.8,0.2-1.2c-0.1-1.2-0.3-2.5-0.4-3.7c-0.1-0.5-0.1-1-0.1-1.5
						c0.3,0.8,0.4,1.6,0.5,2.4c0.1,0.6,0.2,1.2,0.2,1.8c0,0.6,0.6,0.9,0.4,1.5c0.7-1,0.7-1.9,0.3-3c0.1-0.1,0.2-0.1,0.2-0.2
						c0-1,0.1-2.1-0.3-3.1c-0.6-1.7-1.2-3.4-1.7-5.1c-0.3-0.9-0.5-1.7-0.7-2.6h0.1c0.2,0.6,0.4,1.1,0.7,1.7c0.5,1.4,1.1,2.9,1.6,4.3
						c0.1,0.1,0.2,0.3,0.3,0.5c0.1-2.8-0.2-5.4,0.1-8.1c0.2,2.9,0.3,5.8,0.4,8.7c0,1.1,0.6,1.9,1.1,3c0.7-1.2,1.2-2.1,1.8-3.2
						c0,0.2,0.1,0.2,0.1,0.3c-0.5,1-0.9,2-1.4,3c-0.1,0.2-0.2,0.5-0.2,0.7c0.3,0.8,0.6,1.5,0.9,2.3c0.1,0,0.1,0,0.2,0
						c0-0.8,0-1.5,0-2.3c0.2,0.9,0.2,1.7,0.3,2.6c0,0.2,0,0.4,0.4,0.4c0.1-0.6,0.3-1.2,0.4-1.8c0.3,0.5,0,1,0,1.5
						c0.9-1.5,0.9-1.6,0.7-2.8v-0.1c0.1,0.2,0.2,0.3,0.3,0.5c0.3-0.5,0.3-0.5,0.1-0.8c-0.2-0.5-0.4-1-0.7-1.4c0.1,0,0.1-0.1,0.2-0.1
						c0.2,0.4,0.5,0.9,0.8,1.4c0.1-0.1,0.1-0.2,0.2-0.4c0.2,0.5-0.1,1,0.4,1.1c0.5-0.3,0.8-0.8,0.8-1.4c0.1-1.4,0.3-2.8,0.5-4.2
						c0.2-1.2,0.4-2.4,0.6-3.6c0.1,0.2,0.1,0.4,0.1,0.5c-0.1,0.9-0.3,1.8-0.1,2.7c0,0.1,0,0.3-0.1,0.4c-0.3,0.2-0.2,0.6-0.2,0.9
						c-0.1,1.4-0.2,2.8-0.3,4.2c0,0.5-0.2,1.1-0.1,1.6c0.2,1.1,0.6,2.3,0.9,3.4c0.2,0.6,0.3,1.1,0.8,1.6c0.2-1.2,0.4-2.4,0.6-3.5
						c0-0.1,0-0.3,0-0.4c-0.2-1.2-0.4-2.3-0.7-3.5c-0.2-0.8-0.4-1.7-0.5-2.5l0,0c0.1,0.2,0.3,0.3,0.3,0.5c0.3,1.3,0.6,2.5,0.9,3.8
						c0,0.2,0.1,0.3,0.1,0.5h0.1c0.4-1.6,0.7-3.3,1.1-4.9c0,1.1-0.2,2.1-0.2,3.2c0,0.3,0,0.7,0.1,1c0,0.5,0.2,0.9,0.1,1.4
						c0,0.4,0.2,0.8-0.1,1.3c-0.3,0.5-0.2,1.2-0.3,1.8c0,0.3,0.1,0.4,0.4,0.5c0-0.6,0.1-1.2,0.1-1.8h0.1c0,0.6,0.1,1.1,0.1,1.7
						c0.9-3.6,1.5-7.3,2.4-11c0,0.7-0.1,1.3-0.2,2c-0.2,2-0.8,4-0.8,6c0,0.6-0.1,1.1-0.1,1.7c0,0.2,0,0.4,0,0.7
						c0.7-0.4,1.3-0.8,1.5-1.6c0,0.2,0.1,0.5,0.1,0.9c0.8-0.9,1.8-1.4,2.1-2.5h0.1c0,0.1,0.1,0.2,0.1,0.3c0.7-0.6,1.3-1.2,1.9-1.8
						c1.1-0.8,1.8-1.8,2.1-3.1c0.1-0.3,0.3-0.6,0.4-0.9c0,0,0.1,0,0.1,0.1c-0.2,0.6-0.3,1.2-0.5,1.8l0.1,0.1c2.5-2.3,5-4.5,7.5-6.8
						l0.1,0.1c-2.1,2.1-4.1,4.3-6.3,6.3c-1.8,1.7-1.9,1.7-2.4,4.1c0,0.2,0,0.3-0.1,0.6c0.8-1.3,1.5-2.5,2.2-3.7
						c-0.1,0.6-0.3,1.2-0.5,1.7c-0.8,1.9-1.7,3.8-2.5,5.8c-0.1,0.3-0.2,0.7-0.3,1.1c0.1,0,0.1,0,0.2,0.1c1.5-1.9,2.1-4.3,3.1-6.4
						c-0.1,0.6-0.2,1.1-0.4,1.7c-0.2,0.6-0.2,1.3,0.1,2c0.3-0.3,0.5-0.7,0.8-0.9c0.5-0.5,0.7-1.1,0.8-1.7c0.2-1.6,0.4-3.1,0.7-4.7
						h0.1c0,1.3,0.1,2.7,0.1,4.2c0.3-0.2,0.5-0.3,0.7-0.5c0,0,0,0.1,0.1,0.1c-0.1,0.2-0.2,0.4-0.4,0.7c0.3,0.5,0.7,1,1,1.5
						c0.2-0.1,0.3-0.1,0.5-0.2c0,0.2-0.2,0.5-0.1,0.6c0.3,0.5,0.6,0.9,1,1.4c0.2-0.9,0.3-1.7,0.4-2.4c0-0.2,0.1-0.4,0.1-0.5
						c0-0.1,0-0.3-0.1-0.4c0.1-0.4,0.3-0.8,0.4-1.2h0.1c-0.1,1-0.2,2.1-0.3,3.1h0.1c0.2-1,0.5-2,0.7-3c0.1,0.2,0.1,0.4,0.1,0.6
						c-0.2,1.4-0.5,2.8-0.7,4.2c-0.1,0.8,0.2,1.6,0.9,2.1c0.7-2.1,1.5-4.3,2.2-6.4c0.1,0,0.1,0,0.2,0c0,1,0,2.1,0,3.1
						c0.5-0.5,0.8-1.1,1.1-1.7c0.1-0.1,0.1-0.3,0-0.5c0-0.9-0.1-1.8-0.1-2.7c0-0.3,0-0.5,0.1-0.8c0.2,0.3,0.2,0.7,0.3,1
						c0.1,0.3,0.3,0.6,0.5,0.9c-0.1-0.1-0.3-0.2-0.6-0.4c0.2,0.6,0.1,1.1,0.4,1.5c0.6-0.3,0.3-0.8,0.2-1.2c0.6,0.2,0.7,0.9,1.2,1.2
						c0.4-1.3,0.2-2.5,0.1-3.8c0.1,0.3,0.2,0.6,0.4,1.1c0.2-0.6,0.3-1,0.4-1.4c0,0.5-0.1,1-0.1,1.6c0,0.5-0.1,1.1,0,1.6
						c0,0.5,0.1,1,0.2,1.5c0.1,0.5,0,1.1,0.5,1.5c0-1.5,0-2.9,0-4.4c0.2,1,0.4,1.9,0.5,2.9c0.1,1,0.1,1.9,0.2,2.9h0.1
						c0-2.7,0-5.5,0-8.2c0.1,0.5,0.2,1,0.2,1.5c0,2.5-0.1,5.1-0.1,7.6c0,0.7-0.1,1.4-0.1,2.2c0,0.4,0.1,0.8,0.2,1.3
						c0.1,0,0.1,0,0.2,0c0-1.2,0-2.4,0-3.6c0.2,0.9,0.3,1.8,0.5,2.8c0.7-0.8,1-1.6,0.9-2.5c-0.1-1-0.1-2-0.1-3c0-0.1,0-0.3,0.1-0.4
						h0.1c0.2,1.1,0.4,2.2,0.6,3.4c0.7-1,1.3-1.8,1.9-2.7c-0.4,1-0.8,1.9-1.4,2.8c-0.6,0.8-0.5,1.7-0.2,2.6c0.4-1.2,0.8-2.4,1.3-3.6
						c0.1,0,0.1,0,0.2,0.1c-0.4,1.4-0.7,2.7-1.1,4.1c1.4-0.6,2.3-1.8,2.9-3c0.1-0.1,0-0.3-0.1-0.4c0.2-0.1,0.4-0.2,0.5-0.4
						c0.4-0.5,0.7-1,1-1.5c0.4-0.6,0.9-1.3,1.3-1.9c0.1,0,0.1,0.1,0.2,0.1c-0.7,1.3-1.4,2.5-2.2,3.9c0.4,0.1,0.7,0.2,1.1,0.3
						c0-0.4-0.1-0.7-0.1-1.1c0.2,0.5,0.3,0.8,0.4,1.1c0.2,0,0.3,0,0.4,0l0,0c0,0.1-0.1,0.3-0.1,0.3c0.4,0.2,0.7,0.6,1.3,0.6
						c0.2-0.5,0.4-1,0.6-1.5c0.2-0.5,0.5-0.9,0.7-1.4h0.1c-0.1,0.4-0.2,0.7-0.2,1.1h0.1c0.2-0.3,0.4-0.6,0.7-1c0,0,0.1,0,0.1,0.1
						c-0.5,1-0.9,2-1.4,3c0.6,0.4,1.1,0.7,1.8,1.1c0.4-1.2,0.7-2.4,1.1-3.5c0.1,0.2,0.1,0.3,0,0.5c-0.2,0.8-0.4,1.6-0.6,2.4
						c-0.1,0.3-0.2,0.7,0,1c0.4-0.2,0.6-0.6,0.7-0.9c0.3-1.1,0.5-2.3,0.9-3.4c0.2-0.7,0.5-1.4,0.7-2.1c0.1,0.1,0.1,0.2,0.1,0.3
						c-0.3,1.7-0.6,3.4-1,5c-0.1,0.6-0.2,1.1,0.3,1.6c0.7,0.1,1.1-0.7,1.8-0.5c0.8-1.1,0.8-1.1,1-2.3c0.4-2.6,0.8-5.2,1.2-7.6
						c0.1,2.3-0.5,4.8-0.8,7.4c0.2-0.4,0.4-0.8,0.6-1.2c-0.2,0.7-0.2,1.5-0.5,2.2c-0.4,0.8-0.6,1.7,0,2.6c0.3,0,0.5,0,0.8,0.1
						c0.4-0.7,0.7-1.3,1.1-2c0.2-0.4,0.2-0.6,0-0.9c0.1-0.1,0.2-0.2,0.3-0.2c0.2,0.2,0.3,0.5,0.5,0.7c-0.3,0.2-0.3,0.2-0.2,0.7
						c0.1-0.3,0.1-0.5,0.2-0.7c0.5-0.3,0.8-0.7,0.8-1.3c0-1.1-0.1-2.1-0.1-3.2c0-0.9,0-1.8,0-2.6c0.1,0.1,0.2,0.1,0.2,0.2
						c0.2,1.5,0.3,2.9,0.5,4.4c0,0.2,0.1,0.3,0.2,0.6c-0.4,0.6-0.2,1.4-0.2,2.2c0,0.4,0.1,0.7,0.5,1c0.3,0.2,0.8,0.2,1,0.7
						c0.1,0.2,0.5,0,0.4-0.1c-0.3-0.4,0.3-0.5,0.2-0.7c-0.3-0.2-0.6-0.3-1-0.4c0,0,0-0.1,0.1-0.1c0.2,0.1,0.5,0.1,0.7,0.2
						c0-0.2,0.1-0.3,0.1-0.5c0.1,0.1,0.3,0.1,0.4,0.2c0.1-0.3,0.2-0.6,0.3-1c0.2,0.2,0.3,0.4,0.5,0.6c0.2-0.8,0.3-1.4,0.4-2
						c0.1,0.5,0.1,0.9,0,1.4s-0.1,1,0.3,1.3c0.3-0.1,0.6-0.2,0.9-0.3c0.1,0.8,0.8,0.9,1.2,1.4c0.2-0.4,0.4-0.7,0.6-1.1h0.1
						c-0.1,0.3-0.2,0.7-0.3,1.2c0.4-0.1,0.6-0.2,0.8-0.3c-0.1-0.2-0.1-0.3-0.2-0.5c0.2,0,0.6,0.1,0.7,0c0.5-0.5,1-0.2,1.7-0.4
						c-0.1,0.3-0.1,0.5-0.2,0.7c0.3,0.2,0.6,0.5,0.5,1c-0.1,0.2,0.5,0.5,0.8,0.4c0.1-0.5-0.1-1,0.1-1.6c0.2,0.7,0.4,1.2,0.5,1.8
						c0.1,0.3,0.3,0.2,0.5,0.2c-0.2-0.5,0.4-0.7,0.2-1.2c-0.1-0.4,0-1,0.1-1.5c0-0.5,0-0.9,0-1.4s0-0.9,0-1.4
						c0.2,1.2,0.1,2.4,0.5,3.5c0-0.4,0-0.8,0-1.2h0.1c0.2,0.6,0.4,1.2,0.6,1.8c1-0.1,0.6-1.3,1.4-1.5c0.3-0.6,0.7-1.2,1-1.8
						c0.1,0,0.1,0.1,0.2,0.1c-0.1,0.2-0.1,0.5-0.2,0.7c-0.2,0.4-0.5,0.8-0.7,1.3c-0.2,0.4-0.5,0.8-0.6,1.2c-0.2,0.4-0.2,0.8-0.6,1
						c-0.1,0,0,0.2,0,0.4c0.8-0.3,1.6-0.5,2.4-0.8c0.1,0,0.2-0.2,0.2-0.2c-0.3-0.4,0.1-0.6,0.3-0.6c0.8-0.1,1.4-0.6,2-1.1
						c0.3-0.2,0.6-0.5,1.1-0.5c-0.2,0.5-0.6,1.2-1,1.4c-0.2,0.1-0.3,0.2-0.2,0.5c0.1,0.2,0,0.3,0.1,0.5c0.3,0.2,0.5,0.4,0.8,0.7
						c0.1-0.2,0.1-0.3,0.2-0.5c-0.1-0.1-0.3-0.2-0.5-0.3c0.4,0,0.7-0.1,1-0.1c0.2-0.5,0.3-1,0.5-1.4c0.2-0.5,0.2-1,0.7-1.3
						c0.3,0.5,0.3,1.3,0.1,1.8c-0.1,0.4-0.2,0.7-0.2,1.1c0,0.4,0.1,0.8,0.2,1.1c0.1,0.2,0.1,0.4,0.5,0.3c0-1.7-0.3-3.4,0.3-5.1
						c0.1,0.2,0.2,0.4,0.2,0.5c0,0.5,0,0.9,0.1,1.4c0.1,0.6,0.1,1.2,0.7,1.6c0.1,0.1,0.1,0.3,0.1,0.4c0,0.3-0.1,0.6-0.2,0.9
						c-0.3,1-0.2,2.1,0.1,3.1c0,0,0.1,0,0.1,0.1c0.1-0.1,0.2-0.2,0.5-0.5c0,0.6,0,0.9,0,1.3c0.1,0,0.1,0,0.2,0.1
						c0.1-0.1,0.3-0.2,0.3-0.4c0-0.6,0.1-1.2-0.2-1.8c-0.1-0.2-0.3-0.5-0.1-0.8c0.3,0.3,0.4,0.9,1,1c-0.2-1-0.9-1.9-0.9-2.9
						c0.4,0.8,0.8,1.5,1.2,2.3c0.1,0,0.1,0,0.2,0c0.1-1,0.4-2.1,0.2-3.1c0.3-0.3,0.6-0.6,0.8-0.8c0.7,0,1,0.5,1.4,0.9
						c0.2,0.2,0.5,0.4,0.8,0.6c-0.1,0.5,0.3,0.9,0.8,1.4c0.1-0.8,0.2-1.4,0.2-2c0-0.2-0.2-0.5-0.4-0.7c-0.1-0.2-0.2-0.3-0.2-0.5
						c0.3-1-0.3-1.6-0.7-2.4c-0.1-0.2-0.3-0.3-0.4-0.4c-0.6,0.8-1,3.2-1.4,3.1c-0.1-0.1,0.1-0.8,0.2-1c0.2-0.7,0.4-1.4,0.7-2.1
						s0.2-1.3-0.2-2c-0.2-0.3-0.3-0.7-0.5-1c0,0,0.1,0,0.1-0.1c0.3,0.4,0.6,0.8,0.9,1.2c0.1,0,0.1,0,0.2,0c0.1-0.4,0.3-0.8,0.4-1.2
						h0.1c0,0.8,0,1.5,0,2.4c0.6,0.8,1.1,1.9,1.9,2.9c0-0.5,0-0.8,0-1.1c0.2,0.3,0.3,0.7,0.4,1c0.2,0.5,0.4,0.9,0.7,1.4l0,0
						c0.1,0.2,0.2,0.5,0.3,0.7c0.3,0.6,0.6,1.1,1.2,1.5c0.5-0.8,0.9-1.5,0.7-2.3c-0.1-0.5-0.2-1-0.2-1.5c-0.2-1.6-0.3-3.2-1-4.8
						c-0.3-0.7-0.6-1.5-0.9-2.2c-0.3-0.8-0.2-1,0.5-1.5c-0.3-1.6-0.6-3.1-0.9-4.7c-0.1-0.4-0.2-0.9-0.1-1.2c0.2-0.6,0.1-1.1,0.1-1.6
						c-0.1-0.4-0.2-0.9,0.1-1.5c0.6,2,1,3.8,1.6,5.5c0.6,1.8,1.1,3.6,2,5.3c0-0.3,0-0.6,0-0.9c0.5,1,0.6,2.1,0.8,3.2
						c0.3,1.1,0.6,2.2,0.9,3.3c0.3,1.1,0.7,2.1,1.1,3.1h0.1c0-0.1,0-0.2,0-0.4c0.4,0.2,0.6-0.1,0.7-0.4c0.1-0.3,0.1-0.7,0.1-1.1
						c-0.2-1.5-0.4-3-0.6-4.5c-0.1-0.8-0.3-1.6-0.1-2.4c0.1,0.3,0.2,0.5,0.2,0.8c0.2,1.4,0.4,2.8,0.6,4.2c0,0.3,0.1,0.6,0.4,0.9
						c0.5-1.5,0.9-3,1.3-4.4c0.1,0,0.1,0,0.2,0c-0.1,0.7-0.3,1.3-0.4,2c-0.1,0.5-0.4,1,0,1.5c0,0.1,0,0.2,0,0.3
						c-0.2,0.5-0.4,1.1-0.7,1.5c-0.2,0.4-0.4,0.8-0.3,1.2c0.1,0.9,0.2,1.9,0.4,2.8c0,0.2,0.1,0.5,0.2,0.8c0.7-0.8,1.4-3.3,1.2-4.3
						c0.5,0,0.5-0.4,0.4-0.7c-0.1-0.5-0.2-1-0.3-1.5c0,0,0,0,0.1,0c0.2,0.4,0.5,0.7,0.8,1.2c0.3-0.4,0.6-0.7,0.9-1.1
						c-0.1,0.6-0.4,1.1-0.6,1.7c-0.1,0.3-0.1,0.7-0.1,1c0,0.4,0.1,0.8,0.3,1.2c0.3,0.7,0.7,1.4,1.5,1.6c0-0.1,0-0.2,0-0.4
						c-0.1-1.7,0-3.5,0.2-5.2c0.2-1.2,0-2.2-0.5-3.3c-0.1-0.1-0.1-0.2-0.2-0.4c-0.3-0.8-0.7-1.7-1-2.5c-0.1-0.2-0.1-0.5-0.2-0.7
						c0.9,1.4,1.2,2.9,2.1,4.4c0.2-0.4,0.3-0.8,0.5-1.2c0.1,0.3,0.2,0.5,0.2,0.7c0.2,0.8,0.2,1.5,0.5,2.3c0.5,1.3,1.1,2.6,1.6,4
						c0,0.1,0.1,0.1,0.2,0.3c0.1-1-0.6-1.6-0.7-2.5c0.3,0.5,0.6,0.8,0.8,1.1c0.1-0.2,0.1-0.2,0.2-0.3c-0.1,0.6,0.2,1,0.5,1.5
						c0.2,0.4,0.5,0.8,0.7,1.2c0.2,0.3,0.4,0.6,0.6,0.9c0,0,0.1,0,0.1-0.1c0.2-5.4,0.3-10.9,0.5-16.3c0.1,0,0.1,0,0.2,0
						c0.1,0.2,0.1,0.4,0.2,0.6c0.1,1.4,0.1,2.8,0.2,4.3c0,0.3,0,0.5,0,0.8c0.1,1,0.2,1.9,0.2,2.9c0,1.6,0,3.2,0,4.7
						c0,0.2,0,0.4,0.1,0.6h0.1c0.5-2.5,0.9-5,1.4-7.6c0,0.4,0,0.7,0,1c-0.1,0.8-0.3,1.6-0.4,2.4c-0.1,0.6,0,1,0.4,1.5
						c0.1-0.8,0.2-1.6,0.3-2.4c0.1-0.8,0.1-1.7,0.1-2.5c0.1-0.8,0.1-1.7,0.2-2.5c0.1-0.8,0.1-1.6,0.4-2.4c0.1,0.2,0.1,0.4,0.1,0.5
						c0,0.8-0.1,1.6-0.2,2.3c-0.1,1.6-0.2,3.2-0.4,4.7c-0.1,0.7,0.2,1.2,0.8,1.5c0.8-0.4,0.5-1.3,0.8-2.1c0.1,0.9,0.2,1.6,0.2,2.5
						c0.5-1.1,0.1-2.2,0.3-3.2c0.2,0,0.3,0,0.4,0c0,0.4,0.1,0.8,0,1.2c-0.2,1.1-0.1,2.2,0.1,3.3c0.1,0.8,0.6,1.3,1.1,1.8
						c-0.1-1.6-0.7-3.1-0.7-4.7c0.5,1.7,0.8,3.5,1.3,5.3c0.4-0.9,0.5-0.9,0.4-1.7c-0.1-1.1-0.2-2.2-0.3-3.3
						c-0.1-1.1-0.1-2.1-0.2-3.2c0-0.3-0.1-0.5,0.2-0.9c0.1,0.4,0.2,0.7,0.2,0.9c0.1,1.6,0.3,3.3,0.4,4.9c0.1,1.1,0.2,2.3,0.3,3.4
						c0,0.2,0.1,0.3,0.2,0.5c0,0,0.1,0,0.2,0c0-0.4,0-0.7,0-1.1c-0.1-0.8-0.3-1.6-0.4-2.4c0-0.3-0.1-0.6,0-0.8
						c0.2-0.5,0.1-1,0.1-1.4c-0.1-1.2-0.1-2.4-0.2-3.6c-0.1-1.8-0.3-3.6-0.5-5.3c0-0.3-0.1-0.6,0.1-0.8c0.3,2.5,0.6,4.9,0.8,7.3
						c0.1,2.4,0.4,4.9,0.8,7.3c0.1-0.4,0.1-0.8,0.2-1.2c0.3,0.5,0.1,1,0.5,1.5c-0.1-1.2-0.2-2.4-0.3-3.6c0.2,0.1,0.3,0.3,0.3,0.5
						c0.1,0.9,0.2,1.8,0.4,2.8c0,0.3,0,0.7,0.4,1.1c-0.1-0.6,0.5-0.5,0.5-1c0.1-1.2,0.3-2.4,0.3-3.6c0-1.2-0.1-2.4-0.2-3.6
						c0-0.3,0-0.5,0-0.8c0.1,0,0.1,0,0.2,0c0.5,1.1,0.5,2.4,0.8,3.6c0.3,1.2,0.3,2.5,0.6,3.8c0.3-0.2,0.4-0.3,0.7-0.5
						c-0.5,0.8-0.5,1.5-0.2,2.3c0.1,0.2,0,0.4,0.1,0.6c0,0.5,0,1,0.1,1.6c0.1,1.1,0.1,2.1,0.2,3.2c0,0.4,0.1,0.7,0.6,0.7
						c0.4-0.9-0.3-1.7-0.2-2.6c0.2,0,0.3,0,0.4,0c0.3-1-0.4-1.8-0.8-2.8c0.3,0.4,0.6,0.6,0.8,0.9c0.2-0.6,0.3-1.1,0.4-1.5
						c0.1-0.4,0.3-0.8,0.3-1.2c0.2-1.2,0.3-2.5,0.4-3.7c0.4-3.3,1.2-6.6,2.1-9.8c0.1-0.3,0.2-0.6,0.3-0.9c-0.5,2.5-1.1,5-1.6,7.4
						c-0.5,2.5-0.7,5-0.8,7.5c0.2-0.2,0.3-0.5,0.3-0.8c0.6-2.5,1.2-4.9,1.9-7.4c1.1-4.1,2.7-8.1,4.4-12c0-0.1,0.1-0.1,0.2-0.2
						c0.1,0.3,0.1,0.6,0,0.8c-0.2,0.5-0.4,1-0.6,1.5c-1.3,3.3-2.7,6.7-3.5,10.2c-0.3,1.2-0.6,2.5-0.9,3.8c0.6-0.6,1.1-1.2,1-2.1
						c-0.1-0.5-0.1-1.1,0.2-1.6c0.2,0.8,0.4,1.6,0.6,2.4c-0.3,0.2-0.3,0.5-0.3,0.8c0,0.9,0.1,1.8,0.2,2.7c0.1,0.7,0.6,1.2,1.1,1.6
						c0-0.4-0.1-0.7-0.2-1.1c-0.3-1.3-0.6-2.7-0.9-4c0.1,0.1,0.1,0.3,0.2,0.4c0.5,1.8,0.9,3.5,1.3,5.3c0.1,0.4,0.3,0.8,0.7,1
						c-0.3-2.9-1.2-5.7-1.4-8.5c0.5,1,0.7,2.2,1,3.3c0.3,1.1,0.6,2.2,0.9,3.3c0.1-2.4,0-4.7,0-7c0-0.2,0-0.3,0-0.5v-0.1h0.1
						c0,0.2,0.1,0.4,0.1,0.6c0.1,1.1,0.1,2.1,0.2,3.2c0.1,2.2,0.3,4.3,0.4,6.5c0,0.3,0.1,0.5,0.2,0.8c0.3-0.5,0.4-0.9,0.5-1.3
						c0.3-1.4,0.6-2.7,0.5-4.1c-0.1-1.7-0.1-3.4,0-5.1c0-0.3,0.1-0.6,0.1-0.9c0.1,0,0.1,0,0.2,0c0,0.3,0.1,0.5,0.1,0.8
						c0,1,0,1.9,0,2.9c0,0.3,0,0.5,0.1,0.8c0.1,0,0.1,0,0.2,0c0.1-0.6,0.3-1.2,0.4-1.8c0.1,0,0.1,0,0.2,0c0,0.3,0.1,0.7,0,1
						c-0.1,1-0.2,2-0.5,3c-0.1,0.3-0.1,0.6,0,0.8c0.1,0.9,0.2,1.9,0.2,2.8c0,0.7,0.1,1.5-0.2,2.2c-0.3,0.7,0.4,1.8,1.1,2.1
						c0.1,0,0.1,0,0.3,0c0-0.1,0.1-0.3,0.1-0.4c0-0.5,0.1-1-0.1-1.5c0.3-0.7-0.1-1.4-0.2-2.1c-0.1-0.5-0.3-1-0.3-1.5
						c-0.2-0.9-0.3-1.8-0.4-2.7l0.1-0.1c0.2,0.1,0.3,0.3,0.5,0.4c0.1-0.1,0.1-0.2,0.3-0.5c0.1,0.8,0.2,1.3,0.3,1.9
						c0,0.3,0,0.6,0.5,0.7c-0.5-2.6-1.1-5.1-1.1-7.7c0.2,0.2,0.4,0.4,0.4,0.7c0.4,1.8,0.8,3.5,1.3,5.3c0.1,0.4,0.3,0.9,0.5,1.3
						c0.4,0.7,0.8,1.4,0.5,2.3c0.3,0,0.5,0,0.7-0.1c0.4-0.1,0.7-0.5,0.6-0.8c-0.2-0.7-0.4-1.4-0.6-2.1c0-0.1-0.2-0.3-0.2-0.4
						c-0.1-0.6-0.2-1.2-0.3-1.7c-0.1-0.6-0.3-1.1-0.4-1.7c0.6,1.2,1.1,2.5,1.6,3.8c0.1,0.2,0.1,0.5,0,0.8c-0.1,0.4-0.1,0.8,0.2,1.2
						c0.7-0.3,0.3-0.9,0.5-1.3c0.2,0.2-0.1,0.6,0.5,0.6c0.5-0.8,0.5-1.9,1.1-2.8c0,0.7,0,1.2,0,1.9c0.4-0.1,0.5-0.5,0.6-0.8
						c0.4-1.3,0.8-2.6,1.2-3.9c0.1-0.2,0.1-0.3,0.2-0.5c0.1,0,0.1,0,0.2,0.1c-0.4,1.5-0.9,2.9-1.4,4.6c0.6-0.4,1.1-0.7,1.3-1.3
						c0.1-0.3,0.2-0.5,0.2-0.8c0.1-0.8,0.6-1.5,0.5-2.4c0-0.4,0-0.7,0.2-1.1c0.1,0.7,0.1,1.3,0.2,2c0.1,0.6-0.1,1.2,0.1,1.8
						c0.3-0.2,0.6-0.3,0.8-0.5c0,0.2-0.1,0.4-0.2,0.5c-0.7,0.4-0.8,1-0.6,1.6c0,0.1,0,0.3,0,0.4c0.1,0.2,0.2,0.5,0.3,0.7
						c0.3-0.2,0.5,0.3,0.8,0.3c0.1-0.5,0.2-0.9,0.3-1.3c0.1-0.7,0.4-1.3,0.1-2c0-0.1,0-0.2,0.1-0.3c0.1-0.3,0.3-0.7,0.3-1
						c0.1-1,0.2-2,0.3-2.9c0-0.5,0.1-1,0.2-1.5c0.1,0.3,0.1,0.5,0.1,0.8c-0.1,1.1-0.1,2.2-0.2,3.3c0,0.2,0,0.4,0.1,0.5
						c0.4-0.6,0.2-1.2,0.4-2c0,0.5,0.1,0.9,0.1,1.3c0.1,0.7,0.1,1.4,0.2,2.1c0,0.1-0.1,0.3-0.1,0.4c0,0.6,0,1.3,0.1,1.9
						c0,0.1,0.2,0.2,0.3,0.3c0.1-0.1,0.2-0.2,0.3-0.4c0.1-0.1,0-0.3,0-0.4c-0.1-0.9,0.4-1.6,0.5-2.4c0.2,0.5,0,0.9,0,1.3
						c0,0.5,0.1,1,0,1.4c-0.1,0.5,0.1,1,0.1,1.4s-0.3,0.9,0.2,1.4c0-0.4,0.1-0.7,0.1-1c0-0.5-0.2-1.1-0.1-1.6c0.2-1,0.3-1.9,0-2.9
						c0,0,0-0.1,0-0.2c0-0.8-0.1-1.7-0.1-2.5c0-0.2-0.1-0.5,0.2-0.7c0,0.1,0.1,0.2,0.1,0.2c0.1,1.5,0.2,2.9,0.3,4.4
						c0,0.6,0.3,1.3,0.1,1.9c-0.1,0.3,0.4,1,0.8,1.1c0.3-0.6-0.3-1-0.4-1.5c0.1-0.1,0.1-0.2,0.2-0.2c0.7-0.6,0.7-0.5,0.3-1.4
						c-0.2-0.6-0.4-1.1-0.3-1.8c0.3,0.3,0.2,0.9,0.7,1c0,0.4,0.1,0.8,0.1,1.2c0,0.1,0.1,0.2,0.1,0.3c0.1,0.2,0.1,0.5,0.1,0.7
						c0.1,0.8,0.1,1.7,0.8,2.3c0.5,0.4,1,0.7,1.2,1.4c0,0,0.1,0,0.2,0.1c0.1-0.2,0.4-0.4,0.4-0.7c0.2-1.5,1-2.7,1.5-4.1
						c0.1,0.6-0.3,1.2,0.1,1.9c0.3-0.7,0.6-1.2,0.8-1.7c0.1,0,0.2,0,0.4,0.1c-0.3-1.3-0.6-2.5-0.9-3.7c-0.3-1.2-0.7-2.4-1.1-3.6
						c-0.4-1.2-0.8-2.3-1.3-3.5c0.2,0,0.2,0.1,0.3,0.2c0.6,1.4,1.2,2.8,1.8,4.1c0.6,1.4,1.2,2.7,1.9,4.1c0.3,0.7,0.7,1.3,1.1,2
						c0.1,0.2,0.2,0.3,0.5,0.3c0.1,0,0.3,0.1,0.5,0.2c0.1-0.3,0.2-0.5,0.3-0.7c0.1-0.4,0.1-0.8,0.7-0.9c0.1,0,0.2-0.3,0.3-0.5
						c0.2-0.7,0.3-1.5,0.5-2.2c0-0.1,0.1-0.1,0.1-0.2c0.2,0.1,0.4,0.2,0.6,0.2c0,0.2,0,0.3,0,0.4c-0.2,0.5-0.2,1,0.2,1.5
						c0.1,0.1,0.1,0.4,0,0.5c-0.3,0.6-0.1,1.1,0.1,1.6s0.4,0.9,0.4,1.4c0,0.4,0.1,0.8,0.6,0.9c0.8-0.8,0.5-1.2,0.1-2.2
						c-0.2-0.6-0.5-1.2-0.7-1.7c0,0,0-0.1,0.1-0.2c0.8,0,0.6,1.1,1.3,1.3c0-0.5-0.1-0.9-0.1-1.4c0.5,0.9,0.7,1.8,1.3,2.6
						c0.1-0.2,0.2-0.4,0.1-0.6c-0.1-0.2-0.2-0.3-0.4-0.4l0.1-0.1c0.7,0.5,1.4,0.9,2.1,1.4c0.2-0.9-0.2-1.6-0.6-2.3
						c-0.1-0.1-0.3-0.2-0.4-0.2c0-0.3,0-0.7-0.1-1c-0.6-1.2-0.5-2.5-0.5-3.8c0,0,0.1-0.1,0.2-0.2c0.2,1.1-0.1,2.3,0.9,3.2
						c0.1-0.1,0.3-0.3,0.5-0.4c-0.2,0.6,0.1,1.2,0.2,1.7c0.2,0.9,0.5,1.8,1.3,2.5c0.3-0.7,0.6-1.3,0.9-1.9h0.1
						c-0.1,0.5-0.1,1-0.2,1.5c-0.6,0.2-0.8,0.6-0.6,1.2c0.1,0.6,0.2,1.3,0.3,1.9c0,0.2,0.1,0.4,0.2,0.6h0.1c0.1-0.3,0.1-0.6,0.2-0.9
						c0,0.3,0.1,0.6,0.1,0.9c0.1-0.5,0.3-1,0.1-1.5c-0.2-0.7-0.3-1.4-0.5-2.1c0.2,0.3,0.4,0.6,0.7,0.9h0.1c0-1,0-2.1,0-3.1
						c0.2,0.3,0.3,0.6,0.4,0.8c0.3,1,0.2,1.9,0.2,2.9c0,0.3,0,0.5,0,0.9c0.4-0.6-0.1-1.2,0.4-1.8c0.1,0.6,0.1,1,0.2,1.4
						c0.1,0.9,0.1,0.9,0.2,1.1c0.2-1.7,0.3-3.5,0.5-5.4c0.1,2-0.3,3.9,0,5.7c0.1-1.4,0.1-2.9,0.4-4.3c-0.1,2.2-0.2,4.5,0.1,6.7
						c0.4-0.5,0.2-1.3,0.8-1.6c-0.4-0.4-0.1-0.9-0.2-1.3c-0.1-0.4-0.1-0.9-0.1-1.3c0,0,0,0,0.1,0c0.2,0.8,0.5,1.7,0.7,2.6
						c0.3-0.5,0.6-1,0.5-1.4c-0.2-1,0.4-2-0.3-2.9c0.1,0,0.1,0,0.2,0c0.2,0.4,0.4,0.7,0.5,1.1c0.5-0.7,0.3-1.5,0.7-2.2
						c0,0.7,0,1.5,0,2.2c0.4-0.6,0.8-1.2,1.1-1.8c0.1-0.1,0.2-0.3,0.2-0.4c0.1-0.5,0.3-1,0.4-1.5c0-0.1,0.2-0.3,0.3-0.4l0.1,0.1
						c0,0.3-0.1,0.6-0.1,0.9c0.4-0.6,0.6-1.3,1.1-1.9c0,0.6,0,1.1,0.1,1.6c0,0.6,0.1,0.6,0.8,0.4c-0.1-1.1-0.6-2-0.8-3
						c0.5,0.8,0.7,1.7,0.9,2.6c0.1,0.3,0.2,0.6,0.4,0.9c0,0.5-0.1,1.1-0.1,1.7c0,0.7,0.1,1.4,0.2,2.1c0.1,0.7,0.2,1.3,0.3,2
						c0,0.2,0.1,0.4,0.5,0.4c-0.1-0.8-0.3-1.6,0.3-2.4c0.1,0.8,0.2,1.4,0.3,2c0.2-0.3,0.3-0.5,0.4-0.8c0.3-0.4,0.2-0.9,0.1-1.3
						c-0.2-1-0.5-2-0.7-3c-0.3-1.9-0.5-3.8-0.7-5.8c0-0.2,0.1-0.4,0.1-0.6c0.4,0.3,0.5,0.7,0.6,1.1c0.2,1.5,0.4,3,0.7,4.5
						c0.1,0.6,0.2,1.2,0.8,1.6c-0.3-0.1-0.4,0.1-0.3,0.3c0.3,0.5,0.6,1,0.9,1.6c0.2-0.5,0.4-0.9,0.1-1.3c0.1-0.1,0.3-0.1,0.3-0.2
						c0-0.4,0.1-0.8,0-1.2c0-0.3-0.1-0.5-0.2-0.8c0.7,1,0.6,2.3,1,3.5c0.2-0.3,0.4-0.5,0.5-0.7c-0.2,0.8-0.5,1.6,0.4,2.2
						c0.1-0.6,0.2-1.2,0.3-1.9c0.2,0.4,0.4,0.6,0.6,1c0.1-0.4,0.2-0.6,0.2-0.8c0.3-1.1,0.5-2.2,0.8-3.3c0.5-1.5,0.8-3,0.8-4.5
						l0.1-0.1c0.3,0.4,0.4,0.8,0.3,1.3c-0.2,0.9-0.4,1.8-0.7,2.7c-0.2,0.8-0.6,1.6-0.9,2.4c-0.1,0.3-0.2,0.6-0.2,0.9
						c0.4-0.7,0.8-1.4,1.1-2.1c0.2-0.4,0.3-0.9,0.8-1.2l0,0c-0.2,0.5-0.4,1-0.6,1.5c-0.1,0.4-0.2,0.8-0.4,1.3
						c0.8,0.3,1.4,0.5,2.2,0.8c0-0.6,0.1-1.1,0.1-1.7c0.6,0.1,1.2,0.2,1.8,0.4s0.9,0.8,1.2,1.3c0.1,0,0.1-0.1,0.1-0.1
						c0.3-1.6,0.6-3.1,0.9-4.7c0-0.2-0.1-0.4-0.1-0.6c-0.3-0.5-0.5-0.9-0.8-1.4c0.5,0.4,1,0.8,1.4,1.3c0.4,0.6,0.6,1.4,0.9,2.1
						c0.1,0.2,0.2,0.5,0.1,0.7c-0.2,0.5,0,1,0.2,1.3c0.2,0.4,0.4,0.8,0.5,1.2c0,0.1,0.2,0.2,0.4,0.3c-0.1,0.5-0.3,1,0.3,1.5
						c0.3-1,0.1-2.1,0.5-3c0.1,0,0.1,0,0.2,0c0,1,0.1,1.9,0.1,3.1c0.3-0.5,0.4-0.8,0.6-1.2l0,0c0,0.1-0.1,0.2,0,0.3
						c0.2,0.2,0.1,0.6,0.5,0.8c0.2,0.1,0.3,0.5,0.2,0.8c0.4-0.1,0.6,0.5,1.1,0.2c-0.3-0.7-0.5-1.4-0.8-2.1c-0.2-0.5-0.5-1-0.7-1.6
						c-0.1-0.3-0.3-0.6,0-1c0.2,0.3,0.5,0.5,0.6,0.7c0.2,0.3,0.5,0.7,0.6,1.1c0.2,0.4,0.4,0.7,0.9,0.7c-0.3,0.6-0.2,0.7,0.3,0.8
						c0.2,0,0.4,0.1,0.6,0.1c-0.2,0.2-0.4,0.4-0.6,0.6c0.5,0,1,0,1.3,0c-0.1,0.2-0.1,0.3-0.2,0.4c-0.1,0.1-0.2,0.2-0.5,0.4
						c0.4,0,0.6,0,1,0c-0.2,0.2-0.3,0.4-0.4,0.6c1-0.4,1.1-0.5,1.2-1.5c0-0.6-0.1-1.2,0-1.8c0.1-0.6,0.4-1.2,0.5-1.8
						c0.1-0.2,0.1-0.4,0.2-0.7c-0.1,0.8-0.2,1.6-0.4,2.4c-0.2,0.7,0.1,1.3,0.3,1.9c0.1,0,0.2,0,0.2,0c0.5-0.8,1.1-1.7,1.1-2.8
						c0-0.9,0.1-1.8,0.2-2.7c0.1-0.7,0.4-1.5,0.6-2.2c0.1,0,0.1,0,0.2,0c-0.5,1.3-0.3,2.6-0.2,3.9c0.1-0.1,0.2-0.2,0.2-0.3
						c0.1-0.1,0.1-0.3,0.2-0.4c0.4,0,0.4,0,1.2-0.5c-0.3,0.6-1,0.9-1.1,1.5c0.4,0.8,0.7,1.4,1.1,2.1c0.8,0.1,1.6,0.4,2.1,1.3
						c0,0.1-0.1,0.2-0.1,0.3c0.3,0.1,0.5,0.2,0.9,0.3c-0.5-0.7-0.2-1.1,0.1-1.6c0.4,0.2,0.6,0.6,1.1,0.4c0.1-0.7,0.2-1.4,0.3-2.1
						c0.1-0.7,0.3-1.3,0.9-1.8c-0.4,1.5-0.3,2.8-0.4,4.1c0,0.6,0.3,0.9,0.5,1.3c0.1,0.1,0.4,0.2,0.5,0.1c0.3-0.1,0.5-0.3,0.8-0.4
						c-0.3-0.5-0.5-1-0.7-1.6c0.5,0,0.6,0.6,1.1,0.5c-0.1-1-0.2-2-0.4-3c-0.2-1-0.5-1.9-0.8-2.9c0.1,0.1,0.2,0.1,0.2,0.2
						c0.8,1.7,1.2,3.6,1.3,5.5c0,0.5,0,1,0.3,1.4c0.3-0.6,0.6-1.3,0.9-1.9c0.2-0.4,0.3-0.7,0.2-1.1c-0.4-1.8-0.8-3.6-1.2-5.3
						c0.6,0.5,1.1,1,1.5,1.5c0.3,0.3,0.6,0.6,0.7,1c0.2,1,0.7,1.8,1.2,2.6c0.2,0.3,0.4,0.5,0.9,0.4c0.6-0.9,1.3-1.8,2-2.8
						c0,0.6-0.2,1-0.5,1.3c-0.2,0.3-0.3,0.5-0.2,0.9c0.1,0.3,0.2,0.7,0.2,1.1c0,0.3,0.5,0.5,0.2,0.9c0,0,0.1,0.2,0.2,0.3
						c0.2,0.1,0.4,0.2,0.6,0.3c0.2-1.2,0.4-2.3,0.6-3.5c0.1,0,0.1,0,0.2,0c-0.2,1.1-0.3,2.2-0.5,3.4c0.6-0.4,1.1-0.7,1.5-1.1
						c0.3-0.3,0.5-0.6,1.1-0.6c-0.5,0.4-0.4,0.9-0.2,1.3c0.2,0.5,0.2,1.1,0.7,1.5c0.1-0.1,0.1-0.2,0.1-0.2c-0.2-1.3-0.4-2.6-0.6-4
						h0.1c0.2,0.9,0.4,1.8,0.7,2.7c0-1.5,0-1.5,0.5-1.8c0.1,0.4,0.2,0.7,0.2,1.1h0.1c0.2-0.7,0.3-1.4,0.5-2.1c0.1,0,0.1,0,0.2,0
						c0,0.4,0.1,0.8,0.1,1.3c0.6-0.4,0.6-1,0.5-1.6c0.2,0.1,0.3,0.2,0.4,0.3c0.4-0.5,0.8-1,1.2-1.5c-0.5-0.5-0.9-1-1.3-1.5
						c0,0,0,0,0.1-0.1c0.2,0.2,0.5,0.4,0.9,0.7c-0.2-0.8-0.4-1.5-0.6-2.2h0.1c0.3,0.8,0.6,1.6,1,2.5c0.1,0,0.3,0,0.5,0
						c0.1,0.9,0.5,1.5,1.2,2.2c0.2-0.7,0.4-1.4,0.6-2c0.1,0.3,0.1,0.5,0,0.7c-0.1,0.4-0.2,0.9-0.2,1.3c-0.1,0.4,0,0.6,0.5,0.8
						c0.3-0.5,0.5-1,0.8-1.5c0.2-0.4,0.2-0.7,0-1c-0.3-0.4-0.4-0.9-0.6-1.4c-0.3-0.6-0.6-1.2-1-1.8c-0.3-0.5-0.7-1.1-1-1.6
						c0.8,0.6,1.2,1.4,1.7,2.1c0.6,0.8,0.9,1.7,1.3,2.5c0.4-0.5,0.7-0.9,1-1.3c0.1,0.6-0.9,1.1,0,1.7c0.4-0.8,0.9-1.6,1.3-2.4
						c-0.1,0.7-0.7,1.4,0.2,2c0.2-0.8,0.5-1.6,0.7-2.4c0,0.8-0.2,1.5-0.4,2.2c-0.2,0.6-0.1,1.2,0.3,1.8c0.1,0.2,0.2,0.5,0.3,0.7
						c0.3,0.6,0.5,1.2,1,1.8c0-0.7,0-1.3,0-1.8c1.1,0.9,2.3,1.8,3.4,2.8c0.1-0.4,0.3-0.8,0.4-1.1h0.1c0,0.6-0.1,1.2-0.1,2
						c0.5-0.3,0.6-0.7,0.6-1.2s0-1.1,0.1-1.6c0.1,0,0.1,0,0.2,0c0,0.9,0,1.7,0,2.6c0.7,0,0.9-0.4,1-1c0.2,0,0.3,0.1,0.5,0.1
						c-0.6,0.1-0.5,0.5-0.5,0.8s0.1,0.8,0.2,0.9c0-0.4,0-0.8,0-1.3c0.4,0.5,0.9,0.8,1.4,0.5c-0.1-0.6-0.6-0.5-0.9-0.7
						c0.1-0.2,0.2-0.4,0.3-0.5c-4.2-6.5-5.1-8.1-5.4-9.4c0.1,0.3,0.3,0.5,0.4,0.7c0.9,1.8,1.9,3.5,3.3,5.1c0.9,1.1,1.8,2.1,2.4,3.4
						c0,0.1,0.1,0.2,0.1,0.3c0.1-0.1,0.2-0.1,0.2-0.2c-0.2-1.4-0.5-2.7-0.7-4.1c0.7,0.5,0.7,1.5,1.3,2c-0.1-0.9-0.1-1.7-0.4-2.5
						c0.4-0.8-0.2-1.6,0.1-2.6c0.1,1,0.2,1.8,0.3,2.6c0,0.2,0.1,0.5,0.2,0.7c0.7,1.3,1.9,2,3.3,2.3c0.2,0,0.3,0,0.7,0
						c-0.4-0.5-0.7-1-1.1-1.4c-0.2-0.3-0.2-0.5-0.1-0.8l0,0c0.4,0.5,0.8,1,1.2,1.4c0.2,0.2,0.4,0.5,0.6,0.8c0-0.8,0-1.4,0-2.1
						c0.5,0.3,0.9,0.6,1.2,0.8c0.3-0.4,0.2-0.6-0.1-0.8c-0.5-0.3-0.9-0.5-1.4-0.8c-0.1-0.1-0.3-0.2-0.4-0.4
						c-0.1-0.1-0.2-0.3-0.3-0.4c-0.7-0.7-1.4-1.4-2.2-2.1c-0.9-0.8-1.7-1.6-2.6-2.5c0,0,0-0.1,0-0.3c0.2,0.1,0.4,0.2,0.5,0.3
						c1.3,1,2.7,2,3.7,3.3c0.8,1,1.7,1.7,3,1.9c0.4,0.1,0.7,0.2,1.1,0.3c0.1,0,0.3-0.1,0.5-0.1c0-0.2-0.1-0.3-0.1-0.4l0,0
						c0-0.1,0.2-0.2,0.1-0.2c-0.1-0.2-0.3-0.4-0.4-0.6c0.3,0.1,0.5,0.3,0.7,0.5c0.2,0.2,0.5,0.3,0.7,0.5c0.1-0.2-0.2-0.6,0.2-0.5
						c0.1,0.2,0.3,0.4,0.4,0.7c0.3-0.2,0.5,0.4,0.8,0.1c-0.2-0.3-0.6-0.6-0.8-0.9c-0.2-0.4-0.8-0.6-0.6-1.2c0.7,0.7,1.4,1.4,2.1,2.1
						c0.1-0.5-0.5-0.9-0.2-1.5c0.2,0.2,0.3,0.4,0.5,0.7c0.3-0.8,0-1.6,0.5-2.3c0.1,0.7,0.1,1.3,0.2,2c-0.4,0.7-0.3,1.4,0.4,1.8
						c-0.1-0.7-0.3-1.2-0.4-1.8c0.4,0.7,0.8,1.5,1.2,2.2c0.1,0,0.1,0,0.2-0.1c0-0.2-0.1-0.4-0.1-0.7c0.4,0.2,0.2,0.9,0.9,1
						c-0.1-0.6-0.2-1.2-0.3-1.7c0.2,0.1,0.3,0.1,0.6,0.2c-0.1-0.3-0.1-0.6-0.2-0.8c-0.4-0.6-0.8-1.2-1.3-1.8c-0.3-0.3-0.5-0.7-0.7-1
						c0.1,0,0.1-0.1,0.2-0.1c1,1,1.9,2,3,3c-0.2-0.7-0.3-1.3-0.7-1.9c-0.5-0.7-1-1.2-1.7-1.7c-0.5-0.4-0.9-0.7-1.4-1.1
						c-0.2-0.2-0.4-0.3-0.4-0.7c0.4,0.2,0.7,0.5,1.1,0.5c0.3,0,0.4,0.2,0.6,0.3c0.6,0.5,1.3,1.1,1.9,1.6c0.1,0.1,0.3,0,0.5,0
						c0.4,0.8,0.9,1.5,1.9,1.9c-0.1-0.3-0.2-0.5-0.3-0.7c0,0,0,0,0.1,0c0.2,0.3,0.5,0.5,0.7,0.8c0.3-0.2,0.9,0.1,1.3,0.5
						c0.1-0.2,0.1-0.4,0.2-0.7c-0.6-0.4-1.3-0.8-1.9-1.2c0.3-0.2,0.3-0.4,0.2-0.7c0.4,0.3,0.9,0.6,1.3,1l0.1-0.1
						c-0.5-0.9-1-1.8-1.5-2.7l0.1-0.1c0.3,0.4,0.5,0.9,0.8,1.3s0.4,0.9,0.9,1.2c0.1-0.6,0.1-1.1,0.2-1.6c0.2-1.5,0.2-1.5-1-2.5
						c-0.1,0-0.1-0.1-0.2-0.1c-1.2-1-2.5-2-3.7-3c-0.2-0.1-0.3-0.3-0.5-0.5c0,0,0,0,0.1-0.1c1.8,1.4,3.6,2.7,5.5,4.1
						c0.5-2.3,0.6-4.6,1.2-6.8c0,0.8-0.1,1.6-0.2,2.4c-0.1,1.2-0.3,2.4-0.4,3.6c0,0.2,0,0.5,0.2,0.6c0.6,0.4,1.3,0.6,1.9,1.2
						c0.1-1.4,0.2-2.7,0.3-3.9c0.1-1.2,0.4-2.4,0.7-3.6c0,0.9-0.1,1.8-0.2,2.6c-0.1,0.5,0.1,0.9,0.5,1.2c1,0.7,1.9,1.5,2.9,2.3
						c0.4,0.3,0.9,0.5,1.4,0.6c0.2-0.6-0.3-0.8-0.6-1.2c0.2,0.1,0.4,0.1,0.6,0.2c0-0.4-0.1-0.8-0.1-1.1c0-0.5-0.3-0.9-0.7-1.2
						c-0.6-0.4-1.2-0.8-1.7-1.2c0,0,0-0.1,0.1-0.1c0.2,0.1,0.5,0.2,0.7,0.3l0.1-0.1c-0.4-0.4-0.7-0.9-1.1-1.3l0.1-0.1
						c0.7,0.6,1.3,1.3,2,1.9c0-0.2,0.1-0.4,0.1-0.6c0.2,0.3,0.3,0.6,0.5,0.9c0-2.5,0-4.9,0-7.2c0.1,0.2,0.2,0.4,0.2,0.6
						c0.1,1,0.1,2,0.2,3c0.1,1.2,0.1,2.4,0.1,3.7c0,0.3,0,0.6,0.3,0.8c0.4,0.3,0.8,0.5,1.3,0.9c0-0.3,0-0.5-0.1-0.6
						c0.3,0.4,0.5,0.9,0.9,1.2c1.7,1.5,3.2,3.1,4.3,5.1c0.1,0.2,0.3,0.5,0.5,0.5c0.4,0.1,0.8,0.1,1.3,0.2c-0.5-0.9-1-1.7-1.5-2.5
						c0.2,0,0.3,0.1,0.4,0.2s0.3,0.2,0.5,0.2c0-0.2,0-0.3,0.1-0.4c0.4,0.2,0.4,0.8,0.9,0.9c0-0.1,0-0.2,0-0.3l0,0
						c0.1,0.1,0.3,0.2,0.4,0.3c0.4,0.5,1,0.7,1.6,1c-0.2-0.9-0.1-1.8-0.6-2.6c-0.4-0.9-0.7-1.8-0.7-2.9c0.2,0.4,0.3,0.7,0.4,0.9
						c0.3,0.5,0.5,1,0.8,1.5c0,1.1,0.8,2.5,1.6,2.6c-0.2-0.3-0.3-0.6-0.4-0.8c0.3,0.2,0.5,0.5,0.8,0.7c0.6-0.9,0.8-1.9,1.5-2.7
						c-0.4,1.1-0.8,2.1-1.2,3.2c0.2,0,0.3,0.1,0.3,0.1c0.2-0.3,0.4-0.7,0.6-1c0,0.7,0,0.7,0.3,1.2c0.5-1.5,0.9-3,1.2-4.6
						c0.1,0.2,0.2,0.3,0.2,0.4c0.1-0.2,0.2-0.3,0.3-0.5c0,0.5-0.2,0.9-0.3,1.3c-0.1,0.5-0.2,1.1,0,1.5c0.3,0.5,0.8,0.9,1.5,1.1
						c-0.1-0.4-0.2-0.7-0.3-1c0.4-0.3,0.1-0.7,0.2-1c0-0.4,0-0.7,0-1.1s0-0.7-0.1-1.1c0.3,1.1,0.4,2.3,0.6,3.4
						c0.1,0.7,0.8,1.4,1.7,1.4c-0.3-0.6-0.5-1.2-0.8-1.7c0.2-0.1,0.3-0.1,0.4-0.1c0-0.3,0-0.5,0-0.7c0.1,1.2,1,1.8,2,2.3
						c-0.1-0.2-0.2-0.4-0.3-0.6c0.3,0.1,0.4,0.2,0.6,0.2c0-0.2,0-0.3,0.1-0.5c0.8,0.9,1.1,1,1.9,1c-0.8-1.3-2-2.3-3.1-3.3
						c0.4,0.2,0.8,0.5,1.2,0.7c0.4,0.3,0.6,0.7,1.2,0.8c-0.4-0.5-0.8-0.9-1.1-1.4c-0.4-0.5-0.7-1-1-1.4c0,0,0.1,0,0.1-0.1
						c0.9,0.9,1.7,1.9,2.6,2.8c0.1,0,0.1,0,0.2-0.1c0-1.6,0.1-3.1,0.1-4.7c0.1,1.5,0.1,3,0.2,4.4
						C310.4,105.1,310.6,105.4,310.7,105.8z M-6.2,108c-0.3,0.4-0.4,0.9-0.2,1.4C-6.4,108.9-6.3,108.4-6.2,108
						c0.3-0.2,0.3-0.5,0.1-0.8C-6.2,107.5-6.2,107.8-6.2,108z M-1.8,114.4c-0.2,0-0.3,0.1-0.2,0.3c0,0.1,0.1,0.1,0.2,0.2
						c0-0.1,0.1-0.2,0.1-0.2c0.5-0.4,0.5-0.4,0.2-1.1C-1.8,113.8-2,114.1-1.8,114.4z M54.4,118.6c0,0.1,0,0.2,0,0.3
						c0.4-0.1,0.4-0.4,0.5-0.8c-0.2,0.1-0.3,0.2-0.4,0.2c0-0.3,0.2-0.6-0.3-0.7c-0.1,0.3-0.1,0.6-0.2,1
						C54.2,118.7,54.3,118.7,54.4,118.6z M9.8,110.3c-0.1,0.1-0.2,0.1-0.2,0.2c0,0.7,0,1.4,0,2.2C9.8,111.9,10.1,111.1,9.8,110.3
						c0.4,0,0.3-0.4,0.3-0.6c0-0.3-0.3-0.4-0.6-0.5c0,0.2,0,0.3-0.1,0.4c-0.1,0-0.3,0-0.3,0.1c-0.2,0.3-0.4,0.5-0.6,0.8
						c-0.6,1-0.9,2.1-1.5,3.1c-0.3,0.5-0.1,0.9,0.3,1.2c0.6-0.6,1.2-1.1,1.7-1.6c0.1-0.1,0.2-0.3,0.2-0.4c0.1-1.1,0.1-2.2,0.1-3.2
						C9.5,109.9,9.7,110.1,9.8,110.3z M-22.1,114.5c-0.3,0-0.5,0-0.4,0.4c0.1,0.4,0.2,0.7,0.8,0.7c0-0.2,0-0.4-0.1-0.5
						C-21.9,114.9-22.1,114.7-22.1,114.5c0.1,0.1,0.3,0.2,0.4,0.3c0-0.3-0.1-0.6-0.5-0.7C-22.2,114.3-22.2,114.4-22.1,114.5z
						 M5.9,114.1c-0.1,0.1-0.3,0.1-0.4,0.2c0,0.1,0.1,0.1,0.1,0.2c0.1,0,0.2,0.1,0.5,0.2C6,114.4,5.9,114.3,5.9,114.1
						c-0.4-0.3-0.7-0.6-1.1-0.9c-0.3,0.4-0.1,0.6,0.1,0.9C5.2,114.5,5.5,114.1,5.9,114.1z M18.7,109.9c0,0.2-0.1,0.5-0.1,0.7
						c0,0.3,0.1,0.3,0.4,0.1C18.9,110.5,18.8,110.2,18.7,109.9c-0.1-0.2-0.1-0.5-0.2-0.7c-1,0.4-1.1,1-0.5,1.9
						C18.3,110.7,18.5,110.3,18.7,109.9z M10.5,111.7c0.5-0.3,0.5-0.9,0.7-1.4c-0.3-0.2-0.5-0.4-0.8-0.5c-0.4,0.7-0.1,1.2,0,1.8
						c-0.1,0.1-0.3,0.1-0.3,0.2c-0.1,0.3-0.1,0.6-0.1,1.1C10.5,112.5,10.5,112.1,10.5,111.7z M57.9,112.5c0-0.2,0-0.3,0-0.5h-0.1
						c0,0.2-0.1,0.4-0.2,0.6C57.8,112.5,57.8,112.5,57.9,112.5c-0.5,0.9-0.2,1.8-0.2,2.7c0-0.3,0-0.7,0.1-1c0.1,0.1,0.2,0.2,0.4,0.4
						C58.5,113.8,58.3,113.1,57.9,112.5z M44.7,119.3c-0.1,0.2-0.2,0.5-0.4,0.8c0.4-0.1,0.6-0.2,0.6-0.5
						C44.9,119.5,44.7,119.4,44.7,119.3c0.3-0.7-0.2-1.1-0.6-1.8c-0.1,0.8-0.4,1.4,0,2.1C44.3,119.5,44.5,119.4,44.7,119.3z
						 M279.3,106c0.3,0,0.3-0.2,0.3-0.4c-0.1-0.4,0-0.6,0.4-0.8c-0.2,0.2-0.2,0.5,0.2,0.6c-0.1-0.2-0.1-0.4-0.2-0.6
						c-0.3-0.2-0.7-0.5-1-0.7C278.7,105.1,278.7,105.2,279.3,106L279.3,106c-0.2,0.4-0.2,0.4,0.3,0.6
						C279.5,106.4,279.4,106.2,279.3,106z M266.1,110.9c-0.5-0.6-1.3-0.6-2-0.9c0.3,0.3,0.6,0.6,0.9,0.9c0.3,0.3,0.6,0.6,0.9,0.9
						C266,111.4,266.1,111.2,266.1,110.9c0.1,0.1,0.3,0.2,0.5,0.3c0.1,0,0.3-0.1,0.4-0.1C266.7,110.9,266.5,110.4,266.1,110.9z
						 M11.1,115.4c0.1-0.1,0.3-0.3,0.4-0.5c-0.1-0.2-0.2-0.4-0.4-0.7c-0.7,0.5-0.7,0.5-0.8,1.2c0.1,0,0.3,0,0.4,0
						c-0.6,0.4-0.6,0.9-0.1,1.5c0.5-0.5,1-0.9,0.9-1.7C11.4,115.3,11.2,115.4,11.1,115.4z M115.3,116.1c-0.6,0.1-0.4,0.5-0.2,0.8
						c0.4,0.7,1.1,1.3,1.7,1.9c0-0.3-0.1-0.6-0.3-0.8C116.2,117.3,115.7,116.7,115.3,116.1c0.2,0,0.3,0.1,0.6,0.1
						c-0.1-0.4-0.2-0.7-0.3-0.9c0.1,0.1,0.2,0.2,0.3,0.2c0.1-1.3-0.4-2.4-0.7-3.5c-0.4,1.2-0.2,2.2,0.5,3.2
						c-0.2-0.2-0.4-0.3-0.6-0.5C114.9,115.3,115.1,115.7,115.3,116.1z M42.4,120c0.1,0.3,0.3,0.5,0.4,0.9c0.4-0.7,0-1.1-0.3-1.6
						c0.2,0,0.3,0,0.6,0.1c-0.2-0.7-0.6-1.1-1-1.4c-0.1,0-0.1,0-0.2,0.1c0.1,0.4,0.2,0.9,0.2,1.3c-0.2-0.1-0.5-0.1-0.4-0.5
						c0.1-0.3-0.1-0.6-0.1-1.1c-0.3,0.4-0.4,0.6-0.4,0.9c0,0.8,0.5,1.4,1.2,1.8C42.4,120.3,42.4,120.1,42.4,120z M127.7,115.6
						c-0.1,0.6-0.2,1.2,0.4,1.7C128.1,116.7,127.9,116.2,127.7,115.6c-0.1,0-0.1-0.1-0.3-0.2c0.3,0,0.4,0,0.5,0
						c0-1.2-0.3-1.7-1.1-2.1c-0.1,1,0.2,2,0.5,2.4C127.4,115.8,127.6,115.7,127.7,115.6z M237.1,115.7c0.1-0.1,0.2-0.2,0.2-0.2
						c-0.1-0.4-0.3-0.7-0.4-1.1c-0.1,0-0.1,0-0.2,0c-0.3,0.7-0.6,1.4-0.9,1.9c0.3,0.4,0.6,0.6,0.9,0.9c-0.1-0.3-0.2-0.6-0.3-0.9
						c0.2,0.1,0.3,0.1,0.4,0.2c0-0.3,0-0.7,0-1.1C237,115.6,237,115.6,237.1,115.7c-0.1,0.7,0.1,1.2,0.4,1.9
						C237.8,116.8,237.7,116.5,237.1,115.7z M46.9,107.9c0.7-0.7,0.7-1.4-0.3-2.1c-0.6,0.9-0.6,1.4-0.2,2.6
						C46.5,108.2,46.7,108.1,46.9,107.9c-0.1,0.2-0.2,0.4-0.2,0.5c-0.3,0.4-0.3,0.9,0,1.4c0.3-0.6,0.5-1.1,0.5-1.7
						C47.1,108.1,47,108,46.9,107.9z M138.9,121.1c0,0.1,0,0.3,0,0.5C139.2,121.2,139.2,121.2,138.9,121.1c0.1-0.1,0.2-0.2,0.2-0.3
						c0.2-0.3,0.6-0.3,0.7-0.7c0-0.4-0.4-0.6-0.6-0.9c-0.1-0.1-0.2-0.1-0.3-0.2c0,0.5-0.1,1-0.1,1.5c-0.3,0.5-1,0.9-1.4,1.7
						C138.1,122,138.4,121.4,138.9,121.1z M207.3,114.5c0.1,0,0.2,0,0.4-0.1c-0.2-0.3-0.3-0.6-0.5-0.8c0.1,0.1,0.2,0.1,0.4,0.3
						c0-1.6-0.6-3-1-4.4c-0.1,0-0.1,0-0.2,0c-0.1,1-0.2,2-0.3,3.1c0.2,0,0.3-0.1,0.5-0.1c0.1,0.3,0.3,0.6,0.4,0.8
						c-0.2-0.1-0.4-0.2-0.6-0.4c-0.2,0.3-0.3,0.6-0.5,0.9c0.3,0.2,0.6,0.3,0.8,0.5c-0.2-0.1-0.5-0.1-0.7-0.2c-0.3,0.9-0.2,1,0.6,1.4
						c0,0.2-0.1,0.4-0.1,0.8c0.4,0,0.8,0.1,1.2,0.1C207.8,115.6,207.9,115,207.3,114.5z M-19.8,114.2c-0.2,0.5,0,0.8,0.4,1.3
						c0.3-0.3,0.2-0.5-0.1-0.8c0.1,0,0.2,0,0.4,0c0-0.4,0.1-0.8,0.1-1.2c0,0,0,0,0.1,0c0,0.5,0.1,0.9,0.1,1.6c0.4-1,0-3-0.8-3.9
						c-0.2,0.6-0.4,1.1-0.6,1.6c-0.1,0.3-0.1,0.6,0.1,0.9C-20,113.9-19.9,114-19.8,114.2z M-9.9,112.7c-0.4,0.1-0.2,0.4-0.1,0.7
						c0-0.1,0.1-0.3,0.1-0.4c0.5,0,0.6-0.4,0.6-0.7c0.1-0.8,0-1.6,0.1-2.4c0.1-0.8-0.4-1.2-1-1.7c0,0.9,0,1.7,0,2.5
						C-10.1,111.3-10,112-9.9,112.7z M-4.7,111.9c-0.3,0.2-0.6,0.5-0.3,1c0.2-0.3,0.3-0.6,0.4-0.8C-4.5,112-4.7,111.9-4.7,111.9
						c0.4-0.4,0.2-1,0.4-1.7c0,0.3,0,0.4,0,0.6s0,0.3,0.1,0.5c0.4-0.5,0.4-0.8,0.1-1.3c-0.4-0.6-0.7-1.1-1.1-1.6
						c-0.1-0.1-0.2-0.2-0.4-0.4c0,0.9,0,1.7,0,2.5c0,0.4,0.2,0.8,0.4,1.2C-5.1,111.8-4.8,111.8-4.7,111.9z M60.3,113.1
						c0-0.3-0.2-0.4-0.6-0.4c-0.1,0.4-0.2,0.7-0.2,1.1c0.2,0,0.3,0,0.4-0.1c-0.1,0.2-0.2,0.4-0.3,0.6c-0.3,0.6-0.5,1.2-0.1,1.8
						c1.5-0.3,1.8-1.3,2.1-2.5C61.1,113.4,60.8,113,60.3,113.1z M201.4,114.7c0,0.3,0,0.6,0,0.9c0,0.3,0.1,0.4,0.5,0.4
						c0.2-0.7,0.3-1.3,0-2.2C201.6,114.2,201.5,114.5,201.4,114.7c0-0.3,0.1-0.6,0.1-1c-0.5-0.3-1.1-0.5-1.7-0.8
						c-0.2,0.6-0.4,1.2-0.5,1.8c-0.1,0.5-0.1,1-0.2,1.5c0,0.3,0.4,0.8,0.6,0.8c0.5-0.2,0.7,0.2,1.2,0.3c0.1-0.2,0.1-0.4,0.2-0.6
						C201.2,116,201.3,115.3,201.4,114.7z M37.8,109.5c0-0.1,0-0.2,0-0.4c-0.5,0.4-1,0.6-0.9,1.3c0.2-0.1,0.3-0.2,0.5-0.3
						c-0.2,0.5-0.8,0.8-0.7,1.5c0,0.5-0.1,1.1-0.2,1.6c0,0.5-0.3,1.1-0.1,1.8c0.3-0.4,0.6-0.7,0.9-0.9c0.5-0.5,0.8-1,0.5-1.6
						c0-0.1,0-0.1,0-0.2c0.1,0.2,0.2,0.4,0.3,0.5h0.1c0.1-0.5,0.2-1,0.3-1.5c0,0,0.2-0.1,0.2-0.2c0,0.2,0,0.5,0.1,1
						c0.3-0.3,0.4-0.5,0.6-0.7c0.1,0.4,0.2,0.7,0.3,1c0.3-0.6,0.6-1.2,0.3-1.8c-0.3-0.7-0.7-1.3-1.1-2
						C38.4,108.9,38.1,109.2,37.8,109.5z M286.1,106.1c-0.4-0.3-0.6-0.5-1-0.9c0.6,0,1,0.3,1.3,0.6c0-0.3-0.2-0.5,0.2-0.6
						c0.3,0,0.3-0.2,0.2-0.4c-0.1-0.2-0.2-0.4-0.3-0.6c-0.5-0.7-1-1.4-1.9-1.8c-0.1-0.1-0.2-0.2-0.3-0.3c-0.6-0.8-1.5-1.2-2.3-1.8
						c-0.2,1.2-0.3,2.5-0.3,3.7c0,0.2,0.2,0.5,0.4,0.7c0.5,0.4,0.9,0.9,1.4,1.3c0.2,0.1,0.4,0.3,0.6,0.3c0.5,0.1,1,0.1,1.5,0.1
						C285.6,106.3,285.8,106.2,286.1,106.1z M30.6,113.2c0.1-0.2,0.2-0.3,0.2-0.5c0.5-1.1,0.9-2.3,1-3.6c0.1-0.6,0.2-1.3,0.4-1.8
						c0.4-0.8,0.5-1.7,0.7-2.5c-0.3,0.1-0.5,0.3-0.6,0.5c-0.6,0.5-1.1,1.1-1.8,1.6s-1.1,1.2-1.3,2c-0.2,1.1-0.6,2.1-0.8,3.2
						c-0.1,0.4,0,0.5,0.5,0.5c0.4-0.7,0.8-1.4,1.3-2.2c0.1,0.4,0.3,0.8,0.2,1C30.2,112,30.3,112.5,30.6,113.2z M139.3,109.4
						c-0.6,0.8-1.2,1.6-1.4,2.6c-0.3,1.1-0.4,2.2-0.6,3.3c0,0.2,0,0.4,0.1,0.5c0.3,0.4,0.7,0.8,1.1,1.2c0.7-0.9,1.3-1.7,1.1-2.8
						c-0.2-1.4-0.2-2.7-0.2-4.1C139.4,109.9,139.3,109.7,139.3,109.4z M142.7,120.9c0.1-0.4,0.2-0.7,0.2-0.9
						c-0.1-0.7-0.2-1.4-0.4-2.1c-0.4-1.1-0.8-2.1-1.3-3.2c-0.3-0.6-0.7-1.1-1.1-1.6c-0.1,0-0.1,0-0.2,0.1c0,0.4,0.1,0.8,0.1,1.3
						c0.2-0.2,0.3-0.2,0.5-0.4c0,0.3,0,0.4-0.1,0.6c-0.3,0.6-0.3,1.2-0.3,1.8c0.1,0.8,0.2,1.7,0.2,2.5c0,1,0.7,1.5,1.1,2.1
						C142.1,121.2,142.2,120.4,142.7,120.9z M155.3,112.9c-0.1,0.4-0.1,0.9-0.2,1.3c-0.1,0.4-0.4,1.6-0.5,2.1
						c-0.2-0.5,0.4-1.8,0-2.2c-1.7,2-1.7,4.2-1,5.6c0.4-0.1,0.4-0.4,0.4-0.6c0-0.3,0-0.5,0.1-0.8c0.1-0.5,0.2-0.9,0.3-1.4
						c0-0.2,0.1-0.4,0.1-0.6c0.1,0.2,0.1,0.3,0.1,0.4c-0.1,0.7-0.2,1.4-0.3,2.2c0,0.3,0.1,0.6,0.2,0.8c0,0.1,0.2,0.1,0.3,0.2
						c0.3-0.9,0.1-1.9,0.5-2.7c0,0.4,0.1,0.8,0.1,1.2C155.9,117.2,155.8,113.6,155.3,112.9z M-1,113.3c0.1,0,0.1,0,0.2,0
						c0.5-1.1-0.3-2.2,0-3.2c0.1,0.2,0.1,0.4,0.1,0.5c0,0.2,0.1,0.3,0.2,0.5c0.1-1.9,0.2-3.8-0.1-5.8c-0.3,0.6-0.6,1.2-0.8,1.8
						c-0.6,1.2-1.1,2.5-1.4,3.8c-0.1,0.3-0.2,0.6,0.1,0.8h0.1c0-0.2,0.1-0.4,0.1-0.6c0.1,0.3,0.1,0.5,0.1,0.8c0,0.1,0.2,0.2,0.2,0.3
						c0,0.2-0.1,0.3-0.1,0.5c0,0.3,0.1,0.5,0.1,0.8c0.4-0.2,0.6-0.5,0.5-0.9c-0.1-0.5,0-0.9-0.3-1.4c-0.2-0.3,0-0.9,0-1.4h0.1
						C-1.6,111-1.3,112.1-1,113.3z M46.2,112.9c0.2-1.1-0.1-2-0.3-3c-0.6,1-1.2,2-1.6,3c-0.2,0.4-0.2,1,0,1.4c0.4,0.8,1,1.5,1.6,2.2
						c0.1-0.2,0.2-0.4,0.1-0.6c-0.1-0.2-0.3-0.4,0.1-0.6c0.1,0,0-0.3,0.1-0.4c0-0.4,0-0.9,0-1.3c0,0,0,0,0.1,0
						c0,0.5,0.1,1.1,0.1,1.6c0.2-0.8,0.4-1.6,0.2-2.5C46.4,112.7,46.3,112.8,46.2,112.9z M106.2,111.7c0.1-1.2,0.1-2.3-0.4-3.3
						c-1.3-3.2-2.5-6.4-3.4-9.7c-0.1-0.3-0.2-0.5-0.2-0.8c-0.1,0.2-0.1,0.4,0,0.6c0.3,1.3,0.7,2.6,1,3.8c0.6,2.4,1,4.9,1.9,7.3
						C105.3,110.4,105.7,111,106.2,111.7z M173.3,115.4c0.2,0.1,0.4,0.2,0.6,0.3c0-0.2,0.1-0.4,0.1-0.6c0-0.1,0-0.1-0.1-0.2
						c-0.2-0.8-0.5-1.6-0.7-2.4c0-0.1-0.1-0.1-0.2-0.2c-0.2,0.1-0.4,0.2-0.6,0.4c-0.1-0.2-0.2-0.4-0.3-0.6c-1.1,0.7-1.1,2,0,2.6
						c0,0.3,0,0.6,0.1,0.8c0.1,0.2,0.3,0.3,0.4,0.5c0.2-0.1,0.3-0.3,0.5-0.4C173.3,115.6,173.3,115.5,173.3,115.4z M37.8,114
						c-0.3,0.8-0.7,1.5-1,2.2c-0.1,0.2-0.1,0.5,0,0.6c0.3,0.3,0.2,0.6,0.2,0.9s0.1,0.5,0.2,0.7c0.1,0.2,0.3,0.4,0.4,0.5
						c0.3,0.1,0.4-0.1,0.4-0.3c0.1,0.1,0.2,0.1,0.3,0.2c0.2-0.6,0.5-1.2,0.1-1.9c0-0.1,0-0.2,0-0.2C38.4,115.9,38.2,115,37.8,114z
						 M112.3,115c0.3,1.3,0.2,2.7,0.1,4.1c0.4-0.4,0.1-0.8,0.3-1.3c0.2-0.1,0.3-0.1,0.5-0.2c-0.2-1-0.3-1.9-0.5-2.8
						c-0.1-0.3-0.1-0.5-0.3-0.7c-0.1-0.2-0.3-0.3-0.4-0.5c-0.1,0.2-0.2,0.2-0.2,0.3c-0.5,1.5-0.7,3.1-0.6,4.8c0,0.2,0,0.5,0.4,0.5
						C111.9,117.9,112,116.4,112.3,115z M117,121.6c0.1,0,0.1,0,0.2,0c0-0.5,0.2-1.1,0-1.5c-0.4-0.9-1.1-1.7-2-2.4
						c0,0.5,0.1,0.8,0.1,1.1c-0.1,0.8,0.2,1.6,0.6,2.3c0.2,0.5,0.4,0.9,0.4,1.4c0,0.3,0,0.7,0.5,1c0-0.3,0.1-0.6,0.1-0.8
						c0-0.4-0.1-0.8-0.2-1.2c-0.1-0.6-0.2-1.2-0.1-1.8C116.7,120.3,116.8,121,117,121.6z M171,119.1c0.8-0.4,1-1,0.8-1.6
						c-0.1-0.2-0.2-0.6-0.1-0.8c0.2-0.6,0-1.1-0.2-1.6c0-0.1-0.3-0.2-0.4-0.3c-0.1,0.1-0.2,0.3-0.3,0.4c-0.1,0.2-0.1,0.4-0.2,0.6
						c-0.5,0.6-0.5,1.3-0.6,1.9c0,0.1,0.1,0.3,0.2,0.5c0.2-0.2,0.4-0.3,0.6-0.4C170.9,118.2,170.9,118.6,171,119.1z M203.9,115
						c0.2-0.1,0.3-0.4,0.4-0.4c0.4-0.1,0.5-0.4,0.3-0.7c-0.3-0.6-0.7-1.2-1.1-1.7c-0.3-0.3-0.8-0.4-1.2-0.1c0,1.1,0.1,2,1.2,2.6
						C203.7,114.8,203.8,114.9,203.9,115z M242.5,115.7c-0.1-0.9,0.5-1.6,0.3-2.4s-0.2-1.6-0.7-2.3c-0.7,0.9-0.9,1.4-1,2
						c0.2-0.2,0.3-0.4,0.4-0.6c0,0.4-0.2,0.8-0.2,1.2c0,0.4,0.3,0.8,0.5,1.2c0.2-0.1,0.3-0.2,0.3-0.2
						C242.3,114.9,241.9,115.4,242.5,115.7z M168.5,109.3c-0.2,0.8-0.1,1.6,0.2,2.3c0.3,0.8,0.5,1.4,0.5,2.2c0,0.5,0.1,0.9,0.5,1.3
						c0.1-0.3,0.1-0.6,0.1-0.8s0-0.4,0.1-0.6c0.4-0.5,0.3-0.9,0-1.4c-0.5-0.7-0.8-1.5-1.2-2.3C168.7,109.8,168.6,109.5,168.5,109.3z
						 M167.2,117.2c0.5-0.5,1.1-1,1.5-1.4c0.1-0.5,0.1-0.9,0.1-1.3c0.1-0.6,0-1.2-0.3-1.7c-0.1,0.1-0.2,0.1-0.2,0.2
						c-0.4,1.2-0.9,2.4-1.3,3.6C166.9,116.8,166.9,117.1,167.2,117.2z M158.3,112.1c-0.1,0-0.1,0-0.2,0c-0.5,1.8-0.9,3.5,0.2,5.2
						c0.5-0.2,0.4-0.6,0.4-1c-0.1-1.1-0.2-2.2-0.3-3.2C158.4,112.8,158.3,112.5,158.3,112.1z M122.4,110.3c-0.1,0-0.2,0-0.2,0
						c-0.1,0.5-0.2,1-0.3,1.5c-0.1,1.2-0.1,2.3-0.2,3.5c0,0.3,0,0.5,0.3,0.6c0.2-0.6,0.4-1.2,0.6-1.8
						C123.1,112.8,122.5,111.6,122.4,110.3z M293.1,106.8c-1.1-2.2-2.5-4-3.4-4.3C290.1,104.4,291.2,105.8,293.1,106.8z M191.2,115
						c0-1.3-0.1-2.5,0.1-3.7c0-0.1,0-0.3,0-0.5s-0.1-0.4-0.4-0.4c-0.3,0-0.4,0.1-0.5,0.4c-0.1,0.5-0.2,1.1-0.3,1.6
						c0,0.4-0.2,0.8,0.1,1.1C190.6,114,190.9,114.5,191.2,115z M29.1,108.4c-1.1,0.9-2.2,1.7-2,3.3c0.1,0.1,0.2,0.2,0.4,0.2
						c0.1,0.1,0.3,0.1,0.5,0.2C28.4,110.9,28.8,109.7,29.1,108.4z M-15.2,115.1c0-0.1,0.1-0.1,0.1-0.2c-0.5-0.4-1-0.9-1.5-1.3
						c-0.6,0.9-0.6,1.7-0.3,2.7c0.1-0.2,0.1-0.3,0.2-0.5c0.1,0.2,0.2,0.4,0.3,0.6c0.3,0,0.6-0.1,0.9-0.1c0.3-0.6,0.5-1.1-0.1-1.5
						C-15.6,115-15.4,115.1-15.2,115.1z M55.4,116.9c0.1-1.7,0.3-3.3,0.3-4.9c-0.3,0.3-0.5,0.6-0.7,0.9c-0.2,0.3-0.3,0.7-0.2,1.1
						c0,0.3,0,0.6-0.1,0.8C54.4,115.7,54.7,116.3,55.4,116.9z M97.5,116.5c0.1-0.2,0.4-0.4,0.6-0.4c0.5-0.1,0.9-0.8,0.6-1.2
						c-0.2-0.4-0.5-0.8-0.8-1.1c-0.1-0.1-0.3-0.2-0.5-0.4C97,114.5,96.9,115.5,97.5,116.5z M55.9,115.4c0.6-0.9,0.2-2,0.8-3
						c0,0.4,0.1,0.6,0.1,1c0.4-0.7,0.7-1.3,0.6-2c-0.3-0.2-0.7-0.4-1.1-0.6C55.6,112.3,56,113.9,55.9,115.4z M178,116.3
						c0.9-1.5,0.6-3.2-0.6-3.9c-0.4,0.3-0.4,0.7-0.2,1.1C177.3,114.5,177.6,115.4,178,116.3z M229.1,113.1c0.9-1.5,0.5-3.3-1.1-4.8
						C228.4,110.1,228.7,111.6,229.1,113.1z M245.2,114.2c-0.6,0.8-0.4,1.8,0.3,2.4c0.3,0.2,0.5,0.5,0.6,0.8c0,0.1,0.1,0.2,0.2,0.4
						c0.1-0.5,0.2-0.8,0.3-1.2c0-0.2,0-0.4-0.1-0.6C246.2,115.5,245.7,114.8,245.2,114.2z M3.6,112.7c1-0.8,1-2,1.2-3.1
						c-0.7,0.7-1.4,1.4-2.1,2.1C3,112,3.3,112.3,3.6,112.7z M289.8,104.6c-0.7-1.3-1.3-2.6-2.6-3.4c0,0.7,0,1.4,0.4,1.8
						C288.2,103.6,288.8,104.2,289.8,104.6z M118.8,120.1c0.1,0,0.2,0,0.3,0c0.1-0.3,0.3-0.7,0.2-0.9c-0.3-1.1-0.8-2.1-1.2-3.1
						C117.5,117.6,118.2,118.9,118.8,120.1z M37.7,106.3c-0.7,1-0.5,1.9-0.6,2.9c0.5-0.2,0.9-0.4,1.3-0.7c0.3-0.2,0.3-0.4,0.1-0.7
						C38.2,107.4,38,106.9,37.7,106.3z M19.4,106c-0.2,0.4-0.5,0.7-0.4,1c0.1,0.9,0.4,1.8,0.6,2.9C20.3,108.5,20.4,107.3,19.4,106z
						 M290.3,106.9c0-1.4-1.1-2.5-2.6-2.9c-0.1,0.4,0.2,0.7,0.4,0.9c0.6,0.6,1.2,1.2,1.8,1.8C290,106.8,290.1,106.9,290.3,106.9z
						 M33.8,114.8c0.6-0.2,1-0.6,1.1-1.2c0.3-1.2,0.4-1.2,0-2c-0.5,1-1.1,2-1.6,3C33.6,114.7,33.7,114.8,33.8,114.8z M32.7,114.4
						c0.6-0.9,1.5-2.6,1.6-3c-1.2,0.5-1.8,1.4-2.2,2.7C32.3,114.2,32.4,114.3,32.7,114.4z M41,114.8c0.7-1.3,0.6-1.8-0.3-2.9
						C40,113.3,40.1,114,41,114.8z M124.6,114.3c0.4-1.3,0.6-2.7-0.2-4.1c-0.2,0.4-0.3,0.7-0.5,1c0.1,0,0.1,0.1,0.2,0.1
						c0.1-0.1,0.1-0.3,0.2-0.4c0.1,0,0.1,0,0.2,0C124,112.1,124.2,113.2,124.6,114.3z M161.4,115c-0.5,1-0.2,1.8,0.1,2.7
						c0.1,0.2,0.4,0.3,0.5,0.1c0.3-0.3,0.4-1.2,0.2-1.5C161.9,115.8,161.7,115.5,161.4,115z M252,115.4c0-0.4,0.1-0.8,0-1.1
						c-0.3-0.6-0.9-1.1-1.6-1.5c-0.2,0.5,0.1,0.9,0.3,1.2C250.9,114.6,251.2,115.3,252,115.4z M304.2,108.2c0-0.5,0.2-1-0.1-1.3
						c-0.4-0.4-0.8-0.8-1.3-1.3C302.4,106.6,302.4,106.9,304.2,108.2z M167.9,119c0-0.2-0.1-0.5-0.1-0.7c0.2-0.2,0.5-0.2,0.4-0.5
						c0-0.1,0.1-0.3,0.1-0.3c0.5-0.3,0.4-0.8,0.5-1.3c-0.2,0.2-0.4,0.2-0.5,0.3c-0.4,0.6-0.9,1.2-1.2,1.8c-0.1,0.2-0.1,0.5,0,0.6
						C167.2,119.1,167.5,119.3,167.9,119z M246,112.4c-0.2,0.4-0.4,0.7-0.5,1c-0.1,0.1,0,0.4,0,0.5c0.3,0.5,0.6,0.9,0.9,1.4
						c0.1,0.1,0.2,0.2,0.4,0.4C246.8,114.4,246.5,113.5,246,112.4z M44.2,111.4c0.1,0,0.1,0.1,0.2,0.1c0.3-0.5,0.6-1,1-1.4
						c0.5-0.6,0.5-1.2,0.2-1.9C45.1,109.3,44.2,110.2,44.2,111.4z M100,117.7c0.1-1.1-0.2-1.6-0.9-1.9c-0.5,0.9-0.5,1.3,0.3,2.3
						C99.6,118,99.8,117.8,100,117.7z M112.6,122.5c0.3-0.2,0.3-0.2,0.4-0.5c0.3-0.7,0-1.4-0.1-2.1c0-0.1-0.1-0.2-0.2-0.3
						c-0.1,0-0.1,0-0.2,0c0,0.3,0,0.6-0.1,1c0,0.3,0,0.6-0.1,0.8c-0.4,0.7-0.1,1.3,0.2,2C113.1,123,113.1,123,112.6,122.5z
						 M20.7,113.9c0.8-0.4,0.9-1,0.7-1.7c-0.2-0.5-0.3-1.1-0.4-1.6c0-0.1-0.1-0.2-0.3-0.5C20.7,111.4,20.7,112.6,20.7,113.9z
						 M-15.3,114c0.1,0,0.1-0.1,0.2-0.1c-0.4-0.8-0.2-1.7-0.8-2.5c-0.2,0.6-0.4,1.1-0.7,1.7C-16.1,113.4-15.7,113.7-15.3,114z
						 M53,119.3c0.2-0.5,0.3-1,0.5-1.5c0.2-0.8,0-1-0.8-1.1c0,0.5-0.1,0.9-0.1,1.4C52.5,118.5,52.5,119,53,119.3z M294.3,110.2
						c0.1,0,0.1-0.1,0.2-0.1c-0.2-0.7-0.3-1.4-0.5-2c-0.5-0.1-0.9-0.1-1.4-0.2c0,0.1-0.1,0.1-0.1,0.2
						C293.2,108.7,293.5,109.7,294.3,110.2z M260.7,113.9c-0.3-0.5-0.5-0.9-0.9-1.2c-0.4-0.3-0.4-0.9-0.8-1.2c0,0-0.1,0-0.2,0
						c0.1,0.5,0.1,1.1,0.2,1.6c0,0.2,0.3,0.4,0.5,0.4C259.8,113.7,260.2,113.8,260.7,113.9z M247.1,114.1c0.6-1.3,0.6-1.9-0.7-2.6
						C246.4,112.4,246.8,113.2,247.1,114.1z M9.1,113.8L9,113.7c-0.4,0.5-0.9,1-1.4,1.5c0.3,0.3,0.5,0.5,0.8,0.8
						C9.1,115.3,8.9,114.5,9.1,113.8z M137.5,119.3c0.6-1.2,0.5-1.8-0.3-2.3C136.8,118.4,136.8,118.5,137.5,119.3z M39,115.5
						c0.4-0.8,0.3-2-0.2-2.8c-0.4,0.5-0.5,1-0.2,1.8C38.7,114.8,38.8,115.2,39,115.5z M248.6,117.2c-0.1,1,0.1,1.7,0.4,2.4
						c0.2-0.1,0.3-0.2,0.5-0.3c0.2,0.4,0.4,0.7,0.5,1.1c0.1,0,0.1-0.1,0.2-0.1C249.9,119.2,249.2,118.3,248.6,117.2z M4.7,115
						c-0.9,0.5-0.9,0.8-0.2,1.7c0.2-0.3,0.5-0.7,0.7-1C5.4,115.3,5.1,115.1,4.7,115z M42.7,115.8c-0.2,0.3-0.4,0.6-0.5,1
						c0.3,0.4,0.6,0.8,1,1.4C43.2,117.2,43.5,116.4,42.7,115.8z M241.4,117.5c0.1,0,0.2,0,0.3,0c0-0.5,0.1-1.1,0-1.6
						c-0.1-0.5-0.3-1-0.5-1.5c-0.3,0.5-0.5,0.9-0.3,1.4c0.1,0.2,0.3,0.2,0.3,0.3C241.2,116.6,241.3,117.1,241.4,117.5z M20.9,109.2
						c0,0-0.1,0-0.1,0.1c0.3,1.2,0.6,2.4,0.9,3.6c0.5-0.2,0.5-0.4,0.3-0.7c-0.3-0.8-0.6-1.6-0.8-2.3C21.1,109.5,21,109.3,20.9,109.2
						z M189.9,116.3c-0.4,0.6-0.2,2.3,0.4,3.2C190.7,118.4,190.1,117.4,189.9,116.3z M53.7,116.6c0.3-0.9,0.5-1.8,0.7-2.6
						c0,0-0.1,0-0.1-0.1c-0.4,0.7-0.9,1.4-1.3,2.1C53.2,116.2,53.4,116.4,53.7,116.6z M0.3,113.4c0.9-0.9,1.3-2,0.9-2.5
						C0.9,111.7,0,112.3,0.3,113.4z M164,116c-0.4,0.7-0.1,1.5,0.6,2C164.9,117.3,164.7,116.5,164,116z M247.5,109.5
						c-0.2,0.4-0.5,0.8-0.7,1.1c0.3,0.3,0.5,0.8,0.9,1C248.1,110.6,248,110.5,247.5,109.5z M179.4,117.4c0.8-0.8,0.9-1.2,0.4-1.8
						C179,115.9,179,116,179.4,117.4z M46,118.4c0-0.2,0-0.3-0.1-0.4c-0.5-0.3-0.5-0.9-0.8-1.3c-0.3-0.5-0.6-0.9-0.9-1.4
						C44.6,116.9,45.1,117.8,46,118.4z M51.5,112.8c-0.1,0-0.1,0-0.2,0c-0.2,0.3-0.4,0.5-0.5,0.8c-0.1,0.2-0.1,0.4-0.1,0.6
						c0,0.3,0.2,0.5,0.5,0.5c0.2,0,0.4-0.3,0.4-0.5C51.6,113.7,51.5,113.2,51.5,112.8z M14.6,107.7c-0.2,1-0.4,1.9-0.2,2.8
						c0-0.5,0.7-0.8,0.5-1.3C14.8,108.8,15.2,108.2,14.6,107.7z M115.9,112.6c-0.1-1.9-0.2-2.3-0.6-2.7
						C114.9,110.8,115.3,111.7,115.9,112.6z M139.8,116.5c-0.1,0-0.1,0-0.2,0c-0.2,0.4-0.5,0.9-0.7,1.3c0.3,0.4,0.6,0.6,0.8,0.9
						c0.1,0,0.1,0,0.2-0.1C139.9,117.9,139.8,117.2,139.8,116.5z M-11.8,110.6c-0.2,0.8-0.7,1.6,0,2.5
						C-11.1,112.3-11.6,111.4-11.8,110.6z M47.9,108.9c-0.4,2.1-0.3,3.1,0.2,3.5C48,111.2,47.9,110.1,47.9,108.9z M21.8,114.4
						c-0.4,0.4-0.6,0.7-0.9,1c0.1,0.4,0.3,0.8,0.5,1.3C21.9,116,22,115.3,21.8,114.4z M142,123.2c0-0.4-0.2-0.8-0.6-1
						c-0.1,0.4-0.2,0.7-0.3,1c-0.1,0.3,0,0.6,0.3,0.8C141.6,123.8,141.8,123.6,142,123.2z M11.2,113.5c1.4-0.8,1.6-1.3,0.9-2.1
						c-0.2,0.5-0.4,0.9-0.7,1.4C11.3,113,11.3,113.2,11.2,113.5z M125.2,117.4c0.5-0.9,0-1.8-0.1-2.7
						C124.9,115.7,124.9,116.6,125.2,117.4z M248.1,115.7c0.1,0,0.1,0,0.2,0c0-0.8,0.2-1.7-0.6-2.4c-0.1,0.5-0.2,0.9-0.2,1.4
						c0.2,0,0.3,0.1,0.4,0.1C247.9,115.1,248,115.4,248.1,115.7z M156.2,118c0.6-1,0.7-1.9,0-2.9C156.2,116.1,156.2,117.1,156.2,118
						z M233.3,114.2c0.1-0.6-0.1-1.1-0.3-1.7c-0.3,0.4-0.5,0.7-0.8,1C232.5,113.8,232.7,114.2,233.3,114.2z M132.4,117.9
						c0.1-0.2,0.1-0.5,0.2-0.6c0.4-0.1,0.3-0.4,0.3-0.6c0-0.4-0.1-0.7-0.2-1.2C132.2,116.1,132.1,117.2,132.4,117.9z M35.9,119.4
						c-0.6,0.6-0.6,0.8-0.3,1.1c0.3,0.4,0.5,0.3,1-0.1C36.3,120.1,36.1,119.8,35.9,119.4z M117.4,116.3c0.1,0,0.1,0,0.2,0
						c0.4-1-0.1-1.9-0.7-2.7C117,114.4,117.2,115.3,117.4,116.3z M248.2,111.3h-0.1c0,0.3-0.1,0.7,0,0.9c0.4,0.6,0.8,1.1,1.3,1.6
						l0.1-0.1C249,112.9,248.6,112.1,248.2,111.3z M-14,114c0.1-0.2,0.2-0.3,0.2-0.5c-0.1-0.9-0.2-1.9-0.2-2.8
						C-14.3,112-14.3,113.4-14,114z M181.9,115.9c-0.1,0.7-0.3,1.5-0.5,2.4C182.4,117.5,182.4,116.8,181.9,115.9z M150.6,116.4
						c-1,0.6-1,1.4-0.1,1.8c0.3-0.2,0.2-0.5,0.1-0.7C150.4,117.2,150.3,116.8,150.6,116.4z M26.2,113.3c0-0.3,0-0.7,0-1
						c0-0.4-0.2-0.4-0.5-0.4C25.3,113,25.4,113.4,26.2,113.3z M132.7,111.5c0,1.1-0.4,2.1-0.2,3.3c0.1-0.3,0.2-0.4,0.2-0.6
						c0.1-0.4,0.2-0.8,0.2-1.1C132.8,112.5,132.7,112,132.7,111.5z M72.3,120.4c0.4-0.1,0.7-0.2,1-0.2c-0.2-0.5-0.4-1-1-1.1
						C72.3,119.5,72.3,119.9,72.3,120.4z M42.9,111.4c0.8-0.7,0.9-1.6,0.7-2.6C43.3,109.7,43.1,110.5,42.9,111.4z M230.2,115.5
						c0.6-0.7,0.6-1.1-0.1-2.2C230.1,114,230.1,114.7,230.2,115.5z M33.6,110.6c1.2-1.1,1.3-1.3,0.8-2.1
						C34.1,109.2,33.9,109.9,33.6,110.6z M260.5,115.1c0.1-0.3,0-0.5-0.2-0.7c-0.4-0.2-0.5-0.7-1.2-0.7
						C259.4,114.5,259.7,115,260.5,115.1z M152.8,117.8c-0.5,0.5-0.6,0.8-0.6,1.6C152.9,119.1,153,118.8,152.8,117.8z M202.8,114.5
						c-0.1,0-0.1,0.1-0.2,0.1c0.2,0.5-0.3,1.1,0.5,1.5c0.1-0.3,0.3-0.6,0.4-1C203.2,114.9,203,114.7,202.8,114.5z M101,113
						c-0.1,0-0.1,0-0.2,0.1c0.3,0.9,0.6,1.8,1,2.6c0.1,0,0.1,0,0.2-0.1C101.7,114.8,101.6,113.8,101,113z M58.1,111.7
						c0.1,0.7,0.2,1.2,0.6,1.7c0.2-0.5,0.3-0.8,0.4-1.2C58.8,112.1,58.6,112,58.1,111.7z M119,115.5c0.1,1,0.5,1.8,1.1,2.5
						C119.7,117.2,119.8,116.2,119,115.5z M-19.1,111.5c0.2,0.7,0.4,1.2,0.6,1.9C-18,112.3-18.2,112-19.1,111.5z M2,112.7
						c-0.4,0.6-0.4,1.1-0.4,1.8c0.7-0.4,0.7-0.4,0.5-1.2C2,113.1,2,113,2,112.7z M106,113.2c0.1,0.8,0.3,1.5,0.7,2.4
						C107.1,114.5,106.4,113.9,106,113.2z M296.3,107.8c-0.3-1-0.7-1.7-1.2-1.8C295.4,107,295.8,107.7,296.3,107.8z M306.2,109.3
						c-0.2-0.6-0.6-1-1.3-1.4C304.8,109,305.7,108.9,306.2,109.3z M163.4,117.3c0-0.7,0-1.3-0.3-2.1
						C162.9,115.9,163,116.8,163.4,117.3z M296.6,108.6c0.1,0.7,0.5,1.1,0.8,1.7c0.1-0.1,0.3-0.3,0.3-0.3
						C297.5,109.4,297.2,108.9,296.6,108.6z M160,117.3c0-0.4,0-0.7,0-1.1c0-0.1-0.1-0.2-0.2-0.2c-0.1,0-0.2,0.1-0.2,0.2
						C159.3,116.4,159.4,117,160,117.3z M229.2,114.3c-0.1,0-0.2-0.1-0.2-0.1c-0.3,0.6-0.5,1.2-0.8,1.9c0,0.1,0.1,0.2,0.2,0.4
						C228.7,115.6,228.9,114.9,229.2,114.3z M296.2,106.5c0.4,0.5,0.5,1.4,1.4,1.5C297.2,107.5,296.9,106.8,296.2,106.5z M36,110.4
						l-0.1-0.1c-0.1,0.1-0.3,0.3-0.4,0.4c-0.1,0.4-0.2,0.9,0.2,1.5C35.9,111.5,35.9,111,36,110.4z M11.8,114.7c0.1,0,0.1,0,0.2,0
						c0.1-0.5,0.3-0.9,0.5-1.4c-0.1,0-0.1-0.1-0.2-0.1c-0.3,0.2-0.5,0.5-0.8,0.7C11.6,114.3,11.7,114.5,11.8,114.7z M3.5,113
						c-0.3-0.4-0.6-0.8-1-1.2C2.5,113.3,2.7,113.4,3.5,113z M144.5,117.7c0.6-0.6,0.1-1.3,0.2-2C144.5,116.4,144.2,117,144.5,117.7z
						 M252.5,114.6c-0.1,0-0.1,0.1-0.2,0.1c0,0.3,0,0.6,0,0.8c0,0.3,0.3,0.4,0.5,0.3c0.1-0.1,0.3-0.4,0.2-0.5
						C252.9,115.1,252.7,114.9,252.5,114.6z M52.4,115.4c0.5-0.5,1-1.1,1.2-1.8C53.2,114.1,52.3,114.3,52.4,115.4z M74.3,117.4
						c0.6,0.1,0.7,0,0.8-0.3c0.1-0.4-0.1-0.6-0.6-0.7C74.5,116.7,74.4,117,74.3,117.4z M34,115.5c-0.1-0.1-0.1-0.1-0.2-0.2
						c-0.3,0.2-0.7,0.5-1.1,0.8c0.3,0.2,0.5,0.3,0.7,0.5C33.7,116.3,33.8,115.9,34,115.5z M5.5,112.1c-0.4,0.3-0.5,0.6-0.6,0.9
						c0.3,0.1,0.6,0.3,0.9,0.5C5.7,113,5.6,112.7,5.5,112.1z M153.1,114.8c0.4-0.4,0.8-0.9,0.9-1.7
						C153.2,113.5,153.2,114.2,153.1,114.8z M232.4,115.2c0,0,0.1,0,0.1-0.1c0-0.3,0.1-0.6,0-0.8s-0.4-0.4-0.6-0.6
						c-0.1,0-0.1,0.1-0.2,0.1C231.9,114.4,232.1,114.8,232.4,115.2z M278.9,103c0.3,0.6,0.8,0.9,1.2,1.2
						C280.2,103.5,280,103.3,278.9,103z M18.7,107.2c-0.4,0.6-0.4,1,0,1.5C19.1,108.5,19.1,108.3,18.7,107.2z M-14.8,108.6
						c-0.4,0.9-0.4,1.1,0,1.8C-14.8,109.8-14.8,109.2-14.8,108.6z M249.2,114.5c0.1,0.6,0.5,1.2,0.9,1.8
						C250.2,115.4,249.7,114.9,249.2,114.5z M13.1,110.5c0.5-0.9,0.6-1.3,0.3-1.7C13,109.3,12.9,109.8,13.1,110.5z M126.5,120.1
						c0.4-0.6,0.3-1.2-0.3-2C126.3,118.9,126.4,119.5,126.5,120.1z M230.8,114.4c0.6-0.7,0-1.2-0.2-1.8c-0.1,0-0.1,0-0.2,0
						C230.6,113.3,230.7,113.9,230.8,114.4z M218.4,113.1c-0.3,0.7-0.4,1-0.2,1.5C218.7,114.1,218.7,114.1,218.4,113.1z M196,113.7
						c-0.2,0.5-0.4,1,0.2,1.5C196.3,114.6,196.3,114.1,196,113.7z M15.4,108.9c-0.1,0-0.2,0-0.2,0.1c0.1,0.5,0.2,0.9,0.4,1.4
						c0.2-0.1,0.4-0.2,0.5-0.3C15.8,109.7,15.6,109.3,15.4,108.9z M164.8,119.3c0.4-0.4,0.5-0.9,0.4-1.6
						C164.7,118.2,164.6,118.7,164.8,119.3z M182.2,119.4c0.2-0.5,0.3-1,0.1-1.5C181.6,118.8,181.7,118.7,182.2,119.4z M2.2,115.2
						c-0.6,0.4-1.1,0.8-1,1.7C1.7,116.4,2,115.8,2.2,115.2z M34.6,117.3c0.3-0.5,0.2-1,0.2-1.6C34.1,116.8,34.1,116.9,34.6,117.3z
						 M26.9,112.9c0,0.6,0,0.9-0.1,1.3c0.1,0,0.1,0,0.2,0.1c0.2-0.2,0.4-0.5,0.6-0.7C27.4,113.3,27.2,113.2,26.9,112.9z
						 M281.5,106.3c-0.1,0-0.1,0.1-0.2,0.1c0,0.6,0.6,0.7,0.9,1c0,0,0.2-0.1,0.4-0.2C282.3,106.9,281.9,106.6,281.5,106.3z
						 M157.2,118.1c-0.4,0.6-0.4,0.8,0.2,1.3C157.6,118.9,157.5,118.5,157.2,118.1z M-14.9,116.9c-0.7,0.7-0.7,1-0.1,1.5
						C-15,117.9-15,117.5-14.9,116.9z M281.7,104.6c-0.4,0.9-0.3,1,0.5,1.1C282.1,105.3,281.9,104.9,281.7,104.6z M130.7,116.2
						c0.1,0,0.2,0,0.2,0c-0.1-0.6-0.1-1.2-0.2-1.8h-0.1C130.7,115,130.7,115.6,130.7,116.2z M118.1,113.6c-0.2,0.8,0.2,1.3,0.5,1.9
						C118.9,114.6,118.5,114.2,118.1,113.6z M70.4,112.8c-0.5,0.3-0.5,0.8-0.7,1.2c0.3-0.1,0.5-0.1,0.7-0.2
						C70.4,113.5,70.4,113.2,70.4,112.8z M51.5,117c0-0.5,0.1-0.9,0.1-1.4C51,115.9,51,115.9,51.5,117z M298,108.3
						c0.1-0.9,0.1-0.9-0.8-1.1C297.5,107.6,297.8,107.9,298,108.3z M128.5,119c-0.1,0-0.1,0-0.2,0c0,0.6,0.2,1.1,0.4,1.6
						c0.1,0,0.1,0,0.2-0.1C128.8,120.1,128.6,119.5,128.5,119z M69.1,112.9c-0.3,0.7-0.5,1.2-0.8,1.8
						C69,114.4,69.2,113.8,69.1,112.9z M236.1,118c0-0.2,0-0.4,0-0.6c-0.1-0.2-0.2-0.4-0.3-0.6C235.4,117.8,235.4,117.8,236.1,118z
						 M190.5,115.9c-0.2-0.5-0.3-1-0.5-1.5C189.8,115.1,189.7,115.6,190.5,115.9z M60.3,117c0.1-0.3,0.4-0.6,0.1-0.9
						c-0.5,0.3-0.7,0.7-0.6,0.9C60,117,60.1,117,60.3,117z M258.2,115.2c0.4-1,0.4-1.1-0.2-1.5C258.1,114.2,258.2,114.7,258.2,115.2
						z M19.4,110.5c0-0.5-0.1-1.1-0.4-1.6C18.8,109.3,18.9,109.7,19.4,110.5z M252.7,116.4c-0.2,0.5-0.2,0.9,0.2,1.3
						c0-0.2,0-0.4,0.1-0.5c0.1-0.1,0.2-0.2,0.3-0.4C253.1,116.7,252.9,116.6,252.7,116.4z M109.4,114.5c-0.3,0.6-0.2,1,0.2,1.5
						C109.6,115.4,109.5,114.9,109.4,114.5z M20.3,106.3c0-0.5,0.1-0.9,0.1-1.4C19.7,105.5,19.7,105.6,20.3,106.3z M13.2,116.9
						c0.1-0.7,0-1.1-0.2-1.4C12.8,116.4,12.8,116.5,13.2,116.9z M-10.5,111.4c-0.1,0-0.1,0-0.2,0c-0.2,0.5-0.3,1.1,0.1,1.8
						C-10.6,112.5-10.6,112-10.5,111.4z M249.3,115.8c-0.1,0-0.1,0-0.2,0.1c0.2,0.6,0.5,1.1,0.7,1.7c0.1,0,0.1,0,0.2-0.1
						C249.9,116.8,249.6,116.3,249.3,115.8z M56.9,115.4c-0.4,0.6-0.4,1-0.2,1.6C57,116.5,56.9,116,56.9,115.4z M289.3,102.8
						c0-0.8-0.4-1.2-1.1-1.4C288.6,102,288.9,102.3,289.3,102.8z M145.9,121.6c0.5-0.4,0.5-0.6-0.3-1.2
						C145.7,120.8,145.8,121.2,145.9,121.6z M280.9,104.8c0.2-0.7,0.2-0.7-0.4-1C280.3,104.3,280.5,104.6,280.9,104.8z M33.8,121.4
						c-0.3-0.2-0.5-0.4-0.8-0.6c-0.2,0.5,0.1,0.7,0.4,1C33.5,121.7,33.6,121.6,33.8,121.4z M188.3,112.2c-0.4,0.6-0.6,1.1-0.2,1.8
						C188.1,113.4,188.2,112.9,188.3,112.2z M245.7,111.4c-0.3,0.3-0.6,0.7-0.4,1.2C245.4,112.2,245.9,112,245.7,111.4z
						 M194.3,116.3c0.1,0.5-0.2,1,0.2,1.5C194.8,117.1,194.5,116.7,194.3,116.3z M98.5,117.6c-0.2,0.3-0.3,0.6-0.1,0.8
						c0.1,0.1,0.3,0,0.6,0C98.9,118.1,98.9,117.7,98.5,117.6z M25.6,109.2c0.1,0,0.2,0,0.3,0c0.1-0.6,0.2-1.3,0.3-1.9h-0.1
						C25.8,108,25.7,108.6,25.6,109.2z M176.4,116.6c-0.1-0.3-0.2-0.7-0.4-1.1C175.7,116.3,175.7,116.4,176.4,116.6z M195.6,120.5
						c-0.1-0.4-0.2-0.7-0.3-1h-0.1c-0.1,0.3-0.1,0.6-0.2,1C195.2,120.5,195.4,120.5,195.6,120.5z M144.1,118.4
						c0.1,0.6,0.2,1,0.3,1.4C144.5,119.4,144.8,118.9,144.1,118.4z M127.1,120.3c-0.5,0.4-0.5,0.6,0,1.1
						C127.1,121,127.1,120.6,127.1,120.3z M240.5,114.6c0.1-0.4,0.5-0.7,0.2-1.1C240.6,113.8,240.2,114.1,240.5,114.6z M286.5,107.6
						c-0.4-0.8-0.5-0.9-1.2-0.6C285.7,107.2,286,107.4,286.5,107.6z M288.4,107.7c0.1,0.4,0.2,0.8,0.4,1.1
						C289.1,108.3,288.9,108,288.4,107.7z M61.1,116.8c0.2,0,0.3,0.1,0.4,0.1c0,0,0.1,0,0.1-0.1c0.2-0.3-0.1-0.6-0.2-1
						C61.3,116.3,61.2,116.5,61.1,116.8z M126.2,114.7c-0.3,0.7-0.3,0.7,0.1,1.1C126.2,115.4,126.2,115,126.2,114.7z M304.8,106.6
						c0,0.7,0.4,0.9,0.9,1.1C305.4,107.4,305.1,107,304.8,106.6z M249.2,117.4c0.1,0,0.1,0,0.2-0.1c-0.1-0.4-0.2-0.7-0.4-1.2
						C248.5,116.8,249,117.1,249.2,117.4z M186.7,117.9h-0.1c0,0.7,0,1.5,0,2.2h0.1C186.7,119.4,186.7,118.6,186.7,117.9z
						 M73.8,116.3c-0.1-0.1-0.1-0.1-0.2-0.2c-0.3,0-0.5-0.1-0.9-0.2c0.2,0.3,0.3,0.5,0.5,0.9C73.4,116.6,73.6,116.5,73.8,116.3z
						 M28.9,125.2c-0.4,0-0.7,0.2-0.6,0.5c0,0.3,0.2,0.3,0.5,0.2C28.8,125.7,28.8,125.5,28.9,125.2z M61.9,114.8
						c0.3-0.1,0.4-0.2,0.7-0.3c-0.2-0.2-0.4-0.4-0.5-0.5c-0.1,0-0.1,0-0.2,0.1C61.9,114.3,61.9,114.5,61.9,114.8z M-21.1,116.4
						c-0.1,0.5-0.2,0.9,0.4,1.2C-20.7,117.2-20.6,116.8-21.1,116.4z M36,108.8c-0.8,0.6-0.9,0.7-0.8,1.3
						C35.5,109.6,35.8,109.2,36,108.8z M167.5,123.2c-0.7,0.1-0.7,0.1-0.5,0.9C167.2,123.7,167.3,123.5,167.5,123.2z M178.7,117.4
						c-0.1,0-0.1,0.1-0.2,0.1c0.1,0.3,0.2,0.5,0.4,0.9C179.2,117.7,179.2,117.7,178.7,117.4z M296.5,109.6c-0.2-1-0.3-1-0.8-1.1
						C296,108.9,296.2,109.3,296.5,109.6z M50.2,115c-0.5,0.5-0.5,0.5-0.2,0.9C50.3,115.6,50.2,115.3,50.2,115z M9.6,113.1
						c-0.1,0.5-0.1,1-0.2,1.5C9.8,114.2,9.8,113.7,9.6,113.1z M31.8,117.9c-0.2,0.7-0.2,0.7,0.6,0.8C32.1,118.4,32,118.2,31.8,117.9
						z M165.8,117.5c0.1,0,0.1,0,0.2,0c0.4-0.6,0.4-0.7,0.2-1.2C165.9,116.8,165.8,117.1,165.8,117.5z M299.7,110
						c0.4-0.6,0.4-0.7-0.3-1C299.5,109.3,299.6,109.6,299.7,110z M117.6,122.6c0,0.4,0,0.7,0,1.2C118.1,123.3,117.9,123,117.6,122.6
						z M234.8,116c-0.4,0.5-0.4,0.5,0,0.9C235.1,116.5,235.2,116.3,234.8,116z M197.9,116.7c0.6-0.1,0.6-0.2,0.4-1.2
						C198.2,115.9,198.1,116.3,197.9,116.7z M247.5,115.5c-0.1,0.7-0.1,0.7,0.3,1.2C247.7,116.3,247.9,115.8,247.5,115.5z
						 M-15.3,110.4c-0.4,0.6-0.4,0.6,0,1.1C-15.3,111.2-15.3,110.8-15.3,110.4z M219.8,115.4c0.4,0.2,0.6,0.3,1,0.5
						C220.7,115.2,220.7,115.2,219.8,115.4z M14.9,106.4c-0.4,0.4-0.2,0.7,0.2,0.9C15,107,14.9,106.7,14.9,106.4z M16.9,112
						c0,0.3,0,0.7,0,1.1C17.4,112.7,17.4,112.3,16.9,112z M19.1,111.2c-0.7,0.5-0.8,0.7-0.5,1.1C18.8,111.9,18.9,111.6,19.1,111.2z
						 M194.5,114.4c0.1,0,0.1,0,0.2,0c-0.1-0.4-0.2-0.8-0.3-1.2c-0.1,0-0.1,0-0.2,0C194.3,113.6,194.4,114,194.5,114.4z M30,113.1
						c0-0.3,0-0.6,0.1-0.9c-0.1,0-0.1,0-0.2,0C29.8,112.5,29.4,112.7,30,113.1z M54.6,116.3c-0.1,0-0.1,0-0.2,0c0,0.3-0.3,0.7,0.3,1
						C54.7,117,54.7,116.6,54.6,116.3z M166.2,115.5c0.5-0.6,0.5-0.6,0.3-1.3C166.5,114.7,166.4,115,166.2,115.5z M125.5,112.8
						c0.3-0.7,0.3-0.7-0.1-1.1C125.5,112.2,125.5,112.5,125.5,112.8z M96.9,116.1c-0.2,0.7-0.2,0.7,0.2,1
						C97.2,116.8,97.1,116.5,96.9,116.1z M178.9,114.1c-0.1,0.6-0.1,0.6,0.4,0.6C179.1,114.5,179,114.3,178.9,114.1z M-7.5,110.2
						c0.1,0,0.2,0,0.3-0.1c-0.1-0.3-0.2-0.6-0.3-0.9c-0.1,0-0.1,0-0.2,0.1C-7.7,109.6-7.6,109.9-7.5,110.2z M28.2,114.1
						c-0.5,0.3-0.5,0.4-0.5,1.1C27.8,114.7,28,114.4,28.2,114.1z M101.4,116.7c0.1,0,0.2-0.1,0.3-0.1c-0.1-0.2-0.2-0.5-0.3-0.7h-0.1
						C101.3,116.2,101.4,116.5,101.4,116.7z M-19.1,111c0.2,0.2,0.4,0.4,0.7,0.5c-0.1-0.3-0.1-0.5-0.2-0.8
						C-18.7,110.8-18.9,110.9-19.1,111z M273.4,109.4c-0.2,0.6-0.2,0.6,0.3,0.8C273.6,109.9,273.5,109.7,273.4,109.4z M197.3,116.6
						c-0.2-0.2-0.3-0.3-0.5-0.5C196.8,116.5,196.7,116.9,197.3,116.6z M36.5,117.8c-0.2,0.1-0.3,0.2-0.5,0.4
						c0.3,0.1,0.5,0.2,0.8,0.3C36.6,118.2,36.6,118,36.5,117.8z M187.8,115h0.1c-0.1-0.4-0.1-0.7-0.2-1.1c-0.1,0-0.1,0-0.2,0
						C187.6,114.3,187.7,114.7,187.8,115z M172.8,117.9c-0.2,0.4-0.1,0.6,0.2,0.9C173.2,118.4,173.2,118.1,172.8,117.9z
						 M309.4,107.5L309.4,107.5c-0.1-0.5-0.4-0.6-0.8-0.7C308.9,107.1,309.2,107.3,309.4,107.5z M167.1,121
						c-0.1-0.1-0.1-0.1-0.2-0.2c-0.3,0.1-0.5,0.3-0.5,0.7C166.7,121.3,166.9,121.2,167.1,121z M181.9,122.5c0.2-0.4,0.5-0.8,0.2-1.2
						C182,121.7,182,122.1,181.9,122.5z M129.4,116.6c-0.3,0.6-0.3,0.6,0.2,0.9C129.6,117.2,129.5,117,129.4,116.6z M165.2,123.8
						c0.3-0.5,0.3-0.5-0.1-1C165.2,123.2,165.2,123.5,165.2,123.8z M282.3,105.3c0.3,0.5,0.3,0.5,1,0.8
						C282.9,105.7,282.6,105.5,282.3,105.3z M198.7,115.1c0.1,0,0.1,0,0.2,0c0.1-0.4,0.1-0.7,0.2-1.1c-0.1,0-0.1,0-0.2,0
						C198.8,114.3,198.8,114.7,198.7,115.1z M41.6,115.9c0.5-0.4,0.5-0.4,0.5-0.9C41.9,115.3,41.7,115.6,41.6,115.9z M15,112.8
						c0,0.4,0.1,0.6,0.1,0.9C15.3,113.4,15.6,113.2,15,112.8z M32.1,117c0.2,0.2,0.4,0.5,0.6,0.7l0.1-0.1
						C32.6,117.3,32.5,117,32.1,117z M50.7,117.1c0.1,0,0.1,0,0.2,0c0-0.3,0.2-0.6-0.2-0.8C50.7,116.6,50.7,116.9,50.7,117.1z
						 M288.7,106.2l0.1-0.1c-0.2-0.2-0.5-0.5-0.7-0.7l-0.1,0.1C288.2,105.7,288.4,105.9,288.7,106.2z M1.6,119.5
						c0.1-0.2,0.2-0.5,0.4-0.7c-0.1,0-0.1-0.1-0.2-0.1C1.5,118.8,1.4,119.1,1.6,119.5z M19.7,113.4c0,0.3-0.1,0.6-0.2,1
						C20,114,20,114,19.7,113.4z M25.2,115c0.4-0.6,0.4-0.6,0-1.1C25.2,114.2,25.2,114.6,25.2,115z M166.9,117.5
						c-0.3,0.3-0.3,0.3-0.2,0.7C166.9,117.8,166.9,117.8,166.9,117.5z M114.4,119.7c0.1,0,0.1,0,0.2-0.1c-0.1-0.3-0.2-0.6-0.2-0.9
						c-0.1,0-0.1,0-0.2,0C114.3,119.1,114.3,119.4,114.4,119.7z M-21.5,113.5l0.1-0.1c-0.1-0.2-0.3-0.5-0.5-0.9
						C-22,113.1-21.6,113.3-21.5,113.5z M78.4,116c-0.4-0.6-0.4-0.6-0.8-0.1C77.9,115.9,78.1,115.9,78.4,116z M196.5,117.8
						c-0.3,0.4-0.3,0.4,0,0.8C196.5,118.3,196.5,118,196.5,117.8z M292.4,107.2c0-0.1,0.1-0.1,0.1-0.2c-0.2-0.2-0.3-0.4-0.6-0.4
						c0,0-0.1,0.1-0.1,0.2C292,107,292.2,107.1,292.4,107.2z M241,118.7c0.3-0.3,0.3-0.3,0-0.8C241,118.2,241,118.5,241,118.7z
						 M123.8,110.4c0.4-0.5,0.4-0.5,0-0.7C123.7,110,123.8,110.1,123.8,110.4z M171.9,119.3c-0.4,0.1-0.5,0.3-0.4,0.6
						C171.8,119.9,172,119.8,171.9,119.3z M232.5,117c-0.5-0.5-0.5-0.5-1-0.1C231.9,117,232.1,117,232.5,117z M-15.7,116.8
						c-0.3,0-0.5,0-0.8,0.1c0.2,0.2,0.3,0.3,0.5,0.5C-15.9,117.2-15.8,117-15.7,116.8z M21.1,107.1c-0.2,0.5-0.2,0.5,0.2,0.8
						C21.2,107.6,21.1,107.4,21.1,107.1z M156.8,121c0.1,0,0.1,0,0.2,0c0-0.2,0.1-0.5,0.1-0.7c-0.1,0-0.1,0-0.2,0
						C156.9,120.5,156.9,120.7,156.8,121z M229,115.7c0.5-0.1,0.5-0.1,0.3-0.8C229.2,115.2,229.1,115.5,229,115.7z M198.1,118
						c0.2-0.3,0.4-0.6-0.2-0.8C198,117.5,198.1,117.8,198.1,118z M34,124.1c0.1,0,0.2-0.1,0.2-0.1c0.1-0.3-0.1-0.5-0.6-0.6
						C33.8,123.7,33.9,123.9,34,124.1z M261.1,113.5c-0.2-0.5-0.2-0.5-0.6-0.6C260.7,113.1,260.9,113.3,261.1,113.5z M64,115.5
						c-0.1,0.3-0.2,0.4-0.3,0.6c0.2,0,0.4,0,0.6,0C64.2,115.9,64.1,115.7,64,115.5z M2.9,117.2c0.1,0,0.1,0.1,0.2,0.1
						c0.1-0.3,0.2-0.6,0.3-0.9H3.3C3.1,116.6,3,116.9,2.9,117.2z M195.5,116.1c0.1,0,0.1,0,0.2,0.1c0.1-0.2,0.1-0.5,0.2-0.7h-0.1
						C195.7,115.7,195.6,115.9,195.5,116.1z M77.2,115.3c-0.7,0.2-0.7,0.2-0.5,0.5C76.9,115.7,77,115.6,77.2,115.3z M211.3,116.9
						c0.3-0.1,0.5-0.2,0.7-0.2c-0.2-0.2-0.3-0.3-0.5-0.5C211.4,116.4,211.4,116.6,211.3,116.9z M194.8,115.8
						c0.2-0.4,0.2-0.4-0.2-0.8C194.7,115.4,194.7,115.6,194.8,115.8z M29.8,121c0.1,0,0.2,0.1,0.2,0.1c0.1-0.2,0.1-0.5,0.2-0.7
						c0,0-0.1,0-0.1-0.1C30,120.6,29.9,120.8,29.8,121z M-12.3,115c0.1,0,0.2,0,0.3,0c0-0.3,0.1-0.5,0.1-0.8c-0.1,0-0.1,0-0.2,0
						C-12.2,114.5-12.3,114.8-12.3,115z M11,121.8c0.5,0,0.5-0.2,0.4-0.7C11.2,121.5,11.1,121.7,11,121.8z M50,118
						c0.1-0.4,0.1-0.6,0.2-0.9c-0.2,0.1-0.3,0.1-0.5,0.2C49.8,117.5,49.9,117.7,50,118z M78.2,115.1c-0.3-0.1-0.5-0.2-0.7-0.3
						C77.6,115.3,77.6,115.3,78.2,115.1z M29.1,116.7c-0.5,0.4-0.5,0.4-0.2,0.7C28.9,117.2,29,117,29.1,116.7z M-8.2,111.3
						c0,0.2-0.1,0.3-0.1,0.5C-7.9,111.8-8,111.6-8.2,111.3z M-13.6,115.1c-0.1-0.3-0.1-0.5-0.2-0.7
						C-14.1,114.8-14.1,114.9-13.6,115.1z M128.5,115.1c-0.1,0-0.1,0-0.2,0.1c0.1,0.2,0.1,0.4,0.2,0.7h0.1
						C128.6,115.6,128.5,115.4,128.5,115.1z M256.4,116.9c0.5-0.3,0.4-0.4,0.2-0.6c0,0-0.1,0-0.2,0
						C256.4,116.5,256.4,116.6,256.4,116.9z M257.3,116.3c0.2,0.2,0.3,0.3,0.6,0.5C258,116.2,257.7,116.2,257.3,116.3z M279.9,106.5
						c0.1,0,0.2,0,0.3,0c-0.1-0.2-0.1-0.4-0.1-0.6c-0.1,0-0.1,0-0.2,0C279.9,106,279.9,106.2,279.9,106.5z M-17.8,119
						c0.1,0,0.1-0.1,0.2-0.1c-0.1-0.2-0.3-0.3-0.4-0.5l-0.1,0.1C-18.1,118.7-17.9,118.8-17.8,119z M6.6,119.5c0.1,0,0.1-0.1,0.2-0.1
						c-0.1-0.2-0.2-0.3-0.3-0.5c-0.1,0-0.1,0.1-0.2,0.1C6.4,119.1,6.5,119.3,6.6,119.5z M189.9,111.5c0.1-0.4,0.3-0.6,0.1-0.9
						C189.8,110.8,189.9,111.1,189.9,111.5z M35.8,121.3c0.2,0.2,0.3,0.3,0.5,0.5C36.5,121.3,36.4,121.2,35.8,121.3z M181.9,120.4
						c-0.1,0-0.1,0-0.2,0c0,0.3,0,0.5,0.1,0.8h0.1C181.9,120.9,181.9,120.7,181.9,120.4z M27.2,114.9c-0.4,0.4-0.4,0.4-0.2,0.7
						C27,115.4,27.1,115.2,27.2,114.9z M5.1,116.3c-0.1,0.2-0.3,0.5-0.5,0.9C5.1,116.9,5.1,116.9,5.1,116.3z M166.7,121.8
						c-0.1,0.1-0.3,0.2-0.5,0.4C166.7,122.3,166.8,122.1,166.7,121.8z M24.3,110.8c0.2-0.4,0.2-0.4-0.2-0.5
						C24.2,110.5,24.2,110.7,24.3,110.8z M160,119.7C160,119.7,160.1,119.7,160,119.7c0.1-0.1,0.1-0.2,0.1-0.3
						c0-0.1-0.1-0.2-0.2-0.2c0,0-0.1,0-0.1,0.1C159.9,119.4,159.9,119.6,160,119.7z M-12.5,120h0.1c0-0.1,0.1-0.2,0.1-0.3
						c0-0.1-0.1-0.2-0.1-0.3h-0.1C-12.4,119.6-12.5,119.8-12.5,120z M267,110.6c0-0.1,0-0.1,0.1-0.2c-0.2,0-0.4-0.1-0.6-0.1
						c0,0,0,0.1,0,0.2C266.6,110.5,266.8,110.6,267,110.6z M243.2,112.4c0.1-0.4,0.1-0.4-0.3-0.7C243,112,243.1,112.2,243.2,112.4z
						 M264.1,111.9L264.1,111.9c0,0.2,0.1,0.4,0.2,0.5c0,0,0.1,0,0.3-0.1C264.3,112.2,264.2,112,264.1,111.9z M42.8,113.6
						c0.1,0,0.1,0.1,0.2,0.1c0.1-0.2,0.1-0.3,0.2-0.5c-0.1,0-0.1,0-0.2-0.1C43,113.3,42.9,113.5,42.8,113.6z M31.9,128.5
						c0,0.1,0,0.2,0,0.2c0.2,0,0.3,0,0.5,0.1c0-0.1,0-0.1,0-0.2C32.3,128.6,32.1,128.6,31.9,128.5z M-22.4,113.9
						c0-0.1,0.1-0.2,0.1-0.2c-0.2-0.1-0.3-0.1-0.4-0.2c0,0.1-0.1,0.2-0.1,0.2C-22.6,113.8-22.5,113.9-22.4,113.9z M3.5,117.5
						c0.3-0.1,0.7-0.2,0.2-0.6C3.6,117.1,3.6,117.3,3.5,117.5z M196.8,115.1c-0.1,0-0.1,0-0.2,0c0.1,0.2,0,0.5,0.4,0.6
						C196.9,115.5,196.8,115.3,196.8,115.1z M235.1,115.6c0.1,0.1,0.1,0.1,0.2,0.2c0.1-0.2,0.2-0.4,0.3-0.6l-0.1-0.1
						C235.4,115.3,235.2,115.5,235.1,115.6z M22.5,114.9c0.1,0,0.1,0,0.2,0c0-0.2,0-0.3,0-0.5c0,0-0.1-0.1-0.2-0.1
						C22.5,114.6,22.5,114.8,22.5,114.9z M73.1,120.6c-0.1-0.1-0.2-0.1-0.2-0.1c-0.1,0.1-0.1,0.1-0.2,0.2l0.1,0.1
						C72.9,120.8,73,120.7,73.1,120.6z M53.5,121.3c0.4-0.5,0.4-0.5,0.1-0.7C53.5,120.8,53.5,121,53.5,121.3z M250.5,114.2
						C250.5,114.2,250.4,114.2,250.5,114.2c0,0.3-0.2,0.6,0.3,0.6C250.6,114.6,250.6,114.4,250.5,114.2z M119.9,121.2
						c-0.1,0-0.1,0.1-0.2,0.1c0.1,0.2,0.1,0.4,0.2,0.6c0.1,0,0.1,0,0.2-0.1C120.1,121.6,120,121.4,119.9,121.2z M122.8,115.2
						c0.1,0,0.1,0,0.2,0c0-0.2-0.1-0.4-0.1-0.6h-0.1C122.8,114.7,122.8,114.9,122.8,115.2z M24.2,105.8
						C24.2,105.8,24.1,105.8,24.2,105.8c-0.1,0.2-0.1,0.4-0.1,0.7c0,0,0,0,0.1,0C24.2,106.2,24.2,106,24.2,105.8z M6.5,117.5
						c-0.1,0-0.1-0.1-0.2-0.1c-0.1,0.2-0.2,0.4-0.3,0.6l0.1,0.1C6.3,117.9,6.4,117.7,6.5,117.5z M32.5,114.9
						c-0.2-0.1-0.4-0.1-0.7-0.2c0.2,0.3,0.3,0.5,0.4,0.6C32.3,115.1,32.4,115,32.5,114.9z M34.1,122.8c0-0.5,0-0.5-0.4-0.4
						C33.9,122.6,34,122.7,34.1,122.8z M307.9,107.6L307.9,107.6c-0.1-0.2-0.2-0.4-0.4-0.5l-0.1,0.1
						C307.6,107.3,307.7,107.4,307.9,107.6z M15.5,108.4c0.1,0,0.1-0.1,0.2-0.1c-0.1-0.2-0.2-0.4-0.3-0.7c-0.1,0-0.1,0-0.1,0.1
						C15.3,107.9,15.4,108.2,15.5,108.4z M163.3,119.4c0.1,0,0.1,0,0.2,0c0-0.1-0.1-0.3-0.1-0.4c-0.1,0-0.1,0-0.2,0
						C163.3,119.1,163.3,119.2,163.3,119.4z M-9.1,115.8c-0.1,0-0.1-0.1-0.1-0.1c-0.1,0.1-0.1,0.3-0.2,0.4c0,0,0.1,0,0.1,0.1
						C-9.2,116-9.1,115.9-9.1,115.8z M251.7,118.8c0.1,0,0.2-0.1,0.2-0.1c-0.1-0.1-0.1-0.3-0.2-0.4c0,0-0.1,0-0.2,0.1
						C251.6,118.6,251.6,118.7,251.7,118.8z M254.8,116.2c-0.1,0-0.1,0-0.2,0c0,0.2,0,0.3,0.1,0.5c0.1,0,0.1,0,0.2,0
						C254.9,116.5,254.9,116.3,254.8,116.2z M68.3,115.7c0.3-0.4,0.2-0.5-0.2-0.7C68.1,115.3,68.2,115.4,68.3,115.7z M-18.1,114.3
						C-18,114.3-18,114.3-18.1,114.3c0.1-0.2,0.1-0.5,0.1-0.7h-0.1C-18.1,113.9-18.1,114.1-18.1,114.3z M244,113.4
						c0.1,0,0.2-0.1,0.2-0.1c-0.1-0.2-0.1-0.3-0.2-0.5c-0.1,0-0.1,0-0.2,0.1C243.9,113,244,113.2,244,113.4z M266.5,112
						C266.5,112,266.6,112,266.5,112c0-0.3,0-0.5-0.1-0.6c0,0-0.1,0-0.1,0.1C266.3,111.7,266.4,111.9,266.5,112z M246.8,118.7h0.1
						c0-0.1,0-0.2,0-0.3c0-0.1,0-0.2-0.1-0.3c-0.1,0.1-0.1,0.1-0.2,0.2C246.7,118.4,246.8,118.5,246.8,118.7z M73.6,114.5
						c-0.1,0.1-0.1,0.1-0.2,0.2c0.1,0.1,0.2,0.2,0.3,0.3l0.1-0.1C73.8,114.7,73.7,114.6,73.6,114.5z M273,112.4c0-0.4,0-0.6-0.5-0.6
						C272.7,112.1,272.8,112.2,273,112.4z M49.4,118.4c0,0-0.1,0-0.1,0.1c0.1,0.2,0.2,0.4,0.2,0.6c0.1,0,0.1,0,0.2-0.1
						C49.6,118.7,49.5,118.5,49.4,118.4z M28.4,119.7c0.3-0.1,0.4-0.3,0.2-0.7C28.6,119.3,28.5,119.5,28.4,119.7z M273,111.3
						L273,111.3c0-0.2,0-0.4-0.1-0.5c0,0-0.1,0-0.1,0.1C272.9,111,273,111.1,273,111.3z M166.8,119.5c0.2,0.1,0.2,0.2,0.3,0.1
						c0.1,0,0.1-0.1,0.2-0.2c-0.1-0.1-0.1-0.2-0.2-0.2C167,119.3,166.9,119.4,166.8,119.5z M273.5,110.5c-0.1,0-0.1,0.1-0.2,0.1
						c0.1,0.1,0.1,0.3,0.2,0.4c0,0,0.1,0,0.1-0.1C273.6,110.7,273.6,110.6,273.5,110.5z M-8.5,110c-0.1,0-0.1,0-0.2,0
						c-0.1,0.2-0.2,0.3,0.2,0.5C-8.5,110.3-8.5,110.2-8.5,110z M25.9,110.3l0.1,0.1c0.1-0.1,0.3-0.3,0.4-0.4l-0.1-0.1
						C26.2,110.1,26,110.2,25.9,110.3z M12.1,109.6l0.1,0.1c0.1-0.2,0.2-0.4,0.2-0.6c0,0-0.1,0-0.1-0.1
						C12.2,109.3,12.2,109.5,12.1,109.6z M48.8,109.1C48.7,109.1,48.7,109.1,48.8,109.1c-0.1,0.2-0.1,0.3,0,0.5l0,0
						C48.8,109.5,48.8,109.3,48.8,109.1z M9.6,118c-0.1,0-0.1-0.1-0.2-0.1c-0.1,0.2-0.2,0.3-0.3,0.5l0.1,0.1
						C9.4,118.3,9.5,118.2,9.6,118z M48,116.3C48.1,116.3,48.1,116.3,48,116.3c0.1-0.2,0.1-0.4,0.1-0.6H48
						C48,115.9,48,116.1,48,116.3z M168.4,120.9c-0.1-0.1-0.1-0.1-0.2-0.1c-0.1,0-0.1,0.1-0.1,0.1l0.1,0.1
						C168.3,121.1,168.4,121,168.4,120.9z M-7.9,107.9c0,0-0.1,0-0.1,0.1s0.1,0.3,0.1,0.4h0.1C-7.8,108.2-7.8,108.1-7.9,107.9z
						 M173.1,123.2h0.1c0-0.1,0-0.2-0.1-0.4c-0.1,0-0.1,0-0.2,0.1C173,123,173,123.1,173.1,123.2z M190.9,118
						C190.9,117.9,190.9,117.9,190.9,118c0.1-0.1,0.1-0.3,0-0.4c0-0.1-0.1-0.2-0.1-0.3h-0.1C190.7,117.6,190.8,117.8,190.9,118z
						 M279,107.7c0.4,0.2,0.4,0.2,0.5-0.2C279.3,107.5,279.1,107.6,279,107.7z M19.4,119.2c-0.1-0.1-0.1-0.2-0.2-0.2
						c0,0-0.1,0-0.2,0c0,0.1,0.1,0.2,0.1,0.3C19.1,119.3,19.2,119.2,19.4,119.2z M113.6,116.8c0,0,0.1,0,0.1-0.1
						c-0.1-0.1-0.1-0.2-0.2-0.3h-0.1C113.5,116.5,113.6,116.6,113.6,116.8z M179.3,113.7L179.3,113.7c0,0.2,0,0.3,0.1,0.4
						c0,0,0.1,0,0.1-0.1C179.3,113.9,179.3,113.8,179.3,113.7z M267.4,111.1C267.4,111.2,267.3,111.2,267.4,111.1
						c0,0.2,0,0.3,0.1,0.3c0,0,0.1,0,0.1-0.1C267.6,111.3,267.5,111.2,267.4,111.1z M113.3,119.2c0,0.1-0.1,0.2-0.1,0.2
						c0,0.1,0.1,0.1,0.1,0.2c0-0.1,0.1-0.1,0.1-0.2C113.4,119.4,113.3,119.3,113.3,119.2z M1.9,118.1c0.1,0,0.1,0.1,0.2,0.1
						c0.1-0.1,0.1-0.3,0.2-0.4c0,0-0.1,0-0.1-0.1C2.1,117.9,2,118,1.9,118.1z M280.6,107.1c0.1,0,0.1-0.1,0.2-0.1
						c-0.1-0.2-0.1-0.3-0.2-0.5c-0.1,0-0.1,0-0.2,0C280.5,106.8,280.5,107,280.6,107.1z M20.7,115.9h-0.1c0,0.1-0.1,0.2,0,0.3
						c0,0.1,0.1,0.2,0.2,0.2c0,0,0.1,0,0.1-0.1C20.8,116.1,20.7,116,20.7,115.9z M240,115.3L240,115.3c-0.1,0.2-0.1,0.4-0.1,0.6
						c0.1,0,0.1,0,0.2,0C240,115.7,240,115.5,240,115.3z M76.2,120.6c0.1-0.1,0.2-0.2,0.2-0.3c0-0.1-0.1-0.2-0.2-0.2
						c-0.1,0-0.1,0.1-0.2,0.2C76,120.4,76.1,120.5,76.2,120.6z M190,110.3L190,110.3c0.1-0.2,0.1-0.3,0.1-0.5H190
						C190.1,110,190,110.2,190,110.3z M125,109.4c-0.3,0.2-0.4,0.3,0,0.6C124.9,109.7,124.9,109.6,125,109.4z M204.7,115.2
						c-0.1,0.2-0.2,0.2-0.2,0.3s0.1,0.1,0.2,0.2c0,0,0.2-0.1,0.1-0.1C204.8,115.5,204.8,115.4,204.7,115.2z M23.7,117.9
						c-0.1,0-0.1-0.1-0.2-0.1s-0.1,0.1-0.2,0.2c0.1,0.1,0.1,0.1,0.2,0.2C23.5,118.1,23.6,118.1,23.7,117.9z M19,105.7
						c0.1,0,0.1,0,0.2,0c0-0.2,0.1-0.3,0.1-0.4c0,0-0.1,0-0.2,0C19,105.4,19,105.5,19,105.7z M14.1,105.3
						C14.2,105.3,14.2,105.3,14.1,105.3c0.1-0.1,0.2-0.2,0.2-0.2c0-0.1-0.1-0.2-0.1-0.3h-0.1C14.1,105,14.1,105.2,14.1,105.3z
						 M-8.3,113c0.1,0,0.1,0,0.2,0c0-0.1,0.1-0.2,0.1-0.3h-0.1C-8.2,112.8-8.2,112.9-8.3,113z M306.4,107.9c0.1-0.1,0.1-0.1,0.2-0.2
						c-0.1-0.1-0.2-0.2-0.3-0.3c0,0-0.1,0-0.2,0.1C306.2,107.6,306.3,107.8,306.4,107.9z M278.8,108.9l0.1-0.1
						c-0.1-0.1-0.2-0.2-0.3-0.3c0,0.1-0.1,0.1-0.1,0.2C278.5,108.7,278.6,108.8,278.8,108.9z M76.3,117L76.3,117
						c0,0.2,0,0.3,0.1,0.4c0,0,0.1,0,0.1-0.1C76.4,117.2,76.4,117.1,76.3,117z M303.5,108.8c0.1-0.1,0.1-0.1,0.2-0.2
						c-0.1-0.1-0.2-0.2-0.4-0.3l-0.1,0.1C303.3,108.5,303.4,108.7,303.5,108.8z M59.1,117.5c0.1,0,0.1,0,0.2,0
						c0-0.2-0.1-0.3-0.1-0.5c-0.1,0-0.1,0-0.2,0C59,117.2,59.1,117.4,59.1,117.5z M196.1,117.1c-0.1,0-0.1,0-0.2,0
						c0,0.2,0,0.3,0,0.5h0.1C196.1,117.4,196.1,117.3,196.1,117.1z M179.6,118.5h0.1c0.1-0.2,0.1-0.3,0.2-0.5h-0.1
						C179.7,118.2,179.7,118.4,179.6,118.5z M13.7,112.3c-0.1,0-0.1,0-0.2,0c0,0.1-0.1,0.3-0.1,0.4h0.1
						C13.6,112.6,13.6,112.5,13.7,112.3z M29.6,113.7c-0.1,0-0.1-0.1-0.2-0.1c0,0.1-0.1,0.2-0.1,0.3c0.1,0,0.2,0.1,0.2,0.1
						C29.5,113.9,29.5,113.8,29.6,113.7z M5,111.9l0.1,0.1c0.1-0.1,0.2-0.2,0.2-0.3l-0.1-0.1C5.1,111.7,5.1,111.8,5,111.9z
						 M284.2,107.7l0.1-0.1c-0.1-0.1-0.2-0.2-0.3-0.3l-0.1,0.1C284,107.5,284.1,107.6,284.2,107.7z M274.7,108.7c0,0,0.1,0,0.1-0.1
						c-0.1-0.2-0.2-0.3-0.3-0.5c0,0-0.1,0-0.1,0.1C274.5,108.4,274.6,108.5,274.7,108.7z"/>
					<path class="st4" d="M270.6,104.7c-0.4-0.4-1.9-0.9-1.9-1.6C269.4,103.2,270.5,103.8,270.6,104.7z"/>
					<path class="st4" d="M-12.1,107.5c-0.5-0.3-0.5-0.8-0.7-1.3C-12.6,106.7-12.3,107.1-12.1,107.5z"/>
					<path class="st4" d="M200.8,109.9c0.2-0.3,0.4-0.5,0.5-0.8c0.1,0,0.8-0.6,0.8-0.5C201.9,108.8,201,109.6,200.8,109.9
						L200.8,109.9z"/>
					<path class="st4" d="M265.5,109.1c0.3,0.2,0.5,0.4,0.8,0.6l0,0C266.1,109.5,265.8,109.3,265.5,109.1L265.5,109.1z"/>
					<path class="st4" d="M58.3,110.7c0-0.2,0-0.5,0-0.7c0.1,0,0.1,0,0.2,0C58.4,110.2,58.3,110.5,58.3,110.7
						C58.2,110.7,58.3,110.7,58.3,110.7z"/>
					<path class="st4" d="M296,105.8c-0.1-0.2-0.3-0.3-0.5-0.6C295.9,105.5,295.9,105.5,296,105.8L296,105.8z"/>
					<path class="st4" d="M265.5,109.1c-0.2-0.1-0.4-0.2-0.6-0.3c0-0.1,0.1-0.1,0.1-0.2C265.2,108.8,265.4,108.9,265.5,109.1
						L265.5,109.1z"/>
					<path class="st4" d="M39.8,106.9c-0.2,0.2-0.3,0.4-0.5,0.6C39.5,107.3,39.7,107.1,39.8,106.9z"/>
					<path class="st4" d="M37.3,110.2c0.2-0.2,0.3-0.4,0.5-0.7C37.6,109.7,37.5,109.9,37.3,110.2z"/>
					<path class="st4" d="M59.9,113.8c0.2-0.2,0.3-0.4,0.5-0.7C60.2,113.3,60,113.5,59.9,113.8z"/>
				</g>
				<g>
					<path class="st4" d="M70.8,131.6c3.6-0.9,3.8-6.2,3.8-6.7s-0.2-1.7-0.3-2.1c0,0-2.4-28.6-2.7-32.6c-0.4-4-2-6.6-4.2-9.1
						c-2.2-2.5-2.7-4.5-3-6.7c-0.4-2.2-1.8-6.5-3.5-9.5c-1.6-2.7-2.2-4.9-2.7-7.2c-0.2-1.2,0.2-1.3,0.6-1.5c0.4-0.2,0.3-0.7,0.3-0.7
						s-1.8-11.9-2-13.3c-0.2-1.5-1.5-1.7-1.5-1.7L45,41.4c0,0-1.2,0.4-1.2,1.9S44,56.8,44,56.8s0,0.5,0.4,0.7s0.9,0.2,0.8,1.4
						c0,2.3-0.3,4.5-1.4,7.5c-1.2,3.2-1.9,7.7-1.9,9.9c0,2.2-0.1,4.3-1.9,7.1c-1.8,2.8-2.9,5.7-2.6,9.6c0.3,4,2.7,32.6,2.7,32.6
						c0,0.4,0,1.6,0,2.1c0.1,0.5,1.1,5.7,4.8,6L70.8,131.6z"/>
					<path class="st2" d="M43,51.6c-0.1,0-2,0.3-2.5,2c-0.3,0.9-0.5,2.3-0.6,3.6c0.1,0.2,0.1,0.4,0.2,0.5c0.2,0.6,0.4,1.2,0.6,1.4
						c0-0.5,0.1-0.8,0.2-1c0.1-1.4,0.3-3.3,0.7-4.3c0.3-1,1.5-1.3,1.6-1.3h0.4v-1L43,51.6L43,51.6z"/>
					<path class="st2" d="M44.9,59.2c-0.3-0.1-1.1-0.5-1.5-0.7l0.4,0.8l-0.3,0.1c0.4,0.2,1.2,0.5,1.4,0.6
						C44.9,59.8,44.9,59.6,44.9,59.2z"/>
					<path class="st2" d="M39.1,58c0.4,1.1,0.6,1.9,1.4,2.2c0.1,0,0.1,0,0.2,0c0-0.3,0-0.6,0-0.9c-0.3-0.2-0.5-0.8-0.7-1.6
						c-0.1-0.2-0.2-0.5-0.2-0.7c-0.4-1.1,0-4.7,0.2-6.1c0-0.1,1.4-9,1.6-10.3c0.1-1,0.9-1.1,1-1.1l2.3-0.2c-0.1-0.2-0.2-0.5-0.3-0.8
						l-2,0.2c-0.5,0.1-1.6,0.5-1.8,1.9C40.4,41.9,39,50.8,39,50.9c-0.1,0.5-0.6,5-0.1,6.4C39,57.5,39,57.8,39.1,58z"/>
					<path class="st2" d="M43.2,58.5L41.9,59c0,0.2,0,0.5,0,1l1.7-0.7L43.2,58.5z"/>
					<path class="st2" d="M42,57.9L42,57.9c-0.2-0.1-0.5-0.1-0.6,0c-0.3,0.2-0.6,0.7-0.4,4c0,0.1,0.1,0.2,0.1,0.3
						c0.1,0.1,0.2,0.1,0.3,0.1c0.2,0,0.4-0.2,0.4-0.5c-0.1-1.8-0.1-2.6,0-3h0.1l1.2-0.5C42.6,58.2,42.3,58.1,42,57.9L42,57.9z"/>
					<path class="st2" d="M63.2,55.2c-0.3-1.2-0.8-2.6-1.2-3.4c-0.8-1.6-2.7-1.6-2.8-1.6l0,0h-0.5l0.2,1h0.4c0.1,0,1.3,0,1.8,1
						c0.5,0.9,1,2.8,1.4,4.1c0.1,0.2,0.2,0.5,0.4,0.9c0.2-0.2,0.2-0.8,0.3-1.5C63.1,55.6,63.2,55.4,63.2,55.2z"/>
					<path class="st2" d="M60,57.1c-0.4,0.2-1.3,0.9-1.5,1.1c0.1,0.3,0.1,0.6,0.2,0.9c0.2-0.1,1.1-0.8,1.4-1L59.8,58L60,57.1z"/>
					<path class="st2" d="M61.6,57.4l-1.3-0.3L60,57.9l1.7,0.4C61.7,57.9,61.6,57.6,61.6,57.4z"/>
					<path class="st2" d="M57.7,38.3c0.1,0,0.9,0,1.2,1c0.4,1.2,3,9,3.3,9.8l0,0c0.4,1.3,1.3,4.8,1.1,6c0,0.3-0.1,0.5-0.1,0.8
						c-0.1,0.8-0.2,1.5-0.5,1.7c0.1,0.2,0.1,0.5,0.2,0.9c0.1,0,0.1,0,0.2-0.1c0.7-0.4,0.8-1.2,1-2.3l0,0c0-0.2,0.1-0.5,0.1-0.7
						c0.2-1.5-1-5.8-1.2-6.3c0-0.1-2.9-8.6-3.3-9.9c-0.4-1.3-1.6-1.6-2.1-1.5l-2,0.2c-0.1,0.3-0.1,0.6-0.2,0.9L57.7,38.3z"/>
					<path class="st2" d="M62.2,60.1c0,0.2,0.2,0.4,0.5,0.4c0.1,0,0.2-0.1,0.3-0.2c0.1-0.1,0.1-0.2,0.1-0.3
						c-0.3-3.3-0.7-3.7-1.1-3.9c-0.2-0.1-0.4,0-0.6,0.1l0,0l0,0c-0.3,0.2-0.6,0.4-0.9,0.6l1.2,0.3h0.1C61.8,57.6,62,58.4,62.2,60.1z
						"/>
					<path class="st2" d="M45.2,39.9c-0.5,0.4-0.9,0.8-0.9,1c0,0.1,0.3,0.2,0.5,0.2l10.8-0.9c0.2-0.1,0.4-0.2,0.4-0.3
						s-0.5-0.5-1-0.8L45.2,39.9z"/>
					<path class="st2" d="M55,38.8c0.1-0.3,0.6-1.5,0.4-4.1c0-0.2-0.2-0.4-0.5-0.4l-10.5,0.9c-0.2,0-0.4,0.3-0.4,0.5
						c0.2,2.5,0.9,3.7,1.1,3.9L55,38.8z"/>
				</g>
			</g>
		</g>
	</g>
</g>
</svg>
