<?xml version="1.0" encoding="utf-8"?>
<!-- Generator: Adobe Illustrator 16.0.0, SVG Export Plug-In . SVG Version: 6.00 Build 0)  -->
<!DOCTYPE svg PUBLIC "-//W3C//DTD SVG 1.1//EN" "http://www.w3.org/Graphics/SVG/1.1/DTD/svg11.dtd">
<svg version="1.1" id="simbolos" xmlns="http://www.w3.org/2000/svg" xmlns:xlink="http://www.w3.org/1999/xlink" x="0px" y="0px"
	 width="140px" height="140px" viewBox="6 5 140 140" style="enable-background:new 6 5 140 140;" xml:space="preserve">
<style type="text/css">
<![CDATA[
	.st0{fill:none;stroke:#447f3b;stroke-width:1.1486;stroke-miterlimit:10;}
	.st1{fill:none;stroke:#447f3b;stroke-width:1.1486;stroke-miterlimit:10;}
	.st2{fill:none;stroke:#447f3b;stroke-width:1.1486;stroke-miterlimit:10;}
	.st3{fill:#447f3b;}
	.st4{fill-rule:evenodd;clip-rule:evenodd;fill:#447f3b;}
]]>
</style>
<g>
	<g>
		<g>
			<circle class="st2" cx="76" cy="75" r="63.6"/>
			<circle class="st0" cx="76" cy="75" r="69.3"/>
		</g>
		<g>
			<circle class="st1" cx="76" cy="75" r="63.6"/>
			<circle class="st1" cx="76" cy="75" r="69.3"/>
		</g>
	</g>
	<g>
		<ellipse transform="matrix(1 -3.122502e-03 3.122502e-03 1 -0.3524 0.2429)" class="st3" cx="77.6" cy="113" rx="17.8" ry="3.5"/>
		<g>
			<path class="st3" d="M64.2,113c0-1.8,6.8-3.3,15.6-3.6c-0.7,0-1.5,0-2.2,0c-9.8,0-17.8,1.6-17.8,3.6c0,2,8,3.5,17.8,3.5
				c0.8,0,1.5,0,2.2,0C71.1,116.3,64.2,114.8,64.2,113z"/>
		</g>
		<path class="st3" d="M79.5,109c-0.2-1.7-0.5-5,0.1-10.2c0.8-7.8,4.5-11.2,5.2-11.6c14.5-8.7,13.5-23.9,12.5-26.6
			c-2.8-7.3-3.3-16.5-3.4-18.8c-0.3-0.1-0.5-0.2-0.7-0.4c-4.8,0.7-12.9,0.1-15.4-0.1l0-0.1c0,0-0.1,0-0.4,0c-0.2,0-0.4,0-0.4,0v0.1
			c-2.5,0.2-10.8,0.9-15.6,0.2c-0.1,0.3-0.2,0.6-0.5,0.7c-0.1,2.7-0.6,11.5-3.3,18.6c-1,2.8-1.9,17.9,12.7,26.6
			c0.7,0.4,4.4,3.8,5.3,11.6c0.6,5.2,0.4,8.5,0.1,10.2c-8.2,0.2-14.5,1.6-14.5,3.3c0,1.8,7.4,3.3,16.5,3.2c9.1,0,16.5-1.5,16.5-3.3
			C94.1,110.6,87.7,109.2,79.5,109z"/>
		<g>
			<path class="st3" d="M58.3,60.8c2.9-7.7,3.3-17.2,3.4-19.4c-0.1,0-0.2,0-0.3,0c0,0.4-0.1,0.8-0.5,1.1c-0.1,3-0.7,11.4-3.3,18.2
				c-1,2.7-1.8,17.2,11.6,25.9C56.5,77.7,57.3,63.5,58.3,60.8z"/>
			<path class="st3" d="M69.2,86.6c0.5,0.3,0.9,0.6,1.4,1c-0.2-0.1-0.3-0.2-0.4-0.3C69.9,87.1,69.6,86.9,69.2,86.6z"/>
		</g>
		<g>
			<path class="st3" d="M96.6,60.7c-2.9-7.7-3.4-17.2-3.5-19.3c0.1,0,0.2,0,0.3-0.1c0,0.4,0.1,0.8,0.5,1.1c0.2,3,0.8,11.4,3.4,18.2
				c1,2.7,1.9,17.2-11.5,26C98.5,77.6,97.6,63.4,96.6,60.7z"/>
			<path class="st3" d="M85.8,86.6c-0.5,0.3-0.9,0.6-1.4,1c0.2-0.1,0.3-0.2,0.4-0.3C85.1,87,85.5,86.8,85.8,86.6z"/>
		</g>
		<g>
			<path class="st3" d="M96.2,61.4c-1-2.5-1.6-5.3-2.1-7.9c-0.6,1.7-7.8,3.1-16.5,3.1c-8.7,0-15.9-1.3-16.5-3
				c-0.5,2.6-1.1,5.4-2.1,7.9c-1,2.6-1.8,16.8,11.9,24.9c0.1,0.1,0.4,0.3,0.7,0.5c2.9,0.9,7.3,1.5,12.6-0.3c0.2-0.2,0.3-0.3,0.4-0.3
				C98.1,78.3,97.2,64,96.2,61.4z"/>
			<path class="st3" d="M94,52.8c-0.9-5.2-1-9.5-1-9.5c0,0,0,0,0,0c0-0.2-0.1-0.3-0.3-0.5c-1.4-1.4-7.7-2.5-15.2-2.4
				c-8.4,0-15.2,1.4-15.4,3c0,0,0,0,0,0c0,0,0,0.1,0,0.3c0,1-0.2,4.8-0.9,9.3c0,0.2-0.1,0.5-0.1,0.7c0.6,1.7,7.8,3,16.5,3
				c8.7,0,15.9-1.4,16.5-3.1C94.1,53.3,94,53.1,94,52.8z"/>
			<path class="st3" d="M89.5,53.6c0-0.2-0.1-0.5-0.1-0.7c-0.9-5.2-1-9.5-1-9.5c0,0,0,0,0,0c0-0.2-0.1-0.3-0.3-0.5
				c-1.1-1.1-5.1-2-10.3-2.3c0.8-0.1,1.5-0.1,2.3-0.1c-0.8,0-1.7,0-2.6,0c-1.7,0-3.4,0.1-4.9,0.2c5.2,0.3,9.2,1.2,10.3,2.3
				c0.2,0.2,0.3,0.3,0.3,0.5c0,0,0,0,0,0c0,0,0.1,4.3,1,9.5c0,0.2,0.1,0.5,0.1,0.7c0.2,0.9,0.4,1.8,0.6,2.7c1.9-0.2,3.6-0.4,5-0.8
				C89.7,54.9,89.6,54.2,89.5,53.6z"/>
			
				<ellipse transform="matrix(1 -3.112387e-03 3.112387e-03 1 -0.1317 0.2411)" class="st3" cx="77.4" cy="42.4" rx="16.5" ry="3.3"/>
		</g>
		<g>
			<circle class="st3" cx="72.8" cy="70.5" r="0.9"/>
			<path class="st3" d="M73.4,70.2c0,0.3-0.2,0.5-0.5,0.5c-0.3,0-0.5-0.2-0.5-0.4c0-0.2,0.2-0.4,0.5-0.4
				C73.2,69.8,73.4,70,73.4,70.2z"/>
			<g>
				<path class="st3" d="M72.1,70.4c0-0.3,0.1-0.5,0.3-0.7c-0.3,0.1-0.6,0.5-0.6,0.9c0,0.5,0.4,0.9,0.9,0.9c0.2,0,0.4-0.1,0.6-0.2
					c-0.1,0-0.2,0.1-0.3,0.1C72.5,71.3,72.1,70.9,72.1,70.4z"/>
			</g>
		</g>
		<g>
			<circle class="st3" cx="76.8" cy="70.6" r="1.1"/>
			<ellipse class="st3" cx="76.9" cy="70.3" rx="0.6" ry="0.6"/>
			<g>
				<path class="st3" d="M75.9,70.5c0-0.4,0.2-0.7,0.4-0.9c-0.4,0.2-0.7,0.6-0.7,1.1c0,0.6,0.5,1.1,1.1,1.1c0.3,0,0.5-0.1,0.7-0.3
					c-0.1,0-0.3,0.1-0.4,0.1C76.4,71.6,75.9,71.1,75.9,70.5z"/>
			</g>
		</g>
		<g>
			<circle class="st3" cx="83.2" cy="61.6" r="1.1"/>
			<path class="st3" d="M84,61.3c0,0.3-0.3,0.6-0.6,0.6c-0.3,0-0.6-0.2-0.6-0.6c0-0.3,0.3-0.5,0.6-0.5C83.8,60.7,84,61,84,61.3z"/>
			<g>
				<path class="st3" d="M82.4,61.5c0-0.3,0.2-0.7,0.4-0.9c-0.4,0.2-0.7,0.6-0.7,1c0,0.6,0.5,1.1,1.1,1.1c0.3,0,0.5-0.1,0.7-0.3
					c-0.1,0-0.3,0.1-0.4,0.1C82.9,62.6,82.4,62.1,82.4,61.5z"/>
			</g>
		</g>
		<g>
			<circle class="st3" cx="78.9" cy="62.7" r="0.6"/>
			<ellipse class="st3" cx="79" cy="62.5" rx="0.3" ry="0.3"/>
			<g>
				<path class="st3" d="M78.5,62.6c0-0.2,0.1-0.3,0.2-0.4c-0.2,0.1-0.4,0.3-0.4,0.5c0,0.3,0.3,0.6,0.6,0.6c0.1,0,0.3-0.1,0.4-0.1
					c-0.1,0-0.1,0-0.2,0C78.8,63.2,78.5,62.9,78.5,62.6z"/>
			</g>
		</g>
		<g>
			<circle class="st3" cx="83.6" cy="58.2" r="0.6"/>
			<ellipse class="st3" cx="83.7" cy="58" rx="0.3" ry="0.3"/>
			<g>
				<path class="st3" d="M83.2,58.1c0-0.2,0.1-0.3,0.2-0.4c-0.2,0.1-0.4,0.3-0.4,0.5c0,0.3,0.3,0.6,0.6,0.6c0.1,0,0.3-0.1,0.4-0.1
					c-0.1,0-0.1,0-0.2,0C83.4,58.6,83.2,58.4,83.2,58.1z"/>
			</g>
		</g>
		<g>
			<circle class="st3" cx="80.5" cy="58.6" r="0.6"/>
			<ellipse class="st3" cx="80.5" cy="58.4" rx="0.3" ry="0.3"/>
			<g>
				<path class="st3" d="M80,58.5c0-0.2,0.1-0.3,0.2-0.4c-0.2,0.1-0.4,0.3-0.4,0.5c0,0.3,0.3,0.6,0.6,0.6c0.1,0,0.3-0.1,0.4-0.1
					c-0.1,0-0.1,0-0.2,0C80.3,59,80,58.8,80,58.5z"/>
			</g>
		</g>
		<g>
			<path class="st3" d="M82.9,68.7c0,0.3-0.2,0.6-0.6,0.6c-0.3,0-0.6-0.3-0.6-0.6c0-0.3,0.2-0.6,0.6-0.6
				C82.6,68.1,82.8,68.4,82.9,68.7z"/>
			<ellipse class="st3" cx="82.4" cy="68.5" rx="0.3" ry="0.3"/>
			<g>
				<path class="st3" d="M81.9,68.6c0-0.2,0.1-0.3,0.2-0.4c-0.2,0.1-0.4,0.3-0.4,0.5c0,0.3,0.3,0.6,0.6,0.6c0.1,0,0.3,0,0.4-0.1
					c-0.1,0-0.1,0-0.2,0C82.1,69.1,81.9,68.9,81.9,68.6z"/>
			</g>
		</g>
		<g>
			<circle class="st3" cx="77.4" cy="77.1" r="0.6"/>
			<path class="st3" d="M77.8,76.9c0,0.2-0.1,0.3-0.3,0.3c-0.2,0-0.3-0.1-0.3-0.3c0-0.1,0.1-0.3,0.3-0.3
				C77.7,76.6,77.8,76.7,77.8,76.9z"/>
			<g>
				<path class="st3" d="M77,77c0-0.2,0.1-0.3,0.2-0.4c-0.2,0.1-0.4,0.3-0.4,0.5c0,0.3,0.3,0.6,0.6,0.6c0.1,0,0.3-0.1,0.4-0.1
					c-0.1,0-0.1,0-0.2,0C77.3,77.5,77,77.3,77,77z"/>
			</g>
		</g>
		<g>
			<circle class="st3" cx="67.4" cy="70" r="1.1"/>
			<ellipse class="st3" cx="67.6" cy="69.7" rx="0.6" ry="0.5"/>
			<g>
				<path class="st3" d="M66.7,69.8c0-0.3,0.2-0.6,0.4-0.8c-0.4,0.2-0.7,0.5-0.7,1c0,0.6,0.5,1.1,1.1,1c0.3,0,0.5-0.1,0.7-0.2
					c-0.1,0-0.2,0.1-0.4,0.1C67.1,70.9,66.7,70.4,66.7,69.8z"/>
			</g>
		</g>
		<g>
			<circle class="st3" cx="70" cy="63.1" r="0.8"/>
			<ellipse class="st3" cx="70.1" cy="62.8" rx="0.4" ry="0.4"/>
			<g>
				<path class="st3" d="M69.4,63c0-0.2,0.1-0.5,0.3-0.6c-0.3,0.1-0.5,0.4-0.5,0.7c0,0.4,0.4,0.8,0.8,0.8c0.2,0,0.4-0.1,0.5-0.2
					c-0.1,0-0.2,0.1-0.3,0.1C69.8,63.7,69.4,63.4,69.4,63z"/>
			</g>
		</g>
		<g>
			<path class="st3" d="M67.4,58.6c0,0.4-0.4,0.8-0.8,0.8c-0.4,0-0.8-0.3-0.8-0.8c0-0.4,0.4-0.8,0.8-0.8
				C67.1,57.8,67.4,58.2,67.4,58.6z"/>
			<ellipse class="st3" cx="66.8" cy="58.4" rx="0.4" ry="0.4"/>
			<g>
				<path class="st3" d="M66.1,58.5c0-0.2,0.1-0.5,0.3-0.6c-0.3,0.1-0.5,0.4-0.5,0.7c0,0.4,0.4,0.8,0.8,0.8c0.2,0,0.4-0.1,0.5-0.2
					c-0.1,0-0.2,0.1-0.3,0.1C66.4,59.3,66.1,58.9,66.1,58.5z"/>
			</g>
		</g>
		<g>
			<circle class="st3" cx="69.6" cy="66.5" r="0.7"/>
			<ellipse class="st3" cx="69.7" cy="66.3" rx="0.4" ry="0.4"/>
			<g>
				<path class="st3" d="M69.1,66.4c0-0.2,0.1-0.4,0.3-0.6c-0.3,0.1-0.5,0.4-0.5,0.7c0,0.4,0.3,0.7,0.7,0.7c0.2,0,0.3-0.1,0.5-0.2
					c-0.1,0-0.2,0.1-0.3,0.1C69.4,67.1,69.1,66.8,69.1,66.4z"/>
			</g>
		</g>
		<g>
			<path class="st3" d="M76.5,61c0,0.2-0.2,0.4-0.4,0.4c-0.2,0-0.4-0.2-0.4-0.4c0-0.2,0.2-0.4,0.4-0.4C76.3,60.6,76.5,60.8,76.5,61z
				"/>
			<ellipse class="st3" cx="76.2" cy="60.9" rx="0.2" ry="0.2"/>
			<g>
				<path class="st3" d="M75.8,60.9c0-0.1,0.1-0.2,0.1-0.3C75.8,60.7,75.7,60.8,75.8,60.9c-0.1,0.3,0.1,0.4,0.3,0.4
					c0.1,0,0.2,0,0.2-0.1c0,0-0.1,0-0.1,0C76,61.3,75.8,61.2,75.8,60.9z"/>
			</g>
		</g>
		<g>
			<circle class="st3" cx="70" cy="58.9" r="1.1"/>
			<ellipse class="st3" cx="70.2" cy="58.5" rx="0.6" ry="0.5"/>
			<g>
				<path class="st3" d="M69.2,58.7c0-0.3,0.2-0.6,0.4-0.9c-0.4,0.2-0.7,0.6-0.7,1c0,0.6,0.5,1.1,1.1,1.1c0.3,0,0.5-0.1,0.7-0.3
					c-0.1,0-0.3,0.1-0.4,0.1C69.7,59.8,69.2,59.3,69.2,58.7z"/>
			</g>
		</g>
		<g>
			<circle class="st3" cx="76.4" cy="58.5" r="0.8"/>
			<ellipse class="st3" cx="76.5" cy="58.2" rx="0.4" ry="0.4"/>
			<g>
				<path class="st3" d="M75.8,58.4c0-0.2,0.1-0.5,0.3-0.6c-0.3,0.1-0.5,0.4-0.5,0.7c0,0.4,0.4,0.8,0.8,0.8c0.2,0,0.4-0.1,0.5-0.2
					c-0.1,0-0.2,0.1-0.3,0.1C76.1,59.2,75.8,58.8,75.8,58.4z"/>
			</g>
		</g>
		<g>
			<circle class="st3" cx="73.8" cy="62.9" r="0.7"/>
			<ellipse class="st3" cx="74" cy="62.7" rx="0.4" ry="0.3"/>
			<g>
				<path class="st3" d="M73.3,62.8c0-0.2,0.1-0.4,0.3-0.6c-0.3,0.1-0.5,0.4-0.5,0.7c0,0.4,0.3,0.7,0.7,0.7c0.2,0,0.3-0.1,0.4-0.2
					c-0.1,0-0.2,0-0.3,0.1C73.6,63.5,73.3,63.2,73.3,62.8z"/>
			</g>
		</g>
		<g>
			<circle class="st3" cx="75.1" cy="66.6" r="0.6"/>
			<path class="st3" d="M75.5,66.5c0,0.2-0.1,0.3-0.3,0.3c-0.2,0-0.3-0.1-0.3-0.3c0-0.2,0.1-0.3,0.3-0.3
				C75.3,66.2,75.5,66.3,75.5,66.5z"/>
			<g>
				<path class="st3" d="M74.6,66.5c0-0.2,0.1-0.3,0.2-0.4c-0.2,0.1-0.4,0.3-0.4,0.5c0,0.3,0.3,0.6,0.6,0.6c0.1,0,0.3,0,0.4-0.1
					c-0.1,0-0.1,0-0.2,0C74.9,67.1,74.6,66.9,74.6,66.5z"/>
			</g>
		</g>
		<g>
			<circle class="st3" cx="84.6" cy="65.6" r="0.6"/>
			<ellipse class="st3" cx="84.7" cy="65.5" rx="0.3" ry="0.3"/>
			<g>
				<path class="st3" d="M84.2,65.5c0-0.2,0.1-0.3,0.2-0.4c-0.2,0.1-0.4,0.3-0.4,0.5c0,0.3,0.3,0.6,0.6,0.6c0.1,0,0.3-0.1,0.4-0.1
					c-0.1,0-0.1,0-0.2,0C84.4,66.1,84.2,65.9,84.2,65.5z"/>
			</g>
		</g>
		<g>
			<circle class="st3" cx="80" cy="66.3" r="0.6"/>
			<ellipse class="st3" cx="80.1" cy="66.1" rx="0.3" ry="0.3"/>
			<g>
				<path class="st3" d="M79.6,66.2c0-0.2,0.1-0.3,0.2-0.4c-0.2,0.1-0.4,0.3-0.4,0.5c0,0.3,0.3,0.6,0.6,0.6c0.1,0,0.3-0.1,0.4-0.1
					c-0.1,0-0.1,0-0.2,0C79.9,66.8,79.6,66.5,79.6,66.2z"/>
			</g>
		</g>
		<g>
			<path class="st3" d="M88.9,80.2c0,0.3-0.3,0.6-0.6,0.6c-0.3,0-0.6-0.3-0.6-0.6c0-0.3,0.3-0.6,0.6-0.6
				C88.6,79.7,88.9,79.9,88.9,80.2z"/>
			<ellipse class="st3" cx="88.4" cy="80.1" rx="0.3" ry="0.3"/>
			<g>
				<path class="st3" d="M87.9,80.1c0-0.2,0.1-0.3,0.2-0.4c-0.2,0.1-0.4,0.3-0.4,0.5c0,0.3,0.3,0.6,0.6,0.6c0.1,0,0.3-0.1,0.4-0.1
					c-0.1,0-0.1,0-0.2,0C88.2,80.7,87.9,80.5,87.9,80.1z"/>
			</g>
		</g>
		<g>
			<circle class="st3" cx="92.5" cy="74.2" r="0.6"/>
			<ellipse class="st3" cx="92.6" cy="74" rx="0.3" ry="0.3"/>
			<g>
				<path class="st3" d="M92.1,74.1c0-0.2,0.1-0.3,0.2-0.4c-0.2,0.1-0.4,0.3-0.4,0.5c0,0.3,0.3,0.6,0.6,0.6c0.1,0,0.3-0.1,0.4-0.1
					c-0.1,0-0.1,0-0.2,0C92.3,74.7,92.1,74.4,92.1,74.1z"/>
			</g>
		</g>
		<g>
			<circle class="st3" cx="92.9" cy="63" r="0.4"/>
			<ellipse class="st3" cx="92.9" cy="62.9" rx="0.2" ry="0.2"/>
			<g>
				<path class="st3" d="M92.6,63c0-0.1,0.1-0.2,0.1-0.3c-0.1,0.1-0.2,0.2-0.2,0.3c0,0.2,0.2,0.4,0.4,0.4c0.1,0,0.2,0,0.2-0.1
					c0,0-0.1,0-0.1,0C92.8,63.4,92.6,63.2,92.6,63z"/>
			</g>
		</g>
		<g>
			<circle class="st3" cx="93" cy="67.8" r="0.4"/>
			<ellipse class="st3" cx="93.1" cy="67.7" rx="0.2" ry="0.2"/>
			<g>
				<path class="st3" d="M92.8,67.8c0-0.1,0.1-0.2,0.1-0.3c-0.1,0.1-0.2,0.2-0.2,0.3c0,0.2,0.2,0.4,0.4,0.4c0.1,0,0.2,0,0.2-0.1
					c0,0-0.1,0-0.1,0C92.9,68.1,92.8,68,92.8,67.8z"/>
			</g>
		</g>
		<g>
			<circle class="st3" cx="94.7" cy="70.8" r="0.4"/>
			<ellipse class="st3" cx="94.8" cy="70.7" rx="0.2" ry="0.2"/>
			<g>
				<path class="st3" d="M94.5,70.7c0-0.1,0.1-0.2,0.1-0.3c-0.1,0.1-0.2,0.2-0.2,0.3c0,0.2,0.2,0.4,0.4,0.4c0.1,0,0.2,0,0.2-0.1
					c0,0-0.1,0-0.1,0C94.6,71.1,94.5,71,94.5,70.7z"/>
			</g>
		</g>
		<g>
			<circle class="st3" cx="90" cy="77.8" r="0.4"/>
			<ellipse class="st3" cx="90" cy="77.7" rx="0.2" ry="0.2"/>
			<g>
				<path class="st3" d="M89.7,77.8c0-0.1,0.1-0.2,0.1-0.3c-0.1,0.1-0.2,0.2-0.2,0.3c0,0.2,0.2,0.4,0.4,0.4c0.1,0,0.2,0,0.2-0.1
					c0,0-0.1,0-0.1,0C89.9,78.2,89.7,78,89.7,77.8z"/>
			</g>
		</g>
		<g>
			<path class="st3" d="M94.7,58.1c0,0.4-0.3,0.8-0.8,0.8c-0.4,0-0.8-0.3-0.8-0.8c0-0.4,0.4-0.8,0.8-0.8
				C94.3,57.3,94.7,57.6,94.7,58.1z"/>
			<ellipse class="st3" cx="94" cy="57.8" rx="0.4" ry="0.4"/>
			<g>
				<path class="st3" d="M93.3,57.9c0-0.2,0.1-0.5,0.3-0.6c-0.3,0.1-0.5,0.4-0.5,0.7c0,0.4,0.4,0.8,0.8,0.8c0.2,0,0.4-0.1,0.5-0.2
					c-0.1,0-0.2,0.1-0.3,0.1C93.7,58.7,93.3,58.4,93.3,57.9z"/>
			</g>
		</g>
		<g>
			<circle class="st3" cx="95.6" cy="64.9" r="0.5"/>
			<ellipse class="st3" cx="95.7" cy="64.7" rx="0.3" ry="0.2"/>
			<g>
				<path class="st3" d="M95.3,64.8c0-0.2,0.1-0.3,0.2-0.4c-0.2,0.1-0.3,0.3-0.3,0.5c0,0.3,0.2,0.5,0.5,0.5c0.1,0,0.2,0,0.3-0.1
					c-0.1,0-0.1,0-0.2,0C95.5,65.3,95.3,65.1,95.3,64.8z"/>
			</g>
		</g>
		<g>
			<circle class="st3" cx="66.8" cy="62" r="0.6"/>
			<ellipse class="st3" cx="66.9" cy="61.8" rx="0.3" ry="0.3"/>
			<g>
				<path class="st3" d="M66.4,61.9c0-0.2,0.1-0.3,0.2-0.4c-0.2,0.1-0.4,0.3-0.4,0.5c0,0.3,0.3,0.6,0.6,0.6c0.1,0,0.3-0.1,0.4-0.1
					c-0.1,0-0.1,0-0.2,0C66.7,62.4,66.4,62.2,66.4,61.9z"/>
			</g>
		</g>
		<g>
			<circle class="st3" cx="70.8" cy="75.1" r="0.6"/>
			<ellipse class="st3" cx="70.9" cy="74.9" rx="0.3" ry="0.3"/>
			<g>
				<path class="st3" d="M70.4,75c0-0.2,0.1-0.3,0.2-0.4c-0.2,0.1-0.4,0.3-0.4,0.5c0,0.3,0.3,0.6,0.6,0.6c0.1,0,0.3-0.1,0.4-0.1
					c-0.1,0-0.1,0-0.2,0C70.6,75.5,70.4,75.3,70.4,75z"/>
			</g>
		</g>
		<g>
			<circle class="st3" cx="75.4" cy="82.7" r="0.4"/>
			<ellipse class="st3" cx="75.5" cy="82.6" rx="0.2" ry="0.2"/>
			<g>
				<path class="st3" d="M75.1,82.7c0-0.1,0.1-0.2,0.1-0.3C75.1,82.4,75,82.6,75.1,82.7c-0.1,0.3,0.1,0.4,0.3,0.4
					c0.1,0,0.2,0,0.2-0.1c0,0-0.1,0-0.1,0C75.3,83,75.1,82.9,75.1,82.7z"/>
			</g>
		</g>
		<g>
			<circle class="st3" cx="74" cy="74" r="0.6"/>
			<ellipse class="st3" cx="74.1" cy="73.9" rx="0.3" ry="0.3"/>
			<g>
				<path class="st3" d="M73.6,73.9c0-0.2,0.1-0.3,0.2-0.4c-0.2,0.1-0.4,0.3-0.4,0.5c0,0.3,0.3,0.6,0.6,0.6c0.1,0,0.3,0,0.4-0.1
					c-0.1,0-0.1,0-0.2,0C73.8,74.5,73.6,74.3,73.6,73.9z"/>
			</g>
		</g>
		<g>
			<path class="st3" d="M73.7,79.1c0,0.3-0.3,0.6-0.6,0.6c-0.3,0-0.6-0.2-0.6-0.6c0-0.3,0.3-0.6,0.6-0.6
				C73.4,78.5,73.7,78.8,73.7,79.1z"/>
			<ellipse class="st3" cx="73.2" cy="78.9" rx="0.3" ry="0.3"/>
			<g>
				<path class="st3" d="M72.7,79c0-0.2,0.1-0.3,0.2-0.4c-0.2,0.1-0.4,0.3-0.4,0.5c0,0.3,0.3,0.6,0.6,0.6c0.1,0,0.3,0,0.4-0.1
					c-0.1,0-0.1,0-0.2,0C72.9,79.6,72.7,79.3,72.7,79z"/>
			</g>
		</g>
		<g>
			<circle class="st3" cx="72.2" cy="81.5" r="0.4"/>
			<ellipse class="st3" cx="72.2" cy="81.4" rx="0.2" ry="0.2"/>
			<g>
				<path class="st3" d="M71.8,81.5c0-0.1,0.1-0.3,0.2-0.3c-0.2,0.1-0.3,0.2-0.3,0.4c0,0.2,0.2,0.4,0.4,0.4c0.1,0,0.2,0,0.3-0.1
					c0,0-0.1,0-0.2,0C72,81.9,71.8,81.7,71.8,81.5z"/>
			</g>
		</g>
		<g>
			<circle class="st3" cx="78.8" cy="80.5" r="0.4"/>
			<ellipse class="st3" cx="78.9" cy="80.3" rx="0.2" ry="0.2"/>
			<g>
				<path class="st3" d="M78.5,80.4c0-0.1,0.1-0.3,0.2-0.3c-0.2,0.1-0.3,0.2-0.3,0.4c0,0.2,0.2,0.4,0.4,0.4c0.1,0,0.2,0,0.3-0.1
					c0,0-0.1,0-0.2,0C78.7,80.8,78.5,80.6,78.5,80.4z"/>
			</g>
		</g>
		<g>
			<circle class="st3" cx="69" cy="77.3" r="0.4"/>
			<ellipse class="st3" cx="69" cy="77.2" rx="0.2" ry="0.2"/>
			<g>
				<path class="st3" d="M68.7,77.3c0-0.1,0.1-0.2,0.2-0.3c-0.2,0.1-0.3,0.2-0.3,0.4c0,0.2,0.2,0.4,0.4,0.4c0.1,0,0.2,0,0.3-0.1
					c0,0-0.1,0-0.2,0C68.8,77.7,68.7,77.5,68.7,77.3z"/>
			</g>
		</g>
		<g>
			<circle class="st3" cx="83.3" cy="72.2" r="0.4"/>
			<ellipse class="st3" cx="83.4" cy="72.1" rx="0.2" ry="0.2"/>
			<g>
				<path class="st3" d="M83,72.2c0-0.1,0.1-0.2,0.2-0.3c-0.2,0.1-0.3,0.2-0.3,0.4c0,0.2,0.2,0.4,0.4,0.4c0.1,0,0.2,0,0.3-0.1
					c0,0-0.1,0-0.2,0C83.2,72.6,83,72.4,83,72.2z"/>
			</g>
		</g>
		<g>
			<circle class="st3" cx="81" cy="76.9" r="0.7"/>
			<ellipse class="st3" cx="81.1" cy="76.7" rx="0.4" ry="0.3"/>
			<g>
				<path class="st3" d="M80.5,76.8c0-0.2,0.1-0.4,0.2-0.5c-0.2,0.1-0.4,0.3-0.4,0.6c0,0.4,0.3,0.7,0.7,0.7c0.2,0,0.3-0.1,0.4-0.2
					c-0.1,0-0.2,0-0.2,0C80.8,77.5,80.5,77.2,80.5,76.8z"/>
			</g>
		</g>
		<g>
			<circle class="st3" cx="79.4" cy="74.2" r="0.7"/>
			<ellipse class="st3" cx="79.5" cy="74" rx="0.4" ry="0.3"/>
			<g>
				<path class="st3" d="M78.9,74.1c0-0.2,0.1-0.4,0.2-0.5c-0.2,0.1-0.4,0.3-0.4,0.6c0,0.4,0.3,0.7,0.7,0.7c0.2,0,0.3-0.1,0.4-0.2
					c-0.1,0-0.2,0-0.2,0C79.2,74.8,78.9,74.5,78.9,74.1z"/>
			</g>
		</g>
		<g>
			<circle class="st3" cx="66.8" cy="73.9" r="0.7"/>
			<ellipse class="st3" cx="66.9" cy="73.7" rx="0.4" ry="0.3"/>
			<g>
				<path class="st3" d="M66.3,73.8c0-0.2,0.1-0.4,0.2-0.5c-0.2,0.1-0.4,0.3-0.4,0.6c0,0.4,0.3,0.7,0.7,0.7c0.2,0,0.3-0.1,0.4-0.2
					c-0.1,0-0.2,0-0.2,0C66.6,74.5,66.3,74.2,66.3,73.8z"/>
			</g>
		</g>
		<g>
			<circle class="st3" cx="66" cy="65.3" r="0.4"/>
			<ellipse class="st3" cx="66" cy="65.2" rx="0.2" ry="0.2"/>
			<g>
				<path class="st3" d="M65.7,65.2c0-0.1,0.1-0.2,0.1-0.3C65.7,65,65.6,65.2,65.7,65.2c-0.1,0.3,0.1,0.4,0.3,0.4
					c0.1,0,0.2,0,0.2-0.1c0,0-0.1,0-0.1,0C65.9,65.6,65.7,65.4,65.7,65.2z"/>
			</g>
		</g>
		<g>
			<path class="st3" d="M79.4,86.8c0.2-0.2,0.3-0.3,0.4-0.3c13.6-8.2,12.7-22.4,11.7-25C91,59.8,90.4,58,90,56.3
				c-0.1-0.2-0.1-0.5-0.2-0.7c-1.4,0.3-3.1,0.6-5,0.8c0.4,1.8,0.9,3.5,1.5,5.2c1,2.6,1.9,16.8-11.7,25c-0.1,0.1-0.2,0.2-0.4,0.3
				c-0.6,0.2-1.2,0.4-1.8,0.5c2,0.5,4.5,0.8,7.5,0.4c-0.8-0.1-1.6-0.2-2.3-0.4C78.3,87.2,78.8,87,79.4,86.8z"/>
		</g>
		<g>
			<circle class="st3" cx="88" cy="57.7" r="1.1"/>
			<ellipse class="st3" cx="88.2" cy="57.4" rx="0.6" ry="0.5"/>
			<g>
				<path class="st3" d="M87.2,57.6c0-0.3,0.2-0.6,0.4-0.9c-0.4,0.2-0.7,0.6-0.7,1c0,0.6,0.5,1.1,1.1,1.1c0.3,0,0.5-0.1,0.7-0.3
					c-0.1,0-0.3,0.1-0.4,0.1C87.7,58.7,87.2,58.2,87.2,57.6z"/>
			</g>
		</g>
		<g>
			<circle class="st3" cx="90.4" cy="63" r="0.7"/>
			<path class="st3" d="M90.9,62.7c0,0.2-0.2,0.3-0.4,0.3c-0.2,0-0.4-0.1-0.4-0.3s0.2-0.3,0.4-0.3C90.7,62.4,90.9,62.6,90.9,62.7z"
				/>
			<g>
				<path class="st3" d="M89.9,62.8c0-0.2,0.1-0.4,0.2-0.5c-0.3,0.1-0.4,0.3-0.4,0.6c0,0.4,0.3,0.7,0.7,0.7c0.2,0,0.3-0.1,0.4-0.2
					c-0.1,0-0.2,0-0.2,0C90.2,63.5,89.9,63.2,89.9,62.8z"/>
			</g>
		</g>
		<g>
			<circle class="st3" cx="88.2" cy="65.9" r="0.6"/>
			<ellipse class="st3" cx="88.3" cy="65.8" rx="0.3" ry="0.3"/>
			<g>
				<path class="st3" d="M87.8,65.8c0-0.2,0.1-0.4,0.2-0.5c-0.2,0.1-0.4,0.3-0.4,0.6c0,0.3,0.3,0.6,0.6,0.6c0.1,0,0.3-0.1,0.4-0.1
					c-0.1,0-0.1,0-0.2,0C88.1,66.4,87.8,66.2,87.8,65.8z"/>
			</g>
		</g>
		<g>
			<circle class="st3" cx="90.5" cy="68.5" r="0.6"/>
			<ellipse class="st3" cx="90.6" cy="68.4" rx="0.3" ry="0.3"/>
			<g>
				<path class="st3" d="M90.1,68.5c0-0.2,0.1-0.4,0.2-0.5c-0.2,0.1-0.4,0.3-0.4,0.6c0,0.3,0.3,0.6,0.6,0.6c0.1,0,0.3-0.1,0.4-0.1
					c-0.1,0-0.1,0-0.2,0C90.4,69.1,90.1,68.8,90.1,68.5z"/>
			</g>
		</g>
		<g>
			<circle class="st3" cx="87.7" cy="72.8" r="0.6"/>
			<ellipse class="st3" cx="87.8" cy="72.6" rx="0.3" ry="0.3"/>
			<g>
				<path class="st3" d="M87.3,72.7c0-0.2,0.1-0.4,0.2-0.5c-0.2,0.1-0.4,0.3-0.4,0.6c0,0.3,0.3,0.6,0.6,0.6c0.1,0,0.3-0.1,0.4-0.1
					c-0.1,0-0.1,0-0.2,0C87.5,73.3,87.3,73,87.3,72.7z"/>
			</g>
		</g>
		<g>
			<circle class="st3" cx="88.1" cy="76.5" r="0.4"/>
			<path class="st3" d="M88.4,76.4c0,0.1-0.1,0.2-0.2,0.2s-0.2-0.1-0.2-0.2c0-0.1,0.1-0.2,0.2-0.2C88.3,76.2,88.4,76.3,88.4,76.4z"
				/>
			<g>
				<path class="st3" d="M87.8,76.4c0-0.1,0.1-0.2,0.1-0.3c-0.1,0.1-0.3,0.2-0.3,0.4c0,0.2,0.2,0.4,0.4,0.4c0.1,0,0.2,0,0.2-0.1
					c0,0-0.1,0-0.1,0C88,76.8,87.8,76.6,87.8,76.4z"/>
			</g>
		</g>
		<g>
			<circle class="st3" cx="85.5" cy="79" r="0.4"/>
			<ellipse class="st3" cx="85.6" cy="78.9" rx="0.2" ry="0.2"/>
			<g>
				<path class="st3" d="M85.2,78.9c0-0.1,0.1-0.2,0.1-0.3c-0.1,0.1-0.3,0.2-0.3,0.4c0,0.2,0.2,0.4,0.4,0.4c0.1,0,0.2,0,0.2-0.1
					c0,0-0.1,0-0.1,0C85.4,79.3,85.2,79.2,85.2,78.9z"/>
			</g>
		</g>
		<g>
			<path class="st3" d="M81.8,81.6c0,0.2-0.2,0.4-0.4,0.4s-0.4-0.2-0.4-0.4c0-0.2,0.2-0.4,0.4-0.4C81.7,81.2,81.8,81.3,81.8,81.6z"
				/>
			<ellipse class="st3" cx="81.5" cy="81.4" rx="0.2" ry="0.2"/>
			<g>
				<path class="st3" d="M81.2,81.5c0-0.1,0.1-0.2,0.1-0.3c-0.1,0.1-0.3,0.2-0.3,0.4c0,0.2,0.2,0.4,0.4,0.4c0.1,0,0.2,0,0.2-0.1
					c0,0-0.1,0-0.1,0C81.3,81.9,81.2,81.7,81.2,81.5z"/>
			</g>
		</g>
		<g>
			<circle class="st3" cx="81.2" cy="84.3" r="0.3"/>
			<path class="st3" d="M81.4,84.2c0,0.1-0.1,0.1-0.1,0.1c-0.1,0-0.1-0.1-0.1-0.1c0-0.1,0.1-0.1,0.1-0.1S81.4,84.1,81.4,84.2z"/>
			<g>
				<path class="st3" d="M81,84.2c0-0.1,0-0.2,0.1-0.2C81,84,80.9,84.1,81,84.2c-0.1,0.2,0,0.3,0.2,0.3c0.1,0,0.1,0,0.2-0.1
					c0,0-0.1,0-0.1,0C81.1,84.5,81,84.4,81,84.2z"/>
			</g>
		</g>
		<g>
			<circle class="st3" cx="85.5" cy="75.9" r="0.3"/>
			<path class="st3" d="M85.7,75.8c0,0.1-0.1,0.1-0.1,0.1c-0.1,0-0.1-0.1-0.1-0.1c0-0.1,0.1-0.1,0.1-0.1
				C85.6,75.6,85.7,75.7,85.7,75.8z"/>
			<g>
				<path class="st3" d="M85.3,75.8c0-0.1,0-0.2,0.1-0.2C85.3,75.6,85.2,75.7,85.3,75.8c-0.1,0.2,0.1,0.3,0.2,0.3
					c0.1,0,0.1,0,0.2-0.1c0,0-0.1,0-0.1,0C85.4,76.1,85.3,76,85.3,75.8z"/>
			</g>
		</g>
		<g>
			<circle class="st3" cx="77.9" cy="85.5" r="0.3"/>
			<ellipse class="st3" cx="77.9" cy="85.4" rx="0.1" ry="0.1"/>
			<g>
				<path class="st3" d="M77.7,85.4c0-0.1,0-0.2,0.1-0.2C77.7,85.2,77.6,85.3,77.7,85.4c-0.1,0.2,0,0.3,0.2,0.3c0.1,0,0.1,0,0.2-0.1
					c0,0-0.1,0-0.1,0C77.8,85.7,77.7,85.6,77.7,85.4z"/>
			</g>
		</g>
		<g>
			<circle class="st3" cx="84" cy="82.2" r="0.3"/>
			<ellipse class="st3" cx="84" cy="82.1" rx="0.1" ry="0.1"/>
			<g>
				<path class="st3" d="M83.8,82.1c0-0.1,0-0.2,0.1-0.2C83.8,82,83.7,82.1,83.8,82.1c-0.1,0.2,0,0.3,0.2,0.3c0.1,0,0.1,0,0.2-0.1
					c0,0-0.1,0-0.1,0C83.9,82.4,83.8,82.3,83.8,82.1z"/>
			</g>
		</g>
		<g>
			<path class="st3" d="M83.8,79.2c0,0.2-0.1,0.3-0.3,0.3c-0.2,0-0.3-0.1-0.3-0.3c0-0.1,0.1-0.3,0.3-0.3
				C83.7,79,83.8,79.1,83.8,79.2z"/>
			<ellipse class="st3" cx="83.6" cy="79.2" rx="0.1" ry="0.1"/>
			<g>
				<path class="st3" d="M83.3,79.2c0-0.1,0-0.2,0.1-0.2C83.3,79,83.3,79.1,83.3,79.2c-0.1,0.2,0,0.3,0.2,0.3c0.1,0,0.1,0,0.2-0.1
					c0,0-0.1,0-0.1,0C83.5,79.5,83.3,79.3,83.3,79.2z"/>
			</g>
		</g>
		<g>
			<circle class="st3" cx="90.1" cy="71" r="0.3"/>
			<ellipse class="st3" cx="90.2" cy="70.9" rx="0.1" ry="0.1"/>
			<g>
				<path class="st3" d="M90,71c0-0.1,0-0.2,0.1-0.2C90,70.8,89.9,70.9,90,71c-0.1,0.2,0,0.3,0.2,0.3c0.1,0,0.1,0,0.2-0.1
					c0,0-0.1,0-0.1,0C90.1,71.2,90,71.1,90,71z"/>
			</g>
		</g>
		<g>
			<path class="st3" d="M75.7,86.5C62,78.4,62.8,64.2,63.8,61.5c0.7-1.9,1.3-3.9,1.7-5.9c-2.5-0.5-4.1-1.2-4.4-2
				c-0.5,2.6-1.1,5.4-2.1,7.9c-1,2.6-1.8,16.8,11.9,24.9c0.1,0.1,0.4,0.3,0.7,0.5c2.1,0.6,4.9,1.1,8.3,0.7c-1.3-0.2-2.5-0.4-3.5-0.7
				C76,86.7,75.8,86.6,75.7,86.5z"/>
			<path class="st3" d="M65.5,55.6c0.1-0.7,0.3-1.3,0.4-2c0-0.2,0.1-0.5,0.1-0.7c0.7-4.5,0.9-8.3,0.9-9.3c0-0.2,0-0.3,0-0.3
				c0,0,0,0,0,0c0.2-1.5,5.8-2.7,13-3c-0.8,0-1.6,0-2.4,0c-8.4,0-15.2,1.4-15.4,3c0,0,0,0,0,0c0,0,0,0.1,0,0.3c0,1-0.2,4.8-0.9,9.3
				c0,0.2-0.1,0.5-0.1,0.7C61.3,54.4,63,55.1,65.5,55.6z"/>
		</g>
		<ellipse transform="matrix(1 -3.053014e-03 3.053014e-03 1 -0.1278 0.2365)" class="st3" cx="77.4" cy="42" rx="16.5" ry="3.3"/>
		<g>
			<path class="st3" d="M64.8,42c0-1.7,6.3-3.1,14.5-3.3c-0.6,0-1.3,0-1.9,0c-9.1,0-16.5,1.5-16.5,3.3c0,1.8,7.4,3.3,16.5,3.2
				c0.7,0,1.3,0,1.9,0C71.1,45.1,64.8,43.7,64.8,42z"/>
		</g>
		<path class="st3" d="M73,89.4c0,0,4.1-1.9,9.3,0C82.3,89.4,76.5,88.7,73,89.4z"/>
		<g>
			<path class="st3" d="M77.6,91.7c-3.8,0-4.8-1.6-4.8-1.6c2.3,4.1,2.9,10,3.1,13.1c-0.1-7.3,1.5-7.8,1.7-7.8c0.2,0,1.8,0.5,1.7,7.8
				c0.2-3,0.8-8.9,3.1-13C82.3,90,81.4,91.7,77.6,91.7z"/>
		</g>
		<g>
			<path class="st3" d="M72.8,90.1c2.3,4.1,2.9,10,3.1,13.1c0-1.2,0-2.2,0.1-3.1c-0.3-2.7-0.8-5.9-1.8-8.9
				C73.1,90.6,72.8,90.1,72.8,90.1z"/>
		</g>
		<g>
			<path class="st4" d="M76.4,114.6c0,0-3.2,0.4-7.2-0.1c-2-0.3-3.8-0.8-4.9-1.6c-1.2-0.8-0.8-2-0.8-1.9c-0.1-0.1-0.2,1,1,1.6
				c1.1,0.6,2.9,1,4.8,1.2C73.2,114.4,76.4,114.6,76.4,114.6z"/>
		</g>
		<g>
			<path class="st4" d="M78.5,111.5c0,0,1.6-0.1,3.5-0.6c0.2-0.1,0.5-0.2,0.5-0.3c0-0.2-0.3-0.3-0.4-0.4c-0.4-0.2-0.8-0.3-1.1-0.4
				c-0.6-0.2-1-0.3-1-0.3c0,0,0.4,0.1,1,0.2c0.3,0.1,0.7,0.2,1.1,0.4c0.2,0.1,0.4,0.2,0.5,0.5c0,0.4-0.4,0.4-0.6,0.5
				C80.1,111.5,78.5,111.4,78.5,111.5z"/>
		</g>
		<path class="st3" d="M76,109c0,0,1.1-2.2,1.1-4.2c0,0,0.4,3.9,2.3,4.6C79.3,109.4,76.9,110.5,76,109z"/>
		<g>
			<path class="st4" d="M76.5,110.4c0,0-0.8,0.1-1.8-0.2c-0.2,0-0.6-0.3-0.3-0.6c0.2-0.2,0.4-0.2,0.5-0.3c0.3-0.1,0.5-0.2,0.5-0.2
				s-0.2,0.1-0.5,0.2c-0.3,0.1-0.8,0.5-0.1,0.7C75.7,110.3,76.5,110.4,76.5,110.4z"/>
		</g>
		<g>
			<path class="st4" d="M83.9,114.8c0,0,2.3-0.2,5.1-0.9c1.4-0.3,2.6-0.8,3.3-1.4c0.8-0.6,0.7-1.3,0.7-1.2c0,0,0.2,0.7-0.6,1.3
				c-0.7,0.6-2,1.1-3.3,1.4C86.2,114.6,83.9,114.7,83.9,114.8z"/>
		</g>
		<g>
			<path class="st4" d="M85.1,111.9c0,0-3.2,0.8-7.3,0.9c-4.1,0.2-7.3-1-7.2-1.1c0,0.1,3.2,1,7.2,0.8
				C81.9,112.4,85.1,111.9,85.1,111.9z"/>
		</g>
		<g>
			<path class="st3" d="M84.5,84.9c-0.1,0.1-0.2,0.2-0.4,0.3c-5.2,1.7-9.6,1.1-12.6,0.3c-0.3-0.3-0.5-0.5-0.7-0.6
				c-9.7-5.8-12.1-14.7-12.3-20.3c-0.2,5.3,1.6,15.5,12.3,21.8c0.1,0.1,0.4,0.3,0.7,0.5c2.9,0.9,7.3,1.5,12.6-0.3
				c0.2-0.2,0.3-0.3,0.4-0.3C95.2,80,96.9,69.9,96.7,64.6C96.5,70.1,94.2,79.1,84.5,84.9z"/>
		</g>
		<g>
			<circle class="st3" cx="61.7" cy="56.7" r="0.8"/>
			
				<ellipse transform="matrix(0.1757 -0.9844 0.9844 0.1757 -5.0004 107.0875)" class="st3" cx="61.4" cy="56.5" rx="0.4" ry="0.4"/>
			<g>
				<path class="st3" d="M61.4,57.2c-0.2,0-0.4-0.2-0.5-0.4c0.1,0.3,0.3,0.5,0.6,0.6c0.4,0.1,0.8-0.2,0.9-0.6c0-0.2,0-0.4-0.1-0.5
					c0,0.1,0,0.2,0,0.3C62.2,57,61.9,57.3,61.4,57.2z"/>
			</g>
		</g>
		<g>
			<circle class="st3" cx="62.3" cy="61.6" r="0.5"/>
			
				<ellipse transform="matrix(0.8823 -0.4707 0.4707 0.8823 -21.5592 36.5213)" class="st3" cx="62.2" cy="61.4" rx="0.3" ry="0.3"/>
			<g>
				<path class="st3" d="M61.9,61.7c-0.1-0.1-0.1-0.3,0-0.4c-0.1,0.2-0.2,0.4-0.1,0.6c0.1,0.3,0.5,0.3,0.7,0.2
					c0.1-0.1,0.2-0.2,0.2-0.3c0,0-0.1,0.1-0.1,0.1C62.3,62,62,61.9,61.9,61.7z"/>
			</g>
		</g>
		<g>
			<circle class="st3" cx="59.7" cy="63.6" r="0.4"/>
			
				<ellipse transform="matrix(0.8803 -0.4744 0.4744 0.8803 -22.9765 35.9038)" class="st3" cx="59.7" cy="63.5" rx="0.2" ry="0.2"/>
			<g>
				<path class="st3" d="M59.4,63.7c-0.1-0.1-0.1-0.2,0-0.4c-0.1,0.1-0.1,0.3-0.1,0.5c0.1,0.2,0.4,0.3,0.6,0.2
					c0.1,0,0.2-0.1,0.2-0.2c0,0-0.1,0.1-0.1,0.1C59.7,64,59.5,63.9,59.4,63.7z"/>
			</g>
		</g>
		<g>
			<circle class="st3" cx="62" cy="66.7" r="0.4"/>
			<ellipse transform="matrix(0.8767 -0.4811 0.4811 0.8767 -24.3572 38.049)" class="st3" cx="62" cy="66.5" rx="0.2" ry="0.2"/>
			<g>
				<path class="st3" d="M61.7,66.8c-0.1-0.1-0.1-0.2,0-0.4c-0.1,0.1-0.1,0.3-0.1,0.5c0.1,0.2,0.4,0.3,0.6,0.2
					c0.1,0,0.2-0.1,0.2-0.2c0,0-0.1,0.1-0.1,0.1C62.1,67,61.8,67,61.7,66.8z"/>
			</g>
		</g>
		<g>
			<circle class="st3" cx="60.3" cy="70.5" r="0.3"/>
			<ellipse transform="matrix(0.878 -0.4787 0.4787 0.878 -26.3301 37.4638)" class="st3" cx="60.3" cy="70.4" rx="0.2" ry="0.2"/>
			<g>
				<path class="st3" d="M60.1,70.6c0-0.1,0-0.2,0-0.3C60,70.4,60,70.5,60.1,70.6c0,0.2,0.2,0.3,0.4,0.2c0.1,0,0.1-0.1,0.1-0.2
					c0,0-0.1,0.1-0.1,0.1C60.4,70.8,60.2,70.7,60.1,70.6z"/>
			</g>
		</g>
		<g>
			<path class="st3" d="M63.8,74.3c0.1,0.1,0,0.3-0.1,0.3c-0.1,0.1-0.3,0-0.3-0.1c-0.1-0.1,0-0.3,0.1-0.3
				C63.6,74.1,63.7,74.2,63.8,74.3z"/>
			<ellipse transform="matrix(0.878 -0.4786 0.4786 0.878 -27.824 39.4874)" class="st3" cx="63.6" cy="74.3" rx="0.1" ry="0.1"/>
			<g>
				<path class="st3" d="M63.4,74.5c0-0.1,0-0.1,0-0.2C63.3,74.3,63.3,74.4,63.4,74.5c0,0.2,0.2,0.2,0.3,0.2c0.1,0,0.1-0.1,0.1-0.1
					c0,0,0,0-0.1,0.1C63.6,74.6,63.5,74.6,63.4,74.5z"/>
			</g>
		</g>
		<g>
			<circle class="st3" cx="62.8" cy="71.4" r="0.2"/>
			<ellipse transform="matrix(0.8811 -0.473 0.473 0.8811 -26.2625 38.1771)" class="st3" cx="62.8" cy="71.3" rx="0.1" ry="0.1"/>
			<g>
				<path class="st3" d="M62.6,71.4c0-0.1,0-0.1,0-0.2C62.5,71.3,62.5,71.4,62.6,71.4c0,0.2,0.2,0.2,0.3,0.2c0.1,0,0.1-0.1,0.1-0.1
					c0,0,0,0-0.1,0.1C62.8,71.6,62.7,71.6,62.6,71.4z"/>
			</g>
		</g>
		<g>
			<circle class="st3" cx="61.5" cy="73.6" r="0.2"/>
			
				<ellipse transform="matrix(0.8795 -0.4758 0.4758 0.8795 -27.5688 38.1135)" class="st3" cx="61.5" cy="73.5" rx="0.1" ry="0.1"/>
			<g>
				<path class="st3" d="M61.3,73.6c0-0.1,0-0.1,0-0.2C61.2,73.5,61.2,73.6,61.3,73.6c0,0.2,0.2,0.2,0.3,0.2c0.1,0,0.1-0.1,0.1-0.1
					c0,0,0,0-0.1,0.1C61.5,73.8,61.4,73.8,61.3,73.6z"/>
			</g>
		</g>
		<g>
			<circle class="st3" cx="64.7" cy="78.3" r="0.2"/>
			<path class="st3" d="M64.9,78.4c0,0.1-0.1,0.1-0.2,0c-0.1,0-0.1-0.1,0-0.2c0-0.1,0.1-0.1,0.2,0C64.9,78.2,64.9,78.3,64.9,78.4z"
				/>
			<g>
				<path class="st3" d="M64.6,78.2c0-0.1,0.1-0.1,0.2-0.1C64.7,78.1,64.6,78.1,64.6,78.2c-0.2,0.1-0.1,0.3,0,0.3c0.1,0,0.1,0,0.2,0
					c0,0-0.1,0-0.1,0C64.5,78.5,64.5,78.3,64.6,78.2z"/>
			</g>
		</g>
		<g>
			<circle class="st3" cx="67.1" cy="80.1" r="0.2"/>
			
				<ellipse transform="matrix(0.8321 0.5547 -0.5547 0.8321 55.7054 -23.7929)" class="st3" cx="67.1" cy="80.1" rx="0.1" ry="0.1"/>
			<g>
				<path class="st3" d="M66.9,80c0-0.1,0.1-0.1,0.2-0.1C67,79.9,66.9,79.9,66.9,80c-0.2,0.1-0.1,0.3,0,0.3c0,0,0.1,0,0.2,0
					c0,0-0.1,0-0.1,0C66.9,80.3,66.9,80.1,66.9,80z"/>
			</g>
		</g>
		<g>
			<circle class="st3" cx="67.1" cy="81.6" r="0.2"/>
			
				<ellipse transform="matrix(0.8321 0.5547 -0.5547 0.8321 56.5416 -23.5587)" class="st3" cx="67.2" cy="81.6" rx="0.1" ry="0.1"/>
			<g>
				<path class="st3" d="M67,81.5c0-0.1,0.1-0.1,0.2-0.1C67.1,81.4,67,81.4,67,81.5c-0.2,0.1-0.1,0.3,0,0.3c0,0,0.1,0,0.2,0
					c0,0-0.1,0-0.1,0C66.9,81.8,66.9,81.6,67,81.5z"/>
			</g>
		</g>
		<g>
			<circle class="st3" cx="69.8" cy="83.6" r="0.3"/>
			
				<ellipse transform="matrix(0.8354 0.5497 -0.5497 0.8354 57.4639 -24.6708)" class="st3" cx="69.9" cy="83.6" rx="0.1" ry="0.1"/>
			<g>
				<path class="st3" d="M69.7,83.5c0-0.1,0.1-0.1,0.2-0.1C69.8,83.4,69.7,83.4,69.7,83.5c-0.2,0.1-0.1,0.3,0,0.3c0,0,0.1,0,0.2,0
					c0,0-0.1,0-0.1,0C69.7,83.8,69.6,83.6,69.7,83.5z"/>
			</g>
		</g>
		<g>
			<circle class="st3" cx="69.4" cy="82.1" r="0.3"/>
			<ellipse transform="matrix(0.8321 0.5547 -0.5547 0.8321 57.1821 -24.758)" class="st3" cx="69.5" cy="82.1" rx="0.1" ry="0.1"/>
			<g>
				<path class="st3" d="M69.3,82c0-0.1,0.1-0.1,0.2-0.1C69.4,81.8,69.2,81.9,69.3,82c-0.2,0.1-0.1,0.3,0,0.3c0.1,0,0.1,0,0.2,0
					c0,0-0.1,0-0.1,0C69.2,82.2,69.2,82.1,69.3,82z"/>
			</g>
		</g>
	</g>
</g>
</svg>
