<?xml version="1.0" encoding="utf-8"?>
<!-- Generator: Adobe Illustrator 16.0.0, SVG Export Plug-In . SVG Version: 6.00 Build 0)  -->
<!DOCTYPE svg PUBLIC "-//W3C//DTD SVG 1.1//EN" "http://www.w3.org/Graphics/SVG/1.1/DTD/svg11.dtd">
<svg version="1.1" id="simbolos" xmlns="http://www.w3.org/2000/svg" xmlns:xlink="http://www.w3.org/1999/xlink" x="0px" y="0px"
	 width="140px" height="140px" viewBox="6 5 140 140" style="enable-background:new 6 5 140 140;" xml:space="preserve">
<style type="text/css">
<![CDATA[
	.st0{fill:none;stroke:#447f3b;stroke-width:1.1486;stroke-miterlimit:10;}
	.st1{fill:none;stroke:#447f3b;stroke-width:1.1486;stroke-miterlimit:10;}
	.st2{fill:#447f3b;}
	.st3{fill:none;stroke:#447f3b;stroke-width:2.3943;stroke-miterlimit:10;}
]]>
</style>
<g>
	<g>
		<circle class="st1" cx="76" cy="75" r="63.6"/>
		<circle class="st0" cx="76" cy="75" r="69.3"/>
	</g>
	<g>
		<path class="st2" d="M66.3,115.6c3-0.5,3.5-4.7,3.5-5.2c0-0.4-0.1-1.4-0.1-1.7c0,0,0-23.3,0-26.6c0-3.2-1.2-5.5-2.8-7.6
			c-1.6-2.2-1.9-3.9-2-5.6c-0.2-1.8-1-5.4-2.2-7.9c-1.1-2.3-1.5-4.1-1.7-6c-0.1-1,0.2-1.1,0.6-1.2c0.3-0.2,0.3-0.6,0.3-0.6
			s-0.6-9.7-0.7-10.9c-0.1-1.2-1.1-1.5-1.1-1.5h-8.6c0,0-1,0.3-1.1,1.5c-0.1,1.2-0.7,10.9-0.7,10.9s0,0.4,0.3,0.6
			c0.3,0.2,0.7,0.2,0.6,1.2c-0.2,1.9-0.6,3.6-1.7,6c-1.2,2.5-2,6.1-2.2,7.9c-0.2,1.8-0.4,3.5-2,5.6c-1.6,2.2-2.8,4.4-2.8,7.6
			c0,3.2,0,26.6,0,26.6c0,0.3-0.1,1.3-0.1,1.7c0,0.4,0.5,4.7,3.5,5.2H66.3z"/>
		<path class="st2" d="M49.2,48.9c-0.1,0-1.6,0.1-2.2,1.5c-0.3,0.7-0.6,1.9-0.7,2.9c0,0.2,0.1,0.3,0.1,0.4c0.1,0.5,0.2,1,0.4,1.2
			c0.1-0.4,0.1-0.6,0.2-0.8c0.2-1.1,0.5-2.6,0.8-3.4c0.3-0.8,1.3-0.9,1.4-0.9h0.3l0.1-0.8L49.2,48.9L49.2,48.9z"/>
		<path class="st2" d="M50.2,55.3c-0.2-0.1-0.9-0.5-1.2-0.7l0.2,0.7l-0.2,0.1c0.3,0.1,0.9,0.5,1.1,0.6
			C50.1,55.7,50.2,55.5,50.2,55.3z"/>
		<path class="st2" d="M45.5,53.9c0.2,0.9,0.4,1.6,1,1.8c0,0,0.1,0,0.1,0c0-0.3,0-0.5,0.1-0.7c-0.2-0.1-0.3-0.6-0.5-1.3
			c0-0.2-0.1-0.4-0.1-0.6c-0.2-0.9,0.3-3.8,0.5-4.9c0-0.1,1.8-7.2,2-8.2c0.2-0.8,0.8-0.8,0.9-0.9l1.9,0c-0.1-0.2-0.1-0.4-0.2-0.7
			h-1.7c-0.4,0-1.3,0.3-1.6,1.4c-0.2,1-2,8.2-2,8.2c-0.1,0.4-0.8,4-0.5,5.2C45.5,53.5,45.5,53.7,45.5,53.9z"/>
		<path class="st2" d="M48.8,54.5l-1.1,0.4c0,0.2-0.1,0.4-0.1,0.8l1.4-0.5L48.8,54.5z"/>
		<path class="st2" d="M47.9,54L47.9,54c-0.2-0.1-0.4-0.1-0.5-0.1c-0.3,0.1-0.6,0.5-0.6,3.2c0,0.1,0,0.2,0.1,0.2s0.2,0.1,0.2,0.1
			c0.2,0,0.4-0.2,0.4-0.3c0-1.4,0.1-2.1,0.2-2.4l0.1,0l1-0.4C48.4,54.3,48.1,54.1,47.9,54L47.9,54z"/>
		<path class="st2" d="M65.2,53.2c-0.2-1-0.5-2.2-0.7-2.9c-0.5-1.4-2.1-1.4-2.2-1.5l0,0h-0.4l0.1,0.8h0.3c0.1,0,1.1,0.1,1.4,0.9
			c0.3,0.8,0.6,2.3,0.8,3.4c0.1,0.2,0.2,0.4,0.2,0.8c0.1-0.2,0.3-0.7,0.4-1.2C65.2,53.6,65.2,53.4,65.2,53.2z"/>
		<path class="st2" d="M62.5,54.6c-0.3,0.2-1.1,0.6-1.3,0.8c0,0.2,0.1,0.5,0.1,0.7c0.2-0.1,0.9-0.5,1.2-0.7l-0.2-0.1L62.5,54.6z"/>
		<path class="st2" d="M63.8,54.9l-1.1-0.4l-0.2,0.7l1.4,0.5C63.8,55.3,63.8,55.1,63.8,54.9z"/>
		<path class="st2" d="M62,39.1c0.1,0,0.7,0.1,0.9,0.9c0.2,1,1.9,7.5,2,8.2l0,0c0.2,1.1,0.7,4,0.5,4.9c-0.1,0.2-0.1,0.4-0.1,0.6
			c-0.1,0.7-0.3,1.2-0.5,1.3c0,0.2,0.1,0.4,0.1,0.7c0,0,0.1,0,0.1,0c0.6-0.2,0.7-0.9,1-1.8l0,0c0-0.2,0.1-0.4,0.1-0.6
			c0.3-1.2-0.4-4.8-0.5-5.2c0-0.1-1.8-7.2-2-8.2c-0.3-1.1-1.2-1.4-1.6-1.4h-1.6c-0.1,0.3-0.1,0.5-0.2,0.7H62z"/>
		<path class="st2" d="M64.1,57.2c0,0.2,0.2,0.3,0.3,0.3c0.1,0,0.2,0,0.3-0.1c0.1-0.1,0.1-0.2,0.1-0.2c0-2.7-0.3-3.1-0.6-3.2
			c-0.2-0.1-0.3-0.1-0.5,0l0,0l0,0c-0.2,0.1-0.5,0.3-0.8,0.4l1,0.4l0.1,0C64,55.1,64.1,55.7,64.1,57.2z"/>
		<path class="st2" d="M51.7,39.6c-0.4,0.3-0.7,0.6-0.8,0.7c0,0,0.2,0.2,0.4,0.2h8.8c0.2-0.1,0.3-0.2,0.4-0.2c0-0.1-0.4-0.4-0.8-0.7
			H51.7z"/>
		<path class="st2" d="M59.7,39.4c0.1-0.2,0.6-1.2,0.6-3.3c0-0.2-0.2-0.4-0.3-0.4h-8.5c-0.2,0-0.3,0.2-0.3,0.4c0,2.1,0.5,3,0.6,3.3
			H59.7z"/>
	</g>
	<path class="st3" d="M55.7,81.8H78c0,0,2.1-21.2,6-21.2c3.9,0,3.7,50.2,7.9,50.2c4.2,0,3.8-40.4,7-40.4c3.3,0,3.5,23.6,6.3,23.6
		s0.9-25.9,3.8-25.9c2.8,0,4.7,13.6,4.7,13.6h27.5"/>
</g>
</svg>
