<?xml version="1.0" encoding="utf-8"?>
<!-- Generator: Adobe Illustrator 16.0.0, SVG Export Plug-In . SVG Version: 6.00 Build 0)  -->
<!DOCTYPE svg PUBLIC "-//W3C//DTD SVG 1.1//EN" "http://www.w3.org/Graphics/SVG/1.1/DTD/svg11.dtd">
<svg version="1.1" id="Layer_1" xmlns="http://www.w3.org/2000/svg" xmlns:xlink="http://www.w3.org/1999/xlink" x="0px" y="0px"
	 width="108.2px" height="27.9px" viewBox="0 0 108.2 27.9" style="enable-background:new 0 0 108.2 27.9;" xml:space="preserve">
<style type="text/css">
<![CDATA[
	.st0{fill:#447f3b;}
]]>
</style>
<g>
	<g>
		<path class="st0" d="M34.5,1.9h5v1.3H36v2h2.9v1.3H36v3h-1.5V1.9z"/>
		<path class="st0" d="M41.2,2.9c-0.6,0-0.9-0.3-0.9-0.9c0-0.5,0.3-0.9,0.9-0.9c0.6,0,0.9,0.4,0.9,0.9C42.1,2.5,41.8,2.9,41.2,2.9z
			 M40.5,9.4V3.9l1.4-0.2v5.7H40.5z"/>
		<path class="st0" d="M46.9,9.4V6c0-0.8-0.3-1.1-1-1.1c-0.5,0-1,0.3-1.2,0.5v4h-1.4V3.9l1.4-0.2c0,0,0,0.8,0,0.9
			c0.5-0.5,1.2-0.9,1.8-0.9c1.1,0,1.8,0.7,1.8,1.9v3.8H46.9z"/>
		<path class="st0" d="M53.4,1.4l1.4-0.2v8.2h-1.4c0,0,0-0.5,0-0.5c-0.4,0.4-0.9,0.7-1.6,0.7c-1.5,0-2.4-1.2-2.4-2.9
			c0-1.8,1.2-3,2.8-3c0.4,0,0.8,0.1,1.2,0.2V1.4z M52.3,4.8c-1,0-1.5,0.8-1.5,1.8c0,1.1,0.5,1.8,1.4,1.8c0.5,0,0.8-0.2,1.1-0.5
			c0,0,0-2.8,0-2.8C53.1,5,52.7,4.8,52.3,4.8z"/>
		<path class="st0" d="M60.4,3.9v3.4c0,0.8,0.3,1.1,0.9,1.1c0.5,0,1-0.2,1.2-0.5v-4H64v5.5l-1.4,0.2c0,0,0-0.8,0-0.8
			c-0.5,0.5-1.1,0.8-1.8,0.8c-1.1,0-1.7-0.7-1.7-1.9V3.9H60.4z"/>
		<path class="st0" d="M67.2,9.6c-0.7,0-1.6-0.2-2.2-0.5L65.3,8c0.6,0.3,1.3,0.5,1.9,0.5c0.6,0,0.9-0.2,0.9-0.6
			c0-0.4-0.5-0.6-1.1-0.7c-1-0.2-1.9-0.7-1.9-1.7c0-1,0.9-1.7,2.2-1.7c0.7,0,1.5,0.2,2,0.4l-0.3,1.1c-0.5-0.3-1.3-0.5-1.7-0.5
			c-0.5,0-0.8,0.2-0.8,0.6c0,0.4,0.5,0.6,1.1,0.7c1.1,0.3,1.9,0.7,1.9,1.7C69.5,8.9,68.6,9.6,67.2,9.6z"/>
		<path class="st0" d="M75.9,9.6c-1.6,0-2.8-1.1-2.8-3c0-1.8,1.2-3,2.9-3c1.6,0,2.8,1.1,2.8,3C78.8,8.5,77.5,9.6,75.9,9.6z
			 M75.9,4.8c-0.9,0-1.4,0.7-1.4,1.8c0,1.1,0.5,1.8,1.5,1.8c0.9,0,1.4-0.7,1.4-1.8C77.4,5.6,76.8,4.8,75.9,4.8z"/>
		<path class="st0" d="M83.4,9.4V6c0-0.8-0.3-1.1-1-1.1c-0.5,0-1,0.3-1.2,0.5v4h-1.4V3.9l1.4-0.2c0,0,0,0.8,0,0.9
			c0.5-0.5,1.2-0.9,1.8-0.9c1.1,0,1.8,0.7,1.8,1.9v3.8H83.4z"/>
	</g>
	<g>
		<g>
			<path class="st0" d="M34.5,14.5h7.9v2h-5.6v3.1h4.6v2h-4.6v4.7h-2.3V14.5z"/>
			<path class="st0" d="M47.9,25.4c-0.6,0.8-1.4,1.3-2.5,1.3c-1.6,0-2.7-1.1-2.7-2.5c0-1.6,1.2-3,5.2-3.1v-0.2
				c0-1.2-0.5-1.7-1.8-1.7c-0.9,0-2,0.4-2.9,0.9l-0.5-1.8c0.9-0.5,2.2-1,3.7-1c2.7,0,3.8,1.2,3.7,3.6v3.1c0,0.7,0.1,0.8,0.8,0.8
				l-0.2,1.7C49.1,26.8,48.3,26.2,47.9,25.4L47.9,25.4z M47.9,22.2c-2.2,0.3-3,0.7-3,1.6c0,0.7,0.5,1.1,1.3,1.1
				c0.7,0,1.3-0.3,1.7-0.8V22.2z"/>
			<path class="st0" d="M56.2,26.7c-2.9,0-4.6-1.8-4.6-4.7c0-2.9,1.9-4.7,4.6-4.7c1.2,0,2.2,0.3,3,0.7l-0.5,1.8
				c-0.7-0.5-1.6-0.7-2.4-0.7c-1.6,0-2.5,1.1-2.5,2.8c0,1.8,1,2.8,2.5,2.8c0.9,0,1.8-0.2,2.4-0.7l0.4,1.8
				C58.5,26.4,57.4,26.7,56.2,26.7z"/>
			<path class="st0" d="M62.3,22.5c0.1,1.4,1.1,2.4,2.6,2.4c0.9,0,1.9-0.3,2.7-0.8l0.3,1.9c-0.8,0.5-2,0.7-3.2,0.7
				c-2.8,0-4.7-1.8-4.7-4.6c0-2.9,1.9-4.8,4.5-4.8c2.3,0,3.6,1.4,3.6,3.6c0,0.5-0.1,1.1-0.2,1.5C68,22.3,62.3,22.4,62.3,22.5
				L62.3,22.5z M66.1,21.1c0,0,0-0.1,0-0.2c0-1.2-0.5-1.9-1.7-1.9c-1.2,0-2,1-2.1,2.1L66.1,21.1z"/>
			<path class="st0" d="M73.9,26.6c-0.6,0-1.4-0.1-2-0.3l-2.2,0.3v-13l2.2-0.3c0,0,0,5,0,5.1c0.6-0.6,1.4-1.1,2.5-1.1
				c2.3,0,3.8,1.9,3.8,4.6C78.4,24.7,76.4,26.6,73.9,26.6z M73.9,19.2c-0.7,0-1.3,0.3-1.8,0.7c0-0.1,0,4.4,0,4.4
				c0.4,0.3,1,0.5,1.7,0.5c1.5,0,2.4-1.2,2.4-2.9C76.1,20.3,75.3,19.2,73.9,19.2z"/>
			<path class="st0" d="M83.9,26.7c-2.6,0-4.4-1.8-4.4-4.7c0-2.9,2-4.7,4.6-4.7c2.6,0,4.4,1.8,4.4,4.7
				C88.4,24.8,86.5,26.7,83.9,26.7z M83.9,19.1c-1.5,0-2.3,1.2-2.3,2.9c0,1.7,0.8,2.9,2.3,2.9c1.5,0,2.3-1.1,2.3-2.8
				S85.4,19.1,83.9,19.1z"/>
			<path class="st0" d="M94,26.7c-2.6,0-4.4-1.8-4.4-4.7c0-2.9,2-4.7,4.6-4.7c2.6,0,4.4,1.8,4.4,4.7C98.5,24.8,96.5,26.7,94,26.7z
				 M94,19.1c-1.5,0-2.3,1.2-2.3,2.9c0,1.7,0.8,2.9,2.3,2.9c1.4,0,2.2-1.1,2.2-2.8S95.5,19.1,94,19.1z"/>
			<path class="st0" d="M102.3,22.1v4.2h-2.2V13.6l2.2-0.3v8.2h0l3.1-3.9h2.7l-3.6,4.2l3.7,4.6h-2.7L102.3,22.1L102.3,22.1z"/>
		</g>
	</g>
	<path class="st0" d="M26.3,0H1.5C0.7,0,0,0.7,0,1.5v24.8c0,0.8,0.7,1.5,1.5,1.5h13.3V17.1h-3.6v-4.2h3.6V9.8c0-3.6,2.2-5.6,5.4-5.6
		c1.5,0,2.9,0.1,3.2,0.2v3.8h-2.2c-1.7,0-2.1,0.8-2.1,2v2.7h4.2l-0.5,4.2h-3.6v10.8h7.1c0.8,0,1.5-0.7,1.5-1.5V1.5
		C27.9,0.7,27.2,0,26.3,0z"/>
</g>
</svg>
