<?xml version="1.0" encoding="utf-8"?>
<!-- Generator: Adobe Illustrator 16.0.0, SVG Export Plug-In . SVG Version: 6.00 Build 0)  -->
<!DOCTYPE svg PUBLIC "-//W3C//DTD SVG 1.1//EN" "http://www.w3.org/Graphics/SVG/1.1/DTD/svg11.dtd">
<svg version="1.1" id="Layer_1" xmlns="http://www.w3.org/2000/svg" xmlns:xlink="http://www.w3.org/1999/xlink" x="0px" y="0px"
	 width="114px" height="114px" viewBox="0 0 114 114" style="enable-background:new 0 0 114 114;" xml:space="preserve">
<style type="text/css">
<![CDATA[
	.st0{fill:#FFFFFF;}
]]>
</style>
<g>
	<path class="st0" d="M71,17.8L71,17.8l1.1,0.5c1,0.4,1.6-0.2,1.9-1.1l1.7-4.4c0.3-0.9,0.3-1.7-0.7-2.1l-0.9-0.3l-2.8,7.1
		C71.4,17.7,71.3,17.8,71,17.8z"/>
	<path class="st0" d="M25.2,88.1l1-1c0.4-0.4,0.5-0.9,0.1-1.3l-0.7-0.8c-0.9,0.8-1.6,1.5-2.5,2.4c0.3,0.3,0.4,0.5,0.7,0.8
		C24.2,88.7,24.7,88.6,25.2,88.1z"/>
	<path class="st0" d="M57.3,99c-0.9,0-1.3,0.6-1.3,1.7l0.1,4.9c0,1.1,0.5,1.7,1.4,1.7c0.9,0,1.4-0.8,1.4-1.7l-0.1-4.9
		C58.7,99.8,58.2,99,57.3,99z"/>
	<path class="st0" d="M74.5,96.9c-0.3-0.8-0.8-1.2-1.7-0.8l-0.8,0.3c0.6,1.4,1.1,2.9,1.7,4.3l0.8-0.3c0.9-0.4,1-1,0.7-1.8L74.5,96.9
		z"/>
	<path class="st0" d="M41.5,96.2l-0.9-0.3c-0.6,1.4-1,2.4-1.5,3.8L40,100c0.9,0.3,1.4,0,1.7-0.8l0.5-1.2
		C42.6,97.2,42.5,96.6,41.5,96.2z"/>
	<polygon class="st0" points="81.9,14.9 81.9,14.9 78.5,18.4 80.4,19.6 	"/>
	<path class="st0" d="M22.6,87.9c-0.8,0.8-1.8,1.6-2.6,2.4c-0.2,0.2-0.3,0.2-0.5,0.1l0,0l1,1.1c0.5,0.5,1,0.5,1.6,0l1.2-1.1
		c0.6-0.6,0.7-1.1,0.1-1.7L22.6,87.9z"/>
	<path class="st0" d="M47.3,12.5c0.9-0.2,1.2-0.8,1-1.7L48,9.6c-0.2-0.9-0.6-1.3-1.6-1.1l-0.9,0.2c0.3,1.5,0.5,2.5,0.9,4L47.3,12.5z
		"/>
	<polygon class="st0" points="31.3,15.4 31.3,15.4 32.8,20 34.7,18.9 	"/>
	<path class="st0" d="M40,14.7c0.9-0.4,1-1,0.7-1.8l-0.5-1.2c-0.3-0.8-0.8-1.2-1.7-0.8l-0.8,0.3c0.6,1.4,1,2.4,1.5,3.8L40,14.7z"/>
	<polygon class="st0" points="54.5,8.2 54.4,8.2 53.6,13 55.8,12.9 	"/>
	<path class="st0" d="M63.3,14.8l0.2-1.7c0.1-0.8-0.2-1.2-1.1-1.3l-1-0.1c-0.1,1.1-0.3,2.4-0.4,3.5c0,0.3-0.1,0.4-0.3,0.4l0,0.1
		l1.4,0.2C62.9,15.9,63.2,15.5,63.3,14.8z"/>
	<path class="st0" d="M63.6,10.1l0.2-1.4c0.1-0.5-0.2-1-0.8-1.1l-1-0.1c-0.1,1.2-0.3,2.2-0.4,3.4c0.4,0,0.6,0.1,1,0.1
		C63.2,11.1,63.5,10.8,63.6,10.1z"/>
	<polygon class="st0" points="78.2,94.3 79.7,99 81.6,97.9 78.2,94.3 	"/>
	<path class="st0" d="M57,2C26.6,2,2,26.6,2,57s24.6,55,55,55c30.4,0,55-24.6,55-55S87.4,2,57,2z M106.1,53.2l0.1,1.5
		c0,0.5-0.3,1.3-0.7,1.6l-1.4,1.3c-0.1,0.1-0.2,0.1-0.2,0.2c0-1.1,0-2.2,0-3.2c0.1,0,0.1-0.1,0.2-0.2l1.4-1.5
		C105.7,52.6,106,52.7,106.1,53.2z M105.6,49l0.2,1.5c0.1,0.5-0.2,1.3-0.5,1.7l-1.3,1.5c-0.1,0.1-0.1,0.1-0.2,0.2
		c-0.1-1.1-0.2-2.2-0.3-3.2c0.1,0,0.1-0.1,0.2-0.2l1.2-1.6C105.1,48.3,105.5,48.4,105.6,49z M104.7,44.8l0.4,1.5
		c0.1,0.5-0.1,1.3-0.4,1.7l-1.2,1.6c-0.1,0.1-0.1,0.1-0.2,0.2c-0.2-1.1-0.4-2.1-0.6-3.2c0.1-0.1,0.1-0.1,0.1-0.2l1.1-1.7
		C104.2,44.2,104.5,44.2,104.7,44.8z M102.1,49.8l-1.7-1.3c-0.4-0.3-0.9-1-1-1.5c-0.1-0.5-0.1-1.6,0.3-1.3l1.7,1.1
		c0.2,0.1,0.4,0.2,0.6,0.1c0.2,1,0.4,2.1,0.6,3.1C102.4,49.9,102.3,49.9,102.1,49.8z M102.8,50.8c0.1,1.1,0.2,2.1,0.3,3.2
		c-0.2,0-0.3-0.1-0.5-0.2l-1.6-1.4c-0.4-0.4-0.8-1.1-0.9-1.6c-0.1-0.5,0-1.6,0.5-1.3l1.7,1.2C102.4,50.7,102.6,50.8,102.8,50.8z
		 M101.3,45.9l-1.8-1.1c-0.5-0.3-1-0.9-1.1-1.4c-0.2-0.5-0.3-1.6,0.2-1.4l1.8,0.9c0.2,0.1,0.4,0.1,0.6,0.1c0.3,1,0.6,2,0.9,3.1
		C101.7,46,101.5,46,101.3,45.9z M98.8,69.3c0.2-0.5,0.7-1.5,1-1l1,1.9c0.1,0.1,0.2,0.2,0.3,0.3c-0.3,1-0.7,2-1,3
		c-0.1-0.1-0.2-0.2-0.2-0.3l-0.9-2.1C98.7,70.7,98.6,69.8,98.8,69.3z M101,69.5l-1.1-2c-0.2-0.5-0.4-1.3-0.3-1.8
		c0.1-0.5,0.6-1.5,0.9-1.1l1.2,1.8c0.1,0.1,0.2,0.2,0.4,0.3c-0.2,1-0.5,2.1-0.8,3.1C101.2,69.7,101.1,69.6,101,69.5z M101.9,65.6
		l-1.2-1.9c-0.3-0.4-0.5-1.2-0.4-1.8c0.1-0.5,0.5-1.6,0.8-1.1l1.3,1.7c0.1,0.1,0.2,0.2,0.4,0.3c-0.1,1-0.3,2.1-0.5,3.1
		C102.1,65.8,102,65.7,101.9,65.6z M102.5,61.6l-1.4-1.7c-0.3-0.4-0.6-1.2-0.6-1.7c0-0.5,0.3-1.6,0.7-1.2l1.4,1.5
		c0.1,0.1,0.3,0.2,0.4,0.3c0,1.1-0.1,2.1-0.2,3.1C102.7,61.9,102.6,61.8,102.5,61.6z M102.7,57.7l-1.5-1.6c-0.4-0.4-0.7-1.1-0.7-1.7
		c0-0.5,0.2-1.6,0.6-1.3l1.5,1.4c0.1,0.1,0.3,0.2,0.5,0.2c0,1.1,0.1,2.1,0,3.2C103,57.9,102.8,57.8,102.7,57.7z M103.4,40.6l0.5,1.5
		c0.2,0.5,0.1,1.3-0.2,1.8l-1.1,1.7c0,0.1-0.1,0.1-0.2,0.2c-0.3-1-0.6-2.1-0.9-3.1c0-0.1,0.1-0.1,0.1-0.2l0.9-1.8
		C102.9,40.1,103.3,40.1,103.4,40.6z M101.8,36.7l0.6,1.4c0.2,0.5,0.2,1.3-0.1,1.8l-0.9,1.8c0,0.1-0.1,0.1-0.1,0.2
		c-0.3-0.8-0.6-1.6-0.9-2.4c-0.1-0.2-0.2-0.4-0.3-0.7c0-0.1,0.1-0.1,0.1-0.2l0.8-1.9C101.3,36.2,101.6,36.2,101.8,36.7z M99.9,32.8
		l0.7,1.4c0.2,0.5,0.3,1.3,0.1,1.8l-0.8,1.9c0,0.1-0.1,0.1-0.1,0.2c-0.4-1-0.9-2-1.4-2.9c0-0.1,0.1-0.1,0.1-0.2l0.6-2
		C99.3,32.4,99.6,32.4,99.9,32.8z M97.6,29.2l0.9,1.3c0.3,0.5,0.4,1.2,0.2,1.8l-0.6,1.9c0,0.1,0,0.1-0.1,0.2c-0.5-1-1.1-1.9-1.7-2.8
		c0-0.1,0-0.1,0.1-0.2l0.4-2.1C97,28.8,97.3,28.7,97.6,29.2z M41,81c-0.2-0.1-0.4-0.3-0.5-0.4c-0.2-0.1-0.4-0.3-0.6-0.5
		c-0.4-0.3-0.8-0.7-1.3-1.1c-0.4-0.4-0.8-0.8-1.2-1.2c-0.2-0.2-0.4-0.3-0.5-0.5c-0.2-0.2-0.3-0.4-0.4-0.5c-0.2-0.2-0.4-0.4-0.5-0.6
		h42c-0.1,0.2-0.3,0.4-0.5,0.6c-0.1,0.2-0.3,0.3-0.4,0.5c-0.2,0.2-0.3,0.4-0.5,0.5c-0.4,0.4-0.8,0.8-1.2,1.2
		c-0.4,0.4-0.9,0.7-1.3,1.1c-0.2,0.2-0.4,0.3-0.6,0.5c-0.2,0.1-0.4,0.3-0.6,0.4c-0.7,0.5-1.1,0.8-1.1,0.8s0.5-0.3,1.2-0.7
		c0.2-0.1,0.4-0.2,0.6-0.4c0.2-0.1,0.4-0.3,0.6-0.4c0.4-0.3,0.9-0.6,1.4-1c0.4-0.4,0.9-0.7,1.3-1.1c0.2-0.2,0.4-0.3,0.6-0.5
		c0.2-0.2,0.3-0.3,0.5-0.5c0.6-0.6,1-1,1-1H87c-6.6,10.3-17.8,16.4-30,16.4c-12.2,0-23.4-6.1-30-16.4h8.1c0,0,0.4,0.4,1,1
		c0.1,0.1,0.3,0.3,0.5,0.5c0.2,0.2,0.4,0.3,0.6,0.5c0.4,0.3,0.8,0.7,1.3,1.1c0.5,0.3,0.9,0.7,1.3,1c0.2,0.1,0.4,0.3,0.6,0.4
		C40.6,80.8,40.8,80.9,41,81c0.7,0.5,1.1,0.8,1.1,0.8S41.7,81.5,41,81z M26.4,76.2C33.1,86.8,44.5,93.1,57,93.1s23.9-6.3,30.6-16.9
		h0.9C82.1,86.9,70.4,93.9,57,93.9c-13.4,0-25.1-7.1-31.5-17.7H26.4z M88.8,75.7H25.2c-3.2-5.5-5.1-11.9-5.1-18.7
		c0-6.8,1.8-13.2,5.1-18.7h52.8c0,0,0,0,0,0l0,0h11c3.2,5.5,5,11.8,5,18.7C93.9,63.8,92.1,70.2,88.8,75.7z M19.1,34l-2,0.6
		c-0.1,0-0.3,0-0.4,0c0.5-0.9,1-1.8,1.6-2.7c0.1,0,0.3,0,0.4,0l1.9-0.4c0.5-0.1,0.2,0.9-0.1,1.4C20.3,33.3,19.6,33.8,19.1,34z
		 M78.4,37.8c-0.1-0.1-0.2-0.2-0.4-0.4c-0.1-0.1-0.3-0.3-0.5-0.5c-0.1-0.1-0.2-0.2-0.3-0.3c-0.1-0.1-0.2-0.2-0.4-0.3
		c-0.3-0.2-0.5-0.5-0.8-0.7c-0.3-0.3-0.6-0.5-1-0.8c-0.3-0.3-0.7-0.5-1.1-0.8c-0.4-0.2-0.8-0.5-1.1-0.8c-0.4-0.2-0.8-0.5-1.2-0.7
		c-0.4-0.2-0.8-0.4-1.2-0.6c-0.4-0.2-0.7-0.4-1.1-0.5c-0.4-0.2-0.7-0.3-1-0.4c-0.3-0.1-0.6-0.2-0.9-0.3c-0.3-0.1-0.5-0.2-0.7-0.2
		c-0.4-0.1-0.6-0.2-0.6-0.2s0.2,0.1,0.6,0.2c0.2,0.1,0.4,0.2,0.7,0.3c0.3,0.1,0.5,0.2,0.9,0.4c0.3,0.1,0.6,0.3,1,0.5
		c0.4,0.2,0.7,0.4,1.1,0.6c0.4,0.2,0.8,0.4,1.1,0.7c0.4,0.2,0.8,0.5,1.1,0.7c0.4,0.3,0.7,0.5,1.1,0.8c0.4,0.3,0.7,0.5,1,0.8
		c0.3,0.3,0.6,0.5,0.9,0.8c0.3,0.3,0.5,0.5,0.8,0.8c0.1,0.1,0.2,0.2,0.4,0.3c0.1,0.1,0.2,0.2,0.3,0.3c0.2,0.2,0.3,0.3,0.4,0.5H36.6
		c0.1-0.1,0.3-0.3,0.4-0.5c0.1-0.1,0.2-0.2,0.3-0.3c0.1-0.1,0.2-0.2,0.4-0.3c0.2-0.2,0.5-0.5,0.8-0.8c0.3-0.3,0.6-0.5,0.9-0.8
		c0.3-0.3,0.7-0.6,1-0.8c0.4-0.3,0.7-0.5,1.1-0.8c0.4-0.2,0.8-0.5,1.1-0.7c0.4-0.3,0.8-0.5,1.1-0.7c0.4-0.2,0.7-0.4,1.1-0.6
		c0.4-0.2,0.7-0.3,1-0.5c0.3-0.2,0.6-0.3,0.9-0.4c0.3-0.1,0.5-0.2,0.7-0.3c0.4-0.1,0.6-0.2,0.6-0.2s-0.2,0.1-0.6,0.2
		c-0.2,0.1-0.4,0.1-0.7,0.2c-0.3,0.1-0.6,0.2-0.9,0.3c-0.3,0.1-0.7,0.3-1,0.4c-0.4,0.1-0.7,0.4-1.1,0.5c-0.4,0.2-0.8,0.4-1.2,0.6
		c-0.4,0.2-0.8,0.5-1.2,0.7c-0.4,0.3-0.8,0.5-1.1,0.8c-0.4,0.2-0.7,0.5-1.1,0.8c-0.3,0.3-0.7,0.5-1,0.8c-0.3,0.3-0.6,0.5-0.8,0.7
		c-0.1,0.1-0.3,0.2-0.4,0.3c-0.1,0.1-0.2,0.2-0.3,0.3c-0.2,0.2-0.4,0.4-0.5,0.5c-0.2,0.2-0.4,0.4-0.4,0.4H27
		c6.6-10.3,17.8-16.4,30-16.4c12.2,0,23.4,6.1,30,16.4H78.4z M57,20.9c-12.5,0-24,6.4-30.7,17h-0.9C31.9,27.2,43.6,20.1,57,20.1
		c13.4,0,25.1,7.1,31.6,17.8h-1l0,0C81,27.2,69.5,20.9,57,20.9z M93.4,33.1c-0.3-0.4-0.7-1.5-0.1-1.4l1.9,0.4c0.2,0,0.4,0,0.6-0.1
		c0.6,0.9,1.1,1.8,1.6,2.7c-0.2,0.1-0.4,0.1-0.6,0l-2-0.6C94.4,34,93.7,33.5,93.4,33.1z M94,28.1l0.3-2.1c0.1-0.5,0.4-0.6,0.7-0.2
		l1,1.2c0.3,0.4,0.5,1.2,0.4,1.7l-0.4,2c0,0.1,0,0.1-0.1,0.2c-0.6-0.9-1.2-1.8-1.9-2.6C94,28.2,94,28.1,94,28.1z M93.6,28.8
		c0.6,0.8,1.3,1.7,1.8,2.6c-0.2,0.1-0.4,0.1-0.6,0.1l-2-0.4c-0.5-0.1-1.2-0.5-1.5-1c-0.3-0.4-0.8-1.4-0.3-1.4l2,0.2
		C93.2,28.9,93.4,28.9,93.6,28.8z M89,23.4c0.2,0.1,0.4,0.2,0.6,0.4c0.5,0.3,1.1,0.8,1.6,1.4c0.3,0.3,0.5,0.6,0.7,0.9
		c0.2,0.3,0.4,0.6,0.5,0.8c0.1,0.3,0.2,0.5,0.3,0.7c0.1,0.2,0.1,0.3,0.1,0.3s-0.1,0-0.3-0.1s-0.4-0.2-0.6-0.4
		c-0.2-0.2-0.5-0.4-0.8-0.6c-0.3-0.2-0.6-0.5-0.8-0.8c-0.5-0.6-1-1.2-1.3-1.7c-0.2-0.3-0.3-0.5-0.3-0.6c-0.1-0.2-0.1-0.3-0.1-0.3
		S88.8,23.3,89,23.4z M83.6,13.9L80.9,23l0.3,0.5l-0.2,0.4l-2.2-1.3l0.2-0.3l0.6,0l0.6-1.9L77.9,19l-1.4,1.5l0.3,0.5l-0.2,0.4
		l-1.7-1l0.2-0.4l0.6,0c2.1-2.1,4.5-4.7,6.7-6.8L83.6,13.9z M72.7,8.8l2.8,1.1c1.6,0.6,2.4,1.7,1.7,3.4l-1.7,4.4
		c-0.6,1.6-2.1,2-3.6,1.4L69,18l0.2-0.4l0.7-0.2l3-7.7l-0.3-0.6L72.7,8.8z M65.6,16.8l0.7-0.3c0.7-2.7,1.3-5.4,2-8L67.9,8L68,7.6
		l2.4,0.6l-0.1,0.4l-0.6,0.2c-0.7,2.7-1.3,5.4-2,8l0.5,0.6l-0.1,0.4c-0.8-0.2-1.8-0.4-2.6-0.6L65.6,16.8z M58.9,15.9l0.7-0.3
		c0.3-2.7,0.6-5.5,1-8.2L60,6.9l0-0.4l3.1,0.4c1.3,0.2,2.2,0.6,2,2L65,10.3c-0.1,0.5-0.4,1-0.9,1.2c0.6,0.3,1,0.9,0.9,1.8l-0.2,1.7
		c-0.2,1.4-1.1,1.9-2.7,1.7l-3.2-0.4L58.9,15.9z M54.5,4.1L55.9,4c0.1,0,0.2,0.1,0.2,0.1l-1.2,1.5l-0.9,0c-0.1,0-0.1-0.1-0.2-0.1
		L54.5,4.1z M46.3,7.6c1.5-0.3,2.8,0,3.2,1.7l0.3,1.3c0.3,1.2-0.3,2-1.1,2.4c0.5,0.1,0.7,0.4,0.9,0.8l1,1.6c0.2,0.3,0.6,0.8,1,0.6
		l0.1,0.2l0,0l0.5-0.3c0.6-2.9,1.2-6.4,1.8-9.3l1.5-0.1l2.7,9.1l0.5,0.3l0,0.4l-2.5,0.1l0-0.4l0.5-0.3l-0.6-2l-2.6,0.1l-0.4,2
		l0.5,0.2l0,0.4l-1.9,0.1l0-0.1c-0.2,0.2-0.6,0.3-0.9,0.4c-0.9,0.2-1.1-0.4-1.5-1.1l-1.1-1.6c-0.4-0.7-0.7-0.8-1.5-0.6
		c0.2,0.9,0.5,2.3,0.7,3.2l0.7,0.3l0.1,0.4c-0.8,0.2-1.8,0.4-2.6,0.6l-0.1-0.4l0.5-0.5c-0.6-2.7-1.2-5.4-1.7-8.1l-0.6-0.2l-0.1-0.4
		L46.3,7.6z M38.1,10.1c1.4-0.6,2.8-0.5,3.4,1.1l0.5,1.2c0.5,1.1,0.1,2-0.7,2.5c0.5,0.1,0.7,0.2,1.1,0.6l1.3,1.4
		c0.3,0.3,0.7,0.7,1.1,0.5l0.2,0.5c-0.2,0.2-0.6,0.4-0.9,0.6c-0.8,0.3-1.1-0.2-1.7-0.8l-1.3-1.4c-0.5-0.6-0.9-0.7-1.6-0.4
		c0.3,0.8,0.9,2.2,1.2,3l0.7,0.2l0.2,0.4c-0.8,0.3-1.7,0.7-2.5,1L38.9,20l0.4-0.6c-1-2.5-2.1-5.1-3.1-7.7l-0.6-0.1l-0.2-0.4
		L38.1,10.1z M31.3,13.4l6.7,6.7l0.6,0l0.2,0.4l-2.1,1.3l-0.2-0.3l0.3-0.5l-1.4-1.5l-2.2,1.4l0.6,1.9l0.6,0l0.2,0.4l-1.7,1l-0.2-0.4
		l0.3-0.5c-0.9-2.9-2-6.2-2.9-9L31.3,13.4z M21.2,27.3c0.1-0.2,0.2-0.4,0.3-0.6c0.1-0.3,0.3-0.5,0.5-0.8c0.2-0.3,0.5-0.6,0.7-0.9
		c0.5-0.6,1.1-1.1,1.6-1.4c0.2-0.2,0.5-0.3,0.6-0.4c0.2-0.1,0.3-0.1,0.3-0.1s0,0.1-0.1,0.3S25,23.7,24.8,24
		c-0.3,0.5-0.8,1.1-1.3,1.7c-0.3,0.3-0.5,0.5-0.8,0.8c-0.3,0.2-0.5,0.5-0.8,0.6c-0.2,0.2-0.5,0.3-0.6,0.4c-0.2,0.1-0.3,0.1-0.3,0.1
		S21.1,27.5,21.2,27.3z M21.1,28.7l2-0.2c0.5-0.1,0.1,1-0.3,1.4c-0.3,0.4-1,0.9-1.5,1l-2,0.4c-0.1,0-0.3,0-0.4,0
		c0.6-0.9,1.2-1.7,1.8-2.6C20.8,28.7,20.9,28.7,21.1,28.7z M18,26.8l1-1.2c0.3-0.4,0.7-0.3,0.7,0.2l0.3,2.1c0,0.1,0.1,0.3,0.1,0.4
		c-0.7,0.9-1.3,1.7-1.9,2.6c-0.1-0.1-0.2-0.2-0.2-0.4l-0.4-2C17.5,28,17.7,27.2,18,26.8z M15.5,30.3l0.9-1.3
		c0.3-0.4,0.6-0.4,0.8,0.1l0.4,2.1c0,0.1,0.1,0.3,0.2,0.4c-0.6,0.9-1.1,1.8-1.7,2.8c-0.1-0.1-0.2-0.2-0.2-0.4L15.3,32
		C15.1,31.5,15.2,30.7,15.5,30.3z M13.4,34l0.7-1.4c0.3-0.5,0.6-0.4,0.8,0.1l0.6,2c0,0.1,0.1,0.3,0.2,0.4c-0.5,1-1,1.9-1.4,2.9
		c-0.1-0.1-0.2-0.2-0.3-0.4l-0.8-1.9C13.1,35.3,13.1,34.5,13.4,34z M11.6,37.9l0.6-1.4c0.2-0.5,0.6-0.5,0.8,0l0.8,1.9
		c0.1,0.1,0.1,0.3,0.3,0.4c-0.4,1-0.8,2-1.2,3c-0.1-0.1-0.2-0.2-0.3-0.3l-0.9-1.8C11.4,39.2,11.4,38.4,11.6,37.9z M11.8,50.4
		l1.6-1.2c0.4-0.3,0.5,0.8,0.5,1.3c-0.1,0.5-0.5,1.2-0.9,1.6l-1.6,1.5c-0.1,0.1-0.2,0.2-0.3,0.2c0.1-1.1,0.2-2.1,0.3-3.1
		C11.5,50.5,11.7,50.5,11.8,50.4z M11.5,49.7c0.2-1,0.4-2.1,0.6-3.1c0.1,0,0.3-0.1,0.4-0.1l1.7-1.1c0.5-0.3,0.5,0.8,0.3,1.3
		c-0.1,0.5-0.6,1.2-1,1.5l-1.7,1.3C11.8,49.6,11.7,49.7,11.5,49.7z M11.4,54.4l1.5-1.4c0.4-0.4,0.6,0.7,0.6,1.3
		c0,0.5-0.4,1.3-0.7,1.7l-1.5,1.6c-0.1,0.1-0.2,0.2-0.3,0.2c0-1.1,0-2.1,0.1-3.2C11.2,54.5,11.3,54.4,11.4,54.4z M11.3,58.3l1.4-1.5
		c0.4-0.4,0.7,0.7,0.7,1.2c0,0.5-0.2,1.3-0.6,1.7l-1.4,1.7c-0.1,0.1-0.2,0.2-0.3,0.3c-0.1-1.1-0.2-2.1-0.2-3.2
		C11.1,58.5,11.2,58.4,11.3,58.3z M11.6,62.3l1.3-1.7c0.3-0.4,0.7,0.6,0.8,1.1c0.1,0.5-0.1,1.3-0.4,1.8l-1.2,1.9
		c-0.1,0.1-0.2,0.2-0.3,0.3c-0.2-1-0.4-2.1-0.5-3.1C11.4,62.5,11.5,62.4,11.6,62.3z M12.2,66.2l1.2-1.8c0.3-0.4,0.8,0.5,0.9,1.1
		c0.1,0.5,0,1.3-0.3,1.8l-1.1,2c-0.1,0.1-0.2,0.2-0.3,0.3c-0.3-1-0.5-2-0.8-3.1C12.1,66.4,12.2,66.3,12.2,66.2z M13.2,70.1l1-1.9
		c0.3-0.5,0.8,0.5,1,1s0.1,1.3-0.1,1.8L14.2,73c-0.1,0.1-0.1,0.2-0.2,0.3c-0.4-1-0.7-2-1-3C13.1,70.3,13.2,70.2,13.2,70.1z
		 M14.5,44.5l-1.8,1.1c-0.1,0.1-0.2,0.1-0.4,0.1c0.3-1,0.5-2,0.9-3c0.1,0,0.3,0,0.4-0.1l1.8-0.9c0.5-0.2,0.4,0.9,0.2,1.4
		C15.5,43.6,15,44.2,14.5,44.5z M10.1,41.9l0.5-1.5c0.2-0.5,0.5-0.5,0.8-0.1l0.9,1.8c0.1,0.1,0.2,0.2,0.3,0.3
		c-0.3,1-0.6,2.1-0.9,3.1c-0.1-0.1-0.2-0.2-0.3-0.3l-1.1-1.7C10,43.2,9.9,42.4,10.1,41.9z M9,46.1l0.4-1.5c0.1-0.5,0.5-0.6,0.8-0.1
		l1.1,1.7c0.1,0.1,0.2,0.2,0.3,0.3c-0.2,1-0.4,2.1-0.6,3.2c-0.1-0.1-0.2-0.2-0.3-0.3l-1.2-1.6C9,47.4,8.8,46.6,9,46.1z M8.2,50.3
		l0.2-1.5c0.1-0.5,0.4-0.6,0.8-0.2l1.2,1.6c0.1,0.1,0.2,0.2,0.3,0.3c-0.2,1.1-0.3,2.1-0.3,3.2c-0.1-0.1-0.2-0.1-0.3-0.2L8.7,52
		C8.4,51.6,8.1,50.8,8.2,50.3z M7.9,53c0-0.5,0.4-0.6,0.7-0.2l1.4,1.5c0.1,0.1,0.2,0.2,0.3,0.2c-0.1,1.1-0.1,2.1-0.1,3.2
		c-0.1,0-0.3-0.1-0.4-0.2l-1.4-1.3c-0.4-0.4-0.7-1.1-0.7-1.6L7.9,53z M7.8,57.3c0-0.5,0.3-0.7,0.7-0.3l1.5,1.4
		c0.1,0.1,0.2,0.2,0.4,0.2c0,1.1,0.1,2.1,0.2,3.2c-0.1,0-0.3-0.1-0.4-0.2l-1.5-1.2c-0.4-0.3-0.8-1-0.8-1.6L7.8,57.3z M8,61.6
		c0-0.5,0.3-0.7,0.7-0.4l1.6,1.2c0.1,0.1,0.2,0.1,0.4,0.2c0.1,1.1,0.3,2.1,0.5,3.2c-0.1,0-0.3-0.1-0.4-0.1l-1.6-1
		c-0.5-0.3-0.9-1-0.9-1.5L8,61.6z M8.6,65.9c-0.1-0.5,0.2-0.7,0.6-0.4l1.7,1.1c0.1,0.1,0.2,0.1,0.4,0.1c0.2,1,0.5,2.1,0.8,3.1
		c-0.1,0-0.3,0-0.4-0.1L10,68.8c-0.5-0.3-1-0.9-1.1-1.4L8.6,65.9z M12.9,73.6l-1.7-0.7c-0.5-0.2-1-0.8-1.2-1.3L9.6,70
		c-0.1-0.5,0.1-0.7,0.6-0.5l1.7,0.9c0.1,0.1,0.3,0.1,0.4,0.1c0.3,1,0.7,2,1,3C13.2,73.6,13.1,73.6,12.9,73.6z M16,79.4
		c-0.1-0.1-0.3-0.3-0.5-0.5c-0.2-0.2-0.4-0.5-0.6-0.7c-0.1-0.1-0.2-0.3-0.3-0.4c-0.1-0.2-0.2-0.3-0.2-0.5c-0.2-0.3-0.3-0.7-0.4-1
		c-0.1-0.2-0.1-0.3-0.1-0.5s-0.1-0.3-0.1-0.4c0-0.3-0.1-0.5-0.1-0.7c0-0.2,0-0.3,0-0.3s0.1,0.1,0.2,0.2c0.1,0.1,0.3,0.3,0.4,0.5
		c0.2,0.2,0.3,0.5,0.5,0.8c0.2,0.3,0.3,0.6,0.5,0.9c0.1,0.2,0.1,0.3,0.2,0.5c0.1,0.2,0.1,0.3,0.2,0.5c0.1,0.3,0.2,0.6,0.3,0.9
		c0.1,0.3,0.1,0.5,0.1,0.7c0,0.2,0,0.3,0,0.3S16.2,79.5,16,79.4z M17,39.6c-0.2,0.5-0.8,1.1-1.2,1.3l-1.9,1
		c-0.1,0.1-0.2,0.1-0.4,0.1c0.3-1,0.7-2,1.1-2.9c0.1,0,0.3,0,0.4-0.1l1.9-0.8C17.4,38,17.2,39.1,17,39.6z M15.3,38.2
		c-0.1,0-0.2,0.1-0.4,0.1c0.4-1,0.9-1.9,1.4-2.8c0.1,0,0.3,0,0.4,0l1.9-0.6c0.5-0.2,0.2,0.9,0,1.4c-0.2,0.5-0.9,1-1.4,1.2L15.3,38.2
		z M19.8,92.1l-2.2-2.4l0.3-0.3l0.7,0.2c2-1.9,4-3.8,6.1-5.6l-0.1-0.6l0.3-0.3l2.1,2.3c0.9,1,1.3,1.9,0.2,2.9l-1,1
		c-0.4,0.4-1,0.5-1.5,0.3c0.3,0.6,0.2,1.3-0.5,1.9L23,92.6C22,93.5,20.9,93.3,19.8,92.1z M27.6,93.2c-0.6,0.8-1.3,1.6-1.9,2.4
		c-0.1,0.2-0.3,0.2-0.5,0.2l0,0.1c0.6,0.5,1.2,1,1.9,1.5l1.2-0.8l0.5,0.4l-1.4,1.7c-1.4-1.1-2.8-2.2-4.2-3.3l0.3-0.3l0.8,0.1
		c1.7-2.2,3.5-4.4,5.2-6.5L29.2,88l0.2-0.3c1.3,1.1,2.6,2.1,3.9,3.1l-1.4,1.7l-0.6-0.4l0.5-1.3l-1.5-1.2c-0.8,1-1.5,1.9-2.3,2.9
		l1.1,0.8L30,93l0.3,0.3c-0.4,0.5-1.1,1.3-1.5,1.9l-0.3-0.3l0.2-0.8L27.6,93.2z M33.6,102.6c-1.5-0.9-3-1.8-4.6-2.7l0.2-0.4l0.8,0
		c1.4-2.4,2.8-4.8,4.2-7.2l-0.3-0.6l0.2-0.3c1.5,0.9,2.9,1.7,4.3,2.5l-1.1,1.9l-0.6-0.4l0.4-1.4l-1.7-1c-0.6,1.1-1.2,2.1-1.9,3.2
		l1.2,0.7l0.7-0.5l0.4,0.2c-0.3,0.6-0.9,1.5-1.2,2.1l-0.4-0.2l0.1-0.8l-1.2-0.7c-0.5,0.9-1,1.8-1.6,2.7c-0.1,0.2-0.2,0.3-0.5,0.2
		l0,0.1c0.7,0.4,1.4,0.8,2.1,1.2l1.1-0.9l0.5,0.3L33.6,102.6z M43.6,98.5l-0.5,1.2c-0.4,1.1-1.3,1.5-2.2,1.3
		c0.3,0.4,0.4,0.7,0.4,1.1l0,1.9c0,0.4,0,1,0.5,1.1l-0.2,0.5c-0.3,0-0.7-0.1-1-0.2c-0.8-0.3-0.7-0.9-0.7-1.7l0-1.9
		c0-0.8-0.2-1.1-0.9-1.4c-0.3,0.8-0.9,2.2-1.2,3l0.4,0.6l-0.1,0.4c-0.8-0.3-1.7-0.7-2.5-1l0.2-0.4l0.7-0.2c1-2.5,2-5.2,3-7.7
		l-0.4-0.5l0.1-0.4l2.7,1C43.3,95.9,44.2,96.9,43.6,98.5z M53.1,100.9l-1.5-0.2l0-0.3c0.1-0.9,0-1.6-1-1.8c-0.7-0.1-1.3,0.3-1.5,1.5
		c-0.1,0.6-0.6,4.3-0.7,4.8c-0.2,1.2,0.2,1.7,1,1.9c1,0.2,1.4-0.4,1.5-1.4l0.1-0.5l1.4,0.2l-0.1,0.5c-0.3,1.7-1.6,2.3-3.1,2.1
		c-1.6-0.2-2.6-1.2-2.4-3c0.1-0.6,0.6-4.3,0.7-4.8c0.3-1.7,1.4-2.4,3.1-2.2c0.6,0.1,1.2,0.3,1.6,0.8l0,0l0.2-0.5l1,0.1L53.1,100.9z
		 M57.4,108.3c-1.7,0-2.8-1-2.9-2.6l-0.1-4.9c0-1.6,1.1-2.7,2.8-2.7c1.7,0,2.9,1,2.9,2.6l0.1,4.9C60.3,107.2,59.2,108.2,57.4,108.3z
		 M68.5,106.9l-0.1-0.4l0.5-0.5c-0.4-2.2-0.9-4.3-1.3-6.5L67.4,98l-0.1,0l0.2,8.9l-1.1,0.2c-0.3,0.1-0.5,0-0.5-0.3
		c-1-2.7-2-5.2-3-7.8l-0.1,0l0.4,1.8c0.4,2,0.8,4,1.2,6l0.7,0.2l0.1,0.4c-0.7,0.1-1.5,0.3-2.1,0.4l-0.1-0.4l0.5-0.5
		c-0.5-2.7-1.1-5.4-1.6-8.2l-0.6-0.3L61,98.3c0.7-0.1,1.3-0.3,2-0.4c0.5-0.1,0.7,0,0.9,0.5c1.1,2.6,1.7,4.4,2.6,7l0,0l-0.2-7.5
		c0-0.5,0.2-0.7,0.7-0.8c0.8-0.2,1.2-0.3,2-0.4l0.1,0.4l-0.5,0.5c0.5,2.7,1.1,5.4,1.6,8.1l0.7,0.3l0.1,0.4
		C70.3,106.5,69.2,106.7,68.5,106.9z M74.7,101.1l-0.8,0.3c0.3,0.8,0.7,1.7,1,2.6l0.7,0.2l0.2,0.4c-0.7,0.3-1.7,0.7-2.5,1l-0.2-0.4
		l0.4-0.6c-1-2.5-2.1-5.1-3.1-7.7l-0.6-0.1l-0.2-0.4l2.7-1.1c1.4-0.6,2.8-0.5,3.4,1.1l0.7,1.6C77.2,99.7,76.2,100.6,74.7,101.1z
		 M83.4,100.8l-0.2-0.3l0.3-0.5l-1.4-1.5l-2.2,1.3l0.6,1.9l0.6,0l0.2,0.4l-1.7,1l-0.2-0.4l0.3-0.5c-0.9-2.9-1.9-6.2-2.7-9.1l1.3-0.7
		l6.6,6.8l0.6,0l0.2,0.4L83.4,100.8z M90.4,95.8c-0.3,0.2-0.5,0.2-0.8,0l-6.8-4.7l0,0l1,1c1.3,1.6,2.6,3.2,3.9,4.8l0.7-0.1l0.3,0.3
		c-0.5,0.4-1.2,1-1.7,1.4l-0.3-0.3l0.2-0.7c-1.8-2.1-3.5-4.3-5.3-6.4L81,91.2l-0.3-0.3c0.5-0.4,0.8-0.6,1.3-1.1
		c0.5-0.4,0.6-0.4,1.1-0.1l3.9,2.5l2.2,1.7l0,0c-0.5-0.6-1.1-1.3-1.6-1.8l-2.9-3.5l-0.6,0.1l-0.3-0.3c0.5-0.4,1.1-0.9,1.6-1.3
		l0.3,0.3L85.6,88c1.9,2.4,3.8,4.7,5.7,7L90.4,95.8z M94.1,92.2l-0.3-0.3l0.1-0.8l-2.6-2.3l-5.1-1.8l-0.4,0.2L85.5,87l0.9-0.9
		c0.3-0.4,0.5-0.4,1-0.2l3.5,1.3l-1.6-3.3l-0.6,0.2l-0.3-0.3l1.4-1.5l0.3,0.3l-0.2,0.6l2.3,4.5l2.7,2.4l0.7-0.2l0.3,0.3
		C95.3,90.8,94.6,91.7,94.1,92.2z M95.4,36.3c-0.3-0.5-0.5-1.5,0-1.4l1.9,0.6c0.2,0.1,0.4,0.1,0.6,0c0.5,0.9,1,1.9,1.4,2.9
		c-0.2,0-0.4,0-0.6,0l-1.9-0.8C96.2,37.4,95.6,36.8,95.4,36.3z M97,39.8c-0.2-0.5-0.4-1.6,0.1-1.4l1.9,0.8c0.2,0.1,0.4,0.1,0.6,0
		c0.1,0.2,0.2,0.4,0.2,0.5c0.3,0.8,0.6,1.6,0.9,2.4c-0.2,0-0.4,0-0.6-0.1l-1.9-1C97.8,40.8,97.2,40.2,97,39.8z M100.1,75.4
		c0,0.1,0,0.3-0.1,0.4c0,0.2-0.1,0.3-0.1,0.5c-0.1,0.3-0.2,0.7-0.4,1c-0.1,0.2-0.2,0.3-0.2,0.5c-0.1,0.2-0.2,0.3-0.3,0.4
		c-0.2,0.3-0.4,0.5-0.6,0.7c-0.2,0.2-0.4,0.4-0.5,0.5c-0.1,0.1-0.2,0.2-0.2,0.2s0-0.1,0-0.3c0-0.2,0.1-0.4,0.1-0.7
		c0.1-0.3,0.2-0.6,0.3-0.9c0.1-0.2,0.1-0.3,0.2-0.5c0.1-0.2,0.1-0.3,0.2-0.5c0.1-0.3,0.3-0.6,0.5-0.9c0.2-0.3,0.3-0.6,0.5-0.8
		c0.2-0.2,0.3-0.4,0.4-0.5c0.1-0.1,0.2-0.2,0.2-0.2s0,0.1,0,0.3C100.2,74.9,100.2,75.1,100.1,75.4z M104.4,70.2l-0.4,1.5
		c-0.2,0.5-0.7,1.1-1.2,1.3l-1.7,0.7c-0.1,0.1-0.3,0.1-0.4,0.1c0.4-1,0.7-2,1.1-3.1c0.1,0,0.2,0,0.4-0.1l1.7-0.9
		C104.3,69.5,104.6,69.7,104.4,70.2z M105.4,66.1l-0.3,1.5c-0.1,0.5-0.6,1.2-1.1,1.4l-1.7,0.9c-0.1,0.1-0.2,0.1-0.4,0.1
		c0.3-1,0.6-2.1,0.8-3.1c0.1,0,0.2-0.1,0.3-0.1l1.7-1.1C105.2,65.3,105.5,65.5,105.4,66.1z M106,61.8l-0.2,1.5
		c-0.1,0.5-0.5,1.2-0.9,1.5l-1.6,1c-0.1,0.1-0.2,0.1-0.3,0.1c0.2-1.1,0.4-2.1,0.5-3.2c0.1,0,0.2-0.1,0.3-0.1l1.6-1.2
		C105.8,61.1,106.1,61.3,106,61.8z M105.4,60.6l-1.5,1.2c-0.1,0.1-0.2,0.1-0.3,0.2c0.1-1.1,0.2-2.2,0.2-3.2c0.1,0,0.2-0.1,0.2-0.2
		l1.5-1.4c0.4-0.4,0.7-0.2,0.7,0.3l0,1.5C106.2,59.6,105.8,60.3,105.4,60.6z"/>
	<path class="st0" d="M57,0.5C25.8,0.5,0.5,25.8,0.5,57s25.4,56.5,56.5,56.5s56.5-25.4,56.5-56.5S88.2,0.5,57,0.5z M57,112.8
		c-30.8,0-55.8-25-55.8-55.8c0-30.8,25-55.8,55.8-55.8c30.8,0,55.8,25,55.8,55.8C112.8,87.8,87.8,112.8,57,112.8z"/>
	<path class="st0" d="M81,43c3.3,0,6,2.7,6,6h2v-7h-2v1.7c-1.5-1.7-3.6-2.7-6-2.7c-4.4,0-8,3.6-8,8v16.1c0,4.4,3.6,8,8,8
		c4.4,0,8-3.6,8-8h-2c0,3.3-2.7,6-6,6c-2.2,0-4-1.8-4-4V47C76.9,44.8,78.8,43,81,43z"/>
	<path class="st0" d="M63.9,55.7c2.1-1.5,3.5-3.9,3.5-6.6c0-4.4-3.6-8-8-8h-8.5v2h2v28.1h-2v2h10c4.4,0,8-3.6,8-8v-2
		C68.9,59.7,66.8,56.9,63.9,55.7z M56.9,43h2.5c2.2,0,4,1.8,4,4v4c0,2.2-1.8,4-4,4h-2.5V43z M64.9,67.1c0,2.2-1.8,4-4,4h-4V57.1h4
		c2.2,0,4,1.8,4,4V67.1z"/>
	<path class="st0" d="M38.8,41h-4l-7.6,30.4v-0.2h-2v2h5.6v-2h-1.5l2-8h9l2,8h-1.5v2h7.5v-2h-2L38.8,41z M31.7,61.1l4-16.1l4,16.1
		H31.7z"/>
	<path class="st0" d="M43.8,84.1l-0.1-0.1c-0.1-0.1-0.2-0.1-0.2-0.2c0-0.1,0-0.2,0.1-0.4l0.4-0.9c0.1,0.1,0.2,0.1,0.3,0.2
		c0.1,0.1,0.2,0.1,0.2,0.1c0.3,0.2,0.6,0.2,0.8,0.1c0.2-0.1,0.4-0.2,0.6-0.5c0.1-0.2,0.1-0.4,0.1-0.6c0-0.2-0.1-0.4-0.3-0.5
		c-0.1-0.1-0.3-0.3-0.6-0.4L44,80.4l0,0.1l0.1,0.1c0.1,0.1,0.2,0.1,0.2,0.2c0,0.1,0,0.2-0.1,0.4l-1,2c-0.1,0.2-0.2,0.3-0.2,0.3
		c-0.1,0.1-0.2,0.1-0.3,0l-0.1-0.1l0,0.1L43.8,84.1L43.8,84.1z M44.8,81.1c0.1,0,0.2,0.1,0.3,0.1c0.1,0.1,0.2,0.1,0.3,0.3
		c0.1,0.1,0.1,0.2,0.1,0.4c0,0.1,0,0.3-0.1,0.4c-0.1,0.2-0.2,0.3-0.4,0.4c-0.2,0.1-0.3,0.1-0.5,0c0,0-0.1-0.1-0.2-0.1
		c-0.1,0-0.1-0.1-0.2-0.1L44.8,81.1z"/>
	<path class="st0" d="M46.1,84.8c0.2,0.4,0.5,0.7,1,0.9c0.4,0.2,0.9,0.1,1.3-0.1c0.4-0.2,0.7-0.6,0.9-1.1c0.2-0.5,0.2-0.9,0-1.4
		c-0.2-0.4-0.5-0.7-0.9-0.9c-0.4-0.1-0.8-0.1-1.3,0c-0.5,0.2-0.8,0.6-1,1.1C45.9,83.9,45.9,84.3,46.1,84.8z M46.6,83.5
		c0.2-0.5,0.4-0.9,0.7-1.1c0.3-0.2,0.5-0.2,0.8-0.1c0.3,0.1,0.5,0.3,0.6,0.6c0.1,0.4,0.1,0.8-0.1,1.4c-0.2,0.5-0.4,0.9-0.7,1
		c-0.3,0.2-0.6,0.2-0.9,0.1c-0.3-0.1-0.5-0.3-0.6-0.6C46.4,84.5,46.4,84.1,46.6,83.5z"/>
	<path class="st0" d="M49.3,86.3l1.5,0.3l0-0.1l-0.1,0c-0.1,0-0.2-0.1-0.3-0.2c0-0.1,0-0.2,0-0.4l0.2-1c0,0,0,0,0.1,0c0,0,0,0,0.1,0
		c0.1,0,0.1,0,0.2,0l0.8,1.8l0.9,0.2l0-0.1c-0.2-0.1-0.3-0.1-0.4-0.2c-0.1-0.1-0.2-0.3-0.3-0.5L51.5,85c0.3,0,0.5-0.1,0.7-0.2
		c0.2-0.1,0.3-0.3,0.3-0.5c0-0.2,0-0.4-0.1-0.5c-0.1-0.2-0.2-0.3-0.4-0.4c-0.2-0.1-0.4-0.2-0.8-0.2L50,82.9l0,0.1l0.1,0
		c0.1,0,0.2,0.1,0.3,0.2c0,0.1,0,0.2,0,0.4l-0.4,2.2c0,0.2-0.1,0.3-0.1,0.4c-0.1,0.1-0.2,0.1-0.3,0.1L49.3,86.3L49.3,86.3z
		 M50.9,83.3c0.2,0,0.3,0,0.4,0c0.2,0,0.4,0.1,0.5,0.3c0.1,0.2,0.1,0.4,0.1,0.6c0,0.2-0.2,0.4-0.4,0.5c-0.2,0.1-0.5,0.1-0.8,0.1
		c0,0,0,0-0.1,0c0,0-0.1,0-0.1,0L50.9,83.3z"/>
	<path class="st0" d="M53.6,84c0.1-0.1,0.1-0.1,0.2-0.2c0.1,0,0.2,0,0.3,0l0.4,0l-0.2,2.6c0,0.2,0,0.3-0.1,0.4
		C54.2,87,54.1,87,54,87l-0.1,0l0,0.1l1.5,0.1l0-0.1l-0.1,0c-0.1,0-0.2-0.1-0.3-0.1c0-0.1-0.1-0.2,0-0.4l0.2-2.6l0.5,0
		c0.1,0,0.3,0,0.3,0.1c0.1,0.1,0.1,0.1,0.2,0.2c0,0.1,0,0.2,0.1,0.3l0.1,0l0-0.8l-2.8-0.2l-0.1,0.8l0.1,0
		C53.5,84.2,53.5,84.1,53.6,84z"/>
	<path class="st0" d="M56.5,83.9c0.1,0,0.2,0,0.3,0.1c0.1,0.1,0.1,0.2,0.1,0.4l0.1,1.4c0,0.4,0.1,0.7,0.1,0.9
		c0.1,0.2,0.2,0.4,0.4,0.5c0.2,0.1,0.5,0.2,0.9,0.2c0.3,0,0.6-0.1,0.8-0.2c0.2-0.1,0.3-0.3,0.4-0.5c0.1-0.2,0.1-0.5,0.1-0.8
		l-0.1-1.4c0-0.2,0-0.3,0-0.4c0.1-0.1,0.2-0.2,0.3-0.2l0.1,0l0-0.1l-1.2,0.1l0,0.1l0.1,0c0.1,0,0.2,0,0.3,0.1c0,0.1,0.1,0.2,0.1,0.4
		l0.1,1.4c0,0.4,0,0.6-0.1,0.8c-0.1,0.2-0.2,0.3-0.4,0.4c-0.2,0.1-0.4,0.2-0.6,0.2c-0.2,0-0.3,0-0.5-0.1c-0.1-0.1-0.2-0.1-0.3-0.2
		c-0.1-0.1-0.1-0.2-0.1-0.4c0-0.2-0.1-0.3-0.1-0.5l-0.1-1.5c0-0.2,0-0.3,0-0.4c0.1-0.1,0.2-0.1,0.3-0.1l0.1,0l0-0.1l-1.5,0.1l0,0.1
		L56.5,83.9z"/>
	<path class="st0" d="M61.1,86.4c0.4,0.4,1,0.5,1.6,0.4c0.2,0,0.4-0.1,0.6-0.2s0.4-0.2,0.5-0.3l-0.2-1c0-0.2,0-0.3,0-0.4
		c0-0.1,0.1-0.2,0.2-0.2l0.1,0l0-0.1l-1.3,0.2l0,0.1c0.1,0,0.2,0,0.3,0c0.1,0,0.1,0.1,0.1,0.1c0,0,0.1,0.2,0.1,0.3l0.2,1
		c-0.1,0.1-0.2,0.2-0.3,0.2c-0.1,0.1-0.2,0.1-0.4,0.1c-0.2,0-0.4,0-0.7-0.1c-0.2-0.1-0.4-0.3-0.6-0.5c-0.2-0.2-0.3-0.5-0.4-0.9
		c-0.1-0.4,0-0.8,0.1-1.1c0.2-0.4,0.5-0.6,0.9-0.7c0.3-0.1,0.6,0,0.8,0.2c0.2,0.1,0.3,0.3,0.5,0.5l0.1,0L63.2,83l-0.1,0
		c0,0.1,0,0.1,0,0.2s0,0.1-0.1,0.1c0,0-0.1,0-0.2,0c-0.2,0-0.4-0.1-0.5-0.1c-0.1,0-0.2,0-0.3,0c-0.3,0.1-0.6,0.2-0.8,0.4
		c-0.3,0.2-0.5,0.5-0.6,0.9c-0.1,0.3-0.1,0.6-0.1,0.9C60.6,85.8,60.8,86.1,61.1,86.4z"/>
	<path class="st0" d="M65.8,85.9L65.8,85.9c-0.2-0.1-0.3,0-0.4-0.1c-0.1,0-0.1-0.1-0.1-0.1c0-0.1,0-0.2,0-0.3l0.1-0.6l1.3-0.4
		l0.4,0.4c0.1,0.1,0.2,0.2,0.2,0.3c0,0.1,0,0.1,0,0.2c0,0.1-0.1,0.1-0.2,0.2l0,0.1l1.3-0.4l0-0.1c-0.1,0-0.3,0-0.3,0
		c-0.1,0-0.2-0.2-0.4-0.3l-2.1-2.4l-0.1,0l-0.3,3.1c0,0.3-0.1,0.5-0.1,0.6c0,0.1-0.1,0.1-0.2,0.2l0,0.1L65.8,85.9z M65.5,83.1l1,1.1
		l-1.1,0.4L65.5,83.1z"/>
	<path class="st0" d="M67.4,81.8c0.1-0.1,0.2-0.1,0.3,0c0.1,0,0.1,0.1,0.2,0.3l1,2c0.1,0.2,0.1,0.3,0.1,0.4c0,0.1-0.1,0.2-0.2,0.3
		l-0.1,0.1l0,0.1l2.4-1.2l-0.1-1l-0.1,0c0,0.2,0,0.4,0,0.5c0,0.1-0.1,0.2-0.2,0.3c-0.1,0.1-0.2,0.2-0.5,0.3L70,84
		c-0.2,0.1-0.3,0.1-0.4,0.2c0,0-0.1,0-0.1,0c0,0-0.1-0.1-0.2-0.2l-0.9-2c-0.1-0.2-0.1-0.3-0.1-0.4s0-0.1,0.1-0.2
		c0.1-0.1,0.2-0.1,0.3-0.2l0-0.1l-1.4,0.7l0,0.1L67.4,81.8z"/>
	<path class="st0" d="M56.9,28.8L56.9,28.8H57c0.6-1.6,1.8-2.5,2.5-2.9c-0.4-2-2-3.2-2.5-3.5c-0.5,0.3-2.2,1.5-2.5,3.6
		C55.3,26.4,56.3,27.3,56.9,28.8z"/>
	<path class="st0" d="M51.6,31.2c0.7,0.1,1.8,0.3,2.7,0.9c0.2-0.8,0.7-2.4,2-3.1c-0.7-1.8-2.2-2.6-2.7-2.9c-0.5,0.4-2.4,2-2.1,4.6
		C51.5,30.8,51.6,31,51.6,31.2z"/>
	<path class="st0" d="M57.5,29c1.4,0.7,1.9,2.3,2,3.1c0.8-0.5,2-0.8,2.7-0.9c0-0.2,0.1-0.3,0.1-0.5c0.2-2.5-1.6-4.2-2.1-4.6
		C59.8,26.3,58.2,27.2,57.5,29z"/>
	<path class="st0" d="M59.6,32.8l-0.4,0.4l-0.1-0.6c0,0-0.3-2.6-2.1-3.2c-1.9,0.6-2.1,3.2-2.1,3.2l-0.1,0.6l-0.4-0.4
		c-0.8-0.7-2.4-1-3-1.1c-1,2.8,0.4,4.6,0.7,5h9.8c0.4-0.4,1.7-2.1,0.7-5C62,31.8,60.4,32,59.6,32.8z"/>
</g>
</svg>
