<?xml version="1.0" encoding="utf-8"?>
<!-- Generator: Adobe Illustrator 16.0.0, SVG Export Plug-In . SVG Version: 6.00 Build 0)  -->
<!DOCTYPE svg PUBLIC "-//W3C//DTD SVG 1.1//EN" "http://www.w3.org/Graphics/SVG/1.1/DTD/svg11.dtd">
<svg version="1.1" id="Layer_1" xmlns="http://www.w3.org/2000/svg" xmlns:xlink="http://www.w3.org/1999/xlink" x="0px" y="0px"
	 width="985px" height="670px" viewBox="0 0 985 670" style="enable-background:new 0 0 985 670;" xml:space="preserve">
<style type="text/css">
<![CDATA[
	.st0{fill:#FFFFFF;}
]]>
</style>
<g>
	<path class="st0" d="M-1025,13.4v-13h-13V12h-10.3V0.4h-401c0.1,0.4,0.3,0.9,0.4,1.3h399.3V12h-11v1.3h22.7V36h1.3V25h10.3v620
		h-10.3v-11h-1.3v22.7h-22.7v1.3h11v10.3h-935.6V658h11v-1.3h-22.7V634h-1.3v11h-10.3V25h10.3v11h1.3V13.4h22.7V12h-11V1.7h403.2
		c0.1-0.4,0.3-0.9,0.4-1.3h-404.9V12h-10.3V0.4h-13v13h11.7v10.3h-11.7v622.6h11.7v10.3h-11.7v13h13V658h10.3v11.7h938.3V658h10.3
		v11.7h13v-13h-11.7v-10.3h11.7V23.7h-11.7V13.4H-1025z M-1036.7,1.7h10.3V12h-10.3V1.7z M-2008.7,12V1.7h10.3V12H-2008.7z
		 M-1998.3,668.3h-10.3V658h10.3V668.3z M-1026.3,658v10.3h-10.3V658H-1026.3z"/>
	<g>
		<g>
			<path class="st0" d="M-1917.8,447.5c0,0-0.5,2.5-0.8,4.9c-0.1,0.6-0.3,1.2-0.3,1.8c0,0.6,0.1,1.1,0.3,1.6
				c0.3,0.9,0.8,1.5,0.8,1.5h0.2c0,0,0.5-0.6,0.8-1.5c0.2-0.5,0.3-1,0.3-1.6c0-0.6-0.2-1.2-0.3-1.8c-0.3-2.5-0.8-4.9-0.8-4.9
				H-1917.8z"/>
			<g>
				<polygon class="st0" points="-1916.5,481.1 -1916.5,471.3 -1911,465.8 -1911,475.6 				"/>
				<polygon class="st0" points="-1916.5,494.2 -1916.5,484.4 -1911,478.9 -1911,488.7 				"/>
				<polygon class="st0" points="-1916.5,507.2 -1916.5,497.4 -1911,491.9 -1911,501.7 				"/>
				<polygon class="st0" points="-1916.5,520.3 -1916.5,510.5 -1911,505 -1911,514.8 				"/>
				<polygon class="st0" points="-1918.8,546.4 -1924.3,540.9 -1924.3,531.1 -1918.8,536.6 				"/>
				<polygon class="st0" points="-1916.5,468.1 -1916.5,458.2 -1911,452.8 -1911,462.6 				"/>
				<polygon class="st0" points="-1916.5,533.3 -1916.5,523.5 -1911,518 -1911,527.9 				"/>
				<polygon class="st0" points="-1918.8,507.2 -1924.3,501.7 -1924.3,491.9 -1918.8,497.4 				"/>
				<polygon class="st0" points="-1918.8,481.1 -1924.3,475.6 -1924.3,465.8 -1918.8,471.3 				"/>
				<polygon class="st0" points="-1918.8,468.1 -1924.3,462.6 -1924.3,452.8 -1918.8,458.2 				"/>
				<polygon class="st0" points="-1916.5,536.6 -1911,531.1 -1911,540.9 -1916.5,546.4 				"/>
				<polygon class="st0" points="-1918.8,533.3 -1924.3,527.8 -1924.3,518 -1918.8,523.5 				"/>
				<polygon class="st0" points="-1918.8,520.3 -1924.3,514.8 -1924.3,505 -1918.8,510.5 				"/>
				<polygon class="st0" points="-1918.8,494.2 -1924.3,488.7 -1924.3,478.9 -1918.8,484.4 				"/>
			</g>
			<path class="st0" d="M-1916.5,668.7c0-15.9,0-90.4,0-102.4c0-1.5,0.1-2.9,0-4.3c-0.1-1.4-0.2-2.7-0.3-3.9
				c-0.2-2.4-0.3-4.5-0.4-6.3c-0.3-3.5-0.4-5.5-0.4-5.5s-0.2,2-0.4,5.5c-0.1,1.7-0.3,3.9-0.4,6.3c-0.1,1.2-0.2,2.5-0.3,3.9
				c-0.1,1.4,0,2.8,0,4.3c0,11.9,0,86.5,0,102.4"/>
		</g>
		<g>
			<path class="st0" d="M-1791.7,522.3c0,0-0.3,1.6-0.5,3.3c0,0.4-0.2,0.8-0.2,1.2c0,0.4,0.1,0.7,0.2,1c0.2,0.6,0.5,1,0.5,1h0.1
				c0,0,0.3-0.4,0.5-1c0.1-0.3,0.2-0.7,0.2-1c0-0.4-0.1-0.8-0.2-1.2c-0.2-1.6-0.5-3.3-0.5-3.3H-1791.7z"/>
			<g>
				<polygon class="st0" points="-1790.9,544.6 -1790.9,538 -1787.2,534.4 -1787.2,540.9 				"/>
				<polygon class="st0" points="-1790.9,553.2 -1790.9,546.7 -1787.2,543 -1787.2,549.5 				"/>
				<polygon class="st0" points="-1790.9,561.8 -1790.9,555.3 -1787.2,551.7 -1787.2,558.2 				"/>
				<polygon class="st0" points="-1790.9,570.5 -1790.9,564 -1787.2,560.3 -1787.2,566.8 				"/>
				<polygon class="st0" points="-1792.4,587.7 -1796,584.1 -1796,577.6 -1792.4,581.2 				"/>
				<polygon class="st0" points="-1790.9,535.9 -1790.9,529.4 -1787.2,525.8 -1787.2,532.3 				"/>
				<polygon class="st0" points="-1790.9,579.1 -1790.9,572.6 -1787.2,569 -1787.2,575.5 				"/>
				<polygon class="st0" points="-1792.4,561.8 -1796,558.2 -1796,551.7 -1792.4,555.3 				"/>
				<polygon class="st0" points="-1792.4,544.6 -1796,540.9 -1796,534.4 -1792.4,538 				"/>
				<polygon class="st0" points="-1792.4,535.9 -1796,532.3 -1796,525.8 -1792.4,529.4 				"/>
				<polygon class="st0" points="-1790.9,581.2 -1787.2,577.6 -1787.2,584.1 -1790.9,587.7 				"/>
				<polygon class="st0" points="-1792.4,579.1 -1796,575.5 -1796,569 -1792.4,572.6 				"/>
				<polygon class="st0" points="-1792.4,570.5 -1796,566.8 -1796,560.3 -1792.4,564 				"/>
				<polygon class="st0" points="-1792.4,553.2 -1796,549.5 -1796,543 -1792.4,546.7 				"/>
			</g>
			<path class="st0" d="M-1790.9,668.7c0-10.5,0-59.9,0-67.8c0-1,0.1-1.9,0-2.8c-0.1-0.9-0.1-1.8-0.2-2.6c-0.1-1.6-0.2-3-0.3-4.2
				c-0.2-2.3-0.3-3.6-0.3-3.6s-0.1,1.3-0.3,3.6c-0.1,1.2-0.2,2.6-0.3,4.2c-0.1,0.8-0.1,1.7-0.2,2.6c-0.1,0.9,0,1.8,0,2.8
				c0,7.9,0,57.2,0,67.8"/>
		</g>
		<g>
			<path class="st0" d="M-1676.5,610.5c0,0-0.2,1.2-0.4,2.3c0,0.3-0.1,0.6-0.1,0.9c0,0.3,0.1,0.5,0.1,0.7c0.1,0.4,0.4,0.7,0.4,0.7
				h0.1c0,0,0.2-0.3,0.4-0.7c0.1-0.2,0.1-0.5,0.1-0.7c0-0.3-0.1-0.6-0.1-0.9c-0.1-1.2-0.4-2.3-0.4-2.3H-1676.5z"/>
			<g>
				<polygon class="st0" points="-1675.9,626.4 -1675.9,621.8 -1673.3,619.2 -1673.3,623.8 				"/>
				<polygon class="st0" points="-1675.9,632.5 -1675.9,627.9 -1673.3,625.3 -1673.3,630 				"/>
				<polygon class="st0" points="-1675.9,638.7 -1675.9,634.1 -1673.3,631.5 -1673.3,636.1 				"/>
				<polygon class="st0" points="-1675.9,644.9 -1675.9,640.2 -1673.3,637.6 -1673.3,642.3 				"/>
				<polygon class="st0" points="-1676.9,657.2 -1679.5,654.6 -1679.5,649.9 -1676.9,652.5 				"/>
				<polygon class="st0" points="-1675.9,620.2 -1675.9,615.6 -1673.3,613 -1673.3,617.6 				"/>
				<polygon class="st0" points="-1675.9,651 -1675.9,646.4 -1673.3,643.8 -1673.3,648.4 				"/>
				<polygon class="st0" points="-1676.9,638.7 -1679.5,636.1 -1679.5,631.5 -1676.9,634.1 				"/>
				<polygon class="st0" points="-1676.9,626.4 -1679.5,623.8 -1679.5,619.2 -1676.9,621.8 				"/>
				<polygon class="st0" points="-1676.9,620.2 -1679.5,617.6 -1679.5,613 -1676.9,615.6 				"/>
				<polygon class="st0" points="-1675.9,652.5 -1673.3,649.9 -1673.3,654.6 -1675.9,657.2 				"/>
				<polygon class="st0" points="-1676.9,651 -1679.5,648.4 -1679.5,643.8 -1676.9,646.4 				"/>
				<polygon class="st0" points="-1676.9,644.9 -1679.5,642.3 -1679.5,637.6 -1676.9,640.2 				"/>
				<polygon class="st0" points="-1676.9,632.5 -1679.5,630 -1679.5,625.3 -1676.9,627.9 				"/>
			</g>
			<path class="st0" d="M-1675.9,668.7c0-7.5,0,3.5,0-2.1c0-0.7,0-1.4,0-2c0-0.6-0.1-1.3-0.1-1.8c-0.1-1.1-0.1-2.1-0.2-3
				c-0.1-1.6-0.2-2.6-0.2-2.6s-0.1,0.9-0.2,2.6c-0.1,0.8-0.1,1.8-0.2,3c0,0.6-0.1,1.2-0.1,1.8c0,0.6,0,1.3,0,2c0,5.6,0-5.4,0,2.1"/>
		</g>
	</g>
	<g>
		<g>
			<path class="st0" d="M-1099.9,489.1c0,0-0.5,2.3-0.8,4.7c-0.1,0.6-0.2,1.2-0.3,1.7c0,0.5,0.1,1.1,0.3,1.5
				c0.3,0.9,0.8,1.5,0.8,1.5h0.2c0,0,0.5-0.6,0.8-1.5c0.1-0.4,0.3-0.9,0.3-1.5c0-0.5-0.2-1.1-0.3-1.7c-0.3-2.3-0.8-4.7-0.8-4.7
				H-1099.9z"/>
			<g>
				<polygon class="st0" points="-1098.7,521 -1098.7,511.7 -1093.5,506.5 -1093.5,515.8 				"/>
				<polygon class="st0" points="-1098.7,533.4 -1098.7,524 -1093.5,518.8 -1093.5,528.2 				"/>
				<polygon class="st0" points="-1098.7,545.7 -1098.7,536.4 -1093.5,531.2 -1093.5,540.5 				"/>
				<polygon class="st0" points="-1098.7,558.1 -1098.7,548.8 -1093.5,543.6 -1093.5,552.9 				"/>
				<polygon class="st0" points="-1100.9,582.9 -1106.1,577.6 -1106.1,568.3 -1100.9,573.5 				"/>
				<polygon class="st0" points="-1098.7,508.6 -1098.7,499.3 -1093.5,494.1 -1093.5,503.4 				"/>
				<polygon class="st0" points="-1098.7,570.5 -1098.7,561.2 -1093.5,555.9 -1093.5,565.3 				"/>
				<polygon class="st0" points="-1100.9,545.7 -1106.1,540.5 -1106.1,531.2 -1100.9,536.4 				"/>
				<polygon class="st0" points="-1100.9,521 -1106.1,515.8 -1106.1,506.5 -1100.9,511.7 				"/>
				<polygon class="st0" points="-1100.9,508.6 -1106.1,503.4 -1106.1,494.1 -1100.9,499.3 				"/>
				<polygon class="st0" points="-1098.7,573.5 -1093.5,568.3 -1093.5,577.6 -1098.7,582.9 				"/>
				<polygon class="st0" points="-1100.9,570.5 -1106.1,565.3 -1106.1,555.9 -1100.9,561.2 				"/>
				<polygon class="st0" points="-1100.9,558.1 -1106.1,552.9 -1106.1,543.6 -1100.9,548.8 				"/>
				<polygon class="st0" points="-1100.9,533.4 -1106.1,528.2 -1106.1,518.8 -1100.9,524 				"/>
			</g>
			<path class="st0" d="M-1098.7,669.3c0-15.1,0-56.3,0-67.6c0-1.4,0.1-2.8,0-4.1c-0.1-1.3-0.2-2.5-0.2-3.7c-0.2-2.3-0.3-4.3-0.4-6
				c-0.3-3.3-0.4-5.2-0.4-5.2s-0.2,1.9-0.4,5.2c-0.1,1.6-0.3,3.7-0.4,6c-0.1,1.1-0.2,2.4-0.2,3.7c-0.1,1.3,0,2.6,0,4.1
				c0,11.3,0,52.5,0,67.6"/>
		</g>
		<g>
			<path class="st0" d="M-1214.7,568.8c0,0-0.3,1.3-0.4,2.6c0,0.3-0.1,0.7-0.1,1c0,0.3,0.1,0.6,0.1,0.8c0.1,0.5,0.4,0.8,0.4,0.8h0.1
				c0,0,0.3-0.3,0.4-0.8c0.1-0.2,0.1-0.5,0.1-0.8c0-0.3-0.1-0.6-0.1-1c-0.2-1.3-0.4-2.6-0.4-2.6H-1214.7z"/>
			<g>
				<polygon class="st0" points="-1214.1,586.6 -1214.1,581.4 -1211.2,578.5 -1211.2,583.7 				"/>
				<polygon class="st0" points="-1214.1,593.5 -1214.1,588.3 -1211.2,585.4 -1211.2,590.6 				"/>
				<polygon class="st0" points="-1214.1,600.4 -1214.1,595.2 -1211.2,592.3 -1211.2,597.5 				"/>
				<polygon class="st0" points="-1214.1,607.3 -1214.1,602.1 -1211.2,599.2 -1211.2,604.4 				"/>
				<polygon class="st0" points="-1215.3,621.1 -1218.2,618.2 -1218.2,613 -1215.3,615.9 				"/>
				<polygon class="st0" points="-1214.1,579.7 -1214.1,574.5 -1211.2,571.6 -1211.2,576.8 				"/>
				<polygon class="st0" points="-1214.1,614.2 -1214.1,609 -1211.2,606.1 -1211.2,611.3 				"/>
				<polygon class="st0" points="-1215.3,600.4 -1218.2,597.5 -1218.2,592.3 -1215.3,595.2 				"/>
				<polygon class="st0" points="-1215.3,586.6 -1218.2,583.7 -1218.2,578.5 -1215.3,581.4 				"/>
				<polygon class="st0" points="-1215.3,579.7 -1218.2,576.8 -1218.2,571.6 -1215.3,574.5 				"/>
				<polygon class="st0" points="-1214.1,615.9 -1211.2,613 -1211.2,618.2 -1214.1,621.1 				"/>
				<polygon class="st0" points="-1215.3,614.2 -1218.2,611.3 -1218.2,606.1 -1215.3,609 				"/>
				<polygon class="st0" points="-1215.3,607.3 -1218.2,604.4 -1218.2,599.2 -1215.3,602.1 				"/>
				<polygon class="st0" points="-1215.3,593.5 -1218.2,590.6 -1218.2,585.4 -1215.3,588.3 				"/>
			</g>
			<path class="st0" d="M-1214.1,669.3c0-8.4,0-31.4,0-37.7c0-0.8,0-1.5,0-2.3c-0.1-0.7-0.1-1.4-0.1-2c-0.1-1.3-0.2-2.4-0.2-3.3
				c-0.1-1.8-0.2-2.9-0.2-2.9s-0.1,1.1-0.2,2.9c-0.1,0.9-0.1,2-0.2,3.3c0,0.6-0.1,1.3-0.1,2c0,0.7,0,1.5,0,2.3c0,6.3,0,29.3,0,37.7"
				/>
		</g>
		<g>
			<path class="st0" d="M-1339.1,597.9c0,0-0.3,1.4-0.5,2.8c0,0.4-0.1,0.7-0.2,1c0,0.3,0.1,0.6,0.2,0.9c0.2,0.5,0.5,0.9,0.5,0.9h0.1
				c0,0,0.3-0.3,0.5-0.9c0.1-0.3,0.2-0.6,0.2-0.9c0-0.3-0.1-0.7-0.2-1c-0.2-1.4-0.5-2.8-0.5-2.8H-1339.1z"/>
			<g>
				<polygon class="st0" points="-1338.3,617.2 -1338.3,611.6 -1335.2,608.4 -1335.2,614 				"/>
				<polygon class="st0" points="-1338.3,624.7 -1338.3,619 -1335.2,615.9 -1335.2,621.5 				"/>
				<polygon class="st0" points="-1338.3,632.2 -1338.3,626.5 -1335.2,623.4 -1335.2,629 				"/>
				<polygon class="st0" points="-1338.3,639.7 -1338.3,634 -1335.2,630.9 -1335.2,636.5 				"/>
				<polygon class="st0" points="-1339.6,654.7 -1342.8,651.5 -1342.8,645.9 -1339.6,649 				"/>
				<polygon class="st0" points="-1338.3,609.7 -1338.3,604.1 -1335.2,600.9 -1335.2,606.5 				"/>
				<polygon class="st0" points="-1338.3,647.2 -1338.3,641.5 -1335.2,638.4 -1335.2,644 				"/>
				<polygon class="st0" points="-1339.6,632.2 -1342.8,629 -1342.8,623.4 -1339.6,626.5 				"/>
				<polygon class="st0" points="-1339.6,617.2 -1342.8,614 -1342.8,608.4 -1339.6,611.6 				"/>
				<polygon class="st0" points="-1339.6,609.7 -1342.8,606.5 -1342.8,600.9 -1339.6,604.1 				"/>
				<polygon class="st0" points="-1338.3,649 -1335.2,645.9 -1335.2,651.5 -1338.3,654.7 				"/>
				<polygon class="st0" points="-1339.6,647.2 -1342.8,644 -1342.8,638.4 -1339.6,641.5 				"/>
				<polygon class="st0" points="-1339.6,639.7 -1342.8,636.5 -1342.8,630.9 -1339.6,634 				"/>
				<polygon class="st0" points="-1339.6,624.7 -1342.8,621.5 -1342.8,615.9 -1339.6,619 				"/>
			</g>
			<path class="st0" d="M-1338.3,668.7c0-9.1,0,4.3,0-2.6c0-0.9,0-1.7,0-2.5c0-0.8-0.1-1.5-0.1-2.2c-0.1-1.4-0.2-2.6-0.3-3.6
				c-0.2-2-0.3-3.1-0.3-3.1s-0.1,1.1-0.3,3.1c-0.1,1-0.2,2.2-0.3,3.6c0,0.7-0.1,1.4-0.1,2.2c-0.1,0.8,0,1.6,0,2.5c0,6.9,0-6.6,0,2.6
				"/>
		</g>
	</g>
</g>
<g>
	<path class="st0" d="M985,13.4v-13h-13V12h-10.3V0.4h-401c0.1,0.4,0.3,0.9,0.4,1.3h399.3V12h-11v1.3H972V36h1.3V25h10.3v620h-10.3
		v-11H972v22.7h-22.7v1.3h11v10.3H24.7V658h11v-1.3H13V634h-1.3v11H1.3V25h10.3v11H13V13.4h22.7V12h-11V1.7h403.2
		c0.1-0.4,0.3-0.9,0.4-1.3H23.4V12H13V0.4H0v13h11.7v10.3H0v622.6h11.7v10.3H0v13h13V658h10.3v11.7h938.3V658H972v11.7h13v-13h-11.7
		v-10.3H985V23.7h-11.7V13.4H985z M973.3,1.7h10.3V12h-10.3V1.7z M1.3,12V1.7h10.3V12H1.3z M11.7,668.3H1.3V658h10.3V668.3z
		 M983.7,658v10.3h-10.3V658H983.7z"/>
</g>
<path class="st0" d="M-1005,25h11.7v11h1.3V13.4h22.7V12h-11V1.7h403.2c0.1-0.4,0.3-0.9,0.4-1.3h-404.9V12H-992V0.4h-13v13h11.7
	v10.3h-11.7V25z M-20,25v-1.3h-11.7V13.4H-20v-13h-13V12h-10.3V0.4h-401c0.1,0.4,0.3,0.9,0.4,1.3h399.3V12h-11v1.3H-33V36h1.3V25
	H-20L-20,25z M-31.7,1.7h10.3V12h-10.3V1.7z M-1003.7,12V1.7h10.3V12H-1003.7z"/>
</svg>
