<?xml version="1.0" encoding="utf-8"?>
<!-- Generator: Adobe Illustrator 16.0.0, SVG Export Plug-In . SVG Version: 6.00 Build 0)  -->
<!DOCTYPE svg PUBLIC "-//W3C//DTD SVG 1.1//EN" "http://www.w3.org/Graphics/SVG/1.1/DTD/svg11.dtd">
<svg version="1.1" id="Layer_1" xmlns="http://www.w3.org/2000/svg" xmlns:xlink="http://www.w3.org/1999/xlink" x="0px" y="0px"
	 width="985px" height="670px" viewBox="0 0 985 670" style="enable-background:new 0 0 985 670;" xml:space="preserve">
<style type="text/css">
<![CDATA[
	.st0{fill:#FFFFFF;}
]]>
</style>
<g>
	<path class="st0" d="M985,13.4v-13h-13V12h-10.3V0.4h-401c0.1,0.4,0.3,0.9,0.4,1.3h399.3V12h-11v1.3H972V36h1.3V25h10.3v620h-10.3
		v-11H972v22.7h-22.7v1.3h11v10.3H24.7V658h11v-1.3H13V634h-1.3v11H1.3V25h10.3v11H13V13.4h22.7V12h-11V1.7h403.2
		c0.1-0.4,0.3-0.9,0.4-1.3H23.4V12H13V0.4H0v13h11.7v10.3H0v622.6h11.7v10.3H0v13h13V658h10.3v11.7h938.3V658H972v11.7h13v-13h-11.7
		v-10.3H985V23.7h-11.7V13.4H985z M973.3,1.7h10.3V12h-10.3V1.7z M1.3,12V1.7h10.3V12H1.3z M11.7,668.3H1.3V658h10.3V668.3z
		 M983.7,658v10.3h-10.3V658H983.7z"/>
	<g>
		<g>
			<path class="st0" d="M92.2,447.5c0,0-0.5,2.5-0.8,4.9c-0.1,0.6-0.3,1.2-0.3,1.8c0,0.6,0.1,1.1,0.3,1.6c0.3,0.9,0.8,1.5,0.8,1.5
				h0.2c0,0,0.5-0.6,0.8-1.5c0.2-0.5,0.3-1,0.3-1.6c0-0.6-0.2-1.2-0.3-1.8c-0.3-2.5-0.8-4.9-0.8-4.9H92.2z"/>
			<g>
				<polygon class="st0" points="93.5,481.1 93.5,471.3 99,465.8 99,475.6 				"/>
				<polygon class="st0" points="93.5,494.2 93.5,484.4 99,478.9 99,488.7 				"/>
				<polygon class="st0" points="93.5,507.2 93.5,497.4 99,491.9 99,501.7 				"/>
				<polygon class="st0" points="93.5,520.3 93.5,510.5 99,505 99,514.8 				"/>
				<polygon class="st0" points="91.2,546.4 85.7,540.9 85.7,531.1 91.2,536.6 				"/>
				<polygon class="st0" points="93.5,468.1 93.5,458.2 99,452.8 99,462.6 				"/>
				<polygon class="st0" points="93.5,533.3 93.5,523.5 99,518 99,527.9 				"/>
				<polygon class="st0" points="91.2,507.2 85.7,501.7 85.7,491.9 91.2,497.4 				"/>
				<polygon class="st0" points="91.2,481.1 85.7,475.6 85.7,465.8 91.2,471.3 				"/>
				<polygon class="st0" points="91.2,468.1 85.7,462.6 85.7,452.8 91.2,458.2 				"/>
				<polygon class="st0" points="93.5,536.6 99,531.1 99,540.9 93.5,546.4 				"/>
				<polygon class="st0" points="91.2,533.3 85.7,527.8 85.7,518 91.2,523.5 				"/>
				<polygon class="st0" points="91.2,520.3 85.7,514.8 85.7,505 91.2,510.5 				"/>
				<polygon class="st0" points="91.2,494.2 85.7,488.7 85.7,478.9 91.2,484.4 				"/>
			</g>
			<path class="st0" d="M93.5,668.7c0-15.9,0-90.4,0-102.4c0-1.5,0.1-2.9,0-4.3c-0.1-1.4-0.2-2.7-0.3-3.9c-0.2-2.4-0.3-4.5-0.4-6.3
				c-0.3-3.5-0.4-5.5-0.4-5.5s-0.2,2-0.4,5.5c-0.1,1.7-0.3,3.9-0.4,6.3c-0.1,1.2-0.2,2.5-0.3,3.9c-0.1,1.4,0,2.8,0,4.3
				c0,11.9,0,86.5,0,102.4"/>
		</g>
		<g>
			<path class="st0" d="M218.3,522.3c0,0-0.3,1.6-0.5,3.3c0,0.4-0.2,0.8-0.2,1.2c0,0.4,0.1,0.7,0.2,1c0.2,0.6,0.5,1,0.5,1h0.1
				c0,0,0.3-0.4,0.5-1c0.1-0.3,0.2-0.7,0.2-1c0-0.4-0.1-0.8-0.2-1.2c-0.2-1.6-0.5-3.3-0.5-3.3H218.3z"/>
			<g>
				<polygon class="st0" points="219.1,544.6 219.1,538 222.8,534.4 222.8,540.9 				"/>
				<polygon class="st0" points="219.1,553.2 219.1,546.7 222.8,543 222.8,549.5 				"/>
				<polygon class="st0" points="219.1,561.8 219.1,555.3 222.8,551.7 222.8,558.2 				"/>
				<polygon class="st0" points="219.1,570.5 219.1,564 222.8,560.3 222.8,566.8 				"/>
				<polygon class="st0" points="217.6,587.7 214,584.1 214,577.6 217.6,581.2 				"/>
				<polygon class="st0" points="219.1,535.9 219.1,529.4 222.8,525.8 222.8,532.3 				"/>
				<polygon class="st0" points="219.1,579.1 219.1,572.6 222.8,569 222.8,575.5 				"/>
				<polygon class="st0" points="217.6,561.8 214,558.2 214,551.7 217.6,555.3 				"/>
				<polygon class="st0" points="217.6,544.6 214,540.9 214,534.4 217.6,538 				"/>
				<polygon class="st0" points="217.6,535.9 214,532.3 214,525.8 217.6,529.4 				"/>
				<polygon class="st0" points="219.1,581.2 222.8,577.6 222.8,584.1 219.1,587.7 				"/>
				<polygon class="st0" points="217.6,579.1 214,575.5 214,569 217.6,572.6 				"/>
				<polygon class="st0" points="217.6,570.5 214,566.8 214,560.3 217.6,564 				"/>
				<polygon class="st0" points="217.6,553.2 214,549.5 214,543 217.6,546.7 				"/>
			</g>
			<path class="st0" d="M219.1,668.7c0-10.5,0-59.9,0-67.8c0-1,0.1-1.9,0-2.8c-0.1-0.9-0.1-1.8-0.2-2.6c-0.1-1.6-0.2-3-0.3-4.2
				c-0.2-2.3-0.3-3.6-0.3-3.6s-0.1,1.3-0.3,3.6c-0.1,1.2-0.2,2.6-0.3,4.2c-0.1,0.8-0.1,1.7-0.2,2.6c-0.1,0.9,0,1.8,0,2.8
				c0,7.9,0,57.2,0,67.8"/>
		</g>
		<g>
			<path class="st0" d="M333.5,610.5c0,0-0.2,1.2-0.4,2.3c0,0.3-0.1,0.6-0.1,0.9c0,0.3,0.1,0.5,0.1,0.7c0.1,0.4,0.4,0.7,0.4,0.7h0.1
				c0,0,0.2-0.3,0.4-0.7c0.1-0.2,0.1-0.5,0.1-0.7c0-0.3-0.1-0.6-0.1-0.9c-0.1-1.2-0.4-2.3-0.4-2.3H333.5z"/>
			<g>
				<polygon class="st0" points="334.1,626.4 334.1,621.8 336.7,619.2 336.7,623.8 				"/>
				<polygon class="st0" points="334.1,632.5 334.1,627.9 336.7,625.3 336.7,630 				"/>
				<polygon class="st0" points="334.1,638.7 334.1,634.1 336.7,631.5 336.7,636.1 				"/>
				<polygon class="st0" points="334.1,644.9 334.1,640.2 336.7,637.6 336.7,642.3 				"/>
				<polygon class="st0" points="333.1,657.2 330.5,654.6 330.5,649.9 333.1,652.5 				"/>
				<polygon class="st0" points="334.1,620.2 334.1,615.6 336.7,613 336.7,617.6 				"/>
				<polygon class="st0" points="334.1,651 334.1,646.4 336.7,643.8 336.7,648.4 				"/>
				<polygon class="st0" points="333.1,638.7 330.5,636.1 330.5,631.5 333.1,634.1 				"/>
				<polygon class="st0" points="333.1,626.4 330.5,623.8 330.5,619.2 333.1,621.8 				"/>
				<polygon class="st0" points="333.1,620.2 330.5,617.6 330.5,613 333.1,615.6 				"/>
				<polygon class="st0" points="334.1,652.5 336.7,649.9 336.7,654.6 334.1,657.2 				"/>
				<polygon class="st0" points="333.1,651 330.5,648.4 330.5,643.8 333.1,646.4 				"/>
				<polygon class="st0" points="333.1,644.9 330.5,642.3 330.5,637.6 333.1,640.2 				"/>
				<polygon class="st0" points="333.1,632.5 330.5,630 330.5,625.3 333.1,627.9 				"/>
			</g>
			<path class="st0" d="M334.1,668.7c0-7.5,0,3.5,0-2.1c0-0.7,0-1.4,0-2c0-0.6-0.1-1.3-0.1-1.8c-0.1-1.1-0.1-2.1-0.2-3
				c-0.1-1.6-0.2-2.6-0.2-2.6s-0.1,0.9-0.2,2.6c-0.1,0.8-0.1,1.8-0.2,3c0,0.6-0.1,1.2-0.1,1.8c0,0.6,0,1.3,0,2c0,5.6,0-5.4,0,2.1"/>
		</g>
	</g>
	<g>
		<g>
			<path class="st0" d="M910.1,489.1c0,0-0.5,2.3-0.8,4.7c-0.1,0.6-0.2,1.2-0.3,1.7c0,0.5,0.1,1.1,0.3,1.5c0.3,0.9,0.8,1.5,0.8,1.5
				h0.2c0,0,0.5-0.6,0.8-1.5c0.1-0.4,0.3-0.9,0.3-1.5c0-0.5-0.2-1.1-0.3-1.7c-0.3-2.3-0.8-4.7-0.8-4.7H910.1z"/>
			<g>
				<polygon class="st0" points="911.3,521 911.3,511.7 916.5,506.5 916.5,515.8 				"/>
				<polygon class="st0" points="911.3,533.4 911.3,524 916.5,518.8 916.5,528.2 				"/>
				<polygon class="st0" points="911.3,545.7 911.3,536.4 916.5,531.2 916.5,540.5 				"/>
				<polygon class="st0" points="911.3,558.1 911.3,548.8 916.5,543.6 916.5,552.9 				"/>
				<polygon class="st0" points="909.1,582.9 903.9,577.6 903.9,568.3 909.1,573.5 				"/>
				<polygon class="st0" points="911.3,508.6 911.3,499.3 916.5,494.1 916.5,503.4 				"/>
				<polygon class="st0" points="911.3,570.5 911.3,561.2 916.5,555.9 916.5,565.3 				"/>
				<polygon class="st0" points="909.1,545.7 903.9,540.5 903.9,531.2 909.1,536.4 				"/>
				<polygon class="st0" points="909.1,521 903.9,515.8 903.9,506.5 909.1,511.7 				"/>
				<polygon class="st0" points="909.1,508.6 903.9,503.4 903.9,494.1 909.1,499.3 				"/>
				<polygon class="st0" points="911.3,573.5 916.5,568.3 916.5,577.6 911.3,582.9 				"/>
				<polygon class="st0" points="909.1,570.5 903.9,565.3 903.9,555.9 909.1,561.2 				"/>
				<polygon class="st0" points="909.1,558.1 903.9,552.9 903.9,543.6 909.1,548.8 				"/>
				<polygon class="st0" points="909.1,533.4 903.9,528.2 903.9,518.8 909.1,524 				"/>
			</g>
			<path class="st0" d="M911.3,669.3c0-15.1,0-56.3,0-67.6c0-1.4,0.1-2.8,0-4.1c-0.1-1.3-0.2-2.5-0.2-3.7c-0.2-2.3-0.3-4.3-0.4-6
				c-0.3-3.3-0.4-5.2-0.4-5.2s-0.2,1.9-0.4,5.2c-0.1,1.6-0.3,3.7-0.4,6c-0.1,1.1-0.2,2.4-0.2,3.7c-0.1,1.3,0,2.6,0,4.1
				c0,11.3,0,52.5,0,67.6"/>
		</g>
		<g>
			<path class="st0" d="M795.3,568.8c0,0-0.3,1.3-0.4,2.6c0,0.3-0.1,0.7-0.1,1c0,0.3,0.1,0.6,0.1,0.8c0.1,0.5,0.4,0.8,0.4,0.8h0.1
				c0,0,0.3-0.3,0.4-0.8c0.1-0.2,0.1-0.5,0.1-0.8c0-0.3-0.1-0.6-0.1-1c-0.2-1.3-0.4-2.6-0.4-2.6H795.3z"/>
			<g>
				<polygon class="st0" points="795.9,586.6 795.9,581.4 798.8,578.5 798.8,583.7 				"/>
				<polygon class="st0" points="795.9,593.5 795.9,588.3 798.8,585.4 798.8,590.6 				"/>
				<polygon class="st0" points="795.9,600.4 795.9,595.2 798.8,592.3 798.8,597.5 				"/>
				<polygon class="st0" points="795.9,607.3 795.9,602.1 798.8,599.2 798.8,604.4 				"/>
				<polygon class="st0" points="794.7,621.1 791.8,618.2 791.8,613 794.7,615.9 				"/>
				<polygon class="st0" points="795.9,579.7 795.9,574.5 798.8,571.6 798.8,576.8 				"/>
				<polygon class="st0" points="795.9,614.2 795.9,609 798.8,606.1 798.8,611.3 				"/>
				<polygon class="st0" points="794.7,600.4 791.8,597.5 791.8,592.3 794.7,595.2 				"/>
				<polygon class="st0" points="794.7,586.6 791.8,583.7 791.8,578.5 794.7,581.4 				"/>
				<polygon class="st0" points="794.7,579.7 791.8,576.8 791.8,571.6 794.7,574.5 				"/>
				<polygon class="st0" points="795.9,615.9 798.8,613 798.8,618.2 795.9,621.1 				"/>
				<polygon class="st0" points="794.7,614.2 791.8,611.3 791.8,606.1 794.7,609 				"/>
				<polygon class="st0" points="794.7,607.3 791.8,604.4 791.8,599.2 794.7,602.1 				"/>
				<polygon class="st0" points="794.7,593.5 791.8,590.6 791.8,585.4 794.7,588.3 				"/>
			</g>
			<path class="st0" d="M795.9,669.3c0-8.4,0-31.4,0-37.7c0-0.8,0-1.5,0-2.3c-0.1-0.7-0.1-1.4-0.1-2c-0.1-1.3-0.2-2.4-0.2-3.3
				c-0.1-1.8-0.2-2.9-0.2-2.9s-0.1,1.1-0.2,2.9c-0.1,0.9-0.1,2-0.2,3.3c0,0.6-0.1,1.3-0.1,2c0,0.7,0,1.5,0,2.3c0,6.3,0,29.3,0,37.7"
				/>
		</g>
		<g>
			<path class="st0" d="M670.9,597.9c0,0-0.3,1.4-0.5,2.8c0,0.4-0.1,0.7-0.2,1c0,0.3,0.1,0.6,0.2,0.9c0.2,0.5,0.5,0.9,0.5,0.9h0.1
				c0,0,0.3-0.3,0.5-0.9c0.1-0.3,0.2-0.6,0.2-0.9c0-0.3-0.1-0.7-0.2-1c-0.2-1.4-0.5-2.8-0.5-2.8H670.9z"/>
			<g>
				<polygon class="st0" points="671.7,617.2 671.7,611.6 674.8,608.4 674.8,614 				"/>
				<polygon class="st0" points="671.7,624.7 671.7,619 674.8,615.9 674.8,621.5 				"/>
				<polygon class="st0" points="671.7,632.2 671.7,626.5 674.8,623.4 674.8,629 				"/>
				<polygon class="st0" points="671.7,639.7 671.7,634 674.8,630.9 674.8,636.5 				"/>
				<polygon class="st0" points="670.4,654.7 667.2,651.5 667.2,645.9 670.4,649 				"/>
				<polygon class="st0" points="671.7,609.7 671.7,604.1 674.8,600.9 674.8,606.5 				"/>
				<polygon class="st0" points="671.7,647.2 671.7,641.5 674.8,638.4 674.8,644 				"/>
				<polygon class="st0" points="670.4,632.2 667.2,629 667.2,623.4 670.4,626.5 				"/>
				<polygon class="st0" points="670.4,617.2 667.2,614 667.2,608.4 670.4,611.6 				"/>
				<polygon class="st0" points="670.4,609.7 667.2,606.5 667.2,600.9 670.4,604.1 				"/>
				<polygon class="st0" points="671.7,649 674.8,645.9 674.8,651.5 671.7,654.7 				"/>
				<polygon class="st0" points="670.4,647.2 667.2,644 667.2,638.4 670.4,641.5 				"/>
				<polygon class="st0" points="670.4,639.7 667.2,636.5 667.2,630.9 670.4,634 				"/>
				<polygon class="st0" points="670.4,624.7 667.2,621.5 667.2,615.9 670.4,619 				"/>
			</g>
			<path class="st0" d="M671.7,668.7c0-9.1,0,4.3,0-2.6c0-0.9,0-1.7,0-2.5c0-0.8-0.1-1.5-0.1-2.2c-0.1-1.4-0.2-2.6-0.3-3.6
				c-0.2-2-0.3-3.1-0.3-3.1s-0.1,1.1-0.3,3.1c-0.1,1-0.2,2.2-0.3,3.6c0,0.7-0.1,1.4-0.1,2.2c-0.1,0.8,0,1.6,0,2.5c0,6.9,0-6.6,0,2.6
				"/>
		</g>
	</g>
</g>
</svg>
