<?xml version="1.0" encoding="utf-8"?>
<!-- Generator: Adobe Illustrator 16.0.0, SVG Export Plug-In . SVG Version: 6.00 Build 0)  -->
<!DOCTYPE svg PUBLIC "-//W3C//DTD SVG 1.1//EN" "http://www.w3.org/Graphics/SVG/1.1/DTD/svg11.dtd">
<svg version="1.1" id="Layer_1" xmlns="http://www.w3.org/2000/svg" xmlns:xlink="http://www.w3.org/1999/xlink" x="0px" y="0px"
	 width="985px" height="36px" viewBox="0 0 985 36" style="enable-background:new 0 0 985 36;" xml:space="preserve">
<style type="text/css">
<![CDATA[
	.st0{fill:#FFFFFF;}
]]>
</style>
<g>
	<path class="st0" d="M-20,13.4v-13h-13V12h-10.3V0.4h-401c0.1,0.4,0.3,0.9,0.4,1.3h399.3V12h-11v1.3H-33V36h1.3V25h10.3v620h-10.3
		v-11H-33v22.7h-22.7v1.3h11v10.3h-935.6V658h11v-1.3H-992V634h-1.3v11h-10.3V25h10.3v11h1.3V13.4h22.7V12h-11V1.7h403.2
		c0.1-0.4,0.3-0.9,0.4-1.3h-404.9V12H-992V0.4h-13v13h11.7v10.3h-11.7v622.6h11.7v10.3h-11.7v13h13V658h10.3v11.7h938.3V658H-33
		v11.7h13v-13h-11.7v-10.3H-20V23.7h-11.7V13.4H-20z M-31.7,1.7h10.3V12h-10.3V1.7z M-1003.7,12V1.7h10.3V12H-1003.7z M-993.3,668.3
		h-10.3V658h10.3V668.3z M-21.3,658v10.3h-10.3V658H-21.3z"/>
	<g>
		<g>
			<path class="st0" d="M-912.8,447.5c0,0-0.5,2.5-0.8,4.9c-0.1,0.6-0.3,1.2-0.3,1.8c0,0.6,0.1,1.1,0.3,1.6c0.3,0.9,0.8,1.5,0.8,1.5
				h0.2c0,0,0.5-0.6,0.8-1.5c0.2-0.5,0.3-1,0.3-1.6c0-0.6-0.2-1.2-0.3-1.8c-0.3-2.5-0.8-4.9-0.8-4.9H-912.8z"/>
			<g>
				<polygon class="st0" points="-911.5,481.1 -911.5,471.3 -906,465.8 -906,475.6 				"/>
				<polygon class="st0" points="-911.5,494.2 -911.5,484.4 -906,478.9 -906,488.7 				"/>
				<polygon class="st0" points="-911.5,507.2 -911.5,497.4 -906,491.9 -906,501.7 				"/>
				<polygon class="st0" points="-911.5,520.3 -911.5,510.5 -906,505 -906,514.8 				"/>
				<polygon class="st0" points="-913.8,546.4 -919.3,540.9 -919.3,531.1 -913.8,536.6 				"/>
				<polygon class="st0" points="-911.5,468.1 -911.5,458.2 -906,452.8 -906,462.6 				"/>
				<polygon class="st0" points="-911.5,533.3 -911.5,523.5 -906,518 -906,527.9 				"/>
				<polygon class="st0" points="-913.8,507.2 -919.3,501.7 -919.3,491.9 -913.8,497.4 				"/>
				<polygon class="st0" points="-913.8,481.1 -919.3,475.6 -919.3,465.8 -913.8,471.3 				"/>
				<polygon class="st0" points="-913.8,468.1 -919.3,462.6 -919.3,452.8 -913.8,458.2 				"/>
				<polygon class="st0" points="-911.5,536.6 -906,531.1 -906,540.9 -911.5,546.4 				"/>
				<polygon class="st0" points="-913.8,533.3 -919.3,527.8 -919.3,518 -913.8,523.5 				"/>
				<polygon class="st0" points="-913.8,520.3 -919.3,514.8 -919.3,505 -913.8,510.5 				"/>
				<polygon class="st0" points="-913.8,494.2 -919.3,488.7 -919.3,478.9 -913.8,484.4 				"/>
			</g>
			<path class="st0" d="M-911.5,668.7c0-15.9,0-90.4,0-102.4c0-1.5,0.1-2.9,0-4.3c-0.1-1.4-0.2-2.7-0.3-3.9
				c-0.2-2.4-0.3-4.5-0.4-6.3c-0.3-3.5-0.4-5.5-0.4-5.5s-0.2,2-0.4,5.5c-0.1,1.7-0.3,3.9-0.4,6.3c-0.1,1.2-0.2,2.5-0.3,3.9
				c-0.1,1.4,0,2.8,0,4.3c0,11.9,0,86.5,0,102.4"/>
		</g>
		<g>
			<path class="st0" d="M-786.7,522.3c0,0-0.3,1.6-0.5,3.3c0,0.4-0.2,0.8-0.2,1.2c0,0.4,0.1,0.7,0.2,1c0.2,0.6,0.5,1,0.5,1h0.1
				c0,0,0.3-0.4,0.5-1c0.1-0.3,0.2-0.7,0.2-1c0-0.4-0.1-0.8-0.2-1.2c-0.2-1.6-0.5-3.3-0.5-3.3H-786.7z"/>
			<g>
				<polygon class="st0" points="-785.9,544.6 -785.9,538 -782.2,534.4 -782.2,540.9 				"/>
				<polygon class="st0" points="-785.9,553.2 -785.9,546.7 -782.2,543 -782.2,549.5 				"/>
				<polygon class="st0" points="-785.9,561.8 -785.9,555.3 -782.2,551.7 -782.2,558.2 				"/>
				<polygon class="st0" points="-785.9,570.5 -785.9,564 -782.2,560.3 -782.2,566.8 				"/>
				<polygon class="st0" points="-787.4,587.7 -791,584.1 -791,577.6 -787.4,581.2 				"/>
				<polygon class="st0" points="-785.9,535.9 -785.9,529.4 -782.2,525.8 -782.2,532.3 				"/>
				<polygon class="st0" points="-785.9,579.1 -785.9,572.6 -782.2,569 -782.2,575.5 				"/>
				<polygon class="st0" points="-787.4,561.8 -791,558.2 -791,551.7 -787.4,555.3 				"/>
				<polygon class="st0" points="-787.4,544.6 -791,540.9 -791,534.4 -787.4,538 				"/>
				<polygon class="st0" points="-787.4,535.9 -791,532.3 -791,525.8 -787.4,529.4 				"/>
				<polygon class="st0" points="-785.9,581.2 -782.2,577.6 -782.2,584.1 -785.9,587.7 				"/>
				<polygon class="st0" points="-787.4,579.1 -791,575.5 -791,569 -787.4,572.6 				"/>
				<polygon class="st0" points="-787.4,570.5 -791,566.8 -791,560.3 -787.4,564 				"/>
				<polygon class="st0" points="-787.4,553.2 -791,549.5 -791,543 -787.4,546.7 				"/>
			</g>
			<path class="st0" d="M-785.9,668.7c0-10.5,0-59.9,0-67.8c0-1,0.1-1.9,0-2.8c-0.1-0.9-0.1-1.8-0.2-2.6c-0.1-1.6-0.2-3-0.3-4.2
				c-0.2-2.3-0.3-3.6-0.3-3.6s-0.1,1.3-0.3,3.6c-0.1,1.2-0.2,2.6-0.3,4.2c-0.1,0.8-0.1,1.7-0.2,2.6c-0.1,0.9,0,1.8,0,2.8
				c0,7.9,0,57.2,0,67.8"/>
		</g>
		<g>
			<path class="st0" d="M-671.5,610.5c0,0-0.2,1.2-0.4,2.3c0,0.3-0.1,0.6-0.1,0.9c0,0.3,0.1,0.5,0.1,0.7c0.1,0.4,0.4,0.7,0.4,0.7
				h0.1c0,0,0.2-0.3,0.4-0.7c0.1-0.2,0.1-0.5,0.1-0.7c0-0.3-0.1-0.6-0.1-0.9c-0.1-1.2-0.4-2.3-0.4-2.3H-671.5z"/>
			<g>
				<polygon class="st0" points="-670.9,626.4 -670.9,621.8 -668.3,619.2 -668.3,623.8 				"/>
				<polygon class="st0" points="-670.9,632.5 -670.9,627.9 -668.3,625.3 -668.3,630 				"/>
				<polygon class="st0" points="-670.9,638.7 -670.9,634.1 -668.3,631.5 -668.3,636.1 				"/>
				<polygon class="st0" points="-670.9,644.9 -670.9,640.2 -668.3,637.6 -668.3,642.3 				"/>
				<polygon class="st0" points="-671.9,657.2 -674.5,654.6 -674.5,649.9 -671.9,652.5 				"/>
				<polygon class="st0" points="-670.9,620.2 -670.9,615.6 -668.3,613 -668.3,617.6 				"/>
				<polygon class="st0" points="-670.9,651 -670.9,646.4 -668.3,643.8 -668.3,648.4 				"/>
				<polygon class="st0" points="-671.9,638.7 -674.5,636.1 -674.5,631.5 -671.9,634.1 				"/>
				<polygon class="st0" points="-671.9,626.4 -674.5,623.8 -674.5,619.2 -671.9,621.8 				"/>
				<polygon class="st0" points="-671.9,620.2 -674.5,617.6 -674.5,613 -671.9,615.6 				"/>
				<polygon class="st0" points="-670.9,652.5 -668.3,649.9 -668.3,654.6 -670.9,657.2 				"/>
				<polygon class="st0" points="-671.9,651 -674.5,648.4 -674.5,643.8 -671.9,646.4 				"/>
				<polygon class="st0" points="-671.9,644.9 -674.5,642.3 -674.5,637.6 -671.9,640.2 				"/>
				<polygon class="st0" points="-671.9,632.5 -674.5,630 -674.5,625.3 -671.9,627.9 				"/>
			</g>
			<path class="st0" d="M-670.9,668.7c0-7.5,0,3.5,0-2.1c0-0.7,0-1.4,0-2c0-0.6-0.1-1.3-0.1-1.8c-0.1-1.1-0.1-2.1-0.2-3
				c-0.1-1.6-0.2-2.6-0.2-2.6s-0.1,0.9-0.2,2.6c-0.1,0.8-0.1,1.8-0.2,3c0,0.6-0.1,1.2-0.1,1.8c0,0.6,0,1.3,0,2c0,5.6,0-5.4,0,2.1"/>
		</g>
	</g>
	<g>
		<g>
			<path class="st0" d="M-94.9,489.1c0,0-0.5,2.3-0.8,4.7c-0.1,0.6-0.2,1.2-0.3,1.7c0,0.5,0.1,1.1,0.3,1.5c0.3,0.9,0.8,1.5,0.8,1.5
				h0.2c0,0,0.5-0.6,0.8-1.5c0.1-0.4,0.3-0.9,0.3-1.5c0-0.5-0.2-1.1-0.3-1.7c-0.3-2.3-0.8-4.7-0.8-4.7H-94.9z"/>
			<g>
				<polygon class="st0" points="-93.7,521 -93.7,511.7 -88.5,506.5 -88.5,515.8 				"/>
				<polygon class="st0" points="-93.7,533.4 -93.7,524 -88.5,518.8 -88.5,528.2 				"/>
				<polygon class="st0" points="-93.7,545.7 -93.7,536.4 -88.5,531.2 -88.5,540.5 				"/>
				<polygon class="st0" points="-93.7,558.1 -93.7,548.8 -88.5,543.6 -88.5,552.9 				"/>
				<polygon class="st0" points="-95.9,582.9 -101.1,577.6 -101.1,568.3 -95.9,573.5 				"/>
				<polygon class="st0" points="-93.7,508.6 -93.7,499.3 -88.5,494.1 -88.5,503.4 				"/>
				<polygon class="st0" points="-93.7,570.5 -93.7,561.2 -88.5,555.9 -88.5,565.3 				"/>
				<polygon class="st0" points="-95.9,545.7 -101.1,540.5 -101.1,531.2 -95.9,536.4 				"/>
				<polygon class="st0" points="-95.9,521 -101.1,515.8 -101.1,506.5 -95.9,511.7 				"/>
				<polygon class="st0" points="-95.9,508.6 -101.1,503.4 -101.1,494.1 -95.9,499.3 				"/>
				<polygon class="st0" points="-93.7,573.5 -88.5,568.3 -88.5,577.6 -93.7,582.9 				"/>
				<polygon class="st0" points="-95.9,570.5 -101.1,565.3 -101.1,555.9 -95.9,561.2 				"/>
				<polygon class="st0" points="-95.9,558.1 -101.1,552.9 -101.1,543.6 -95.9,548.8 				"/>
				<polygon class="st0" points="-95.9,533.4 -101.1,528.2 -101.1,518.8 -95.9,524 				"/>
			</g>
			<path class="st0" d="M-93.7,669.3c0-15.1,0-56.3,0-67.6c0-1.4,0.1-2.8,0-4.1c-0.1-1.3-0.2-2.5-0.2-3.7c-0.2-2.3-0.3-4.3-0.4-6
				c-0.3-3.3-0.4-5.2-0.4-5.2s-0.2,1.9-0.4,5.2c-0.1,1.6-0.3,3.7-0.4,6c-0.1,1.1-0.2,2.4-0.2,3.7c-0.1,1.3,0,2.6,0,4.1
				c0,11.3,0,52.5,0,67.6"/>
		</g>
		<g>
			<path class="st0" d="M-209.7,568.8c0,0-0.3,1.3-0.4,2.6c0,0.3-0.1,0.7-0.1,1c0,0.3,0.1,0.6,0.1,0.8c0.1,0.5,0.4,0.8,0.4,0.8h0.1
				c0,0,0.3-0.3,0.4-0.8c0.1-0.2,0.1-0.5,0.1-0.8c0-0.3-0.1-0.6-0.1-1c-0.2-1.3-0.4-2.6-0.4-2.6H-209.7z"/>
			<g>
				<polygon class="st0" points="-209.1,586.6 -209.1,581.4 -206.2,578.5 -206.2,583.7 				"/>
				<polygon class="st0" points="-209.1,593.5 -209.1,588.3 -206.2,585.4 -206.2,590.6 				"/>
				<polygon class="st0" points="-209.1,600.4 -209.1,595.2 -206.2,592.3 -206.2,597.5 				"/>
				<polygon class="st0" points="-209.1,607.3 -209.1,602.1 -206.2,599.2 -206.2,604.4 				"/>
				<polygon class="st0" points="-210.3,621.1 -213.2,618.2 -213.2,613 -210.3,615.9 				"/>
				<polygon class="st0" points="-209.1,579.7 -209.1,574.5 -206.2,571.6 -206.2,576.8 				"/>
				<polygon class="st0" points="-209.1,614.2 -209.1,609 -206.2,606.1 -206.2,611.3 				"/>
				<polygon class="st0" points="-210.3,600.4 -213.2,597.5 -213.2,592.3 -210.3,595.2 				"/>
				<polygon class="st0" points="-210.3,586.6 -213.2,583.7 -213.2,578.5 -210.3,581.4 				"/>
				<polygon class="st0" points="-210.3,579.7 -213.2,576.8 -213.2,571.6 -210.3,574.5 				"/>
				<polygon class="st0" points="-209.1,615.9 -206.2,613 -206.2,618.2 -209.1,621.1 				"/>
				<polygon class="st0" points="-210.3,614.2 -213.2,611.3 -213.2,606.1 -210.3,609 				"/>
				<polygon class="st0" points="-210.3,607.3 -213.2,604.4 -213.2,599.2 -210.3,602.1 				"/>
				<polygon class="st0" points="-210.3,593.5 -213.2,590.6 -213.2,585.4 -210.3,588.3 				"/>
			</g>
			<path class="st0" d="M-209.1,669.3c0-8.4,0-31.4,0-37.7c0-0.8,0-1.5,0-2.3c-0.1-0.7-0.1-1.4-0.1-2c-0.1-1.3-0.2-2.4-0.2-3.3
				c-0.1-1.8-0.2-2.9-0.2-2.9s-0.1,1.1-0.2,2.9c-0.1,0.9-0.1,2-0.2,3.3c0,0.6-0.1,1.3-0.1,2c0,0.7,0,1.5,0,2.3c0,6.3,0,29.3,0,37.7"
				/>
		</g>
		<g>
			<path class="st0" d="M-334.1,597.9c0,0-0.3,1.4-0.5,2.8c0,0.4-0.1,0.7-0.2,1c0,0.3,0.1,0.6,0.2,0.9c0.2,0.5,0.5,0.9,0.5,0.9h0.1
				c0,0,0.3-0.3,0.5-0.9c0.1-0.3,0.2-0.6,0.2-0.9c0-0.3-0.1-0.7-0.2-1c-0.2-1.4-0.5-2.8-0.5-2.8H-334.1z"/>
			<g>
				<polygon class="st0" points="-333.3,617.2 -333.3,611.6 -330.2,608.4 -330.2,614 				"/>
				<polygon class="st0" points="-333.3,624.7 -333.3,619 -330.2,615.9 -330.2,621.5 				"/>
				<polygon class="st0" points="-333.3,632.2 -333.3,626.5 -330.2,623.4 -330.2,629 				"/>
				<polygon class="st0" points="-333.3,639.7 -333.3,634 -330.2,630.9 -330.2,636.5 				"/>
				<polygon class="st0" points="-334.6,654.7 -337.8,651.5 -337.8,645.9 -334.6,649 				"/>
				<polygon class="st0" points="-333.3,609.7 -333.3,604.1 -330.2,600.9 -330.2,606.5 				"/>
				<polygon class="st0" points="-333.3,647.2 -333.3,641.5 -330.2,638.4 -330.2,644 				"/>
				<polygon class="st0" points="-334.6,632.2 -337.8,629 -337.8,623.4 -334.6,626.5 				"/>
				<polygon class="st0" points="-334.6,617.2 -337.8,614 -337.8,608.4 -334.6,611.6 				"/>
				<polygon class="st0" points="-334.6,609.7 -337.8,606.5 -337.8,600.9 -334.6,604.1 				"/>
				<polygon class="st0" points="-333.3,649 -330.2,645.9 -330.2,651.5 -333.3,654.7 				"/>
				<polygon class="st0" points="-334.6,647.2 -337.8,644 -337.8,638.4 -334.6,641.5 				"/>
				<polygon class="st0" points="-334.6,639.7 -337.8,636.5 -337.8,630.9 -334.6,634 				"/>
				<polygon class="st0" points="-334.6,624.7 -337.8,621.5 -337.8,615.9 -334.6,619 				"/>
			</g>
			<path class="st0" d="M-333.3,668.7c0-9.1,0,4.3,0-2.6c0-0.9,0-1.7,0-2.5c0-0.8-0.1-1.5-0.1-2.2c-0.1-1.4-0.2-2.6-0.3-3.6
				c-0.2-2-0.3-3.1-0.3-3.1s-0.1,1.1-0.3,3.1c-0.1,1-0.2,2.2-0.3,3.6c0,0.7-0.1,1.4-0.1,2.2c-0.1,0.8,0,1.6,0,2.5c0,6.9,0-6.6,0,2.6
				"/>
		</g>
	</g>
</g>
<path class="st0" d="M0,25h11.7v11H13V13.4h22.7V12h-11V1.7h403.2c0.1-0.4,0.3-0.9,0.4-1.3H23.4V12H13V0.4H0v13h11.7v10.3H0V25z
	 M985,25v-1.3h-11.7V13.4H985v-13h-13V12h-10.3V0.4h-401c0.1,0.4,0.3,0.9,0.4,1.3h399.3V12h-11v1.3H972V36h1.3V25H985L985,25z
	 M973.3,1.7h10.3V12h-10.3V1.7z M1.3,12V1.7h10.3V12H1.3z"/>
</svg>
