<?xml version="1.0" encoding="UTF-8"?>
<!DOCTYPE svg PUBLIC "-//W3C//DTD SVG 1.1//EN" "http://www.w3.org/Graphics/SVG/1.1/DTD/svg11.dtd">
<svg version="1.2" width="160.02mm" height="160.02mm" viewBox="2099 1999 16002 16002" preserveAspectRatio="xMidYMid" fill-rule="evenodd" stroke-width="28.222" stroke-linejoin="round" xmlns="http://www.w3.org/2000/svg" xmlns:ooo="http://xml.openoffice.org/svg/export" xmlns:xlink="http://www.w3.org/1999/xlink" xmlns:presentation="http://sun.com/xmlns/staroffice/presentation" xmlns:smil="http://www.w3.org/2001/SMIL20/" xmlns:anim="urn:oasis:names:tc:opendocument:xmlns:animation:1.0" xml:space="preserve">
 <defs class="ClipPathGroup">
  <clipPath id="presentation_clip_path" clipPathUnits="userSpaceOnUse">
   <rect x="2099" y="1999" width="16002" height="16002"/>
  </clipPath>
  <clipPath id="presentation_clip_path_shrink" clipPathUnits="userSpaceOnUse">
   <rect x="2115" y="2015" width="15970" height="15970"/>
  </clipPath>
 </defs>
 <defs class="TextShapeIndex">
  <g ooo:slide="id1" ooo:id-list="id3 id4 id5 id6 id7 id8 id9 id10 id11 id12 id13 id14 id15 id16"/>
 </defs>
 <defs class="EmbeddedBulletChars">
  <g id="bullet-char-template-57356" transform="scale(0.00048828125,-0.00048828125)">
   <path d="M 580,1141 L 1163,571 580,0 -4,571 580,1141 Z"/>
  </g>
  <g id="bullet-char-template-57354" transform="scale(0.00048828125,-0.00048828125)">
   <path d="M 8,1128 L 1137,1128 1137,0 8,0 8,1128 Z"/>
  </g>
  <g id="bullet-char-template-10146" transform="scale(0.00048828125,-0.00048828125)">
   <path d="M 174,0 L 602,739 174,1481 1456,739 174,0 Z M 1358,739 L 309,1346 659,739 1358,739 Z"/>
  </g>
  <g id="bullet-char-template-10132" transform="scale(0.00048828125,-0.00048828125)">
   <path d="M 2015,739 L 1276,0 717,0 1260,543 174,543 174,936 1260,936 717,1481 1274,1481 2015,739 Z"/>
  </g>
  <g id="bullet-char-template-10007" transform="scale(0.00048828125,-0.00048828125)">
   <path d="M 0,-2 C -7,14 -16,27 -25,37 L 356,567 C 262,823 215,952 215,954 215,979 228,992 255,992 264,992 276,990 289,987 310,991 331,999 354,1012 L 381,999 492,748 772,1049 836,1024 860,1049 C 881,1039 901,1025 922,1006 886,937 835,863 770,784 769,783 710,716 594,584 L 774,223 C 774,196 753,168 711,139 L 727,119 C 717,90 699,76 672,76 641,76 570,178 457,381 L 164,-76 C 142,-110 111,-127 72,-127 30,-127 9,-110 8,-76 1,-67 -2,-52 -2,-32 -2,-23 -1,-13 0,-2 Z"/>
  </g>
  <g id="bullet-char-template-10004" transform="scale(0.00048828125,-0.00048828125)">
   <path d="M 285,-33 C 182,-33 111,30 74,156 52,228 41,333 41,471 41,549 55,616 82,672 116,743 169,778 240,778 293,778 328,747 346,684 L 369,508 C 377,444 397,411 428,410 L 1163,1116 C 1174,1127 1196,1133 1229,1133 1271,1133 1292,1118 1292,1087 L 1292,965 C 1292,929 1282,901 1262,881 L 442,47 C 390,-6 338,-33 285,-33 Z"/>
  </g>
  <g id="bullet-char-template-9679" transform="scale(0.00048828125,-0.00048828125)">
   <path d="M 813,0 C 632,0 489,54 383,161 276,268 223,411 223,592 223,773 276,916 383,1023 489,1130 632,1184 813,1184 992,1184 1136,1130 1245,1023 1353,916 1407,772 1407,592 1407,412 1353,268 1245,161 1136,54 992,0 813,0 Z"/>
  </g>
  <g id="bullet-char-template-8226" transform="scale(0.00048828125,-0.00048828125)">
   <path d="M 346,457 C 273,457 209,483 155,535 101,586 74,649 74,723 74,796 101,859 155,911 209,963 273,989 346,989 419,989 480,963 531,910 582,859 608,796 608,723 608,648 583,586 532,535 482,483 420,457 346,457 Z"/>
  </g>
  <g id="bullet-char-template-8211" transform="scale(0.00048828125,-0.00048828125)">
   <path d="M -4,459 L 1135,459 1135,606 -4,606 -4,459 Z"/>
  </g>
  <g id="bullet-char-template-61548" transform="scale(0.00048828125,-0.00048828125)">
   <path d="M 173,740 C 173,903 231,1043 346,1159 462,1274 601,1332 765,1332 928,1332 1067,1274 1183,1159 1299,1043 1357,903 1357,740 1357,577 1299,437 1183,322 1067,206 928,148 765,148 601,148 462,206 346,322 231,437 173,577 173,740 Z"/>
  </g>
 </defs>
 <defs class="TextEmbeddedBitmaps"/>
 <g class="SlideGroup">
  <g>
   <g id="container-id1">
    <g id="id1" class="Slide" clip-path="url(#presentation_clip_path)">
     <g class="Page">
      <g class="com.sun.star.drawing.CustomShape">
       <g id="id3">
        <rect class="BoundingBox" stroke="none" fill="none" x="2099" y="1999" width="16003" height="16003"/>
        <path fill="rgb(255,255,255)" stroke="none" d="M 10100,18000 L 2100,18000 2100,2000 18100,2000 18100,18000 10100,18000 Z"/>
        <path fill="none" stroke="rgb(0,0,0)" d="M 10100,18000 L 2100,18000 2100,2000 18100,2000 18100,18000 10100,18000 Z"/>
       </g>
      </g>
      <g class="com.sun.star.drawing.CustomShape">
       <g id="id4">
        <rect class="BoundingBox" stroke="none" fill="none" x="6600" y="6500" width="7001" height="7001"/>
        <path fill="rgb(0,134,75)" stroke="none" d="M 11849,11749 L 10099,13500 6600,10001 10101,6500 13600,9999 11849,11749 Z"/>
       </g>
      </g>
      <g class="com.sun.star.drawing.CustomShape">
       <g id="id5">
        <rect class="BoundingBox" stroke="none" fill="none" x="2600" y="2500" width="7001" height="7001"/>
        <path fill="rgb(149,35,31)" stroke="none" d="M 7849,7749 L 6099,9500 2600,6001 6101,2500 9600,5999 7849,7749 Z"/>
       </g>
      </g>
      <g class="com.sun.star.drawing.CustomShape">
       <g id="id6">
        <rect class="BoundingBox" stroke="none" fill="none" x="10600" y="2500" width="7001" height="7001"/>
        <path fill="rgb(149,35,31)" stroke="none" d="M 15849,7749 L 14099,9500 10600,6001 14101,2500 17600,5999 15849,7749 Z"/>
       </g>
      </g>
      <g class="com.sun.star.drawing.CustomShape">
       <g id="id7">
        <rect class="BoundingBox" stroke="none" fill="none" x="2600" y="10500" width="7001" height="7001"/>
        <path fill="rgb(149,35,31)" stroke="none" d="M 7849,15749 L 6099,17500 2600,14001 6101,10500 9600,13999 7849,15749 Z"/>
       </g>
      </g>
      <g class="com.sun.star.drawing.CustomShape">
       <g id="id8">
        <rect class="BoundingBox" stroke="none" fill="none" x="10600" y="10500" width="7001" height="7001"/>
        <path fill="rgb(149,35,31)" stroke="none" d="M 15849,15749 L 14099,17500 10600,14001 14101,10500 17600,13999 15849,15749 Z"/>
       </g>
      </g>
      <g class="com.sun.star.drawing.PolyPolygonShape">
       <g id="id9">
        <rect class="BoundingBox" stroke="none" fill="none" x="2100" y="2000" width="16001" height="16001"/>
        <path fill="rgb(0,134,75)" stroke="none" d="M 2100,18000 L 2100,14501 2101,14500 5600,17999 5599,18000 2100,18000 Z M 2100,2000 L 5599,2000 2100,5499 2100,2000 Z M 18100,2000 L 18100,5499 18099,5500 14600,2001 14601,2000 18100,2000 Z M 18100,18000 L 14601,18000 18100,14501 18100,18000 Z"/>
       </g>
      </g>
      <g class="com.sun.star.drawing.CustomShape">
       <g id="id10">
        <rect class="BoundingBox" stroke="none" fill="none" x="12600" y="4499" width="3000" height="3003"/>
        <path fill="rgb(255,255,255)" stroke="none" d="M 14848,6750 L 14098,7500 12600,6000 14100,4500 15598,6000 14848,6750 Z"/>
       </g>
      </g>
      <g class="com.sun.star.drawing.CustomShape">
       <g id="id11">
        <rect class="BoundingBox" stroke="none" fill="none" x="4601" y="4499" width="3000" height="3003"/>
        <path fill="rgb(255,255,255)" stroke="none" d="M 6849,6750 L 6099,7500 4601,6000 6101,4500 7599,6000 6849,6750 Z"/>
       </g>
      </g>
      <g class="com.sun.star.drawing.CustomShape">
       <g id="id12">
        <rect class="BoundingBox" stroke="none" fill="none" x="4600" y="12499" width="3000" height="3003"/>
        <path fill="rgb(255,255,255)" stroke="none" d="M 6848,14750 L 6098,15500 4600,14000 6100,12500 7598,14000 6848,14750 Z"/>
       </g>
      </g>
      <g class="com.sun.star.drawing.CustomShape">
       <g id="id13">
        <rect class="BoundingBox" stroke="none" fill="none" x="12601" y="12499" width="3000" height="3003"/>
        <path fill="rgb(255,255,255)" stroke="none" d="M 14849,14750 L 14099,15500 12601,14000 14101,12500 15599,14000 14849,14750 Z"/>
       </g>
      </g>
      <g class="com.sun.star.drawing.CustomShape">
       <g id="id14">
        <rect class="BoundingBox" stroke="none" fill="none" x="2600" y="2500" width="15001" height="15001"/>
        <path fill="rgb(0,0,0)" fill-opacity="0.09" stroke="rgb(255,255,255)" stroke-opacity="0.09" d="M 10100,17500 L 2600,17500 2600,2500 17600,2500 17600,17500 10100,17500 Z"/>
       </g>
      </g>
      <g class="com.sun.star.drawing.CustomShape">
       <g id="id15">
        <rect class="BoundingBox" stroke="none" fill="none" x="2100" y="1998" width="502" height="16003"/>
        <path fill="rgb(0,0,0)" fill-opacity="0.29" stroke="rgb(255,255,255)" stroke-opacity="0.29" d="M 2100,18000 L 2100,1999 2601,2503 2601,17497 2100,18000 Z M 2100,18000 L 2100,18000 Z M 2601,1999 L 2601,1999 Z"/>
       </g>
      </g>
      <g class="com.sun.star.drawing.CustomShape">
       <g id="id16">
        <rect class="BoundingBox" stroke="none" fill="none" x="2099" y="17498" width="16002" height="503"/>
        <path fill="rgb(0,0,0)" fill-opacity="0.29" stroke="rgb(255,255,255)" stroke-opacity="0.29" d="M 18100,18000 L 2099,18000 2603,17499 17597,17499 18100,18000 Z M 18100,18000 L 18100,18000 Z M 2099,17499 L 2099,17499 Z"/>
       </g>
      </g>
     </g>
    </g>
   </g>
  </g>
 </g>
</svg>