<?xml version="1.0" encoding="utf-8"?>
<!-- Generator: Adobe Illustrator 16.0.0, SVG Export Plug-In . SVG Version: 6.00 Build 0)  -->
<!DOCTYPE svg PUBLIC "-//W3C//DTD SVG 1.1//EN" "http://www.w3.org/Graphics/SVG/1.1/DTD/svg11.dtd">
<svg version="1.1" id="Layer_1" xmlns="http://www.w3.org/2000/svg" xmlns:xlink="http://www.w3.org/1999/xlink" x="0px" y="0px"
	 width="459px" height="63px" viewBox="-0.4 0 459 63" enable-background="new -0.4 0 459 63" xml:space="preserve">
<g>
	<g>
		<path fill="#FFFFFF" d="M25.3,48.9c-1.9,0-2.9-0.7-2.9-2c0-2.4,3-7.801,9-16.2c6-8.4,9.6-13.7,10.9-15.6c2.8-4.3,4.2-7.2,4.2-8.7
			c0-0.8-0.3-1.2-0.9-1.4c-1.1-0.5-2.3-0.7-3.8-0.7c-5,0-11.4,2.6-19.1,8c-5.1,3.5-9.3,7.7-12.6,12.4c-3.3,4.7-5,8.6-5,11.7
			c0,2.199,0.9,3.5,2.7,3.8c0.7,0.1,1.4,0.2,2.2,0.2c2.3,0,4.7-0.801,7.1-2.2c1.2-0.7,2.7-1.9,4.6-3.601l1.2-0.399
			c-0.9,1.6-2.7,3.3-5.4,5s-5.6,2.5-8.5,2.5c-0.7,0-1.5-0.101-2.4-0.3C5.7,41.2,4.8,40.6,4,39.5s-1.3-2.6-1.3-4.4
			C2.7,28,9.4,19.6,22.8,10c2.7-1.9,6-3.6,9.7-5.1c3.7-1.4,7.1-2.1,10.1-2.1c1.5,0,3,0.3,4.4,0.9c1.5,0.6,2.2,1.6,2.2,3
			c0,1.4-0.8,3.4-2.4,5.9c-1.6,2.6-4.1,6.2-7.6,10.8c-3.4,4.7-6.3,9-8.7,13s-3.6,6.8-3.6,8.399c0,0.8,0.3,1.101,0.9,1.101
			c1.2,0,3.5-1.301,6.9-3.801c8-6.1,17.4-15.899,28.2-29.6c1.7-2.2,3.1-3.3,4.1-3.3c0.4,0,0.6,0.2,0.6,0.6c0,0.2-0.1,0.4-0.2,0.7
			c0,0.1,0.1,0.3,0.1,0.4c0,0.9-0.5,2.2-1.6,3.9l-8,11.4c-3.2,4.7-6.1,9.2-8.6,13.399c-2.5,4.2-3.7,6.7-3.5,7.4l1.2-0.4
			c2.3-1.3,4.2-2.699,5.9-4.399c0.6-0.4,1-0.7,1.1-0.7l0.1,0.1c0,0.4-0.6,1.301-1.8,2.601c-3.2,2.7-5.5,4.1-6.8,4.1s-2-0.399-2-1.3
			s1.2-3.5,3.6-8s6.3-10.7,11.7-18.6c-0.9,1.1-2.3,2.7-4.3,4.8C43.5,36.7,36.8,43.3,34.6,45C31.3,47.6,28.2,48.9,25.3,48.9z"/>
		<path fill="#FFFFFF" d="M25.3,50c-3.6,0-4-2.2-4-3.1c0-1.7,1-5.2,9.2-16.9c6-8.4,9.6-13.6,10.9-15.6c3.4-5.3,4-7.4,4-8.1
			c0-0.2-0.1-0.3-0.1-0.4l-0.2-0.1c-0.9-0.4-2.1-0.6-3.4-0.6c-4.7,0-11,2.6-18.5,7.8c-4.9,3.4-9.1,7.5-12.3,12.1
			c-3.2,4.5-4.8,8.3-4.8,11.1c0,2.1,0.9,2.6,1.8,2.7C8.6,39,9.2,39.1,9.9,39.1c2.1,0,4.3-0.699,6.5-2.1c1.2-0.7,2.7-1.9,4.5-3.5
			l0.2-0.2l4-1.3l-1.3,2.4C22.9,36.2,20.9,38,18,39.8s-6,2.7-9,2.7c-0.8,0-1.6-0.1-2.6-0.3c-1.2-0.2-2.3-1-3.3-2.3
			c-1-1.301-1.5-3-1.5-5c0-7.601,6.7-16.101,20.6-26c2.8-2,6.1-3.7,9.9-5.2c3.8-1.5,7.4-2.2,10.5-2.2c1.7,0,3.3,0.3,4.9,1
			c2.3,1,2.8,2.7,2.8,4c0,1.6-0.8,3.7-2.6,6.5c-1.6,2.6-4.2,6.2-7.6,10.9c-3.4,4.6-6.3,9-8.6,12.9c-2.8,4.8-3.4,6.9-3.4,7.9l0,0
			c0.6-0.101,2.2-0.7,6.1-3.601c7.9-6,17.3-15.899,27.9-29.399c2-2.5,3.6-3.7,5-3.7c1,0,1.7,0.7,1.7,1.7c0,0.2,0,0.5-0.1,0.8
			c0,0.1,0,0.2,0,0.3c0,1.2-0.6,2.6-1.8,4.5l-8,11.4c-3.3,4.7-6.1,9.1-8.6,13.3c-1.4,2.3-2.2,3.8-2.7,4.9
			c1.7-1.101,3.3-2.301,4.6-3.601l0.1-0.1c0.9-0.7,1.3-0.9,1.8-0.9h0.5l0.8,0.8v0.5c0,0.601-0.4,1.4-2.1,3.301L53.2,45
			c-3.5,3-5.9,4.4-7.5,4.4c-2.9,0-3.1-1.801-3.1-2.4c0-0.8,0.4-2.4,3.8-8.5c1.2-2.2,2.8-4.8,4.7-7.9c-8.6,8.7-13.7,13.7-15.7,15.3
			C31.8,48.6,28.4,50,25.3,50z M34.7,27.9c-0.8,1.1-1.6,2.2-2.4,3.4c-7.7,10.8-8.8,14.4-8.8,15.601c0,0.3,0,1,1.8,1
			c2.6,0,5.5-1.2,8.6-3.7C34,44.1,34.1,44.1,34.1,44c-3.7,2.6-5.2,3-6.1,3s-2-0.6-2-2.2c0-1.8,1.2-4.7,3.7-9
			C31.2,33.2,32.9,30.6,34.7,27.9z M44.8,46.6C44.7,46.9,44.7,47,44.7,47s0,0.1,0.1,0.1C44.8,46.9,44.8,46.8,44.8,46.6z M58.4,20
			l1.4,1.1c-4.5,6.6-8,12.1-10.4,16.3c2.3-3.801,4.9-7.7,7.7-11.8l8-11.4c1.3-1.9,1.4-2.8,1.4-3.2l-0.1-0.3c-0.5,0.3-1.4,1-2.6,2.6
			C62,15.5,60.2,17.8,58.4,20z M11.6,20.8C6.5,26,3.9,30.8,3.9,35c0,0.3,0,0.7,0,1c0.1-3.3,1.8-7.2,5.2-12
			C9.9,22.9,10.7,21.8,11.6,20.8z M47.1,4.7c0.3,0.4,0.5,1,0.5,1.6c0,1.1-0.5,3.3-4.3,9.3c-0.8,1.3-2.6,3.9-5.5,7.9
			c0.2-0.3,0.5-0.6,0.7-1c3.4-4.6,5.9-8.2,7.5-10.8c1.9-2.9,2.2-4.5,2.2-5.3C48.2,6,48.1,5.3,47.1,4.7z"/>
	</g>
	<g>
		<path fill="#FFFFFF" d="M88.8,46.8c-3.1,0-4.6-1.399-4.6-4.3c0-1.6,0.7-3.9,2.2-6.7s3-5.2,4.6-7.2c-2.8,1.4-6.1,3.8-9.7,7.4
			c-3.7,3.6-6.2,7.3-7.7,11.2c-0.2,0.3-0.6,0.5-1.1,0.5c-1.1,0-1.6-0.601-1.6-1.8c0.5-2.5,1.5-5.301,3.1-8.601c0.5-1,2-4.1,4.4-9.1
			c-3.5,2.3-6.5,4.8-9,7.399c-2.5,2.601-4.8,5.301-6.9,8c-2.1,2.7-3.3,4-3.6,4c-0.6,0-1.1-0.3-1.5-0.8c-0.4-0.6-0.6-1.1-0.6-1.6
			c0-0.8,1.2-3.8,3.5-9l-4.1,4.3c-1,1-1.6,1.5-1.9,1.5c-0.2,0-0.4-0.1-0.4-0.5c0-0.3,0.2-0.6,0.5-1c1.7-1.7,3.2-3.4,4.5-5
			c1.3-1.7,3.5-4.6,6.5-9c0.5-0.7,1.2-1,2.1-1s1.4,0.4,1.4,1.3c0,0.3-1.2,2.5-3.6,6.601c-2.4,4.1-3.7,6.699-4,7.699
			c1.9-2,4.7-4.8,8.4-8.199c5.6-5.2,9.2-7.7,11-7.7c0.6,0,1.1,0.2,1.5,0.5c0.5,0.3,0.7,0.7,0.7,1.1c0,0.4-0.9,2.1-2.6,5.1
			c-1.7,3.1-2.7,5-2.9,5.6c5-4.2,7.5-6.3,7.5-6.4c4.3-3.3,7.3-5,9.2-5c0.5,0,1.1,0.2,1.5,0.5c0.5,0.3,0.7,0.7,0.7,1.2
			c0,0.1-1.5,2-4.4,5.8c-3,3.7-4.6,6.801-5,9.2c-0.1,0.8,0.1,1.4,0.5,1.8c0.4,0.4,1.2,0.601,2.2,0.601c1.1,0,2.6-0.7,4.7-2.2
			c2.1-1.5,4.1-3.5,6.3-6c0.8-0.9,1.3-1.4,1.6-1.4c0.3,0,0.5,0.101,0.5,0.301c0,0.3-0.2,0.699-0.6,1.1c-2.2,2.7-4.6,5-7.2,6.8
			C92.3,45.9,90.3,46.8,88.8,46.8z"/>
		<path fill="#FFFFFF" d="M72.4,48.8c-1.7,0-2.7-1.1-2.7-2.899v-0.2c0.5-2.601,1.5-5.601,3.2-8.9c0.4-0.7,1.2-2.5,2.5-5.2
			c-2,1.5-3.8,3.1-5.4,4.8c-2.4,2.6-4.7,5.3-6.8,7.899c-3.5,4.4-3.8,4.4-4.4,4.4c-0.6,0-1.6-0.2-2.4-1.2c-0.6-0.7-0.9-1.5-0.9-2.3
			c0-0.5,0.2-1.3,1.2-3.7c-1.4,1.4-1.9,1.7-2.5,1.7c-0.9,0-1.5-0.601-1.5-1.601c0-0.6,0.3-1.199,0.9-1.8c1.6-1.6,3.1-3.3,4.4-4.899
			c1.3-1.7,3.5-4.7,6.5-8.9c0.7-1,1.7-1.5,3-1.5c1.5,0,2.5,0.9,2.5,2.4c0,0.4,0,0.8-3.8,7.2c-0.3,0.5-0.6,1-0.8,1.4
			c1.1-1,2.2-2.1,3.5-3.3c7.7-7.1,10.3-8,11.7-8c0.8,0,1.5,0.2,2.1,0.7c1,0.7,1.1,1.4,1.1,2c0,0.4,0,0.9-2.8,5.7
			c-0.1,0.301-0.3,0.5-0.4,0.7c1.8-1.5,2.6-2.2,3.1-2.6v-0.1l0.4-0.3c4.6-3.5,7.7-5.2,9.9-5.2c0.8,0,1.5,0.2,2.2,0.7
			c1,0.7,1.2,1.5,1.2,2.1c0,0.5,0,0.5-4.6,6.4C90,37.9,88.4,40.8,88.1,43c0,0.3,0,0.7,0.2,0.9c0.1,0,0.3,0.3,1.4,0.3
			c0.5,0,1.6-0.3,4-2c2-1.4,4-3.3,6.1-5.8c1.2-1.301,1.8-1.7,2.5-1.7c1.1,0,1.5,0.7,1.5,1.399c0,0.601-0.3,1.2-0.9,1.9
			c-2.2,2.6-4.7,5-7.3,6.9c-2.8,2-5,3-6.7,3c-3.7,0-5.7-1.9-5.7-5.4c0-1.8,0.8-4.2,2.3-7.2c0.5-1,1-2,1.6-2.899
			c-1.6,1.199-3.2,2.699-5,4.399c-3.5,3.4-6,7.101-7.4,10.8l-0.1,0.2C74.2,48.2,73.6,48.8,72.4,48.8z M71.8,46
			c0,0.7,0.2,0.7,0.5,0.7c0.1,0,0.2,0,0.2,0c1-2.5,2.3-4.9,4.2-7.3l-1.6,1.3l1.1-3.5c0.1-0.5,0.6-1.5,2.9-5.8
			c1.9-3.2,2.4-4.2,2.5-4.6c0-0.1-0.1-0.1-0.2-0.2c-0.3-0.2-0.5-0.3-0.9-0.3c-0.1,0-0.2,0-0.2,0l-1.1,2.4c-2.5,5-3.9,8-4.4,9.1
			C73.3,40.9,72.3,43.6,71.8,46z M63.9,30.8l-2.7,5.9c-3.1,6.899-3.4,8.3-3.4,8.5c0,0.3,0.1,0.6,0.4,0.899
			c0.2,0.2,0.3,0.301,0.4,0.4c0.3-0.3,1.1-1.2,3-3.6c0.8-1,1.7-2.101,2.6-3.2c-0.8,0.8-1.5,1.5-2,2.1l-3,3.3l1.1-4.3
			c0.2-0.7,0.8-2.399,4.1-8c2.6-4.5,3.3-5.8,3.4-6.2c0,0,0,0,0-0.1c0,0-0.1,0-0.2,0c-0.5,0-0.9,0.2-1.2,0.6c-1,1.4-2,2.8-2.8,3.9
			L63.9,30.8z M93.5,27.3l-1.7,2.1c-1.5,1.9-3,4.2-4.4,7C86,39.1,85.3,41.1,85.3,42.6c0,1.2,0.3,2,1,2.5
			c-0.4-0.6-0.6-1.399-0.5-2.399c0.4-2.601,2.1-5.8,5.2-9.8c2.6-3.3,3.7-4.7,4.1-5.3c-0.1,0-0.1-0.1-0.1-0.1
			C94.5,27.2,94.1,27.2,93.5,27.3z"/>
	</g>
	<g>
		<path fill="#FFFFFF" d="M121.9,27.3l0.9-0.2c0.5,0,1,0.2,1.4,0.6c0.5,0.4,0.7,0.7,0.7,0.9c0,0.2-1.4,2.4-4.2,6.6
			c-2.8,4.1-4.2,7-4.2,8.7c0,0.1,0,0.3,0.1,0.399c0.2,1,0.7,1.5,1.5,1.5c2.4,0,6.7-3.899,12.9-11.7c0.1-0.199,0.3-0.3,0.5-0.3
			s0.3,0.2,0.3,0.5s-0.2,0.8-0.6,1.3C125.4,43.4,121,47.2,117.9,47.2c-0.4,0-0.8-0.101-1.2-0.2c-2-0.8-3-2.2-3-4.5
			c0-0.8,0.1-1.5,0.3-2.3l-4.2,4.1c-2.7,2.4-4.6,3.5-5.8,3.5s-2.3-0.399-3.4-1.2c-1.2-0.899-1.9-2.1-1.9-3.6c0-3.3,2.3-7.3,7-11.9
			c4.6-4.6,8.9-6.9,12.7-6.9c1.5,0,2.5,0.5,3,1.6c0.1,0.4,0.2,0.7,0.3,0.9C121.8,27.2,121.8,27.3,121.9,27.3z M101.5,44
			c0,1.6,0.6,2.4,1.7,2.4c2.6,0,6.2-2.9,10.7-8.601l7.2-9.9c-0.4-0.6-0.9-1-1.8-1c-2.8,0-6.4,2.1-11,6.4
			C103.8,37.7,101.5,41.2,101.5,44z"/>
		<path fill="#FFFFFF" d="M104,49c-1.4,0-2.8-0.5-4.1-1.3c-1.5-1.101-2.3-2.601-2.3-4.5c0-3.601,2.4-7.8,7.3-12.6
			c4.8-4.8,9.3-7.2,13.5-7.2c2.4,0,3.5,1.2,4,2.2l0.2,0.5h0.3c0.8,0,1.5,0.3,2.2,0.9c0.5,0.4,1.1,1,1.1,1.8c0,0.4,0,0.7-4.4,7.2
			c-3.5,5.2-4,7.3-4,8.1v0.2c0.2,0.7,0.4,0.7,0.4,0.7c1.1,0,4.2-1.5,12.1-11.3c0.3-0.4,0.8-0.7,1.3-0.7s1.4,0.3,1.4,1.6
			c0,0.601-0.3,1.2-0.8,2C126,44.8,121.6,48.7,118.1,48.7c-0.5,0-1.1-0.101-1.6-0.3c-2.3-0.9-3.5-2.601-3.7-5l-2.1,2.1
			C107.6,47.8,105.5,49,104,49z M118.3,25.5c-3.5,0-7.6,2.2-11.9,6.6C102,36.5,99.8,40.2,99.8,43.2c0,0.899,0.3,1.6,0.8,2.2
			c-0.1-0.4-0.1-0.9-0.1-1.4c0-3.2,2.4-6.9,7.2-11.5c4.8-4.5,8.7-6.7,11.8-6.7c0.1,0,0.3,0,0.4,0C119.6,25.7,119.1,25.5,118.3,25.5z
			 M119.4,28c-2.4,0-5.9,2.1-10.2,6.1c-4.3,4.101-6.5,7.301-6.5,9.801c0,1.3,0.4,1.3,0.6,1.3c1.6,0,4.5-1.4,9.9-8.2l6.6-9.1
			C119.6,28,119.5,28,119.4,28z M115.9,37.1l-0.8,3.5c-0.2,0.7-0.2,1.4-0.2,2.101c0,1.1,0.3,2,0.9,2.6c-0.1-0.2-0.2-0.399-0.2-0.7
			c-0.1-0.199-0.1-0.5-0.1-0.699c0-1.9,1.4-4.9,4.4-9.301c2.6-3.8,3.5-5.3,3.9-5.899c0,0-0.1-0.1-0.2-0.2c-0.3-0.3-0.5-0.3-0.6-0.3
			l-0.7,0.1L115.9,37.1z"/>
	</g>
	<g>
		<path fill="#FFFFFF" d="M168,46.8c-1.1,1.7-1.6,2.8-1.6,3.3s0.2,0.9,0.6,1c0,0.101-0.4,0.4-1.1,0.9c-0.7,0.5-1.8,0.7-3.1,0.7
			c-1.3,0-2-0.3-2-1c0-1.2,2.2-5.101,6.7-11.7s7.4-11.2,8.8-13.8c3.1-5.5,4.6-9.9,4.6-13.1c0-1.3-0.2-2.4-0.8-3.5
			c-0.8-1.6-2.6-2.5-5.6-2.5c-5.4,0-11.1,2.5-17.2,7.4c-4.6,3.8-8.2,7.7-10.7,11.8c-2.3,3.9-3.4,7.3-3.4,10.3c0,4.301,2,6.601,6,6.7
			c0.2,0,0.4,0,0.6,0c5.3,0,9.4-1.899,12.2-5.6c1.1-1.5,1.6-2.8,1.6-3.8s-0.2-1.7-0.7-2c-0.1,0-0.1-0.1-0.1-0.3
			c0-0.1,0.1-0.2,0.4-0.2c1.2,0,1.8,0.8,1.8,2.3c0,0.899-0.4,2.3-1.4,3.899c-0.9,1.601-2.5,3.2-4.9,4.601
			c-2.4,1.399-5.1,2.2-8.1,2.2s-5.4-0.9-7.2-2.601c-1.8-1.8-2.7-4.1-2.7-7.1c0-7.1,4.8-14.5,14.6-22.3c2.4-2,5.6-3.6,9.6-4.9
			c3.9-1.3,7.5-2,10.7-2c3.2,0,5.5,0.6,6.8,1.8c1.3,1.2,2,2.9,2,5c0,5.2-3.1,12.5-9.4,22c1.4-1.8,3.7-4,6.9-6.7
			c11.3-9.5,21-15.7,29.1-18.7c0.4-0.2,0.9-0.3,1.4-0.3c1.7,0,2.8,1,3.3,2.9c0.2,0.8-0.9,2.4-3.3,4.8c-5.7,5.8-10.5,12.1-14.4,19
			c-3.9,6.9-5.9,11.8-5.9,14.8c0,0.7,0.1,1.2,0.4,1.5c0.3,0.301,0.7,0.4,1.3,0.301c0.6-0.101,1.8-0.601,3.7-1.4s3.1-1.3,3.7-1.4
			c0.2,0.101,0.3,0.2,0.3,0.301c0,0.699-1.2,1.6-3.6,2.8s-4.1,1.8-5.4,1.8c-1.2,0-1.9-0.2-2.2-0.6c-0.8-1.101-1.2-2.601-1.2-4.301
			c0-3.899,2.1-9.5,6.2-16.8c2.7-4.6,6.8-10.7,12.4-18.5c-6,0.5-13.8,5.3-23.4,14.3C176.7,35.4,171.3,41.6,168,46.8z"/>
		<path fill="#FFFFFF" d="M192.5,55.2c-1.6,0-2.5-0.3-3.1-1c-1-1.3-1.5-3-1.5-4.9c0-4.1,2.1-9.8,6.4-17.3c2.4-4.1,6.1-9.7,10.9-16.4
			C199.8,17,193,21.5,185,29c-7.5,7.1-12.9,13.3-16.1,18.4c-1.4,2.1-1.5,2.699-1.5,2.699c0,0.101,0,0.101,0,0.101l0.6,0.3l-0.1,0.6
			c0,0.7-0.5,1.101-1.6,1.801c-0.9,0.6-2.2,0.899-3.7,0.899c-2.8,0-3.1-1.5-3.1-2.1c0-1,0.8-3.3,6.9-12.3
			c4.4-6.601,7.4-11.2,8.8-13.7c3-5.3,4.5-9.6,4.5-12.6c0-1.1-0.2-2.1-0.6-3.1c-0.6-1.2-2.1-1.8-4.6-1.8c-5.1,0-10.7,2.4-16.5,7.2
			c-4.5,3.7-8,7.6-10.4,11.5c-2.1,3.6-3.2,6.9-3.2,9.8c0,3.8,1.5,5.5,5,5.6h0.5c5,0,8.7-1.7,11.3-5.2c1.2-1.6,1.4-2.6,1.4-3.199
			c0-0.801-0.2-1-0.2-1l-0.2-0.2c-0.3-0.3-0.4-0.601-0.4-1.1c0-0.6,0.5-1.3,1.5-1.3c0.7,0,2.9,0.3,2.9,3.4c0,1.2-0.5,2.6-1.5,4.399
			c-1,1.801-2.8,3.5-5.3,5c-2.5,1.601-5.5,2.301-8.7,2.301c-3.3,0-6-1-8-3s-3-4.601-3-7.9c0-7.4,5-15.2,15-23.1
			c2.5-2,5.9-3.7,9.9-5.1c4-1.3,7.7-2,11-2c3.5,0,6,0.7,7.5,2.1s2.3,3.4,2.3,5.8c0,3.9-1.6,8.8-4.9,14.9c0.2-0.2,0.4-0.3,0.6-0.5
			c11.3-9.5,21.2-15.9,29.4-18.9c0.5-0.2,1.1-0.3,1.7-0.3c2.2,0,3.8,1.3,4.3,3.8c0.3,1.2-0.7,2.9-3.6,5.8
			c-5.6,5.7-10.4,12-14.2,18.8c-3.8,6.7-5.8,11.5-5.8,14.3c0,0.601,0.1,0.801,0.1,0.801c0.1,0,0.2,0,0.3-0.101
			c0.3,0,1.1-0.3,3.5-1.3c2.6-1.1,3.5-1.4,3.9-1.5l0.3-0.1l0.3,0.1c0.9,0.4,1,1.1,1,1.4c0,1.199-1.2,2.3-4.2,3.8
			C195.8,54.6,193.9,55.2,192.5,55.2z M191.2,52.9c0,0,0.4,0.199,1.3,0.199c0.1,0,0.2,0,0.3,0c-0.6-0.1-1-0.399-1.2-0.6
			c-0.5-0.5-0.7-1.3-0.7-2.3c0-3.2,2-8.2,6.1-15.4c4-6.9,8.9-13.4,14.6-19.3c2.8-2.9,3-3.8,3-3.8c-0.4-1.8-1.4-2-2.2-2
			c-0.3,0-0.6,0-0.9,0.2c-2.9,1.1-6,2.6-9.3,4.5c1.9-0.8,3.8-1.2,5.5-1.4l2.4-0.2l-1.4,1.9c-5.5,7.7-9.7,13.9-12.3,18.399
			c-4,7.101-6.1,12.5-6.1,16.2C190.2,50.7,190.5,52,191.2,52.9L191.2,52.9z M161.9,51.5c0.1,0,0.4,0.1,0.9,0.1
			c1.1,0,1.9-0.199,2.5-0.5l0.1-0.1c-0.1-0.3-0.1-0.6-0.1-0.9c0-0.6,0.2-1.399,1.8-3.899c3.2-5.101,8.5-11.2,15.9-18.3
			c-0.2,0.1-0.3,0.3-0.4,0.4c-3.1,2.7-5.4,4.9-6.7,6.601l-1.8-1.301c6.1-9.3,9.2-16.399,9.2-21.399c0-1.8-0.5-3.2-1.6-4.2
			c-0.6-0.5-1.5-0.9-2.6-1.2c1,0.5,1.7,1.2,2.1,2.2c0.6,1.2,0.9,2.6,0.9,4c0,3.5-1.6,7.9-4.8,13.7c-1.4,2.5-4.4,7.2-8.9,13.8
			C163.1,48.6,162.1,50.9,161.9,51.5z M163.3,9.2c-2.9,1.1-5.3,2.5-7.2,4C146.7,20.7,142,28,142,34.6c0,1.101,0.1,2,0.3,2.9
			c0-0.3,0-0.6,0-0.8c0-3.2,1.2-6.9,3.5-10.9c2.6-4.2,6.2-8.3,10.9-12.1C159,11.9,161.1,10.4,163.3,9.2z"/>
	</g>
	<g>
		<path fill="#FFFFFF" d="M221.3,33.2c0,1.6-1.5,4.2-4.6,8c-3.6,4.399-6.6,6.6-9.2,6.6h-1.1c-1.2,0-2.1-0.6-2.8-1.8
			c-0.6-0.9-0.8-1.8-0.8-2.9c0-2.699,2-6.5,6-11.399c4-4.9,7.2-7.4,9.6-7.4c2.3,0,3.5,1.2,3.5,3.7c0,0.6-0.1,1.5-0.4,2.4
			c0,0.1,0.5,0.2,1.3,0.2c0.8,0,2.1-0.4,3.7-1.3c0,0.8-1.8,1.9-5.4,3.3C221.3,32.8,221.3,33,221.3,33.2z M216.9,29.7
			c-1.6,0-3.8,1.8-6.6,5.399c-2.8,3.601-4.2,6.301-4.2,8c0,1.7,0.5,2.601,1.6,2.601c1.9,0,4.4-1.8,7.4-5.3s4.5-6.101,4.5-7.601
			C218.9,32.4,218,31.3,216.9,29.7z"/>
		<path fill="#FFFFFF" d="M207.6,48.8h-1.1c-1.1,0-2.7-0.399-3.8-2.399c-0.6-1-0.9-2.101-0.9-3.4c0-3,2-7,6.2-12.1
			c4.2-5.3,7.6-7.8,10.5-7.8s4.5,1.7,4.5,4.8c0,0.5,0,1-0.1,1.6c0.3,0,1.3-0.2,3.2-1.2l1.7-0.9l-0.1,1.9c-0.1,1.1-1,2.1-5.3,4
			c-0.1,1.9-1.6,4.601-4.8,8.5C213.8,46.6,210.5,48.8,207.6,48.8z M218.5,25.3c-1.4,0-4.1,1.2-8.8,7c-3.8,4.7-5.7,8.3-5.7,10.8
			c0,0.801,0.2,1.601,0.7,2.301c0.6,1.199,1.3,1.3,1.9,1.3h0.3c-0.9-0.3-1.8-1.2-1.8-3.5c0-2,1.5-4.8,4.5-8.7c3.1-4,5.5-5.9,7.4-5.9
			h0.6l0.3,0.5c1.3,2,2,2.6,2.3,2.8l0,0l0.7-0.3c0.1-0.1,0.3-0.1,0.4-0.2c-0.3-0.1-0.6-0.4-0.7-0.7l-0.1-0.3l0.1-0.3
			c0.2-0.9,0.3-1.6,0.3-2.2C220.9,25.8,219.9,25.3,218.5,25.3z M216.4,30.9c-0.8,0.3-2.4,1.4-5.2,4.9c-3.3,4.2-4,6.3-4,7.4
			c0,1.5,0.4,1.5,0.5,1.5c1.1,0,3.1-0.8,6.6-4.9c3-3.6,3.9-5.399,4.1-6.399C217.8,32.8,217.2,32,216.4,30.9z"/>
	</g>
	<g>
		<path fill="#FFFFFF" d="M241.2,20.9c1.4,0,2.5,0.4,3.5,1.3c0.9,0.9,1.4,2.2,1.4,3.8c0,3.6-3,8.1-8.9,13.5c-5,4.5-9.1,7.3-12.2,8.3
			c-0.5,0-1.2-0.3-2-0.8s-1.2-1-1.2-1.5c0-1,1.1-4.4,3.3-10.1c2.2-5.8,3.7-9,4.5-9.7c0.199-0.2,0.5-0.3,0.9-0.3
			c0.399,0,0.799,0.2,1.299,0.6s0.701,1,0.701,1.5c0,0.1-1.101,2.7-3.4,7.9c-2.2,5.199-3.3,8.3-3.2,9.3
			c1.9-0.601,5.399-3,10.399-7.101c5-4.199,7.5-7.899,7.5-11.2c0-2-1-3.4-3-4.4c-0.299-0.1-0.5-0.3-0.5-0.6
			C240.5,21.1,240.7,20.9,241.2,20.9z"/>
		<path fill="#FFFFFF" d="M225.2,48.9H225c-0.7,0-1.6-0.301-2.6-1c-0.4-0.301-1.7-1.101-1.7-2.4c0-0.8,0.4-2.7,3.3-10.5
			c3-7.8,4.1-9.5,4.8-10.1c0.3-0.3,0.9-0.5,1.6-0.5s1.399,0.3,2.101,1c0.699,0.6,1,1.4,1.1,2.2c0,0.4,0,0.4-3.4,8.4
			c-1.6,3.6-2.3,5.8-2.7,7c1.6-0.9,4.2-2.7,8.299-6.1c4.701-4,7.101-7.4,7.101-10.4c0-1.6-0.7-2.6-2.3-3.4c-0.7-0.3-1.1-0.9-1.1-1.6
			c0-0.8,0.6-1.7,1.799-1.7c1.701,0,3.101,0.6,4.201,1.7c1.199,1.1,1.799,2.7,1.799,4.6c0,3.9-3,8.6-9.199,14.3
			c-5.2,4.699-9.3,7.5-12.6,8.5H225.2z M222.9,45.5c0,0,0.2,0.2,0.7,0.6c0.6,0.4,1,0.601,1.2,0.601c1.3-0.4,2.8-1.2,4.5-2.4
			c-1.3,0.8-2.3,1.3-3.1,1.601L225,46.3l-0.2-1.3c-0.1-0.9,0.2-2.8,3.2-9.9c2.299-5.3,3-7.1,3.299-7.6c-0.1-0.2-0.199-0.4-0.399-0.6
			c-0.3-0.3-0.5-0.3-0.5-0.3c-0.101,0-0.101,0-0.2,0c-0.4,0.4-1.4,1.9-4.2,9.2C223.3,43.3,222.9,45.1,222.9,45.5L222.9,45.5z
			 M243.9,23c0.601,0.8,1,1.8,1.101,2.9C245,24.7,244.6,23.7,243.9,23L243.9,23z"/>
	</g>
	<g>
		<path fill="#FFFFFF" d="M265.799,27.3l0.9-0.2c0.5,0,1,0.2,1.4,0.6c0.4,0.4,0.699,0.7,0.699,0.9c0,0.2-1.399,2.4-4.199,6.6
			c-2.801,4.1-4.2,7-4.2,8.7c0,0.1,0,0.3,0,0.399c0.2,1,0.7,1.5,1.5,1.5c2.399,0,6.7-3.899,12.899-11.7
			c0.101-0.199,0.301-0.3,0.5-0.3c0.201,0,0.301,0.2,0.301,0.5s-0.2,0.8-0.6,1.3C269.2,43.4,264.799,47.2,261.7,47.2
			c-0.4,0-0.8-0.101-1.199-0.2c-2-0.8-3-2.2-3-4.5c0-0.8,0.1-1.5,0.299-2.3l-4.199,4.1c-2.7,2.4-4.6,3.5-5.801,3.5
			c-1.199,0-2.299-0.399-3.399-1.2c-1.2-0.899-1.8-2.1-1.8-3.6c0-3.3,2.3-7.3,6.9-11.9c4.6-4.6,8.899-6.9,12.699-6.9
			c1.5,0,2.5,0.5,3,1.6c0.1,0.4,0.301,0.7,0.301,0.9C265.7,27.2,265.799,27.3,265.799,27.3z M245.5,44c0,1.6,0.6,2.4,1.699,2.4
			c2.6,0,6.2-2.9,10.7-8.601l7.2-9.9c-0.4-0.6-0.9-1-1.801-1c-2.799,0-6.399,2.1-11,6.4C247.799,37.7,245.5,41.2,245.5,44z"/>
		<path fill="#FFFFFF" d="M247.9,49c-1.399,0-2.8-0.5-4.101-1.3c-1.5-1.101-2.299-2.601-2.299-4.5c0-3.601,2.399-7.8,7.299-12.6
			c4.801-4.8,9.4-7.2,13.5-7.2c2.4,0,3.5,1.2,4,2.2l0.201,0.5h0.299c0.801,0,1.5,0.3,2.201,0.9c0.5,0.4,1,1,1,1.8
			c0,0.4,0,0.7-4.4,7.2c-3.5,5.2-4,7.3-4,8.1v0.2c0.199,0.7,0.3,0.7,0.4,0.7c1.1,0,4.199-1.5,12.1-11.3c0.3-0.4,0.8-0.7,1.3-0.7
			s1.399,0.3,1.399,1.6c0,0.601-0.299,1.2-0.799,2C268.9,46.1,263.9,49.7,260.299,48.4c-2.299-0.9-3.5-2.601-3.699-5l-2.1,2.1
			C251.5,47.8,249.4,49,247.9,49z M262.299,25.5c-3.5,0-7.5,2.2-11.899,6.6C246,36.5,243.799,40.2,243.799,43.2
			c0,0.899,0.301,1.6,0.801,2.2c-0.1-0.4-0.2-0.9-0.2-1.4c0-3.2,2.3-6.9,7.2-11.5c4.8-4.5,8.699-6.7,11.8-6.7c0.2,0,0.3,0,0.399,0
			C263.5,25.7,263,25.5,262.299,25.5z M263.299,28c-2.5,0-5.899,2.1-10.199,6.1c-4.301,4-6.5,7.301-6.5,9.801c0,1.3,0.4,1.3,0.6,1.3
			c1.6,0,4.5-1.4,9.9-8.2l6.6-9.1C263.6,28,263.5,28,263.299,28z M259.799,37.1L259,40.6c-0.201,0.7-0.201,1.4-0.201,2.101
			c0,1.1,0.301,2,0.9,2.6c-0.1-0.2-0.1-0.399-0.199-0.7C259.4,44.4,259.4,44.1,259.4,43.9c0-1.9,1.399-4.9,4.399-9.301
			c2.601-3.8,3.5-5.3,3.9-5.899c0,0-0.1-0.1-0.199-0.2c-0.301-0.3-0.5-0.3-0.601-0.3l-0.7,0.1L259.799,37.1z"/>
	</g>
	<g>
		<path fill="#FFFFFF" d="M318.901,19.9c4.398,0,6.699,0.8,6.699,2.5c0,0.4-0.1,0.8-0.4,1.2c-1.1,1.7-3.1,2.5-5.9,2.5
			c-1.898,0-3.799-0.3-5.699-1c-1.9-0.7-3.4-1.4-4.4-2.1c-4.199,1.2-8,3.1-11.199,5.6c-3.301,2.5-5.801,5.4-7.4,8.6
			c-0.9,1.7-1.301,3.399-1.301,5c0,2.5,1,4.6,3.201,6.2c2.1,1.6,5.199,2.399,9.299,2.399c1.102,0,2.301-0.1,3.5-0.2
			c7.201-0.8,12.9-3.1,17.201-6.899c3.6-3.2,5.4-6.5,5.4-10c0-2.8-1.301-4.1-4-4.1c-3.201,0-6.9,1.7-11.102,5.2
			c-1,0.9-1.898,2-2.699,3.3C309.401,39.4,309,40.7,309,42s0.6,2.1,1.9,2.4c0.5,0.199,0.699,0.399,0.699,0.699
			c0,0.4-0.4,0.601-1.4,0.5c-2.199-0.1-3.299-1.5-3.299-4.3s1.398-5.399,4.299-7.899c3.9-3.4,8-5,12.4-5c3.301,0,5.301,1,6.199,3.1
			c0.4,1,0.602,1.9,0.602,2.9c0,4.199-2.301,8.199-7,11.899c-5.602,4.5-12.602,6.8-21.201,6.8c-5.3,0-9.5-1-12.6-2.899
			c-3.1-2-4.6-4.601-4.6-7.7c0-1.9,0.6-3.7,1.799-5.6C291,30.3,298.1,25.4,308.1,22.2c-1.5-1.7-2.199-3.6-2.199-5.5
			c0-1.9,0.5-3.6,1.398-4.9c1.801-2.5,4.602-4.6,8.4-6.3c4.4-1.9,8.9-2.9,13.301-2.9c2.6,0,4.6,0.4,6.199,1.3
			c1.5,0.8,2.301,2.1,2.301,3.9c0,1.7-0.6,3.2-1.9,4.4c-1.301,1.2-2.6,1.8-4.1,1.8c-1.4,0-2.1-0.3-2.1-1c0-0.4,0.299-0.6,0.898-0.6
			l1.301,0.2c0.9,0,1.699-0.5,2.5-1.5c0.699-1,1.1-2,1.1-3c0-1.5-0.9-2.7-2.699-3.4c-1.1-0.4-2.201-0.7-3.201-0.7s-1.699,0-2.1,0.1
			c-3.9,0.2-7.699,1.6-11.4,4.1c-4.398,2.9-6.5,6.1-6.5,9.7c0,1.3,0.4,2.5,1.4,3.7C313.5,20.4,316.299,19.9,318.901,19.9z
			 M311.799,22.4c2,1.5,4.201,2.3,6.701,2.3s3.799-0.7,3.799-2.1c0-0.6-1.199-1-3.398-1C316.6,21.6,314.2,21.9,311.799,22.4z"/>
		<path fill="#FFFFFF" d="M302,54.2c-5.5,0-9.9-1.101-13.201-3.101c-3.399-2.199-5.1-5.1-5.1-8.6c0-2.1,0.6-4.1,1.9-6.2
			c4.1-6.5,11-11.4,20.5-14.7c-1-1.6-1.5-3.2-1.5-5c0-2.2,0.5-4,1.6-5.5c2-2.7,5-4.9,8.801-6.6c4.6-2,9.199-3,13.799-3
			c2.801,0,5,0.5,6.701,1.4c1.9,1,2.9,2.7,2.9,4.8c0,2-0.701,3.8-2.301,5.2c-1.5,1.4-3.1,2.1-4.801,2.1
			c-2.799,0-3.199-1.3-3.199-2.1c0-0.8,0.5-1.7,2-1.7h0.199l1.301,0.2c0.301,0,0.801-0.1,1.5-1c0.6-0.8,0.9-1.6,0.9-2.4
			c0-0.7-0.201-1.6-2-2.4C331,5.2,330.1,5,329.2,5c-1.199,0-1.699,0-2,0.1c-3.699,0.2-7.4,1.5-10.9,3.9c-4,2.6-6,5.6-6,8.7
			c0,0.8,0.201,1.6,0.701,2.4c2.699-0.8,5.4-1.2,7.9-1.2c1.898,0,7.799,0,7.799,3.6c0,0.6-0.199,1.2-0.6,1.8
			c-1.301,2-3.6,3.1-6.9,3.1c-2,0-4-0.4-6.1-1c-1.801-0.6-3.199-1.2-4.199-1.9c-3.801,1.2-7.301,3-10.4,5.3
			c-3.101,2.4-5.5,5.2-7.101,8.3c-0.8,1.5-1.2,3.101-1.2,4.5c0,2.2,0.9,3.9,2.7,5.301c1.899,1.399,4.8,2.199,8.601,2.199
			c1.1,0,2.199-0.1,3.4-0.199c6.898-0.7,12.5-3,16.6-6.7c3.299-2.9,5-6,5-9.2c0-2.2-0.9-3.1-2.9-3.1c-2.9,0-6.4,1.7-10.4,4.9
			c-0.9,0.8-1.699,1.8-2.4,2.9c-0.6,1.1-0.898,2.3-0.898,3.399c0,0.7,0.299,1.101,1.1,1.301h0.199c1.201,0.5,1.301,1.3,1.301,1.699
			c0,0.801-0.5,1.7-2,1.7c-0.1,0-0.301,0-0.5,0c-1.6,0-4.301-0.8-4.301-5.399c0-3.101,1.6-6.101,4.701-8.7c4.1-3.5,8.5-5.3,13.1-5.3
			c3.699,0,6.1,1.3,7.199,3.8c0.4,1.1,0.6,2.2,0.6,3.3c0,4.5-2.5,8.8-7.398,12.7C318.2,51.8,310.799,54.2,302,54.2z M328.401,31.3
			c0.299,0.7,0.398,1.601,0.398,2.5c0,3.8-1.898,7.4-5.699,10.8c-4,3.601-9.301,5.9-15.699,6.9c5.898-0.8,11-2.8,15.199-6.2
			c4.4-3.5,6.6-7.2,6.6-11c0-0.8-0.199-1.6-0.5-2.5C328.6,31.7,328.5,31.5,328.401,31.3z M296.1,28.8c-3.6,2.4-6.5,5.3-8.6,8.601
			c-1.101,1.699-1.601,3.399-1.601,5c0,2.8,1.3,5,4.101,6.8c1.399,0.899,3.1,1.6,5.1,2.1c-1.301-0.399-2.5-1-3.5-1.7
			c-2.4-1.8-3.6-4.199-3.6-7.1c0-1.8,0.5-3.7,1.399-5.5C291,33.9,293.2,31.2,296.1,28.8z M309.6,36.7c-0.699,1-1.199,2-1.5,3
			c0.199-0.7,0.5-1.4,0.9-2C309.2,37.3,309.401,37,309.6,36.7z M322.901,21.4c0.299,0.3,0.5,0.7,0.5,1.2s-0.102,1.2-0.602,1.8
			c0.602-0.3,1.102-0.8,1.5-1.3c0.201-0.3,0.201-0.5,0.201-0.6C324.5,22.1,324,21.7,322.901,21.4z M315,23
			c1.1,0.4,2.299,0.6,3.5,0.6c1.1,0,2.299-0.1,2.6-0.7c-0.301-0.1-1-0.2-2.199-0.2C317.6,22.7,316.299,22.8,315,23z M309.299,21.9
			l0.4,0.3c0.1,0.1,0.301,0.2,0.4,0.3l-1-0.8l0.301-0.1c-0.9-1.2-1.4-2.6-1.4-4.1c0-4,2.4-7.5,7-10.6c0.5-0.4,1.1-0.7,1.699-1
			c-0.299,0.1-0.6,0.3-0.9,0.4c-3.5,1.5-6.199,3.5-7.898,5.9c-0.801,1.1-1.201,2.5-1.201,4.2c0,1.7,0.701,3.3,2,4.8L309.299,21.9
			L309.299,21.9z M335.5,5.4c0.6,0.9,0.799,1.8,0.799,2.5c0,0.3,0,0.5-0.1,0.7c0.1-0.3,0.1-0.7,0.1-1C336.299,6.7,336,5.9,335.5,5.4
			z"/>
	</g>
	<g>
		<path fill="#FFFFFF" d="M344.1,46.6c-1.301,0.801-2.9,1.101-4.9,1.101c-1.9,0-3.4-0.601-4.4-1.9s-1.898-3.3-2.6-6
			c-0.799,0.8-1.4,1.2-1.699,1.2c-0.201,0-0.301-0.1-0.301-0.5c0-0.3,0.1-0.6,0.301-0.8c1.5-1.9,4-4.5,7.6-8l8.6-8
			c2.5-2.3,3.9-3.5,4.4-3.5c1.4,0,2.199,0.5,2.199,1.6c0,0.5-0.199,1.1-0.699,1.6c-0.4,0.5-0.699,0.9-0.9,1.2
			c-0.199,0.3-0.4,0.6-0.699,0.8c-0.801,1.4-1.6,4.3-2.5,8.7c-0.9,4.4-1.5,7.5-1.9,9.2c3.801,0,7.6-2.5,11.6-7.3
			c0.4-0.5,0.801-0.7,1-0.7c0.201,0,0.301,0.101,0.301,0.4s-0.201,0.7-0.6,1.2c-2.602,3.1-5.102,5.199-7.301,6.5
			c-1.4,0.699-3.1,1.199-5.301,1.699L344.1,46.6z M335,39c0,1.5,0.5,2.8,1.5,3.8s2.199,1.5,3.4,1.5c1.299,0,2.199-0.3,2.898-0.8
			c0.9-0.5,1.801-2.6,2.701-6.3s1.4-6.9,1.6-9.7l0.301-2.3c-2.5,1.8-5.102,4.2-8,7.2C336.6,35.3,335.1,37.3,335,38.2
			C335,38.6,335,38.8,335,39z"/>
		<path fill="#FFFFFF" d="M339.299,48.8c-2.299,0-4-0.8-5.299-2.3c-0.9-1.1-1.701-2.7-2.301-4.8c-0.4,0.3-0.799,0.399-1.1,0.399
			c-0.699,0-1.4-0.5-1.4-1.6c0-0.6,0.201-1.1,0.6-1.5c1.5-1.9,4.102-4.6,7.701-8.1l8.6-8c3.699-3.5,4.5-3.8,5.1-3.8
			c3,0,3.301,2.1,3.301,2.7c0,0.8-0.301,1.6-0.9,2.3c-0.4,0.5-0.699,0.9-0.9,1.2c-0.199,0.3-0.4,0.6-0.6,0.8
			c-0.5,0.9-1.301,3.1-2.301,8.3C349.1,37.8,348.6,40.3,348.2,42.1c3-0.6,6.1-2.899,9.301-6.8c0.799-0.8,1.299-1.1,1.9-1.1
			c0.699,0,1.398,0.5,1.398,1.5c0,0.6-0.299,1.2-0.898,1.899c-2.701,3.2-5.301,5.5-7.701,6.7c-1.4,0.7-3.199,1.3-5.4,1.8l-2,1.301
			C343.2,48.4,341.401,48.8,339.299,48.8z M333,38.5l0.299,1c0.701,2.6,1.5,4.5,2.4,5.6c0.801,1,2,1.5,3.6,1.5
			c1.701,0,3.201-0.399,4.301-1l1.699-1.1H345.1l0.4-1.4c0.4-1.699,1.1-4.8,1.9-9.1c0.898-4.6,1.699-7.5,2.6-9l0.1-0.2
			c0.199-0.2,0.4-0.5,0.6-0.8c0.201-0.3,0.6-0.7,1-1.3c0.301-0.3,0.4-0.6,0.4-0.9c0-0.2,0-0.5-0.9-0.5c-0.199,0.1-0.799,0.5-2.5,2
			l-0.5,4.4c-0.199,2.8-0.699,6.1-1.6,9.8c-1.301,5.2-2.301,6.4-3.199,6.9c-0.801,0.6-2,0.899-3.5,0.899c-1.602,0-3-0.6-4.201-1.8
			c-1.199-1.2-1.9-2.7-1.9-4.6c0-0.301,0-0.601,0.102-0.9c0-0.2,0.1-0.5,0.199-0.9C333.799,37.7,333.401,38.1,333,38.5z M346,27.7
			c-1.9,1.5-3.801,3.4-5.801,5.5c-3.799,4-4.1,5-4.1,5.2c0,0.3-0.1,0.5-0.1,0.6c0,1.2,0.4,2.2,1.199,3
			c0.801,0.8,1.701,1.2,2.701,1.2s1.799-0.2,2.299-0.5l0.1-0.101c0.102-0.1,1-0.699,2.201-5.5C345.299,33.5,345.799,30.4,346,27.7z"
			/>
	</g>
	<g>
		<path fill="#FFFFFF" d="M381.7,32.3c0,3.7-2.1,7.2-6.299,10.4C371.2,46,367.6,47.6,364.5,47.6c-2.1,0-3.5-0.1-4.5-0.399
			c-0.9-0.3-2-1.101-3.1-2.5c-0.801,0.6-1.801,2.3-3.102,4.899c-1.299,2.601-2,4.801-2,6.7c0,0.9,0.4,2,1.301,3.4
			c0.1,0.2,0,0.399-0.199,0.6c-0.201,0.2-0.4,0.2-0.5,0.2c-0.102,0-0.201,0-0.301-0.1c-1.9-1.101-2.801-3.101-2.801-6.101
			s2.5-8.2,7.5-15.6c5-7.4,8.4-11.4,10.4-12.1c0.5-0.1,0.801-0.1,0.9-0.1c0.801,0,1.199,0.8,1.199,2.5c0.4-0.4,1.4-0.9,2.801-1.3
			c1.699-0.5,2.9-0.7,3.699-0.7c1.602,0,3,0.5,4.201,1.4C381,29.4,381.7,30.7,381.7,32.3z M378.2,31.6c0-1.7-1-2.6-3.1-2.6
			c-2,0-3.9,0.4-5.6,1.3c-0.801,0.4-2.9,2.4-6.4,6c-3.5,3.601-5.199,6-5.199,7c0,0.8,0.6,1.4,1.898,1.8
			c1.201,0.4,2.5,0.601,3.801,0.601c2.5,0,5.5-1.4,9.199-4.2C376.401,38.6,378.2,35.3,378.2,31.6z"/>
		<path fill="#FFFFFF" d="M352.401,61.6c-0.301,0-0.5-0.1-0.801-0.199c-2.301-1.301-3.5-3.601-3.5-7.101c0-3.3,2.5-8.6,7.699-16.3
			c6.9-10.2,9.5-12,10.9-12.5h0.1c0.701-0.1,0.9-0.2,1.102-0.2c0.799,0,1.699,0.4,2,1.8c0.5-0.2,1-0.4,1.6-0.5
			c1.9-0.5,3.1-0.7,4-0.7c1.9,0,3.5,0.5,4.9,1.6c1.5,1.1,2.199,2.7,2.199,4.7c0,4-2.199,7.8-6.699,11.3
			c-4.4,3.5-8.201,5.1-11.602,5.1c-2.199,0-3.699-0.1-4.799-0.399c-0.9-0.3-1.801-0.9-2.801-1.9c-0.5,0.7-1.199,1.8-2.199,3.7
			c-1.201,2.5-1.801,4.5-1.801,6.2c0,0.5,0.201,1.3,1.1,2.8l0.102,0.2c0.299,0.7,0.1,1.399-0.602,1.899
			C353.2,61.4,352.799,61.6,352.401,61.6z M367.401,27.7c-1,0.4-3.5,2.4-9.701,11.6c-6,9-7.299,13.101-7.299,15
			c0,1.4,0.199,2.5,0.6,3.3c-0.1-0.5-0.201-1-0.201-1.399c0-2,0.701-4.4,2.102-7.2c1.398-2.8,2.5-4.5,3.398-5.2l0.602-0.5v-0.1
			c0-1,0.6-2.7,5.5-7.8c3.1-3.2,4.699-4.8,5.699-5.5V29c0-0.8-0.1-1.2-0.199-1.4C367.7,27.7,367.6,27.7,367.401,27.7z M377.799,28.6
			c0.9,0.6,1.5,1.6,1.5,3c0,4.1-2,7.7-5.898,10.8c-2.301,1.8-4.4,3.1-6.4,3.8c2.199-0.7,4.799-2.101,7.6-4.3
			c3.9-3.101,5.9-6.301,5.9-9.601c0-1.3-0.5-2.2-1.4-2.9C378.799,29,378.299,28.8,377.799,28.6z M375.1,30.1c-1.9,0-3.6,0.4-5.1,1.2
			c-0.301,0.2-1.5,1-6.1,5.8c-4.602,4.801-4.9,6-4.9,6.2c0,0.4,0.799,0.7,1.1,0.8c1.1,0.4,2.301,0.601,3.4,0.601
			c2.199,0,5.1-1.3,8.5-4c3.4-2.601,5-5.601,5-9C377.1,30.8,376.901,30.1,375.1,30.1z"/>
	</g>
	<g>
		<path fill="#FFFFFF" d="M385.1,48.5c-0.5,0-1,0-1.4-0.2c-2.9-0.8-4.299-2.5-4.299-4.899c0-3.2,2-6.801,6-11
			c4-4.2,7.6-6.3,10.799-6.3c1.1,0,1.9,0.3,2.5,0.9s1,1.3,1,2.1c0,2.5-1.9,5-5.699,7.3c-3.801,2.3-6.9,3.5-9.301,3.5
			c-0.4,0-0.699,0-1-0.101c-0.699,1.2-1,2.5-1,3.9c0,2.399,1.1,3.6,3.4,3.6c2.199,0,5.199-1.5,8.699-4.6
			c2.701-2.101,5-4.5,7.102-7.101c0.398-0.5,0.799-0.8,1.1-0.8c0.299,0,0.5,0.101,0.5,0.4s-0.201,0.6-0.6,1.1
			c-2.5,3.3-5.5,6.2-8.9,8.7C390.401,47.3,387.5,48.5,385.1,48.5z M398,28.9c0-0.5-0.6-0.8-1.701-0.8c-1.199,0-2.799,0.9-4.898,2.6
			c-2.801,2.399-5.102,4.8-6.701,7.399C385,38.2,385.2,38.2,385.6,38.2c1.699,0,4-0.9,6.9-2.7s4.699-3.8,5.4-6
			C397.901,29.3,398,29.1,398,28.9z M401,20.5c-2.301,1.4-3.6,2.1-3.9,2.1s-0.4-0.1-0.4-0.4c0-0.1,0.1-0.3,0.201-0.4
			c2.299-1.7,4.6-3.6,7.199-5.6c0.5-0.4,0.9-0.5,1.199-0.5c0.4,0,0.701,0.3,0.701,0.8c0,0.6-0.201,1-0.701,1.3
			C404.7,18.2,403.299,19.1,401,20.5z"/>
		<path fill="#FFFFFF" d="M385.1,49.6c-0.6,0-1.199-0.1-1.699-0.3c-4.201-1.2-5.102-3.899-5.102-5.899c0-3.5,2.102-7.301,6.301-11.8
			c4.301-4.4,8-6.6,11.5-6.6c1.301,0,2.4,0.4,3.301,1.1c0.898,0.8,1.398,1.8,1.398,2.9c0,2.9-2.1,5.7-6.299,8.2
			c-4,2.5-7.301,3.6-9.9,3.6c-0.1,0-0.199,0-0.301,0c-0.398,0.9-0.5,1.7-0.5,2.7c0,1.8,0.602,2.4,2.301,2.4c2,0,4.699-1.4,8-4.301
			c2.6-2.1,4.9-4.399,6.9-7c0.4-0.5,1-1.199,1.9-1.199c0.898,0,1.5,0.6,1.5,1.5c0,0.5-0.201,1.1-0.801,1.8
			c-2.6,3.399-5.699,6.399-9.199,8.899C390.799,48.3,387.799,49.6,385.1,49.6z M394.2,27.5c-2.4,0.7-5.1,2.6-8,5.6
			C382.401,37,380.5,40.5,380.5,43.4c0,0.899,0.199,2.199,1.799,3.1c-0.5-0.8-0.799-1.8-0.799-3c0-1.5,0.4-3,1.1-4.4l0.5-0.8h0.1
			l0.5-0.8c1.6-2.7,4-5.3,6.9-7.7C392,28.8,393.2,28,394.2,27.5z M396.2,29.2c-0.5,0-1.699,0.3-4.199,2.4
			c-2.1,1.7-3.9,3.6-5.301,5.5c1.4-0.3,3.1-1.1,5.1-2.399c2.602-1.7,4.301-3.5,4.9-5.4C396.7,29.2,396.5,29.2,396.2,29.2z
			 M397.1,23.7c-0.9,0-1.5-0.6-1.5-1.5c0-0.3,0.1-0.7,0.5-1.2l0.1-0.1c2.201-1.7,4.6-3.6,7.1-5.5c0.801-0.6,1.301-0.8,1.9-0.8
			c0.9,0,1.801,0.6,1.801,1.9c0,0.9-0.4,1.7-1.1,2.2c-0.4,0.3-1.201,1-4.301,2.8C397.799,23.7,397.401,23.7,397.1,23.7z"/>
	</g>
	<g>
		<path fill="#FFFFFF" d="M404.299,48.5c-0.5,0-0.898,0-1.398-0.2c-2.9-0.8-4.4-2.5-4.4-4.899c0-3.2,2-6.801,6-11
			c4-4.2,7.6-6.3,10.699-6.3c1,0,1.9,0.3,2.6,0.9c0.602,0.6,1,1.3,1,2.3s-0.299,2-0.898,3.101c-0.602,1.1-1.5,1.6-2.701,1.6
			c-1.199,0-1.799-0.4-1.799-1.1c0-0.5,0.299-1.2,0.898-2.3c0.602-1,0.9-1.6,0.9-1.6c0-0.1-0.1-0.1-0.199-0.1
			c-1.301,0.1-3,1-5.201,2.7c-2.199,1.7-3.699,3.1-4.5,4.2l-2.699,3.9c-0.4,0.7-0.801,1.6-1,2.6s-0.301,1.8-0.301,2.2
			c0,0.5,0.301,1.1,0.801,1.7c0.6,0.6,1.4,0.899,2.4,0.899c2.299,0,5.1-1.3,8.4-4c3.398-2.699,5.898-5.199,7.799-7.6
			c0.201-0.3,0.5-0.4,0.801-0.4c0.299,0,0.5,0.101,0.5,0.301c0,0.199-0.1,0.399-0.301,0.699c-2.5,3.301-5.5,6.2-8.9,8.7
			C409.5,47.3,406.6,48.5,404.299,48.5z"/>
		<path fill="#FFFFFF" d="M404.299,49.6c-0.6,0-1.199-0.1-1.699-0.3c-4.199-1.2-5.1-3.899-5.1-5.899c0-3.5,2.1-7.301,6.299-11.8
			c4.201-4.4,8-6.6,11.5-6.6c1.301,0,2.4,0.4,3.301,1.1c0.9,0.8,1.4,1.9,1.4,3.1c0,1.1-0.301,2.4-1,3.6c-0.801,1.4-2,2.2-3.6,2.2
			c-2.701,0-2.9-1.7-2.9-2.2c0-0.6,0.199-1.2,0.699-2.1c-0.699,0.4-1.5,0.9-2.5,1.7c-2.1,1.6-3.5,2.899-4.299,4l-2.602,3.8
			c-0.398,0.6-0.6,1.3-0.799,2.2c-0.201,1.1-0.301,1.699-0.301,2c0,0.1,0,0.399,0.6,1c0.301,0.399,0.9,0.6,1.602,0.6
			c2,0,4.6-1.3,7.799-3.7c3.301-2.6,5.801-5.1,7.5-7.399c0.5-0.601,1.1-0.9,1.701-0.9c1.1,0,1.6,0.7,1.6,1.4
			c0,0.399-0.201,0.899-0.6,1.399c-2.5,3.3-5.602,6.3-9.102,8.8C409.901,48.3,406.901,49.6,404.299,49.6z M415.299,27.2
			c-2.898,0-6.199,2-10,5.899C401.5,37,399.6,40.5,399.6,43.4c0,0.8,0.199,1.899,1.301,2.8c-0.4-0.601-0.602-1.101-0.602-1.7
			s0.102-1.4,0.301-2.5s0.6-2.1,1.1-3l2.701-3.9c0.898-1.3,2.5-2.699,4.799-4.5c2.4-1.8,4.301-2.8,5.701-3h0.1
			c0.799,0,1.299,0.6,1.299,1.2c0,0.4,0,0.5-1.1,2.2c-0.6,1-0.699,1.5-0.799,1.6c0.1,0,0.299,0.101,0.699,0.101
			c0.801,0,1.301-0.3,1.699-1c0.5-0.9,0.701-1.8,0.701-2.5c0-0.7-0.201-1.1-0.6-1.5C416.7,27.4,416.1,27.2,415.299,27.2z"/>
	</g>
	<g>
		<path fill="#FFFFFF" d="M420.799,48.4c-2.299,0-3.5-1.5-3.5-4.5c0-2.4,1.301-5.801,4-10.2c2.701-4.3,4.801-6.5,6.5-6.6
			c0.4,0,1,0.2,1.5,0.5c0.602,0.4,0.9,0.7,0.9,1.1c-0.199,0.3-0.5,0.7-0.799,1.1c-0.301,0.4-0.701,0.8-1,1.2
			c-0.4,0.5-0.9,1.1-1.5,1.9c-0.602,0.8-1.201,1.6-1.801,2.399c-3.4,4.4-5.1,7.4-5.1,9.101c0,1.699,0.6,2.5,1.699,2.5
			c1,0,2.201-0.5,3.9-1.601c3.801-2.399,6.801-5,9-7.8c0.801-1,1.4-1.6,1.699-1.6c0.301,0,0.4,0.199,0.4,0.6s-0.5,1.1-1.6,2.2
			c-1,1.1-1.9,1.899-2.5,2.6c-0.6,0.601-1,1-1.301,1.3C431.1,42.8,430.7,43.2,430,43.7c-0.6,0.6-1.1,1-1.4,1.2
			c-0.301,0.199-0.801,0.6-1.301,1c-0.6,0.5-1.1,0.8-1.6,1c-0.5,0.199-1,0.5-1.6,0.699C423.299,48.2,422.1,48.4,420.799,48.4z
			 M435,20.5c0.6,0.4,0.9,0.9,0.9,1.5s-0.301,1.1-0.9,1.5s-1.201,0.6-1.801,0.6c-0.699,0-1.299-0.2-1.9-0.7
			c-0.6-0.5-0.799-1.1-0.799-1.7c0-1.3,0.799-1.9,2.6-1.9C433.799,19.9,434.5,20.1,435,20.5z"/>
		<path fill="#FFFFFF" d="M420.799,49.5c-1.699,0-4.6-0.7-4.6-5.6c0-2.7,1.4-6.2,4.201-10.7c3-4.8,5.299-7,7.398-7.1l0,0
			c0.701,0,1.4,0.2,2.102,0.7c0.898,0.6,1.299,1.2,1.299,2v0.4L431,29.5c-0.201,0.3-0.5,0.7-0.9,1.1c-0.301,0.4-0.699,0.8-1,1.2
			c-0.4,0.5-0.9,1.101-1.5,1.9s-1.199,1.6-1.801,2.399c-4.299,5.5-4.898,7.7-4.898,8.5c0,1.4,0.398,1.4,0.6,1.4
			c0.5,0,1.5-0.2,3.299-1.4c3.701-2.3,6.602-4.8,8.801-7.5c1.1-1.5,1.801-2,2.5-2c0.9,0,1.5,0.7,1.5,1.601
			c0,0.6-0.301,1.3-1.9,2.899l-2.5,2.601c-0.699,0.7-1.1,1.1-1.299,1.3c-0.201,0.2-0.602,0.6-1.201,1.1
			c-0.6,0.601-1.199,1-1.5,1.301c-0.299,0.199-0.799,0.6-1.299,1C427.2,47.4,426.7,47.8,426.1,48c-0.5,0.2-1,0.4-1.6,0.7
			C423.6,49.2,422.299,49.5,420.799,49.5z M427.799,28.2c-0.5,0-2.199,0.6-5.5,6c-2.6,4.1-3.799,7.399-3.799,9.6
			c0,1.7,0.4,2.5,0.9,3c-0.301-0.5-0.5-1.3-0.5-2.3c0-1.2,0.6-3.6,5.299-9.8c0.6-0.8,1.201-1.601,1.801-2.4
			c0.699-0.8,1.199-1.5,1.5-2c0.4-0.4,0.699-0.9,1-1.3c0.1-0.2,0.199-0.3,0.299-0.4l-0.1-0.1C428.2,28.3,427.901,28.2,427.799,28.2z
			 M433.299,25.3c-1,0-1.799-0.3-2.6-1c-1-0.9-1.199-1.9-1.199-2.5c0-0.9,0.4-3,3.699-3c0.9,0,1.801,0.3,2.6,0.8
			c1.201,0.8,1.4,1.8,1.4,2.4s-0.199,1.6-1.299,2.4C435,25,434.2,25.3,433.299,25.3z M433.1,21c-1.5,0-1.5,0.5-1.5,0.8
			c0,0.2,0,0.5,0.5,0.9c0.801,0.7,1.6,0.6,2.4,0.1c0.4-0.3,0.4-0.6,0.4-0.7s0-0.3-0.4-0.6C434,21.1,433.6,21,433.1,21z"/>
	</g>
	<g>
		<path fill="#FFFFFF" d="M437.2,48.5c-0.5,0-1,0-1.4-0.2c-2.898-0.8-4.299-2.5-4.299-4.899c0-3.2,2-6.801,6-11
			c4-4.2,7.6-6.3,10.799-6.3c1,0,1.9,0.3,2.5,0.9c0.602,0.6,1,1.3,1,2.1c0,2.5-1.898,5-5.799,7.3c-3.801,2.3-7,3.5-9.4,3.5
			c-0.4,0-0.699,0-0.9-0.101c-0.699,1.2-1,2.5-1,3.9c0,2.399,1.1,3.6,3.4,3.6c2.199,0,5.1-1.5,8.699-4.6
			c2.801-2.2,5.102-4.601,7.102-7.101c0.398-0.6,0.799-0.8,1-0.8c0.299,0,0.5,0.101,0.5,0.4s-0.201,0.7-0.602,1.2
			c-2.398,3.199-5.398,6.1-8.799,8.5C442.5,47.3,439.6,48.5,437.2,48.5z M450,28.9c0-0.5-0.6-0.8-1.701-0.8
			c-1.199,0-2.799,0.9-4.898,2.6c-2.9,2.399-5.102,4.8-6.701,7.399c0.301,0.101,0.6,0.101,0.9,0.101c1.699,0,4-0.9,6.9-2.7
			s4.699-3.8,5.4-6C450,29.3,450,29.1,450,28.9z"/>
		<path fill="#FFFFFF" d="M437.2,49.6c-0.6,0-1.199-0.1-1.699-0.3c-4.201-1.2-5.1-3.899-5.1-5.899c0-3.5,2.1-7.301,6.299-11.8
			c4.201-4.4,8-6.6,11.6-6.6c1.301,0,2.4,0.4,3.301,1.1c0.9,0.8,1.4,1.8,1.4,2.9c0,2.9-2.1,5.7-6.201,8.2
			c-4.1,2.5-7.299,3.6-9.898,3.6c-0.102,0-0.201,0-0.301,0c-0.4,0.9-0.5,1.7-0.5,2.7c0,1.8,0.6,2.4,2.301,2.4c2,0,4.699-1.4,8-4.301
			c2.699-2.199,5-4.5,6.898-6.899c0.4-0.5,1-1.2,1.9-1.2s1.5,0.6,1.5,1.5c0,0.5-0.199,1.1-0.699,1.8c-2.5,3.3-5.6,6.3-9.1,8.8
			C442.901,48.3,439.901,49.6,437.2,49.6z M446.299,27.5c-2.398,0.7-5.1,2.6-8,5.6C434.5,37,432.6,40.5,432.6,43.4
			c0,0.899,0.199,2.199,1.801,3.1c-0.602-0.8-0.801-1.8-0.801-3c0-1.5,0.4-3,1.1-4.4l0.4-0.8h0.1l0.5-0.8c1.701-2.7,4-5.3,6.9-7.7
			C444.1,28.8,445.2,28,446.299,27.5z M448.299,29.2c-0.5,0-1.699,0.3-4.199,2.4c-2.1,1.7-3.9,3.6-5.301,5.5
			c1.301-0.3,3.102-1.1,5.102-2.399c2.6-1.7,4.299-3.5,4.898-5.4C448.7,29.2,448.6,29.2,448.299,29.2z"/>
	</g>
</g>
</svg>
