<?xml version="1.0" encoding="iso-8859-1"?>
<!-- Generator: Adobe Illustrator 16.0.0, SVG Export Plug-In . SVG Version: 6.00 Build 0)  -->
<!DOCTYPE svg PUBLIC "-//W3C//DTD SVG 1.1//EN" "http://www.w3.org/Graphics/SVG/1.1/DTD/svg11.dtd">
<svg version="1.1" id="Capa_1" xmlns="http://www.w3.org/2000/svg" xmlns:xlink="http://www.w3.org/1999/xlink" x="0px" y="0px"
	 width="483.969px" height="483.969px" viewBox="0 0 483.969 483.969" style="enable-background:new 0 0 483.969 483.969;"
	 xml:space="preserve">
<g>
	<g>
		<g>
			<path d="M51.882,113.055h304.421c3.828,0,7.289-2.277,8.802-5.789c1.512-3.527,0.793-7.609-1.845-10.379
				c-33.805-35.734-79.487-59.918-130.699-66.609c0.031-0.539,0.164-1.078,0.164-1.645c0-15.82-12.82-28.633-28.629-28.633
				c-15.813,0-28.641,12.813-28.641,28.633c0,0.566,0.137,1.105,0.176,1.645C124.409,36.969,78.726,61.153,44.92,96.887
				c-2.633,2.771-3.359,6.853-1.844,10.379C44.588,110.778,48.054,113.055,51.882,113.055z"/>
			<path d="M440.749,240.473c-16.947-21.387-41.49-34.484-68.336-36.887c8.359-5.934,13.855-15.629,13.855-26.672
				c0-18.066-14.646-32.727-32.72-32.727H165.136v60.281l20.484,14.047c4.676,3.195,7.473,8.479,7.473,14.16v59.668
				c0,9.475-7.695,17.177-17.176,17.177h-54.273c-9.484,0-17.18-7.702-17.18-17.177v-59.668c0-5.68,2.801-10.965,7.473-14.16
				l20.477-14.031v-60.297H54.636c-18.066,0-32.723,14.66-32.723,32.727c0,15.566,10.891,28.52,25.438,31.844v106.664
				c0,51.566,25.016,97.172,63.449,125.742c-5.047,4.492-8.289,10.961-8.289,18.27c0,13.556,10.984,24.535,24.539,24.535h154.075
				c13.561,0,24.542-10.979,24.542-24.535c0-7.309-3.24-13.762-8.279-18.27c15.111-11.25,28.146-25.059,38.392-40.922h27.668
				c45.922,0,85.371-31.228,95.93-75.914C466.35,294.824,459.565,264.266,440.749,240.473z M411.604,313.048
				c-5.302,22.436-25.105,38.095-48.16,38.095h-6.859c2.687-11.483,4.25-23.414,4.25-35.72v-63.258h2.609
				c15.219,0,29.358,6.848,38.809,18.793C411.706,282.883,415.116,298.212,411.604,313.048z"/>
		</g>
	</g>
</g>
<g>
</g>
<g>
</g>
<g>
</g>
<g>
</g>
<g>
</g>
<g>
</g>
<g>
</g>
<g>
</g>
<g>
</g>
<g>
</g>
<g>
</g>
<g>
</g>
<g>
</g>
<g>
</g>
<g>
</g>
</svg>
