<?xml version="1.0" encoding="iso-8859-1"?>
<!-- Generator: Adobe Illustrator 16.0.0, SVG Export Plug-In . SVG Version: 6.00 Build 0)  -->
<!DOCTYPE svg PUBLIC "-//W3C//DTD SVG 1.1//EN" "http://www.w3.org/Graphics/SVG/1.1/DTD/svg11.dtd">
<svg version="1.1" id="Capa_1" xmlns="http://www.w3.org/2000/svg" xmlns:xlink="http://www.w3.org/1999/xlink" x="0px" y="0px"
	 width="489.302px" height="489.302px" viewBox="0 0 489.302 489.302" style="enable-background:new 0 0 489.302 489.302;"
	 xml:space="preserve">
<g>
	<g>
		<path d="M436.941,40.34C425.285,15.82,400.211,0,373.066,0c-10.521,0-20.723,2.297-30.309,6.836
			c-11.152,5.313-36.307,23.047-57.406,44.797c-7.734-5.141-17.004-8.16-26.969-8.16h-27.462c-9.949,0-19.172,3.004-26.91,8.129
			c-18.348-19.047-41.539-37.188-57.469-44.766C136.972,2.297,126.769,0,116.233,0C89.088,0,64.018,15.836,52.374,40.34
			c-8.113,17.051-9.094,36.238-2.766,54.035c6.328,17.781,19.203,32.047,36.254,40.148c2.613,1.25,5.793,2.5,9.223,3.715
			c-14.41,0.461-25.988,12.215-25.988,26.734v297.517c0,14.805,12.004,26.812,26.813,26.812h100.305V171.208
			c8.875,8.938,21.148,14.504,34.707,14.504h27.461c13.555,0,25.832-5.566,34.703-14.504v318.093h100.322
			c14.807,0,26.814-12.008,26.814-26.812V164.973c0-14.535-11.582-26.289-25.992-26.734c3.418-1.215,6.598-2.465,9.207-3.715
			c17.051-8.102,29.93-22.367,36.258-40.148C446.02,76.594,445.039,57.391,436.941,40.34z M181.992,92.383v26.715
			c-2.164,0.113-4.461,0.191-7.004,0.191c-26.973,0-61.266-7.387-75.203-14.031c-9.254-4.383-16.23-12.117-19.664-21.734
			c-3.414-9.648-2.879-20.027,1.52-29.281c6.313-13.27,19.883-21.844,34.594-21.844c5.695,0,11.203,1.234,16.406,3.699
			c15.484,7.375,36.27,25.152,51.711,42.047C182.958,82.684,181.992,87.399,181.992,92.383z M274.914,136.77
			c0,9.141-7.404,16.547-16.529,16.547h-27.462c-9.129,0-16.531-7.406-16.531-16.547V92.383c0-9.113,7.402-16.516,16.531-16.516
			h27.462c9.125,0,16.529,7.402,16.529,16.516V136.77z M409.18,83.524c-3.436,9.617-10.41,17.352-19.664,21.75
			c-13.936,6.629-48.246,14.016-75.199,14.016c-2.547,0-4.84-0.078-7.008-0.191V92.384c0-4.969-0.965-9.699-2.355-14.238
			c15.453-16.895,36.238-34.672,51.711-42.047c5.203-2.465,10.725-3.699,16.402-3.699c14.711,0,28.301,8.574,34.609,21.859
			C412.074,63.497,412.598,73.876,409.18,83.524z"/>
	</g>
</g>
<g>
</g>
<g>
</g>
<g>
</g>
<g>
</g>
<g>
</g>
<g>
</g>
<g>
</g>
<g>
</g>
<g>
</g>
<g>
</g>
<g>
</g>
<g>
</g>
<g>
</g>
<g>
</g>
<g>
</g>
</svg>
