<?xml version="1.0" encoding="iso-8859-1"?>
<!-- Generator: Adobe Illustrator 16.0.0, SVG Export Plug-In . SVG Version: 6.00 Build 0)  -->
<!DOCTYPE svg PUBLIC "-//W3C//DTD SVG 1.1//EN" "http://www.w3.org/Graphics/SVG/1.1/DTD/svg11.dtd">
<svg version="1.1" id="Capa_1" xmlns="http://www.w3.org/2000/svg" xmlns:xlink="http://www.w3.org/1999/xlink" x="0px" y="0px"
	 width="481.266px" height="481.266px" viewBox="0 0 481.266 481.266" style="enable-background:new 0 0 481.266 481.266;"
	 xml:space="preserve">
<g>
	<g>
		<path d="M365.459,182.91c-1.656-6.027-7.129-10.188-13.367-10.188H211.006v-47.074h51.664c19.729,0,35.781-16.055,35.781-35.781
			V35.781C298.451,16.058,282.399,0,262.67,0H110.74C91.006,0,74.958,16.059,74.958,35.781v54.086
			c0,19.727,16.047,35.781,35.781,35.781h51.672v47.074h-33.246c-6.238,0-11.711,4.16-13.363,10.188L57.889,393.344v68.336
			c0,10.82,8.766,19.586,19.582,19.586h326.324c10.814,0,19.582-8.766,19.582-19.586v-68.336L365.459,182.91z M214.248,242.184
			l4.91-12.875c1.781-4.684,6.266-7.785,11.281-7.785h20.371c5.018,0,9.5,3.102,11.281,7.785l4.91,12.875
			c1.409,3.703,0.909,7.879-1.346,11.138c-2.254,3.258-5.965,5.22-9.934,5.22h-30.199c-3.969,0-7.68-1.962-9.934-5.22
			C213.335,250.062,212.838,245.887,214.248,242.184z M214.248,298.594l4.91-12.879c1.781-4.68,6.266-7.781,11.281-7.781h20.371
			c5.018,0,9.5,3.103,11.281,7.781l4.91,12.879c1.409,3.699,0.909,7.875-1.346,11.138c-2.254,3.258-5.965,5.219-9.934,5.219h-30.199
			c-3.969,0-7.68-1.961-9.934-5.219C213.338,306.469,212.838,302.293,214.248,298.594z M214.248,355l4.91-12.875
			c1.781-4.684,6.266-7.781,11.281-7.781h20.371c5.018,0,9.5,3.099,11.281,7.781l4.91,12.875c1.409,3.703,0.909,7.879-1.346,11.137
			c-2.254,3.258-5.965,5.224-9.934,5.224h-30.199c-3.969,0-7.68-1.966-9.934-5.224S212.838,358.703,214.248,355z M110.74,93.25
			c-1.867,0-3.387-1.516-3.387-3.383V35.781c0-1.863,1.52-3.383,3.387-3.383h151.93c1.862,0,3.383,1.52,3.383,3.383v54.086
			c0,1.867-1.521,3.383-3.383,3.383H110.74z M129.217,242.184l4.902-12.875c1.777-4.684,6.273-7.785,11.277-7.785h20.375
			c5.016,0,9.5,3.102,11.277,7.785l4.914,12.875c1.406,3.703,0.91,7.879-1.344,11.138c-2.258,3.258-5.965,5.22-9.938,5.22h-30.188
			c-3.973,0-7.688-1.962-9.941-5.22C128.307,250.062,127.799,245.887,129.217,242.184z M129.217,298.594l4.902-12.879
			c1.777-4.68,6.273-7.781,11.277-7.781h20.375c5.016,0,9.5,3.103,11.277,7.781l4.914,12.879c1.406,3.699,0.91,7.875-1.344,11.138
			c-2.258,3.258-5.965,5.219-9.938,5.219h-30.188c-3.973,0-7.688-1.961-9.941-5.219
			C128.307,306.469,127.799,302.293,129.217,298.594z M129.217,355l4.902-12.875c1.777-4.684,6.273-7.781,11.277-7.781h20.375
			c5.016,0,9.5,3.099,11.277,7.781L181.962,355c1.406,3.703,0.91,7.879-1.344,11.137c-2.258,3.258-5.965,5.224-9.938,5.224h-30.188
			c-3.973,0-7.688-1.966-9.941-5.224C128.307,362.879,127.799,358.703,129.217,355z M335.799,443.742H145.467
			c-8.945,0-16.195-7.242-16.195-16.195s7.25-16.199,16.195-16.199h190.332c8.945,0,16.195,7.246,16.195,16.199
			S344.744,443.742,335.799,443.742z M350.697,366.137c-2.255,3.258-5.962,5.224-9.935,5.224h-30.188
			c-3.974,0-7.688-1.966-9.944-5.224c-2.246-3.258-2.75-7.434-1.336-11.137l4.905-12.875c1.776-4.684,6.271-7.781,11.276-7.781
			h20.375c5.013,0,9.5,3.099,11.277,7.781L352.039,355C353.451,358.703,352.951,362.879,350.697,366.137z M350.697,309.73
			c-2.255,3.258-5.962,5.219-9.935,5.219h-30.188c-3.974,0-7.688-1.961-9.944-5.219c-2.246-3.263-2.75-7.438-1.336-11.138
			l4.905-12.879c1.776-4.68,6.271-7.781,11.276-7.781h20.375c5.013,0,9.5,3.103,11.277,7.781l4.91,12.879
			C353.451,302.293,352.951,306.469,350.697,309.73z M350.697,253.32c-2.255,3.258-5.962,5.22-9.935,5.22h-30.188
			c-3.974,0-7.688-1.962-9.944-5.22c-2.246-3.258-2.75-7.435-1.336-11.138l4.905-12.875c1.776-4.684,6.271-7.785,11.276-7.785
			h20.375c5.013,0,9.5,3.102,11.277,7.785l4.91,12.875C353.451,245.887,352.951,250.062,350.697,253.32z"/>
	</g>
</g>
<g>
</g>
<g>
</g>
<g>
</g>
<g>
</g>
<g>
</g>
<g>
</g>
<g>
</g>
<g>
</g>
<g>
</g>
<g>
</g>
<g>
</g>
<g>
</g>
<g>
</g>
<g>
</g>
<g>
</g>
</svg>
