<?xml version="1.0" encoding="iso-8859-1"?>
<!-- Generator: Adobe Illustrator 16.0.0, SVG Export Plug-In . SVG Version: 6.00 Build 0)  -->
<!DOCTYPE svg PUBLIC "-//W3C//DTD SVG 1.1//EN" "http://www.w3.org/Graphics/SVG/1.1/DTD/svg11.dtd">
<svg version="1.1" id="Capa_1" xmlns="http://www.w3.org/2000/svg" xmlns:xlink="http://www.w3.org/1999/xlink" x="0px" y="0px"
	 width="492.969px" height="492.969px" viewBox="0 0 492.969 492.969" style="enable-background:new 0 0 492.969 492.969;"
	 xml:space="preserve">
<g>
	<g>
		<g>
			<path d="M0,140.152v220.32c0,17.844,14.523,32.366,32.367,32.366H143.41v-285.05H32.367C14.523,107.789,0,122.308,0,140.152z
				 M55.746,123.988h48.594v252.652H55.746V123.988z"/>
			<path d="M447.223,26.449H213.457c-25.262,0-45.746,20.469-45.746,45.746v348.578c0,25.262,20.484,45.746,45.746,45.746h233.766
				c25.263,0,45.746-20.484,45.746-45.746V72.195C492.969,46.918,472.484,26.449,447.223,26.449z M270.086,393.598
				c0,4.715-3.828,8.543-8.543,8.543h-38.375c-4.73,0-8.559-3.828-8.559-8.543v-38.392c0-4.729,3.828-8.56,8.559-8.56h38.375
				c4.715,0,8.543,3.828,8.543,8.56V393.598z M270.086,305.613c0,4.715-3.828,8.543-8.543,8.543h-38.375
				c-4.73,0-8.559-3.828-8.559-8.543v-38.375c0-4.73,3.828-8.559,8.559-8.559h38.375c4.715,0,8.543,3.827,8.543,8.559V305.613z
				 M358.07,393.598c0,4.715-3.828,8.543-8.543,8.543h-38.375c-4.73,0-8.56-3.828-8.56-8.543v-38.392c0-4.729,3.828-8.56,8.56-8.56
				h38.375c4.715,0,8.543,3.828,8.543,8.56V393.598z M358.07,305.613c0,4.715-3.828,8.543-8.543,8.543h-38.375
				c-4.73,0-8.56-3.828-8.56-8.543v-38.375c0-4.73,3.828-8.559,8.56-8.559h38.375c4.715,0,8.543,3.827,8.543,8.559V305.613z
				 M446.066,393.598c0,4.715-3.828,8.543-8.556,8.543h-38.379c-4.711,0-8.539-3.828-8.539-8.543v-38.392
				c0-4.729,3.828-8.56,8.539-8.56h38.379c4.728,0,8.556,3.828,8.556,8.56V393.598z M446.066,305.613
				c0,4.715-3.828,8.543-8.556,8.543h-38.379c-4.711,0-8.539-3.828-8.539-8.543v-38.375c0-4.73,3.828-8.559,8.539-8.559h38.379
				c4.728,0,8.556,3.827,8.556,8.559V305.613z M446.066,167.343c0,12.324-9.996,22.336-22.336,22.336H236.945
				c-12.336,0-22.336-10.012-22.336-22.336v-54.207c0-12.324,10-22.336,22.336-22.336H423.73c12.34,0,22.336,10.012,22.336,22.336
				V167.343z"/>
		</g>
	</g>
</g>
<g>
</g>
<g>
</g>
<g>
</g>
<g>
</g>
<g>
</g>
<g>
</g>
<g>
</g>
<g>
</g>
<g>
</g>
<g>
</g>
<g>
</g>
<g>
</g>
<g>
</g>
<g>
</g>
<g>
</g>
</svg>
