<?xml version="1.0" encoding="iso-8859-1"?>
<!-- Generator: Adobe Illustrator 16.0.0, SVG Export Plug-In . SVG Version: 6.00 Build 0)  -->
<!DOCTYPE svg PUBLIC "-//W3C//DTD SVG 1.1//EN" "http://www.w3.org/Graphics/SVG/1.1/DTD/svg11.dtd">
<svg version="1.1" id="Capa_1" xmlns="http://www.w3.org/2000/svg" xmlns:xlink="http://www.w3.org/1999/xlink" x="0px" y="0px"
	 width="483.854px" height="483.854px" viewBox="0 0 483.854 483.854" style="enable-background:new 0 0 483.854 483.854;"
	 xml:space="preserve">
<g>
	<g>
		<g>
			<path d="M204.405,223.309l-63.79-63.781c-4.34-4.348-11.379-4.348-15.723,0l-63.781,63.781c-1.961,1.961-2.547,4.922-1.484,7.484
				c1.066,2.563,3.566,4.223,6.344,4.223h30.844v81.48c0,6.137,4.977,11.104,11.113,11.104h49.703
				c6.137,0,11.109-4.969,11.109-11.104v-81.48h30.816c2.777,0,5.277-1.66,6.336-4.223
				C206.959,228.23,206.366,225.27,204.405,223.309z"/>
			<path d="M271.691,260.578l63.78,63.781c4.34,4.348,11.379,4.348,15.723,0l63.789-63.781c1.961-1.961,2.556-4.922,1.484-7.484
				c-1.06-2.562-3.56-4.223-6.332-4.223h-30.816v-81.48c0-6.137-4.977-11.105-11.112-11.105h-49.699
				c-6.142,0-11.113,4.969-11.113,11.105v81.48h-30.848c-2.777,0-5.272,1.66-6.346,4.223
				C269.144,255.656,269.73,258.617,271.691,260.578z"/>
			<path d="M452.526,0h-421.2C14.592,0,0.979,13.617,0.979,30.354v423.16c0,16.738,13.613,30.341,30.348,30.341h421.2
				c16.738,0,30.35-13.603,30.35-30.341V30.355C482.875,13.617,469.265,0,452.526,0z M49.573,48.594h176.156v386.668H49.573V48.594z
				 M434.28,435.262H258.123V48.594h176.156L434.28,435.262L434.28,435.262z"/>
		</g>
	</g>
</g>
<g>
</g>
<g>
</g>
<g>
</g>
<g>
</g>
<g>
</g>
<g>
</g>
<g>
</g>
<g>
</g>
<g>
</g>
<g>
</g>
<g>
</g>
<g>
</g>
<g>
</g>
<g>
</g>
<g>
</g>
</svg>
