<?xml version="1.0" encoding="iso-8859-1"?>
<!-- Generator: Adobe Illustrator 16.0.0, SVG Export Plug-In . SVG Version: 6.00 Build 0)  -->
<!DOCTYPE svg PUBLIC "-//W3C//DTD SVG 1.1//EN" "http://www.w3.org/Graphics/SVG/1.1/DTD/svg11.dtd">
<svg version="1.1" id="Capa_1" xmlns="http://www.w3.org/2000/svg" xmlns:xlink="http://www.w3.org/1999/xlink" x="0px" y="0px"
	 width="483.546px" height="483.547px" viewBox="0 0 483.546 483.547" style="enable-background:new 0 0 483.546 483.547;"
	 xml:space="preserve">
<g>
	<g>
		<g>
			<path d="M66.825,211.547L0.507,460.232c0,12.881,59.963,23.314,133.933,23.314c73.974,0,133.937-10.435,133.937-23.314
				L202.06,211.546L66.825,211.547L66.825,211.547z"/>
			<path d="M16.438,65.953h39.197l10.712,127.629h135.396l10.717-127.629h39.589c2.836,0,5.473-1.447,6.99-3.844
				c1.518-2.385,1.699-5.401,0.485-7.958l-18.786-39.633c-4.169-8.798-13.019-14.407-22.746-14.485V0.001h-0.224h-27.351h-3.954
				c-4.099,0-7.649,2.813-8.594,6.797c-4.703,19.935-22.453,34.82-43.818,34.82c-21.362,0-39.115-14.886-43.814-34.82
				c-0.945-3.985-4.495-6.797-8.594-6.797h-3.574c0,0-20.977-0.016-27.967,0.079c-9.567,0.145-18.231,5.766-22.346,14.438
				L8.964,54.15c-1.216,2.558-1.032,5.574,0.486,7.958C10.965,64.505,13.605,65.953,16.438,65.953z"/>
			<path d="M441.652,180.586v-17.392c0-34.404-27.989-62.395-62.387-62.395c-34.404,0-62.391,27.991-62.391,62.395v17.392
				c-25.092,18.934-41.392,48.925-41.392,82.776v26.685c0,12.422,10.082,22.507,22.521,22.507h162.52
				c12.435,0,22.517-10.084,22.517-22.507v-26.669C483.039,229.512,466.75,199.536,441.652,180.586z M341.273,163.195
				c0-20.95,17.043-37.993,37.994-37.993c20.941,0,37.988,17.043,37.988,37.993v3.687c-11.779-4.64-24.566-7.276-37.996-7.276
				c-13.424,0-26.211,2.636-37.986,7.276V163.195z"/>
		</g>
	</g>
</g>
<g>
</g>
<g>
</g>
<g>
</g>
<g>
</g>
<g>
</g>
<g>
</g>
<g>
</g>
<g>
</g>
<g>
</g>
<g>
</g>
<g>
</g>
<g>
</g>
<g>
</g>
<g>
</g>
<g>
</g>
</svg>
