<?xml version="1.0" encoding="iso-8859-1"?>
<!-- Generator: Adobe Illustrator 16.0.0, SVG Export Plug-In . SVG Version: 6.00 Build 0)  -->
<!DOCTYPE svg PUBLIC "-//W3C//DTD SVG 1.1//EN" "http://www.w3.org/Graphics/SVG/1.1/DTD/svg11.dtd">
<svg version="1.1" id="Capa_1" xmlns="http://www.w3.org/2000/svg" xmlns:xlink="http://www.w3.org/1999/xlink" x="0px" y="0px"
	 width="479.985px" height="479.986px" viewBox="0 0 479.985 479.986" style="enable-background:new 0 0 479.985 479.986;"
	 xml:space="preserve">
<g>
	<g>
		<g>
			<path d="M431.391,87.186h-97.809c-14.285,0-27.84,6.281-37.078,17.18l-69.094,81.559v-2.91c0-22.367-18.129-40.496-40.496-40.496
				s-40.496,18.129-40.496,40.496v95.858c0,0.824,0.191,1.582,0.238,2.375l-25.199,29.755l-72.941,0.108
				C21.688,311.147-0.047,332.945,0,359.772c0.051,26.829,21.785,48.53,48.598,48.53c0.016,0,0.047,0,0.078,0l95.418-0.146
				c14.25-0.016,27.777-6.309,37-17.19L356.11,184.373h75.28c26.845,0,48.595-21.766,48.595-48.594
				C479.984,108.936,458.234,87.186,431.391,87.186z"/>
			<path d="M398.137,264.546c-4.348-4.336-11.37-4.336-15.723,0.016l-63.781,63.777c-1.961,1.965-2.547,4.922-1.482,7.483
				c1.059,2.563,3.559,4.224,6.344,4.224h30.844v81.479c0,6.142,4.984,11.104,11.121,11.104h49.688
				c6.138,0,11.121-4.966,11.121-11.104v-81.479h30.813c2.771,0,5.285-1.66,6.344-4.224c1.061-2.562,0.475-5.521-1.487-7.483
				L398.137,264.546z"/>
			<path d="M186.914,126.323c21.797,0,39.48-17.688,39.48-39.484c0-21.796-17.684-39.484-39.48-39.484S147.43,65.043,147.43,86.839
				C147.43,108.635,165.117,126.323,186.914,126.323z"/>
		</g>
	</g>
</g>
<g>
</g>
<g>
</g>
<g>
</g>
<g>
</g>
<g>
</g>
<g>
</g>
<g>
</g>
<g>
</g>
<g>
</g>
<g>
</g>
<g>
</g>
<g>
</g>
<g>
</g>
<g>
</g>
<g>
</g>
</svg>
