<?xml version="1.0" encoding="iso-8859-1"?>
<!-- Generator: Adobe Illustrator 16.0.0, SVG Export Plug-In . SVG Version: 6.00 Build 0)  -->
<!DOCTYPE svg PUBLIC "-//W3C//DTD SVG 1.1//EN" "http://www.w3.org/Graphics/SVG/1.1/DTD/svg11.dtd">
<svg version="1.1" id="Capa_1" xmlns="http://www.w3.org/2000/svg" xmlns:xlink="http://www.w3.org/1999/xlink" x="0px" y="0px"
	 width="486.39px" height="486.391px" viewBox="0 0 486.39 486.391" style="enable-background:new 0 0 486.39 486.391;"
	 xml:space="preserve">
<g>
	<g>
		<path d="M412.483,13.211C404.698,4.809,393.674,0,382.207,0H104.179C92.726,0,81.682,4.809,73.932,13.195
			c-7.78,8.383-11.769,19.738-10.944,31.16l29.894,403.786c1.583,21.447,19.681,38.25,41.192,38.25h218.266
			c21.517,0,39.594-16.803,41.191-38.25l29.865-403.802C424.249,32.933,420.264,21.578,412.483,13.211z M374.359,48.593
			l-4.901,66.266H116.945l-4.906-66.266H374.359z M237.687,232.535l-33.806,33.801c-5.046,5.047-13.206,5.047-18.237,0
			l-33.789-33.801c-5.047-5.031-5.047-13.195,0-18.227l33.789-33.801c5.031-5.047,13.191-5.047,18.237,0l33.806,33.801
			C242.718,219.34,242.718,227.504,237.687,232.535z M248.855,363.953c3.32,0.824,6.168,2.94,7.941,5.854
			c1.769,2.941,2.309,6.453,1.487,9.773l-11.454,46.396c-1.71,6.914-8.702,11.138-15.628,9.431l-46.398-11.438
			c-3.321-0.819-6.184-2.94-7.957-5.854c-1.754-2.939-2.293-6.453-1.469-9.777l11.452-46.395c1.708-6.914,8.7-11.138,15.614-9.431
			L248.855,363.953z M264.453,310.722l11.453-46.396c1.707-6.93,8.698-11.137,15.628-9.426l46.396,11.435
			c3.318,0.823,6.185,2.93,7.957,5.854c1.754,2.926,2.293,6.438,1.473,9.758l-11.452,46.414c-1.711,6.896-8.703,11.138-15.613,9.426
			l-46.413-11.452c-3.32-0.82-6.168-2.927-7.938-5.853C264.167,317.558,263.629,314.047,264.453,310.722z"/>
	</g>
</g>
<g>
</g>
<g>
</g>
<g>
</g>
<g>
</g>
<g>
</g>
<g>
</g>
<g>
</g>
<g>
</g>
<g>
</g>
<g>
</g>
<g>
</g>
<g>
</g>
<g>
</g>
<g>
</g>
<g>
</g>
</svg>
