<?xml version="1.0" encoding="iso-8859-1"?>
<!-- Generator: Adobe Illustrator 16.0.0, SVG Export Plug-In . SVG Version: 6.00 Build 0)  -->
<!DOCTYPE svg PUBLIC "-//W3C//DTD SVG 1.1//EN" "http://www.w3.org/Graphics/SVG/1.1/DTD/svg11.dtd">
<svg version="1.1" id="Capa_1" xmlns="http://www.w3.org/2000/svg" xmlns:xlink="http://www.w3.org/1999/xlink" x="0px" y="0px"
	 width="492.127px" height="492.128px" viewBox="0 0 492.127 492.128" style="enable-background:new 0 0 492.127 492.128;"
	 xml:space="preserve">
<g>
	<g>
		<g>
			<path d="M448.925,359.551h-293.13c-22.052,0-54.878-33.157-54.878-55.443V83.981c0-23.451-3.649-50.042-29.517-68.362
				L58.775,5.474C48.061-3.119,32.443-1.405,23.827,9.277c-8.6,10.715-6.894,26.364,3.813,34.957l13.788,11.022
				c6.894,4.903,9.775,9.983,9.775,28.726v220.124c0,45.978,46.05,95.952,92.14,103.933c-6.434,8.771-10.351,19.482-10.351,31.168
				c0,29.229,23.694,52.921,52.92,52.921c29.246,0,52.92-23.689,52.92-52.92c0-11.118-3.461-21.426-9.328-29.94h93.419
				c-4.744,7.933-7.643,17.093-7.643,26.995c0,29.229,23.694,52.92,52.921,52.92c29.245,0,52.92-23.689,52.92-52.92
				c0-9.902-2.896-19.062-7.629-26.995h35.433c13.729,0,24.856-11.135,24.856-24.857S462.656,359.551,448.925,359.551z"/>
			<path d="M173.287,320.18h238.982c17.116,0,30.992-13.872,30.992-30.992v-76.693c0-17.104-13.875-30.992-30.992-30.992H173.287
				c-17.112,0-30.988,13.888-30.988,30.992v76.693C142.299,306.308,156.175,320.18,173.287,320.18z"/>
			<path d="M196.31,157.68h192.933c13.819,0,25.019-11.198,25.019-25.017v-61.92c0-13.819-11.198-25.021-25.019-25.021H196.31
				c-13.819,0-25.021,11.202-25.021,25.021v61.92C171.289,146.48,182.491,157.68,196.31,157.68z"/>
		</g>
	</g>
</g>
<g>
</g>
<g>
</g>
<g>
</g>
<g>
</g>
<g>
</g>
<g>
</g>
<g>
</g>
<g>
</g>
<g>
</g>
<g>
</g>
<g>
</g>
<g>
</g>
<g>
</g>
<g>
</g>
<g>
</g>
</svg>
