<?xml version="1.0" encoding="iso-8859-1"?>
<!-- Generator: Adobe Illustrator 16.0.0, SVG Export Plug-In . SVG Version: 6.00 Build 0)  -->
<!DOCTYPE svg PUBLIC "-//W3C//DTD SVG 1.1//EN" "http://www.w3.org/Graphics/SVG/1.1/DTD/svg11.dtd">
<svg version="1.1" id="Capa_1" xmlns="http://www.w3.org/2000/svg" xmlns:xlink="http://www.w3.org/1999/xlink" x="0px" y="0px"
	 width="492.779px" height="492.779px" viewBox="0 0 492.779 492.779" style="enable-background:new 0 0 492.779 492.779;"
	 xml:space="preserve">
<g>
	<g>
		<path d="M485.416,365.737L299.645,240.611c-11.062-7.488-23.632-12.174-36.602-14.404v-24.786
			c29.119-7.455,50.696-33.885,50.696-65.282c0-37.156-30.207-67.364-67.364-67.364c-37.141,0-67.364,30.208-67.364,67.364
			c0,9.196,7.471,16.667,16.667,16.667c9.212,0,16.667-7.472,16.667-16.667c0-18.765,15.264-34.034,34.029-34.034
			c18.764,0,34.035,15.269,34.035,34.034c0,18.766-15.271,34.034-34.035,34.034c-9.195,0-16.667,7.451-16.667,16.663v39.371
			c-12.97,2.23-25.518,6.917-36.602,14.388L7.356,365.737c-6.073,4.099-8.773,11.688-6.627,18.685
			c2.134,7.015,8.597,11.802,15.936,11.802h38.069v12.76c0,8.283,6.704,15.021,15.003,15.021h32.47
			c8.283,0,15.023-6.736,15.023-15.021v-12.76h258.322v12.76c0,8.283,6.708,15.021,15.007,15.021h32.471
			c8.282,0,15.022-6.736,15.022-15.021v-12.76h38.053c7.323,0,13.803-4.787,15.948-11.802
			C494.189,377.426,491.501,369.836,485.416,365.737z M71.236,362.889l140.492-94.644c20.57-13.833,48.761-13.85,69.302,0
			l140.503,94.644H71.236z"/>
	</g>
</g>
<g>
</g>
<g>
</g>
<g>
</g>
<g>
</g>
<g>
</g>
<g>
</g>
<g>
</g>
<g>
</g>
<g>
</g>
<g>
</g>
<g>
</g>
<g>
</g>
<g>
</g>
<g>
</g>
<g>
</g>
</svg>
