<?xml version="1.0" encoding="iso-8859-1"?>
<!-- Generator: Adobe Illustrator 16.0.0, SVG Export Plug-In . SVG Version: 6.00 Build 0)  -->
<!DOCTYPE svg PUBLIC "-//W3C//DTD SVG 1.1//EN" "http://www.w3.org/Graphics/SVG/1.1/DTD/svg11.dtd">
<svg version="1.1" id="Capa_1" xmlns="http://www.w3.org/2000/svg" xmlns:xlink="http://www.w3.org/1999/xlink" x="0px" y="0px"
	 width="486.185px" height="486.185px" viewBox="0 0 486.185 486.185" style="enable-background:new 0 0 486.185 486.185;"
	 xml:space="preserve">
<g>
	<g>
		<g>
			<path d="M332.348,106.731c-21.448-17.18-53.469-25.773-98.344-25.773c-33.234,0-59.242,1.586-79.633,4
				c-10.691,1.258-18.742,10.344-18.742,21.117V369.17c0,19.91,16.133,36.051,36.051,36.051c19.914,0,36.047-16.141,36.047-36.051
				v-79.052c6.676,0.974,15.266,1.438,24.867,1.438c42.935,0,79.728-10.504,104.547-33.905
				c19.125-18.146,29.629-44.902,29.629-76.418C366.77,149.719,352.926,122.985,332.348,106.731z M232.059,235.684
				c-10.488,0-18.129-0.457-24.332-1.906v-95.047c5.238-1.43,15.266-2.844,30.105-2.844c36.27,0,56.805,17.668,56.805,47.266
				C294.637,216.11,270.75,235.684,232.059,235.684z"/>
			<path d="M412.246,3.121H73.934C33.172,3.121,0,36.285,0,77.055v332.07c0,40.773,33.172,73.938,73.934,73.938h338.313
				c40.766,0,73.938-33.164,73.938-73.938V77.055C486.184,36.285,453.012,3.121,412.246,3.121z M437.586,409.125
				c0,13.978-11.371,25.344-25.34,25.344H73.934c-13.965,0-25.34-11.366-25.34-25.344V77.055c0-13.973,11.375-25.34,25.34-25.34
				h338.313c13.969,0,25.34,11.367,25.34,25.34L437.586,409.125L437.586,409.125z"/>
		</g>
	</g>
</g>
<g>
</g>
<g>
</g>
<g>
</g>
<g>
</g>
<g>
</g>
<g>
</g>
<g>
</g>
<g>
</g>
<g>
</g>
<g>
</g>
<g>
</g>
<g>
</g>
<g>
</g>
<g>
</g>
<g>
</g>
</svg>
