<?xml version="1.0" encoding="iso-8859-1"?>
<!-- Generator: Adobe Illustrator 16.0.0, SVG Export Plug-In . SVG Version: 6.00 Build 0)  -->
<!DOCTYPE svg PUBLIC "-//W3C//DTD SVG 1.1//EN" "http://www.w3.org/Graphics/SVG/1.1/DTD/svg11.dtd">
<svg version="1.1" id="Capa_1" xmlns="http://www.w3.org/2000/svg" xmlns:xlink="http://www.w3.org/1999/xlink" x="0px" y="0px"
	 width="485.759px" height="485.758px" viewBox="0 0 485.759 485.758" style="enable-background:new 0 0 485.759 485.758;"
	 xml:space="preserve">
<g>
	<g>
		<g>
			<path d="M112.851,280.93c-15.109,0-23.902,14.363-23.902,33.598c0,19.363,9.078,33.017,24.059,33.017
				c15.105,0,23.777-14.379,23.777-33.617C136.785,296.18,128.258,280.93,112.851,280.93z"/>
			<path d="M428.238,172.461h-1.801L300.711,47.289c-15.453-15.469-36.004-23.98-57.863-23.98
				c-21.848,0.016-42.395,8.543-57.832,23.98L59.211,172.461h-1.695C25.754,172.461,0,198.215,0,229.977V404.93
				c0,31.766,25.754,57.52,57.516,57.52h370.723c31.766,0,57.52-25.754,57.52-57.52V229.977
				C485.758,198.215,460.004,172.461,428.238,172.461z M219.371,81.649c12.48-12.434,34.516-12.465,46.979,0l90.815,90.813H128.558
				L219.371,81.649z M111.82,365.305c-29.344,0-46.504-22.176-46.504-50.332c0-29.66,18.918-51.809,48.117-51.809
				c30.391,0,46.969,22.75,46.969,50.033C160.402,345.629,140.722,365.305,111.82,365.305z M236.93,318.34
				c-7.625,7.199-18.934,10.426-32.141,10.426c-2.93,0-5.555-0.16-7.625-0.445v24.301c0,6.105-4.969,11.07-11.074,11.07
				c-6.121,0-11.09-4.965-11.09-11.07v-76.754c0-5.727,4.383-10.534,10.109-11.039c5.504-0.477,12.148-0.776,20.137-0.776
				c13.777,0,23.602,2.642,30.215,7.91c6.324,5,10.582,13.224,10.582,22.905C246.043,304.531,242.801,312.758,236.93,318.34z
				 M314.156,363.692h-42.867c-6.105,0-11.074-4.965-11.074-11.07v-76.77c0-6.121,4.969-11.09,11.074-11.09h40.812
				c5.063,0,9.173,4.113,9.173,9.176c0,5.078-4.109,9.176-9.173,9.176h-29.405v20.547h27.254c5.031,0,9.108,4.066,9.108,9.099
				c0,5.026-4.077,9.108-9.108,9.108h-27.254v23.478h31.461c5.062,0,9.176,4.113,9.176,9.177
				C323.332,359.579,319.219,363.692,314.156,363.692z M420.426,353.426c0,5.68-4.602,10.266-10.266,10.266h-7.039
				c-3.797,0-7.277-2.086-9.066-5.44l-35.844-67.496c0.445,9.789,0.711,45.823,0.824,63.289c0.016,2.562-0.98,5.017-2.785,6.815
				c-1.789,1.82-4.238,2.832-6.785,2.832h-0.633c-5.664,0-10.266-4.586-10.266-10.266v-78.379c0-5.682,4.602-10.285,10.266-10.285
				h9.742c3.766,0,7.229,2.074,9.035,5.379c8.051,14.809,30.164,55.684,33.754,64.793l-1.25-59.887
				c-0.063-2.725,0.965-5.316,2.862-7.246c1.884-1.931,4.478-3.039,7.185-3.039c5.664,0,10.266,4.604,10.266,10.285V353.426z"/>
			<path d="M206.418,280.93c-4.559,0-7.641,0.441-9.254,0.854v29.229c1.914,0.444,4.254,0.569,7.48,0.569
				c11.895,0,19.25-6.013,19.25-16.138C223.894,286.356,217.57,280.93,206.418,280.93z"/>
		</g>
	</g>
</g>
<g>
</g>
<g>
</g>
<g>
</g>
<g>
</g>
<g>
</g>
<g>
</g>
<g>
</g>
<g>
</g>
<g>
</g>
<g>
</g>
<g>
</g>
<g>
</g>
<g>
</g>
<g>
</g>
<g>
</g>
</svg>
