<?xml version="1.0" encoding="iso-8859-1"?>
<!-- Generator: Adobe Illustrator 16.0.0, SVG Export Plug-In . SVG Version: 6.00 Build 0)  -->
<!DOCTYPE svg PUBLIC "-//W3C//DTD SVG 1.1//EN" "http://www.w3.org/Graphics/SVG/1.1/DTD/svg11.dtd">
<svg version="1.1" id="Capa_1" xmlns="http://www.w3.org/2000/svg" xmlns:xlink="http://www.w3.org/1999/xlink" x="0px" y="0px"
	 width="487.546px" height="487.546px" viewBox="0 0 487.546 487.546" style="enable-background:new 0 0 487.546 487.546;"
	 xml:space="preserve">
<g>
	<g>
		<path d="M480.206,148.523l-48.23-62.531c-7.857-10.195-18.206-17.898-29.815-22.723l-35.038-49.023
			c-2.754-3.852-7.497-5.75-12.147-4.863c-4.651,0.895-8.353,4.406-9.491,9l-12.97,52.305c-5.362,3.727-10.332,8.098-14.604,13.238
			c-7.756,9.34-12.903,20.328-15.276,31.914c-1.484,7.252-5.062,13.93-10.296,19.167l-0.036,0.037
			c-15.805,15.805-37.236,24.688-59.59,24.688H97.745c-14.157,0-27.078,4.809-37.629,12.66L25.913,146.75
			c-7.148-5.371-17.29-3.898-22.668,3.234c-5.375,7.16-3.923,17.316,3.245,22.676l33.313,24.988
			c-3.418,7.789-5.396,16.363-5.396,25.418v87.832c0,11.344,7.896,20.775,18.478,23.27l-7.418,16.355
			c-6.773,14.973-7.926,31.891-3.293,47.647l17.387,58.875c3.813,12.94,15.659,21.332,28.504,21.332
			c2.785,0,5.648-0.402,8.449-1.234c15.754-4.651,24.738-21.188,20.105-36.944l-17.402-58.875c-0.602-2.074-0.442-4.306,0.44-6.258
			l10.392-22.93c4.769-10.522,15.253-17.282,26.806-17.282h100.299c19.998,0,37.458,13.47,42.566,32.793l23.333,88.535
			c3.496,13.345,15.552,22.181,28.728,22.181c2.517,0,5.047-0.324,7.579-0.996c15.913-4.185,25.374-20.461,21.179-36.336
			l-28.741-109.125v-48.168c0-18.396,6.012-36.271,17.133-50.926l18-23.738l44.185,22.605c14.694,7.516,32.633,3.828,43.168-8.859
			l25.137-30.242C489.952,179.882,490.284,161.583,480.206,148.523z"/>
	</g>
</g>
<g>
</g>
<g>
</g>
<g>
</g>
<g>
</g>
<g>
</g>
<g>
</g>
<g>
</g>
<g>
</g>
<g>
</g>
<g>
</g>
<g>
</g>
<g>
</g>
<g>
</g>
<g>
</g>
<g>
</g>
</svg>
