<?xml version="1.0" encoding="iso-8859-1"?>
<!-- Generator: Adobe Illustrator 16.0.0, SVG Export Plug-In . SVG Version: 6.00 Build 0)  -->
<!DOCTYPE svg PUBLIC "-//W3C//DTD SVG 1.1//EN" "http://www.w3.org/Graphics/SVG/1.1/DTD/svg11.dtd">
<svg version="1.1" id="Capa_1" xmlns="http://www.w3.org/2000/svg" xmlns:xlink="http://www.w3.org/1999/xlink" x="0px" y="0px"
	 width="492.241px" height="492.241px" viewBox="0 0 492.241 492.241" style="enable-background:new 0 0 492.241 492.241;"
	 xml:space="preserve">
<g>
	<g>
		<g>
			<path d="M0,300.657v53.614c0,16.479,13.414,29.892,29.902,29.892h381.675V270.764H29.902C13.414,270.764,0,284.178,0,300.657z
				 M32.818,303.581h90.916v47.765H32.818V303.581z"/>
			<path d="M478.748,270.475h-45.986v113.83h45.986c7.451,0,13.493-6.039,13.493-13.481v-86.862
				C492.242,276.517,486.199,270.475,478.748,270.475z"/>
			<path d="M453.959,244.672c9.053,0,16.409-7.348,16.409-16.409c0-36.189-29.436-65.632-65.631-65.632h-133.3
				c-21.121,0-38.297-17.177-38.297-38.286c0-9.062-7.336-16.409-16.405-16.409c-9.069,0-16.409,7.348-16.409,16.409
				c0,39.208,31.884,71.101,71.111,71.101h133.299c18.09,0,32.812,14.719,32.812,32.817
				C437.55,237.325,444.906,244.672,453.959,244.672z"/>
		</g>
	</g>
</g>
<g>
</g>
<g>
</g>
<g>
</g>
<g>
</g>
<g>
</g>
<g>
</g>
<g>
</g>
<g>
</g>
<g>
</g>
<g>
</g>
<g>
</g>
<g>
</g>
<g>
</g>
<g>
</g>
<g>
</g>
</svg>
