<?xml version="1.0" encoding="iso-8859-1"?>
<!-- Generator: Adobe Illustrator 16.0.0, SVG Export Plug-In . SVG Version: 6.00 Build 0)  -->
<!DOCTYPE svg PUBLIC "-//W3C//DTD SVG 1.1//EN" "http://www.w3.org/Graphics/SVG/1.1/DTD/svg11.dtd">
<svg version="1.1" id="Capa_1" xmlns="http://www.w3.org/2000/svg" xmlns:xlink="http://www.w3.org/1999/xlink" x="0px" y="0px"
	 width="479.985px" height="479.985px" viewBox="0 0 479.985 479.985" style="enable-background:new 0 0 479.985 479.985;"
	 xml:space="preserve">
<g>
	<g>
		<g>
			<path d="M431.387,87.172h-97.805c-14.285,0-27.84,6.281-37.078,17.18l-69.098,81.563v-2.91c0-22.367-18.125-40.496-40.492-40.496
				c-22.371,0-40.496,18.129-40.496,40.496v95.857c0,0.82,0.188,1.582,0.234,2.371l-25.195,29.754l-72.941,0.113
				C21.688,311.133-0.047,332.93,0,359.758s21.781,48.531,48.594,48.531c0.016,0,0.047,0,0.082,0l95.414-0.142
				c14.254-0.018,27.777-6.313,37-17.194l175.021-206.59h75.275c26.845,0,48.6-21.766,48.6-48.594
				C479.984,108.926,458.23,87.172,431.387,87.172z"/>
			<path d="M457.078,353.89h-30.816v-81.479c0-6.143-4.979-11.105-11.12-11.105h-49.685c-6.137,0-11.121,4.965-11.121,11.105v81.479
				h-30.848c-2.781,0-5.281,1.66-6.345,4.224c-1.06,2.563-0.474,5.521,1.487,7.483l63.781,63.776
				c4.353,4.354,11.375,4.354,15.723,0.018l63.798-63.794c1.961-1.965,2.548-4.922,1.487-7.483
				C462.359,355.551,459.844,353.89,457.078,353.89z"/>
			<path d="M186.914,126.308c21.797,0,39.48-17.684,39.48-39.484c0-21.797-17.684-39.48-39.48-39.48
				c-21.801,0-39.484,17.684-39.484,39.48C147.43,108.625,165.113,126.308,186.914,126.308z"/>
		</g>
	</g>
</g>
<g>
</g>
<g>
</g>
<g>
</g>
<g>
</g>
<g>
</g>
<g>
</g>
<g>
</g>
<g>
</g>
<g>
</g>
<g>
</g>
<g>
</g>
<g>
</g>
<g>
</g>
<g>
</g>
<g>
</g>
</svg>
