<?xml version="1.0" encoding="iso-8859-1"?>
<!-- Generator: Adobe Illustrator 16.0.0, SVG Export Plug-In . SVG Version: 6.00 Build 0)  -->
<!DOCTYPE svg PUBLIC "-//W3C//DTD SVG 1.1//EN" "http://www.w3.org/Graphics/SVG/1.1/DTD/svg11.dtd">
<svg version="1.1" id="Capa_1" xmlns="http://www.w3.org/2000/svg" xmlns:xlink="http://www.w3.org/1999/xlink" x="0px" y="0px"
	 width="485.328px" height="485.328px" viewBox="0 0 485.328 485.328" style="enable-background:new 0 0 485.328 485.328;"
	 xml:space="preserve">
<g>
	<g>
		<g>
			<path d="M215.564,459.844c4.005,15.027,17.609,25.484,33.156,25.484c15.551,0,29.156-10.457,33.156-25.484l18.414-69.125
				L159.745,250.156L215.564,459.844z"/>
			<path d="M329.318,166.156h-93.233l97.929,97.934l18.16-68.191c1.897-7.105,0.379-14.68-4.098-20.504
				C343.6,169.574,336.674,166.156,329.318,166.156z"/>
			<path d="M248.736,97.41c11.25-21.574,33.566-36.492,59.527-36.492c1.121,0,2.168,0.27,3.273,0.332
				C310.603,27.285,282.934,0,248.734,0c-34.198,0-61.862,27.285-62.797,61.25c1.105-0.063,2.148-0.332,3.273-0.332
				C215.171,60.918,237.491,75.836,248.736,97.41z"/>
			<path d="M236.89,146.59c2.185-5.695,3.513-11.816,3.513-18.27c0-28.285-22.938-51.203-51.188-51.203
				c-11.832,0-22.59,4.176-31.258,10.898l58.559,58.574L236.89,146.59L236.89,146.59z"/>
			<path d="M257.072,128.32c0,6.453,1.332,12.574,3.513,18.27h95.371c2.184-5.695,3.512-11.816,3.512-18.27
				c0-28.285-22.922-51.203-51.203-51.203C279.994,77.117,257.072,100.035,257.072,128.32z"/>
			<path d="M392.986,368.887l-266.288-266.32c-9.492-9.488-24.867-9.488-34.359,0c-9.488,9.492-9.488,24.867,0,34.359
				l266.289,266.32c4.746,4.746,10.965,7.117,17.18,7.117c6.221,0,12.437-2.371,17.182-7.117
				C402.479,393.754,402.479,378.379,392.986,368.887z"/>
		</g>
	</g>
</g>
<g>
</g>
<g>
</g>
<g>
</g>
<g>
</g>
<g>
</g>
<g>
</g>
<g>
</g>
<g>
</g>
<g>
</g>
<g>
</g>
<g>
</g>
<g>
</g>
<g>
</g>
<g>
</g>
<g>
</g>
</svg>
