<?xml version="1.0" encoding="iso-8859-1"?>
<!-- Generator: Adobe Illustrator 16.0.0, SVG Export Plug-In . SVG Version: 6.00 Build 0)  -->
<!DOCTYPE svg PUBLIC "-//W3C//DTD SVG 1.1//EN" "http://www.w3.org/Graphics/SVG/1.1/DTD/svg11.dtd">
<svg version="1.1" id="Capa_1" xmlns="http://www.w3.org/2000/svg" xmlns:xlink="http://www.w3.org/1999/xlink" x="0px" y="0px"
	 width="486.181px" height="486.181px" viewBox="0 0 486.181 486.181" style="enable-background:new 0 0 486.181 486.181;"
	 xml:space="preserve">
<g>
	<g>
		<g>
			<path d="M237.832,135.885c36.27,0,56.805,17.668,56.805,47.266c0,9.648-2.266,17.984-6.141,25.18l48.977,48.969
				c18.902-18.137,29.293-44.743,29.293-76.07c0-31.512-13.84-58.246-34.418-74.5c-21.453-17.18-53.469-25.773-98.344-25.773
				c-28.27,0-51.047,1.191-69.855,3.02l53.07,53.063C222.567,136.373,229.32,135.885,237.832,135.885z"/>
			<path d="M135.625,369.166c0,19.91,16.137,36.051,36.051,36.051c19.918,0,36.051-16.141,36.051-36.051v-79.051
				c0.73,0.102,1.695,0.141,2.453,0.234l-74.555-74.56V369.166z"/>
			<path d="M412.246,3.119H73.934C33.172,3.119,0,36.283,0,77.053v332.07c0,40.773,33.172,73.938,73.934,73.938h338.313
				c40.766,0,73.934-33.164,73.934-73.938V77.053C486.18,36.283,453.012,3.119,412.246,3.119z M437.586,437.6
				c-11.07,11.063-25.578,16.604-40.082,16.604c-14.508,0-29.012-5.539-40.086-16.609l-3.117-3.125H73.934
				c-13.969,0-25.34-11.366-25.34-25.344V128.748c-22.148-22.137-22.148-58.031,0-80.176c22.145-22.129,58.023-22.137,80.168,0.008
				l3.133,3.133h280.352c13.969,0,25.34,11.367,25.34,25.34V357.42C459.734,379.562,459.734,415.451,437.586,437.6z"/>
			<path d="M105.856,71.486c-9.492-9.492-24.867-9.492-34.355,0c-9.492,9.484-9.492,24.867,0,34.355l308.824,308.844
				c4.746,4.746,10.961,7.116,17.18,7.116c6.215,0,12.435-2.37,17.18-7.116c9.488-9.484,9.488-24.867,0-34.359L105.856,71.486z"/>
		</g>
	</g>
</g>
<g>
</g>
<g>
</g>
<g>
</g>
<g>
</g>
<g>
</g>
<g>
</g>
<g>
</g>
<g>
</g>
<g>
</g>
<g>
</g>
<g>
</g>
<g>
</g>
<g>
</g>
<g>
</g>
<g>
</g>
</svg>
