<?xml version="1.0" encoding="iso-8859-1"?>
<!-- Generator: Adobe Illustrator 16.0.0, SVG Export Plug-In . SVG Version: 6.00 Build 0)  -->
<!DOCTYPE svg PUBLIC "-//W3C//DTD SVG 1.1//EN" "http://www.w3.org/Graphics/SVG/1.1/DTD/svg11.dtd">
<svg version="1.1" id="Capa_1" xmlns="http://www.w3.org/2000/svg" xmlns:xlink="http://www.w3.org/1999/xlink" x="0px" y="0px"
	 width="485.945px" height="485.945px" viewBox="0 0 485.945 485.945" style="enable-background:new 0 0 485.945 485.945;"
	 xml:space="preserve">
<g>
	<g>
		<g>
			<path d="M319.914,234.393c-6.424,0-12.514,1.207-18.396,2.918l81.75,81.767c1.724-5.888,2.927-11.978,2.927-18.397
				C386.195,264.131,356.473,234.393,319.914,234.393z"/>
			<path d="M36.445,140.721C16.324,140.721,0,157.037,0,177.166v247.023c0,20.129,16.324,36.445,36.445,36.445h62.77V210.112
				c0-4.105,1.66-7.754,4.176-10.609L44.61,140.722L36.445,140.721L36.445,140.721z"/>
			<path d="M449.5,140.721h-15.691l-21.957-87.809c-4.047-16.223-18.633-27.602-35.355-27.602H255.234
				c-16.723,0-31.305,11.379-35.355,27.602l-20.547,82.203l60.82,60.828c17.637-10.104,38.012-15.977,59.762-15.977
				c66.566,0,120.711,54.156,120.711,120.711c0,21.75-5.867,42.125-15.977,59.77l35.055,35.063
				c15.074,15.064,19.633,36.444,14.19,55.586c7.355-6.668,12.052-16.195,12.052-26.906V177.166
				C485.945,157.037,469.621,140.721,449.5,140.721z M380.66,111.061c0,3.355-2.723,6.074-6.078,6.074h-115.41
				c-3.354,0-6.074-2.719-6.074-6.074V71.92c0-3.355,2.72-6.074,6.074-6.074h115.41c3.355,0,6.078,2.719,6.078,6.074V111.061z"/>
			<path d="M319.914,421.389c-66.564,0-120.712-54.151-120.712-120.711c0-1.715,0.191-3.384,0.254-5.086l-67.848-67.852v232.895
				h232.884l-39.5-39.496C323.301,421.202,321.625,421.389,319.914,421.389z"/>
			<path d="M101.429,83.022c-9.492-9.488-24.867-9.488-34.359,0c-9.488,9.484-9.488,24.867,0,34.359l335.372,335.395
				c4.746,4.742,10.961,7.117,17.18,7.117c6.215,0,12.43-2.375,17.176-7.117c9.492-9.482,9.492-24.867,0-34.357L101.429,83.022z"/>
		</g>
	</g>
</g>
<g>
</g>
<g>
</g>
<g>
</g>
<g>
</g>
<g>
</g>
<g>
</g>
<g>
</g>
<g>
</g>
<g>
</g>
<g>
</g>
<g>
</g>
<g>
</g>
<g>
</g>
<g>
</g>
<g>
</g>
</svg>
