<?xml version="1.0" encoding="iso-8859-1"?>
<!-- Generator: Adobe Illustrator 16.0.0, SVG Export Plug-In . SVG Version: 6.00 Build 0)  -->
<!DOCTYPE svg PUBLIC "-//W3C//DTD SVG 1.1//EN" "http://www.w3.org/Graphics/SVG/1.1/DTD/svg11.dtd">
<svg version="1.1" id="Capa_1" xmlns="http://www.w3.org/2000/svg" xmlns:xlink="http://www.w3.org/1999/xlink" x="0px" y="0px"
	 width="485.945px" height="485.945px" viewBox="0 0 485.945 485.945" style="enable-background:new 0 0 485.945 485.945;"
	 xml:space="preserve">
<g>
	<g>
		<g>
			<polygon points="406.316,337.203 406.316,235.203 304.32,235.203 			"/>
			<path d="M29.52,235.203C13.243,235.203,0,248.445,0,264.716v52.93c0,16.271,13.242,29.509,29.52,29.509h226.394l-111.949-111.95
				L29.52,235.203L29.52,235.203z M122.153,314.759H32.399v-47.156h89.754V314.759z"/>
			<path d="M472.631,234.922h-45.399v112.376h45.399c7.354,0,13.314-5.966,13.314-13.312V248.23
				C485.945,240.883,479.984,234.922,472.631,234.922z"/>
			<path d="M448.156,209.446c8.938,0,16.199-7.254,16.199-16.199c0-35.727-29.06-64.793-64.794-64.793H267.971
				c-20.853,0-37.81-16.957-37.81-37.797c0-8.945-7.242-16.199-16.196-16.199c-8.957,0-16.199,7.254-16.199,16.199
				c0,38.707,31.477,70.195,70.205,70.195h131.595c17.858,0,32.395,14.527,32.395,32.395
				C431.959,202.192,439.221,209.446,448.156,209.446z"/>
			<path d="M127.009,103.707c-9.493-9.492-24.867-9.492-34.355,0c-9.492,9.48-9.492,24.863,0,34.355l266.29,266.304
				c4.741,4.746,10.961,7.121,17.176,7.121c6.219,0,12.434-2.375,17.18-7.121c9.492-9.479,9.492-24.866,0-34.354L127.009,103.707z"
				/>
		</g>
	</g>
</g>
<g>
</g>
<g>
</g>
<g>
</g>
<g>
</g>
<g>
</g>
<g>
</g>
<g>
</g>
<g>
</g>
<g>
</g>
<g>
</g>
<g>
</g>
<g>
</g>
<g>
</g>
<g>
</g>
<g>
</g>
</svg>
