<?xml version="1.0" encoding="iso-8859-1"?>
<!-- Generator: Adobe Illustrator 16.0.0, SVG Export Plug-In . SVG Version: 6.00 Build 0)  -->
<!DOCTYPE svg PUBLIC "-//W3C//DTD SVG 1.1//EN" "http://www.w3.org/Graphics/SVG/1.1/DTD/svg11.dtd">
<svg version="1.1" id="Capa_1" xmlns="http://www.w3.org/2000/svg" xmlns:xlink="http://www.w3.org/1999/xlink" x="0px" y="0px"
	 width="492.213px" height="492.213px" viewBox="0 0 492.213 492.213" style="enable-background:new 0 0 492.213 492.213;"
	 xml:space="preserve">
<g>
	<g>
		<g>
			<path d="M252.947,157.884c-10.83,2.436-20.122,7.827-27.688,14.885h82.306C293.457,159.537,273.24,153.294,252.947,157.884z"/>
			<path d="M491.367,256.891L452.263,83.716c-4.139-18.289-22.778-30.167-41.162-26.004l-344.02,77.683
				c-8.967,2.029-16.612,7.419-21.528,15.199c-4.163,6.591-5.791,14.493-4.931,22.177h72.91c1.652-4.919,2.705-10.084,3.019-15.393
				l259.36-58.523c10.6,19.298,31.188,31.264,53.494,30.42l21.742,96.3c-4.925,2.115-9.408,4.9-13.447,8.14v70.585l27.674-6.254
				C483.877,293.865,495.537,275.404,491.367,256.891z"/>
			<path d="M387.105,188.939H34.425C15.44,188.939,0,204.375,0,223.359v177.549c0,18.983,15.44,34.425,34.425,34.425h352.684
				c18.983,0,34.424-15.44,34.424-34.425V223.359C421.531,204.375,406.092,188.939,387.105,188.939z M389.201,361.491
				c-21.959,4.088-39.42,20.328-45.517,41.504H77.844c-6.088-21.186-23.548-37.424-45.516-41.504v-98.721
				c21.959-4.091,39.428-20.315,45.516-41.507h265.851c6.088,21.184,23.549,37.409,45.508,41.507L389.201,361.491L389.201,361.491z"
				/>
			<path d="M210.771,251.809c-33.316,0-60.33,27.002-60.33,60.318c0,33.322,27.014,60.325,60.33,60.325
				c33.312,0,60.325-27.002,60.325-60.325C271.096,278.811,244.083,251.809,210.771,251.809z"/>
		</g>
	</g>
</g>
<g>
</g>
<g>
</g>
<g>
</g>
<g>
</g>
<g>
</g>
<g>
</g>
<g>
</g>
<g>
</g>
<g>
</g>
<g>
</g>
<g>
</g>
<g>
</g>
<g>
</g>
<g>
</g>
<g>
</g>
</svg>
