<?xml version="1.0" encoding="iso-8859-1"?>
<!-- Generator: Adobe Illustrator 16.0.0, SVG Export Plug-In . SVG Version: 6.00 Build 0)  -->
<!DOCTYPE svg PUBLIC "-//W3C//DTD SVG 1.1//EN" "http://www.w3.org/Graphics/SVG/1.1/DTD/svg11.dtd">
<svg version="1.1" id="Capa_1" xmlns="http://www.w3.org/2000/svg" xmlns:xlink="http://www.w3.org/1999/xlink" x="0px" y="0px"
	 width="482.574px" height="482.574px" viewBox="0 0 482.574 482.574" style="enable-background:new 0 0 482.574 482.574;"
	 xml:space="preserve">
<g>
	<g>
		<path d="M297.57,116.109c0,0-0.031-74.348,0-99.91C297.586,7.008,271.23,0,241.285,0c-29.926,0-56.266,7.008-56.266,16.199
			c0,25.563,0,99.91,0,99.91c-81.512,24.297-141.148,99.844-141.148,189.125c0,73.305,40.32,140.15,105.211,174.512
			c3.512,1.863,7.402,2.828,11.371,2.828h161.668c3.969,0,7.859-0.965,11.371-2.828c64.891-34.359,105.211-101.207,105.211-174.512
			C438.703,215.953,379.066,140.406,297.57,116.109z M260.539,38.203c7.527,0,13.602,8.684,13.602,19.375
			c0,10.695-6.073,19.379-13.602,19.379c-7.5,0-13.59-8.684-13.59-19.379C246.949,46.887,253.039,38.203,260.539,38.203z
			 M274.84,247.371v55.996c0,28.68-12.293,56.062-33.742,75.104l-30.469,27.081c-4.84,4.337-11.117,6.707-17.652,6.707l-1.598-0.03
			c-6.945-0.409-13.637-3.638-18.285-8.892l-9.348-10.52c-9.746-10.962-8.75-27.793,2.195-37.535l30.484-27.082
			c7.086-6.297,11.152-15.345,11.152-24.836V247.37H104.172c20.438-48.246,65.68-83.43,119.605-89.789v145.786
			c0,14.108-6.043,27.555-16.594,36.938l-30.468,27.082c-4.285,3.813-4.68,10.393-0.871,14.681l9.352,10.521
			c1.836,2.056,4.414,3.32,7.164,3.479c2.754,0.158,5.457-0.789,7.516-2.625l30.465-27.082
			c17.988-15.979,28.301-38.945,28.301-62.988v-145.82c54.004,6.313,99.293,41.523,119.762,89.82H274.84z"/>
	</g>
</g>
<g>
</g>
<g>
</g>
<g>
</g>
<g>
</g>
<g>
</g>
<g>
</g>
<g>
</g>
<g>
</g>
<g>
</g>
<g>
</g>
<g>
</g>
<g>
</g>
<g>
</g>
<g>
</g>
<g>
</g>
</svg>
