<?xml version="1.0" encoding="iso-8859-1"?>
<!-- Generator: Adobe Illustrator 16.0.0, SVG Export Plug-In . SVG Version: 6.00 Build 0)  -->
<!DOCTYPE svg PUBLIC "-//W3C//DTD SVG 1.1//EN" "http://www.w3.org/Graphics/SVG/1.1/DTD/svg11.dtd">
<svg version="1.1" id="Capa_1" xmlns="http://www.w3.org/2000/svg" xmlns:xlink="http://www.w3.org/1999/xlink" x="0px" y="0px"
	 width="493.034px" height="493.034px" viewBox="0 0 493.034 493.034" style="enable-background:new 0 0 493.034 493.034;"
	 xml:space="preserve">
<g>
	<g>
		<g>
			<g>
				<path d="M486.032,311.941l-37.146-25.523c-3.634-63.322-52.326-117.376-121.374-142.661
					c-5.941,43.366-43.229,76.88-88.205,76.88c-44.957,0-82.262-33.515-88.188-76.88c-3.718,1.37-7.383,2.819-10.987,4.34
					l-62.548-15.753c-3.985-1.009-8.217-0.152-11.48,2.315c-3.286,2.474-5.271,6.31-5.397,10.41l-2.018,64.724
					c-6.506,8.688-12.08,17.883-16.499,27.5h-28C6.359,237.294,0,262.689,0,294.043c0,31.354,6.359,56.739,14.191,56.739H42.19
					c6.052,13.143,14.192,25.5,24.039,36.839v72.933c0,9.674,7.832,17.539,17.492,17.539h67.173c9.66,0,17.508-7.865,17.508-17.539
					v-10.636c22.166,6.271,46.047,9.697,70.922,9.697c24.889,0,48.74-3.428,70.906-9.697v14.568c0,7.502,6.057,13.605,13.567,13.605
					h71.097c9.678,0,17.51-7.865,17.51-17.539v-72.932c16.447-18.916,28.044-40.649,33.375-64.106l21.928,15.071
					c2.803,1.931,6.007,2.843,9.146,2.843c5.143,0,10.201-2.45,13.343-6.998C495.24,327.069,493.383,317.002,486.032,311.941z"/>
			</g>
			<g>
				<path d="M239.309,199.095c37.271,0,67.479-30.208,67.479-67.472c0-37.262-30.207-67.47-67.479-67.47
					s-67.463,30.208-67.463,67.47C171.846,168.886,202.037,199.095,239.309,199.095z"/>
			</g>
			<g>
				<path d="M356.391,76.646l41.838,10.971l10.988,41.836c0.367,1.465,1.681,2.474,3.188,2.474c1.521,0,2.832-1.017,3.217-2.474
					l10.955-41.836l41.871-10.971c1.438-0.384,2.445-1.698,2.445-3.203c0-1.514-1.008-2.835-2.445-3.22L426.577,59.26
					l-10.955-41.844c-0.385-1.45-1.695-2.475-3.217-2.475c-1.509,0-2.82,1.024-3.188,2.475L398.229,59.26l-41.838,10.963
					c-1.457,0.384-2.479,1.706-2.479,3.22C353.909,74.948,354.934,76.262,356.391,76.646z"/>
			</g>
		</g>
	</g>
</g>
<g>
</g>
<g>
</g>
<g>
</g>
<g>
</g>
<g>
</g>
<g>
</g>
<g>
</g>
<g>
</g>
<g>
</g>
<g>
</g>
<g>
</g>
<g>
</g>
<g>
</g>
<g>
</g>
<g>
</g>
</svg>
