<?xml version="1.0" encoding="iso-8859-1"?>
<!-- Generator: Adobe Illustrator 16.0.0, SVG Export Plug-In . SVG Version: 6.00 Build 0)  -->
<!DOCTYPE svg PUBLIC "-//W3C//DTD SVG 1.1//EN" "http://www.w3.org/Graphics/SVG/1.1/DTD/svg11.dtd">
<svg version="1.1" id="Capa_1" xmlns="http://www.w3.org/2000/svg" xmlns:xlink="http://www.w3.org/1999/xlink" x="0px" y="0px"
	 width="482.339px" height="482.339px" viewBox="0 0 482.339 482.339" style="enable-background:new 0 0 482.339 482.339;"
	 xml:space="preserve">
<g>
	<g>
		<g>
			<path d="M472.315,424.001L367.99,319.691c-7.495,10.312-15.836,19.474-22.352,25.987c-6.5,6.521-15.66,14.84-25.974,22.336
				l104.318,104.311c13.337,13.352,34.979,13.352,48.312,0c6.421-6.406,10.013-15.09,10.013-24.172
				C482.312,439.107,478.721,430.407,472.315,424.001z"/>
			<path d="M352.74,270.29l-63.982-39.766c13.05-22.953,20.12-48.945,20.12-76.059c0.017-41.27-16.056-80.055-45.227-109.227
				C234.483,16.054,195.694,0,154.44,0c-41.27,0-80.059,16.055-109.242,45.238c-60.223,60.223-60.223,158.203,0,218.438
				c29.185,29.172,67.956,45.228,109.211,45.228c27.129,0,53.133-7.069,76.103-20.138l39.753,64c1.025,1.031,2.53,1.521,4.413,1.521
				c9.539,0,29.043-12.496,48.056-31.509C345.546,299.997,358.96,276.493,352.74,270.29z M79.558,229.321
				c-41.272-41.289-41.272-108.453,0-149.707c20.009-20.012,46.603-31.021,74.884-31.021c28.271,0,54.859,11.008,74.855,31.004
				c19.99,19.992,30.987,46.586,30.987,74.853c0,28.27-11.012,54.859-31.004,74.854c-19.996,19.992-46.586,31.003-74.871,31.003
				C126.141,260.311,99.551,249.298,79.558,229.321z"/>
		</g>
	</g>
</g>
<g>
</g>
<g>
</g>
<g>
</g>
<g>
</g>
<g>
</g>
<g>
</g>
<g>
</g>
<g>
</g>
<g>
</g>
<g>
</g>
<g>
</g>
<g>
</g>
<g>
</g>
<g>
</g>
<g>
</g>
</svg>
