<?xml version="1.0" encoding="iso-8859-1"?>
<!-- Generator: Adobe Illustrator 16.0.0, SVG Export Plug-In . SVG Version: 6.00 Build 0)  -->
<!DOCTYPE svg PUBLIC "-//W3C//DTD SVG 1.1//EN" "http://www.w3.org/Graphics/SVG/1.1/DTD/svg11.dtd">
<svg version="1.1" id="Capa_1" xmlns="http://www.w3.org/2000/svg" xmlns:xlink="http://www.w3.org/1999/xlink" x="0px" y="0px"
	 width="485.945px" height="485.945px" viewBox="0 0 485.945 485.945" style="enable-background:new 0 0 485.945 485.945;"
	 xml:space="preserve">
<g>
	<g>
		<g>
			<path d="M456.922,0H181.566c-16.039,0-29.027,13.004-29.027,29.027v48.738c33.648,15.422,57.121,49.32,57.121,88.691v14.648
				c26.102,2.043,46.809,23.699,46.809,50.336v195.124h200.453c16.023,0,29.023-13.005,29.023-29.027V29.028
				C485.945,13.004,472.945,0,456.922,0z M392.57,133.192c0,40.434-32.888,73.32-73.32,73.32c-40.43,0-73.332-32.887-73.332-73.32
				v-61.66c0-8.953,7.258-16.199,16.195-16.199c8.953,0,16.199,7.246,16.199,16.199v61.66c0,22.559,18.383,40.922,40.938,40.922
				c22.559,0,40.922-18.363,40.922-40.922v-61.66c0-8.953,7.262-16.199,16.199-16.199c8.936,0,16.197,7.246,16.197,16.199
				L392.57,133.192L392.57,133.192z"/>
			<path d="M205.738,213.11h-20.375v-32.397v-14.254c0-40.414-32.902-73.316-73.335-73.316c-40.43,0-73.316,32.902-73.316,73.316
				v14.254v32.397H18.336C8.211,213.11,0,221.317,0,231.442v236.171c0,10.121,8.211,18.332,18.336,18.332h187.402
				c10.121,0,18.332-8.211,18.332-18.332V231.442C224.07,221.317,215.859,213.11,205.738,213.11z M152.964,180.711v32.397H71.105
				v-32.397v-14.254c0-22.57,18.367-40.922,40.922-40.922c22.574,0,40.937,18.352,40.937,40.922V180.711z"/>
		</g>
	</g>
</g>
<g>
</g>
<g>
</g>
<g>
</g>
<g>
</g>
<g>
</g>
<g>
</g>
<g>
</g>
<g>
</g>
<g>
</g>
<g>
</g>
<g>
</g>
<g>
</g>
<g>
</g>
<g>
</g>
<g>
</g>
</svg>
