<?xml version="1.0" encoding="iso-8859-1"?>
<!-- Generator: Adobe Illustrator 16.0.0, SVG Export Plug-In . SVG Version: 6.00 Build 0)  -->
<!DOCTYPE svg PUBLIC "-//W3C//DTD SVG 1.1//EN" "http://www.w3.org/Graphics/SVG/1.1/DTD/svg11.dtd">
<svg version="1.1" id="Capa_1" xmlns="http://www.w3.org/2000/svg" xmlns:xlink="http://www.w3.org/1999/xlink" x="0px" y="0px"
	 width="491.359px" height="491.359px" viewBox="0 0 491.359 491.359" style="enable-background:new 0 0 491.359 491.359;"
	 xml:space="preserve">
<g>
	<g>
		<g>
			<path d="M204.786,96.797c8.945,0,16.199-7.262,16.199-16.199c0-13.617,11.074-24.691,24.688-24.691
				c13.617,0,24.699,11.074,24.699,24.691c0,13.621-11.082,24.695-24.699,24.695c-8.949,0-16.199,7.242-16.199,16.195v19.586
				c-10.008,2.023-19.695,5.727-28.301,11.516l-7.934,5.348c1.852,11.355,7.184,21.352,14.895,29.027l11.137-7.5
				c15.66-10.551,37.157-10.551,52.817,0l11.12,7.48c7.712-7.656,13.043-17.652,14.896-29.008l-7.918-5.348
				c-8.612-5.789-18.301-9.508-28.315-11.516v-5.727c23.617-6.992,40.897-28.887,40.897-54.75c0-31.492-25.608-57.086-57.094-57.086
				c-31.473,0-57.082,25.594-57.082,57.086C188.591,89.536,195.841,96.797,204.786,96.797z"/>
			<path d="M480.299,192.61l-82.146-39.164c-5.732-2.723-12.017-4.145-18.371-4.145h-38.24c-5.488,0-10.078,4.109-10.688,9.551
				c-4.763,42.84-41.077,76.152-85.171,76.152c-44.113,0-80.43-33.313-85.191-76.152c-0.609-5.441-5.207-9.551-10.688-9.551h-38.222
				c-6.359,0-12.641,1.422-18.375,4.145L11.059,192.61C4.305,195.837,0,202.657,0,210.137v98.805c0,6.642,3.41,12.845,9.031,16.402
				c3.156,1.992,6.762,3.004,10.387,3.004c2.832,0,5.672-0.617,8.313-1.863l61.328-29.062c1.227-0.566,2.539-0.853,3.852-0.853
				c1.684,0,3.355,0.474,4.816,1.392c2.609,1.645,4.191,4.521,4.191,7.608v142.854c0,10.727,8.691,19.426,19.418,19.426H370.02
				c10.729,0,19.418-8.699,19.418-19.426V305.301c0-3.102,1.582-5.98,4.199-7.625c1.465-0.918,3.133-1.391,4.81-1.391
				c1.319,0,2.643,0.284,3.875,0.887l61.26,29.199c2.646,1.266,5.504,1.896,8.352,1.896c3.617,0,7.216-1.012,10.371-3.004
				c5.638-3.543,9.056-9.746,9.056-16.422v-98.707C491.357,202.657,487.057,195.836,480.299,192.61z"/>
		</g>
	</g>
</g>
<g>
</g>
<g>
</g>
<g>
</g>
<g>
</g>
<g>
</g>
<g>
</g>
<g>
</g>
<g>
</g>
<g>
</g>
<g>
</g>
<g>
</g>
<g>
</g>
<g>
</g>
<g>
</g>
<g>
</g>
</svg>
