<?xml version="1.0" encoding="iso-8859-1"?>
<!-- Generator: Adobe Illustrator 16.0.0, SVG Export Plug-In . SVG Version: 6.00 Build 0)  -->
<!DOCTYPE svg PUBLIC "-//W3C//DTD SVG 1.1//EN" "http://www.w3.org/Graphics/SVG/1.1/DTD/svg11.dtd">
<svg version="1.1" id="Capa_1" xmlns="http://www.w3.org/2000/svg" xmlns:xlink="http://www.w3.org/1999/xlink" x="0px" y="0px"
	 width="485.342px" height="485.343px" viewBox="0 0 485.342 485.343" style="enable-background:new 0 0 485.342 485.343;"
	 xml:space="preserve">
<g>
	<g>
		<g>
			<path d="M323.273,166.173H162.086c-7.34,0-14.27,3.418-18.746,9.238c-4.477,5.84-5.996,13.397-4.098,20.504l70.266,263.945
				c4.02,15.025,17.621,25.482,33.156,25.482c15.566,0,29.168-10.457,33.172-25.482l70.28-263.945
				c1.897-7.105,0.378-14.664-4.099-20.504C337.543,169.591,330.613,166.173,323.273,166.173z"/>
			<path d="M242.679,97.411c11.247-21.563,33.566-36.477,59.524-36.477c1.125,0,2.168,0.285,3.275,0.332
				C304.546,27.301,276.864,0,242.679,0c-34.184,0-61.867,27.302-62.817,61.267c1.11-0.047,2.153-0.332,3.293-0.332
				C209.112,60.935,231.433,75.849,242.679,97.411z"/>
			<path d="M234.343,128.337c0-28.285-22.938-51.203-51.188-51.203c-28.285,0-51.223,22.918-51.223,51.203
				c0,6.469,1.328,12.574,3.511,18.27h95.387C233.015,140.911,234.343,134.806,234.343,128.337z"/>
			<path d="M302.204,77.134c-28.267,0-51.188,22.918-51.188,51.203c0,6.469,1.329,12.574,3.513,18.27h95.37
				c2.186-5.695,3.513-11.801,3.513-18.27C353.411,100.052,330.489,77.134,302.204,77.134z"/>
		</g>
	</g>
</g>
<g>
</g>
<g>
</g>
<g>
</g>
<g>
</g>
<g>
</g>
<g>
</g>
<g>
</g>
<g>
</g>
<g>
</g>
<g>
</g>
<g>
</g>
<g>
</g>
<g>
</g>
<g>
</g>
<g>
</g>
</svg>
